solid OpenSCAD_Model
  facet normal 0 0.83205 0.5547
    outer loop
      vertex 20 40 0.599999
      vertex 1 39 2.1
      vertex 19 39 2.1
    endloop
  endfacet
  facet normal 0 0.83205 0.5547
    outer loop
      vertex 1 39 2.1
      vertex 20 40 0.599999
      vertex 0 40 0.599999
    endloop
  endfacet
  facet normal 1 -0 0
    outer loop
      vertex 20 0 0.599999
      vertex 20 14 0.0999994
      vertex 20 14.25 0.599999
    endloop
  endfacet
  facet normal 1 0 0
    outer loop
      vertex 20 0 0
      vertex 20 14 0.0999994
      vertex 20 0 0.599999
    endloop
  endfacet
  facet normal 1 0 0
    outer loop
      vertex 20 14 0.0999994
      vertex 20 0 0
      vertex 20 14 0
    endloop
  endfacet
  facet normal 1 0 0
    outer loop
      vertex 20 40 0.599999
      vertex 20 26 0.0999994
      vertex 20 40 0
    endloop
  endfacet
  facet normal 1 0 -0
    outer loop
      vertex 20 26 0.0999994
      vertex 20 40 0.599999
      vertex 20 25.75 0.599999
    endloop
  endfacet
  facet normal 1 0 0
    outer loop
      vertex 20 40 0
      vertex 20 26 0.0999994
      vertex 20 26 0
    endloop
  endfacet
  facet normal 0 0 1
    outer loop
      vertex 104 25 2.1
      vertex 105 39 2.1
      vertex 104 39 2.1
    endloop
  endfacet
  facet normal -0 0 1
    outer loop
      vertex 105 20 2.1
      vertex 109 15 2.1
      vertex 109 20 2.1
    endloop
  endfacet
  facet normal 0 0 1
    outer loop
      vertex 105 39 2.1
      vertex 104 25 2.1
      vertex 105 20 2.1
    endloop
  endfacet
  facet normal 0 0 1
    outer loop
      vertex 105 20 2.1
      vertex 104 15 2.1
      vertex 109 15 2.1
    endloop
  endfacet
  facet normal -0 0 1
    outer loop
      vertex 86 25 2.1
      vertex 105 20 2.1
      vertex 104 25 2.1
    endloop
  endfacet
  facet normal 0 0 1
    outer loop
      vertex 86 15 2.1
      vertex 105 20 2.1
      vertex 86 25 2.1
    endloop
  endfacet
  facet normal 0 0 1
    outer loop
      vertex 105 20 2.1
      vertex 86 15 2.1
      vertex 104 15 2.1
    endloop
  endfacet
  facet normal 0 0 1
    outer loop
      vertex 86 25 2.1
      vertex 74 24 2.1
      vertex 86 15 2.1
    endloop
  endfacet
  facet normal 0 0 1
    outer loop
      vertex 86 25 2.1
      vertex 70 24 2.1
      vertex 74 24 2.1
    endloop
  endfacet
  facet normal 0 0 1
    outer loop
      vertex 70 24 2.1
      vertex 34 21 2.1
      vertex 70 15 2.1
    endloop
  endfacet
  facet normal 0 0 1
    outer loop
      vertex 19 25 2.1
      vertex 34 21 2.1
      vertex 70 24 2.1
    endloop
  endfacet
  facet normal -0 0 1
    outer loop
      vertex 19 25 2.1
      vertex 70 24 2.1
      vertex 86 25 2.1
    endloop
  endfacet
  facet normal 0 0 1
    outer loop
      vertex 34 21 2.1
      vertex 19 25 2.1
      vertex 30 21 2.1
    endloop
  endfacet
  facet normal 0 0 1
    outer loop
      vertex 19 15 2.1
      vertex 30 21 2.1
      vertex 19 25 2.1
    endloop
  endfacet
  facet normal 0 0 1
    outer loop
      vertex 30 21 2.1
      vertex 19 15 2.1
      vertex 30 15 2.1
    endloop
  endfacet
  facet normal 0 0 1
    outer loop
      vertex 19 25 2.1
      vertex 5 21 2.1
      vertex 19 15 2.1
    endloop
  endfacet
  facet normal -0 0 1
    outer loop
      vertex 1 25 2.1
      vertex 5 21 2.1
      vertex 19 25 2.1
    endloop
  endfacet
  facet normal 0 0 1
    outer loop
      vertex 5 21 2.1
      vertex 1 25 2.1
      vertex 1 21 2.1
    endloop
  endfacet
  facet normal 0 0 1
    outer loop
      vertex 86 15 2.1
      vertex 74 24 2.1
      vertex 74 15 2.1
    endloop
  endfacet
  facet normal 0 0 1
    outer loop
      vertex 70 15 2.1
      vertex 34 21 2.1
      vertex 34 15 2.1
    endloop
  endfacet
  facet normal 0 0 1
    outer loop
      vertex 19 15 2.1
      vertex 5 21 2.1
      vertex 5 15 2.1
    endloop
  endfacet
  facet normal 0.83205 0 0.5547
    outer loop
      vertex 19 39 2.1
      vertex 20 25.75 0.599999
      vertex 20 40 0.599999
    endloop
  endfacet
  facet normal 0.83205 0 0.5547
    outer loop
      vertex 20 25.75 0.599999
      vertex 19 39 2.1
      vertex 19 25 2.1
    endloop
  endfacet
  facet normal 0.83205 -0 0.5547
    outer loop
      vertex 19 1 2.1
      vertex 20 14.25 0.599999
      vertex 19 15 2.1
    endloop
  endfacet
  facet normal 0.83205 0 0.5547
    outer loop
      vertex 20 14.25 0.599999
      vertex 19 1 2.1
      vertex 20 0 0.599999
    endloop
  endfacet
  facet normal -0.83205 0 0.5547
    outer loop
      vertex 0 40 0.599999
      vertex 1 25 2.1
      vertex 1 39 2.1
    endloop
  endfacet
  facet normal -0.83205 0 0.5547
    outer loop
      vertex 0 40 0.599999
      vertex 1 21 2.1
      vertex 1 25 2.1
    endloop
  endfacet
  facet normal -0.83205 0 0.5547
    outer loop
      vertex 0 0 0.599999
      vertex 1 21 2.1
      vertex 0 40 0.599999
    endloop
  endfacet
  facet normal -0.83205 0 0.5547
    outer loop
      vertex 1 21 2.1
      vertex 0 0 0.599999
      vertex 1 15 2.1
    endloop
  endfacet
  facet normal -0.83205 0 0.5547
    outer loop
      vertex 1 15 2.1
      vertex 0 0 0.599999
      vertex 1 1 2.1
    endloop
  endfacet
  facet normal -0 0 1
    outer loop
      vertex 2 14 0.5
      vertex 18 2 0.5
      vertex 18 14 0.5
    endloop
  endfacet
  facet normal 0 0 1
    outer loop
      vertex 18 2 0.5
      vertex 2 14 0.5
      vertex 2 2 0.5
    endloop
  endfacet
  facet normal -0 0 1
    outer loop
      vertex 2 38 0.5
      vertex 18 26 0.5
      vertex 18 38 0.5
    endloop
  endfacet
  facet normal 0 0 1
    outer loop
      vertex 18 26 0.5
      vertex 2 38 0.5
      vertex 2 26 0.5
    endloop
  endfacet
  facet normal 0 -1 0
    outer loop
      vertex 0 0 0
      vertex 20 0 0.599999
      vertex 0 0 0.599999
    endloop
  endfacet
  facet normal 0 -1 -0
    outer loop
      vertex 20 0 0.599999
      vertex 0 0 0
      vertex 20 0 0
    endloop
  endfacet
  facet normal 0 1 -0
    outer loop
      vertex 20 40 0
      vertex 0 40 0.599999
      vertex 20 40 0.599999
    endloop
  endfacet
  facet normal 0 1 0
    outer loop
      vertex 0 40 0.599999
      vertex 20 40 0
      vertex 0 40 0
    endloop
  endfacet
  facet normal -1 0 0
    outer loop
      vertex 0 0 0
      vertex 0 40 0.599999
      vertex 0 40 0
    endloop
  endfacet
  facet normal -1 -0 0
    outer loop
      vertex 0 40 0.599999
      vertex 0 0 0
      vertex 0 0 0.599999
    endloop
  endfacet
  facet normal 0 -0.83205 0.5547
    outer loop
      vertex 0 0 0.599999
      vertex 19 1 2.1
      vertex 1 1 2.1
    endloop
  endfacet
  facet normal 0 -0.83205 0.5547
    outer loop
      vertex 19 1 2.1
      vertex 0 0 0.599999
      vertex 20 0 0.599999
    endloop
  endfacet
  facet normal 0 -1 0
    outer loop
      vertex 1 15 2
      vertex 5 15 2.1
      vertex 1 15 2.1
    endloop
  endfacet
  facet normal 0 -1 -0
    outer loop
      vertex 5 15 2.1
      vertex 1 15 2
      vertex 5 15 2
    endloop
  endfacet
  facet normal 0 -1 0
    outer loop
      vertex 18.95 15 2
      vertex 5 15 2.1
      vertex 5 15 2
    endloop
  endfacet
  facet normal 0 -1 0
    outer loop
      vertex 5 15 2.1
      vertex 18.95 15 2
      vertex 19 15 2.1
    endloop
  endfacet
  facet normal -0.83205 1.5396e-14 0.5547
    outer loop
      vertex 18 14 0.5
      vertex 19 14.95 2
      vertex 18.8 14.8 1.7
    endloop
  endfacet
  facet normal -0.83205 0 0.5547
    outer loop
      vertex 18 2 0.5
      vertex 19 14.95 2
      vertex 18 14 0.5
    endloop
  endfacet
  facet normal -0.83205 0 0.5547
    outer loop
      vertex 19 14.95 2
      vertex 18 2 0.5
      vertex 19 1 2
    endloop
  endfacet
  facet normal 1 -0 0
    outer loop
      vertex 1 1 2.1
      vertex 1 15 2
      vertex 1 15 2.1
    endloop
  endfacet
  facet normal 1 0 0
    outer loop
      vertex 1 15 2
      vertex 1 1 2.1
      vertex 1 1 2
    endloop
  endfacet
  facet normal 0 0.83205 0.5547
    outer loop
      vertex 18 2 0.5
      vertex 1 1 2
      vertex 19 1 2
    endloop
  endfacet
  facet normal 0 0.83205 0.5547
    outer loop
      vertex 1 1 2
      vertex 18 2 0.5
      vertex 2 2 0.5
    endloop
  endfacet
  facet normal 0 -0.83205 0.5547
    outer loop
      vertex 2 14 0.5
      vertex 5 15 2
      vertex 1 15 2
    endloop
  endfacet
  facet normal 0 -0.83205 0.5547
    outer loop
      vertex 18 14 0.5
      vertex 5 15 2
      vertex 2 14 0.5
    endloop
  endfacet
  facet normal 0 -0.83205 0.5547
    outer loop
      vertex 5 15 2
      vertex 18 14 0.5
      vertex 18.95 15 2
    endloop
  endfacet
  facet normal 1.5396e-14 -0.83205 0.5547
    outer loop
      vertex 18.95 15 2
      vertex 18 14 0.5
      vertex 18.8 14.8 1.7
    endloop
  endfacet
  facet normal 0.83205 0 0.5547
    outer loop
      vertex 1 15 2
      vertex 2 2 0.5
      vertex 2 14 0.5
    endloop
  endfacet
  facet normal 0.83205 0 0.5547
    outer loop
      vertex 2 2 0.5
      vertex 1 15 2
      vertex 1 1 2
    endloop
  endfacet
  facet normal 0 1 -0
    outer loop
      vertex 19 1 2
      vertex 1 1 2.1
      vertex 19 1 2.1
    endloop
  endfacet
  facet normal 0 1 0
    outer loop
      vertex 1 1 2.1
      vertex 19 1 2
      vertex 1 1 2
    endloop
  endfacet
  facet normal -1 0 0
    outer loop
      vertex 19 1 2.1
      vertex 19 14.95 2
      vertex 19 1 2
    endloop
  endfacet
  facet normal -1 0 0
    outer loop
      vertex 19 14.95 2
      vertex 19 1 2.1
      vertex 19 15 2.1
    endloop
  endfacet
  facet normal 0 -1 0
    outer loop
      vertex 1 39 2
      vertex 19 39 2.1
      vertex 1 39 2.1
    endloop
  endfacet
  facet normal 0 -1 -0
    outer loop
      vertex 19 39 2.1
      vertex 1 39 2
      vertex 19 39 2
    endloop
  endfacet
  facet normal -0.83205 0 0.5547
    outer loop
      vertex 18.8 25.2 1.7
      vertex 18 38 0.5
      vertex 18 26 0.5
    endloop
  endfacet
  facet normal -0.83205 -2.52394e-16 0.5547
    outer loop
      vertex 19 25.05 2
      vertex 18 38 0.5
      vertex 18.8 25.2 1.7
    endloop
  endfacet
  facet normal -0.83205 0 0.5547
    outer loop
      vertex 18 38 0.5
      vertex 19 25.05 2
      vertex 19 39 2
    endloop
  endfacet
  facet normal -1 0 0
    outer loop
      vertex 19 25.05 2
      vertex 19 39 2.1
      vertex 19 39 2
    endloop
  endfacet
  facet normal -1 -0 0
    outer loop
      vertex 19 39 2.1
      vertex 19 25.05 2
      vertex 19 25 2.1
    endloop
  endfacet
  facet normal 1 -0 0
    outer loop
      vertex 1 25 2.1
      vertex 1 39 2
      vertex 1 39 2.1
    endloop
  endfacet
  facet normal 1 0 0
    outer loop
      vertex 1 39 2
      vertex 1 25 2.1
      vertex 1 25 2
    endloop
  endfacet
  facet normal 1.5396e-14 0.83205 0.5547
    outer loop
      vertex 18 26 0.5
      vertex 18.95 25 2
      vertex 18.8 25.2 1.7
    endloop
  endfacet
  facet normal 0 0.83205 0.5547
    outer loop
      vertex 18.95 25 2
      vertex 18 26 0.5
      vertex 2 26 0.5
    endloop
  endfacet
  facet normal 0 0.83205 0.5547
    outer loop
      vertex 18.95 25 2
      vertex 2 26 0.5
      vertex 1 25 2
    endloop
  endfacet
  facet normal 0 -0.83205 0.5547
    outer loop
      vertex 2 38 0.5
      vertex 19 39 2
      vertex 1 39 2
    endloop
  endfacet
  facet normal 0 -0.83205 0.5547
    outer loop
      vertex 19 39 2
      vertex 2 38 0.5
      vertex 18 38 0.5
    endloop
  endfacet
  facet normal 0.83205 0 0.5547
    outer loop
      vertex 1 39 2
      vertex 2 26 0.5
      vertex 2 38 0.5
    endloop
  endfacet
  facet normal 0.83205 0 0.5547
    outer loop
      vertex 2 26 0.5
      vertex 1 39 2
      vertex 1 25 2
    endloop
  endfacet
  facet normal 0 1 -0
    outer loop
      vertex 18.95 25 2
      vertex 1 25 2.1
      vertex 19 25 2.1
    endloop
  endfacet
  facet normal 0 1 0
    outer loop
      vertex 1 25 2.1
      vertex 18.95 25 2
      vertex 1 25 2
    endloop
  endfacet
  facet normal 0 0 -1
    outer loop
      vertex 105 0 0
      vertex 85 0 0
      vertex 105 14 0
    endloop
  endfacet
  facet normal 0 0 -1
    outer loop
      vertex 105 14 0
      vertex 110 40 0
      vertex 110 14 0
    endloop
  endfacet
  facet normal 0 0 -1
    outer loop
      vertex 85 14 0
      vertex 105 14 0
      vertex 85 0 0
    endloop
  endfacet
  facet normal 0 0 -1
    outer loop
      vertex 85 26 0
      vertex 105 14 0
      vertex 85 14 0
    endloop
  endfacet
  facet normal 0 0 -1
    outer loop
      vertex 105 14 0
      vertex 85 26 0
      vertex 110 40 0
    endloop
  endfacet
  facet normal -0 0 -1
    outer loop
      vertex 110 40 0
      vertex 85 26 0
      vertex 85 40 0
    endloop
  endfacet
  facet normal 0 0 -1
    outer loop
      vertex 0 0 0
      vertex 20 14 0
      vertex 20 0 0
    endloop
  endfacet
  facet normal -0 0 -1
    outer loop
      vertex 20 14 0
      vertex 0 0 0
      vertex 20 26 0
    endloop
  endfacet
  facet normal 0 0 -1
    outer loop
      vertex 0 40 0
      vertex 20 26 0
      vertex 0 0 0
    endloop
  endfacet
  facet normal 0 0 -1
    outer loop
      vertex 20 26 0
      vertex 0 40 0
      vertex 20 40 0
    endloop
  endfacet
  facet normal 0 0 -1
    outer loop
      vertex 20 14 0
      vertex 85 26 0
      vertex 85 14 0
    endloop
  endfacet
  facet normal -0 0 -1
    outer loop
      vertex 85 26 0
      vertex 20 14 0
      vertex 20 26 0
    endloop
  endfacet
  facet normal 0 0.83205 0.5547
    outer loop
      vertex 105 40 0.599999
      vertex 86 39 2.1
      vertex 104 39 2.1
    endloop
  endfacet
  facet normal 0 0.83205 0.5547
    outer loop
      vertex 86 39 2.1
      vertex 105 40 0.599999
      vertex 85 40 0.599999
    endloop
  endfacet
  facet normal 1 -0 0
    outer loop
      vertex 105 0 0.599999
      vertex 105 14 0.0999994
      vertex 105 14.25 0.599999
    endloop
  endfacet
  facet normal 1 0 0
    outer loop
      vertex 105 0 0
      vertex 105 14 0.0999994
      vertex 105 0 0.599999
    endloop
  endfacet
  facet normal 1 0 0
    outer loop
      vertex 105 14 0.0999994
      vertex 105 0 0
      vertex 105 14 0
    endloop
  endfacet
  facet normal 1 0 0
    outer loop
      vertex 105 40 0.599999
      vertex 105 39.75 0.599999
      vertex 105 40 0.0999994
    endloop
  endfacet
  facet normal 0.83205 -0 0.5547
    outer loop
      vertex 104 1 2.1
      vertex 105 14.25 0.599999
      vertex 104 15 2.1
    endloop
  endfacet
  facet normal 0.83205 0 0.5547
    outer loop
      vertex 105 14.25 0.599999
      vertex 104 1 2.1
      vertex 105 0 0.599999
    endloop
  endfacet
  facet normal 0.83205 0 0.5547
    outer loop
      vertex 105 40 0.599999
      vertex 104 39 2.1
      vertex 105 39.75 0.599999
    endloop
  endfacet
  facet normal -0.83205 0 0.5547
    outer loop
      vertex 85 25.75 0.599999
      vertex 86 39 2.1
      vertex 85 40 0.599999
    endloop
  endfacet
  facet normal -0.83205 0 0.5547
    outer loop
      vertex 86 39 2.1
      vertex 85 25.75 0.599999
      vertex 86 25 2.1
    endloop
  endfacet
  facet normal -0.83205 0 0.5547
    outer loop
      vertex 85 14.25 0.599999
      vertex 86 1 2.1
      vertex 86 15 2.1
    endloop
  endfacet
  facet normal -0.83205 0 0.5547
    outer loop
      vertex 86 1 2.1
      vertex 85 14.25 0.599999
      vertex 85 0 0.599999
    endloop
  endfacet
  facet normal -0 0 1
    outer loop
      vertex 87 14 0.5
      vertex 103 2 0.5
      vertex 103 14 0.5
    endloop
  endfacet
  facet normal 0 0 1
    outer loop
      vertex 103 2 0.5
      vertex 87 14 0.5
      vertex 87 2 0.5
    endloop
  endfacet
  facet normal -0 0 1
    outer loop
      vertex 87 38 0.5
      vertex 103 26 0.5
      vertex 103 38 0.5
    endloop
  endfacet
  facet normal 0 0 1
    outer loop
      vertex 103 26 0.5
      vertex 87 38 0.5
      vertex 87 26 0.5
    endloop
  endfacet
  facet normal 0 -1 0
    outer loop
      vertex 85 0 0
      vertex 105 0 0.599999
      vertex 85 0 0.599999
    endloop
  endfacet
  facet normal 0 -1 -0
    outer loop
      vertex 105 0 0.599999
      vertex 85 0 0
      vertex 105 0 0
    endloop
  endfacet
  facet normal 0 1 0
    outer loop
      vertex 110 40 0.0999994
      vertex 110 40 0
      vertex 105 40 0.0999994
    endloop
  endfacet
  facet normal 0 1 -0
    outer loop
      vertex 105 40 0.0999994
      vertex 85 40 0.599999
      vertex 105 40 0.599999
    endloop
  endfacet
  facet normal 0 1 0
    outer loop
      vertex 105 40 0.0999994
      vertex 85 40 0
      vertex 85 40 0.599999
    endloop
  endfacet
  facet normal 0 1 0
    outer loop
      vertex 85 40 0
      vertex 105 40 0.0999994
      vertex 110 40 0
    endloop
  endfacet
  facet normal -1 0 0
    outer loop
      vertex 85 26 0.0999994
      vertex 85 40 0
      vertex 85 26 0
    endloop
  endfacet
  facet normal -1 0 0
    outer loop
      vertex 85 40 0
      vertex 85 26 0.0999994
      vertex 85 40 0.599999
    endloop
  endfacet
  facet normal -1 -0 0
    outer loop
      vertex 85 40 0.599999
      vertex 85 26 0.0999994
      vertex 85 25.75 0.599999
    endloop
  endfacet
  facet normal -1 0 0
    outer loop
      vertex 85 14 0
      vertex 85 0 0
      vertex 85 14 0.0999994
    endloop
  endfacet
  facet normal -1 0 0
    outer loop
      vertex 85 0 0.599999
      vertex 85 14 0.0999994
      vertex 85 0 0
    endloop
  endfacet
  facet normal -1 0 0
    outer loop
      vertex 85 14 0.0999994
      vertex 85 0 0.599999
      vertex 85 14.25 0.599999
    endloop
  endfacet
  facet normal 0 -0.83205 0.5547
    outer loop
      vertex 85 0 0.599999
      vertex 104 1 2.1
      vertex 86 1 2.1
    endloop
  endfacet
  facet normal 0 -0.83205 0.5547
    outer loop
      vertex 104 1 2.1
      vertex 85 0 0.599999
      vertex 105 0 0.599999
    endloop
  endfacet
  facet normal 0 -1 0
    outer loop
      vertex 86.05 15 2
      vertex 104 15 2.1
      vertex 86 15 2.1
    endloop
  endfacet
  facet normal 0 -1 -0
    outer loop
      vertex 104 15 2.1
      vertex 86.05 15 2
      vertex 104 15 2
    endloop
  endfacet
  facet normal -0.83205 0 0.5547
    outer loop
      vertex 103 14 0.5
      vertex 104 14.95 2
      vertex 104 15 2
    endloop
  endfacet
  facet normal -0.83205 0 0.5547
    outer loop
      vertex 103 2 0.5
      vertex 104 14.95 2
      vertex 103 14 0.5
    endloop
  endfacet
  facet normal -0.83205 0 0.5547
    outer loop
      vertex 104 14.95 2
      vertex 103 2 0.5
      vertex 104 1 2
    endloop
  endfacet
  facet normal 1 -0 0
    outer loop
      vertex 86 1 2.1
      vertex 86 14.95 2
      vertex 86 15 2.1
    endloop
  endfacet
  facet normal 1 0 0
    outer loop
      vertex 86 14.95 2
      vertex 86 1 2.1
      vertex 86 1 2
    endloop
  endfacet
  facet normal 0 0.83205 0.5547
    outer loop
      vertex 103 2 0.5
      vertex 86 1 2
      vertex 104 1 2
    endloop
  endfacet
  facet normal 0 0.83205 0.5547
    outer loop
      vertex 86 1 2
      vertex 103 2 0.5
      vertex 87 2 0.5
    endloop
  endfacet
  facet normal -1.5396e-14 -0.83205 0.5547
    outer loop
      vertex 87 14 0.5
      vertex 86.05 15 2
      vertex 86.2 14.8 1.7
    endloop
  endfacet
  facet normal 0 -0.83205 0.5547
    outer loop
      vertex 86.05 15 2
      vertex 87 14 0.5
      vertex 103 14 0.5
    endloop
  endfacet
  facet normal 0 -0.83205 0.5547
    outer loop
      vertex 86.05 15 2
      vertex 103 14 0.5
      vertex 104 15 2
    endloop
  endfacet
  facet normal 0.83205 -5.85049e-14 0.5547
    outer loop
      vertex 86 14.95 2
      vertex 87 14 0.5
      vertex 86.2 14.8 1.7
    endloop
  endfacet
  facet normal 0.83205 0 0.5547
    outer loop
      vertex 86 14.95 2
      vertex 87 2 0.5
      vertex 87 14 0.5
    endloop
  endfacet
  facet normal 0.83205 0 0.5547
    outer loop
      vertex 87 2 0.5
      vertex 86 14.95 2
      vertex 86 1 2
    endloop
  endfacet
  facet normal 0 1 -0
    outer loop
      vertex 104 1 2
      vertex 86 1 2.1
      vertex 104 1 2.1
    endloop
  endfacet
  facet normal 0 1 0
    outer loop
      vertex 86 1 2.1
      vertex 104 1 2
      vertex 86 1 2
    endloop
  endfacet
  facet normal -1 0 0
    outer loop
      vertex 104 1 2.1
      vertex 104 14.95 2
      vertex 104 1 2
    endloop
  endfacet
  facet normal -1 0 0
    outer loop
      vertex 104 14.95 2
      vertex 104 1 2.1
      vertex 104 15 2.1
    endloop
  endfacet
  facet normal -1 0 -0
    outer loop
      vertex 104 15 2.1
      vertex 104 15 2
      vertex 104 14.95 2
    endloop
  endfacet
  facet normal -1 0 0
    outer loop
      vertex 104 25 2
      vertex 104 39 2.1
      vertex 104 39 2
    endloop
  endfacet
  facet normal -1 -0 0
    outer loop
      vertex 104 39 2.1
      vertex 104 25 2
      vertex 104 25 2.1
    endloop
  endfacet
  facet normal 0 -1 0
    outer loop
      vertex 86 39 2
      vertex 104 39 2.1
      vertex 86 39 2.1
    endloop
  endfacet
  facet normal 0 -1 -0
    outer loop
      vertex 104 39 2.1
      vertex 86 39 2
      vertex 104 39 2
    endloop
  endfacet
  facet normal -0.83205 0 0.5547
    outer loop
      vertex 103 26 0.5
      vertex 104 39 2
      vertex 103 38 0.5
    endloop
  endfacet
  facet normal -0.83205 0 0.5547
    outer loop
      vertex 104 39 2
      vertex 103 26 0.5
      vertex 104 25 2
    endloop
  endfacet
  facet normal 1 0 0
    outer loop
      vertex 86 39 2.1
      vertex 86 25.05 2
      vertex 86 39 2
    endloop
  endfacet
  facet normal 1 0 -0
    outer loop
      vertex 86 25.05 2
      vertex 86 39 2.1
      vertex 86 25 2.1
    endloop
  endfacet
  facet normal 0 0.83205 0.5547
    outer loop
      vertex 103 26 0.5
      vertex 86.05 25 2
      vertex 104 25 2
    endloop
  endfacet
  facet normal -0 0.83205 0.5547
    outer loop
      vertex 87 26 0.5
      vertex 86.05 25 2
      vertex 103 26 0.5
    endloop
  endfacet
  facet normal -1.5396e-14 0.83205 0.5547
    outer loop
      vertex 86.05 25 2
      vertex 87 26 0.5
      vertex 86.2 25.2 1.7
    endloop
  endfacet
  facet normal 0 -0.83205 0.5547
    outer loop
      vertex 87 38 0.5
      vertex 104 39 2
      vertex 86 39 2
    endloop
  endfacet
  facet normal 0 -0.83205 0.5547
    outer loop
      vertex 104 39 2
      vertex 87 38 0.5
      vertex 103 38 0.5
    endloop
  endfacet
  facet normal 0.83205 -0 0.5547
    outer loop
      vertex 86 25.05 2
      vertex 87 38 0.5
      vertex 86 39 2
    endloop
  endfacet
  facet normal 0.83205 0 0.5547
    outer loop
      vertex 87 38 0.5
      vertex 86.2 25.2 1.7
      vertex 87 26 0.5
    endloop
  endfacet
  facet normal 0.83205 9.59097e-16 0.5547
    outer loop
      vertex 87 38 0.5
      vertex 86 25.05 2
      vertex 86.2 25.2 1.7
    endloop
  endfacet
  facet normal 0 1 0
    outer loop
      vertex 86.05 25 2
      vertex 104 25 2.1
      vertex 104 25 2
    endloop
  endfacet
  facet normal 0 1 0
    outer loop
      vertex 104 25 2.1
      vertex 86.05 25 2
      vertex 86 25 2.1
    endloop
  endfacet
  facet normal 0.894427 -6.42356e-14 0.447214
    outer loop
      vertex 86.2 25.2 1.7
      vertex 86 25 2.1
      vertex 86.05 25 2
    endloop
  endfacet
  facet normal 0.894427 6.40804e-14 0.447214
    outer loop
      vertex 86.05 15 2
      vertex 86 15 2.1
      vertex 86.2 14.8 1.7
    endloop
  endfacet
  facet normal -0.894427 1.53607e-14 0.447214
    outer loop
      vertex 19 25 2.1
      vertex 18.8 25.2 1.7
      vertex 18.95 25 2
    endloop
  endfacet
  facet normal -0.894427 -1.53607e-14 0.447214
    outer loop
      vertex 18.95 15 2
      vertex 18.8 14.8 1.7
      vertex 19 15 2.1
    endloop
  endfacet
  facet normal 0 -1 0
    outer loop
      vertex 20 14 0
      vertex 85 14 0.0999994
      vertex 20 14 0.0999994
    endloop
  endfacet
  facet normal 0 -1 -0
    outer loop
      vertex 85 14 0.0999994
      vertex 20 14 0
      vertex 85 14 0
    endloop
  endfacet
  facet normal 0 1 -0
    outer loop
      vertex 85 26 0
      vertex 20 26 0.0999994
      vertex 85 26 0.0999994
    endloop
  endfacet
  facet normal 0 1 0
    outer loop
      vertex 20 26 0.0999994
      vertex 85 26 0
      vertex 20 26 0
    endloop
  endfacet
  facet normal 0 -0.894427 0.447213
    outer loop
      vertex 20 14.25 0.599999
      vertex 30 15 2.1
      vertex 19 15 2.1
    endloop
  endfacet
  facet normal -9.83871e-08 -0.894427 0.447214
    outer loop
      vertex 20 14 0.0999994
      vertex 30 15 2.1
      vertex 20 14.25 0.599999
    endloop
  endfacet
  facet normal 0 -0.894427 0.447213
    outer loop
      vertex 30 15 2.1
      vertex 20 14 0.0999994
      vertex 34 15 2.1
    endloop
  endfacet
  facet normal 0 -0.894427 0.447213
    outer loop
      vertex 34 15 2.1
      vertex 20 14 0.0999994
      vertex 70 15 2.1
    endloop
  endfacet
  facet normal 0 -0.894427 0.447213
    outer loop
      vertex 85 14 0.0999994
      vertex 70 15 2.1
      vertex 20 14 0.0999994
    endloop
  endfacet
  facet normal 0 -0.894427 0.447213
    outer loop
      vertex 74 15 2.1
      vertex 85 14.25 0.599999
      vertex 86 15 2.1
    endloop
  endfacet
  facet normal 0 -0.894427 0.447213
    outer loop
      vertex 70 15 2.1
      vertex 85 14 0.0999994
      vertex 74 15 2.1
    endloop
  endfacet
  facet normal 8.94428e-08 -0.894427 0.447214
    outer loop
      vertex 74 15 2.1
      vertex 85 14 0.0999994
      vertex 85 14.25 0.599999
    endloop
  endfacet
  facet normal 1.53607e-14 -0.894427 0.447214
    outer loop
      vertex 86 15 2.1
      vertex 86 14.95 2
      vertex 86.2 14.8 1.7
    endloop
  endfacet
  facet normal -1.53607e-14 -0.894427 0.447214
    outer loop
      vertex 19 15 2.1
      vertex 18.8 14.8 1.7
      vertex 19 14.95 2
    endloop
  endfacet
  facet normal 0 0.894427 0.447213
    outer loop
      vertex 85 25.75 0.599999
      vertex 19 25 2.1
      vertex 86 25 2.1
    endloop
  endfacet
  facet normal 0 0.894427 0.447213
    outer loop
      vertex 85 25.75 0.599999
      vertex 20 25.75 0.599999
      vertex 19 25 2.1
    endloop
  endfacet
  facet normal 0 0.894427 0.447214
    outer loop
      vertex 85 26 0.0999994
      vertex 20 25.75 0.599999
      vertex 85 25.75 0.599999
    endloop
  endfacet
  facet normal 0 0.894427 0.447214
    outer loop
      vertex 20 25.75 0.599999
      vertex 85 26 0.0999994
      vertex 20 26 0.0999994
    endloop
  endfacet
  facet normal -1.53607e-14 0.894427 0.447214
    outer loop
      vertex 19 25.05 2
      vertex 18.8 25.2 1.7
      vertex 19 25 2.1
    endloop
  endfacet
  facet normal 1.53607e-14 0.894427 0.447214
    outer loop
      vertex 86 25.05 2
      vertex 86 25 2.1
      vertex 86.2 25.2 1.7
    endloop
  endfacet
  facet normal 1 -0 0
    outer loop
      vertex 110 14 0.0999994
      vertex 110 40 0
      vertex 110 40 0.0999994
    endloop
  endfacet
  facet normal 1 0 0
    outer loop
      vertex 110 40 0
      vertex 110 14 0.0999994
      vertex 110 14 0
    endloop
  endfacet
  facet normal 0.894427 -0 0.447213
    outer loop
      vertex 109 20 2.1
      vertex 110 40 0.0999994
      vertex 109 39 2.1
    endloop
  endfacet
  facet normal 0.894427 0 0.447213
    outer loop
      vertex 110 14 0.0999994
      vertex 109 20 2.1
      vertex 109 15 2.1
    endloop
  endfacet
  facet normal 0.894427 0 0.447213
    outer loop
      vertex 109 20 2.1
      vertex 110 14 0.0999994
      vertex 110 40 0.0999994
    endloop
  endfacet
  facet normal 0 -1 0
    outer loop
      vertex 105 14 0
      vertex 110 14 0.0999994
      vertex 105 14 0.0999994
    endloop
  endfacet
  facet normal 0 -1 -0
    outer loop
      vertex 110 14 0.0999994
      vertex 105 14 0
      vertex 110 14 0
    endloop
  endfacet
  facet normal 0 0.894427 0.447213
    outer loop
      vertex 105 39.75 0.599999
      vertex 105 39 2.1
      vertex 109 39 2.1
    endloop
  endfacet
  facet normal 0 0.894427 0.447213
    outer loop
      vertex 105 39 2.1
      vertex 105 39.75 0.599999
      vertex 104 39 2.1
    endloop
  endfacet
  facet normal -0 0.894427 0.447213
    outer loop
      vertex 105 40 0.0999994
      vertex 109 39 2.1
      vertex 110 40 0.0999994
    endloop
  endfacet
  facet normal -2.45968e-07 0.894427 0.447214
    outer loop
      vertex 109 39 2.1
      vertex 105 40 0.0999994
      vertex 105 39.75 0.599999
    endloop
  endfacet
  facet normal 0 -0.894427 0.447213
    outer loop
      vertex 105 14.25 0.599999
      vertex 109 15 2.1
      vertex 104 15 2.1
    endloop
  endfacet
  facet normal -2.45968e-07 -0.894427 0.447214
    outer loop
      vertex 105 14 0.0999994
      vertex 109 15 2.1
      vertex 105 14.25 0.599999
    endloop
  endfacet
  facet normal 0 -0.894427 0.447213
    outer loop
      vertex 109 15 2.1
      vertex 105 14 0.0999994
      vertex 110 14 0.0999994
    endloop
  endfacet
  facet normal 1 0 0
    outer loop
      vertex 5 26 15
      vertex 5 21 11
      vertex 5 26 11
    endloop
  endfacet
  facet normal 1 -0 0
    outer loop
      vertex 5 17 15
      vertex 5 21 11
      vertex 5 26 15
    endloop
  endfacet
  facet normal 1 0 0
    outer loop
      vertex 5 15 2.1
      vertex 5 21 11
      vertex 5 17 15
    endloop
  endfacet
  facet normal 1 0 0
    outer loop
      vertex 5 21 11
      vertex 5 15 2.1
      vertex 5 21 2.1
    endloop
  endfacet
  facet normal 0 0 -1
    outer loop
      vertex 1 21 11
      vertex 5 26 11
      vertex 5 21 11
    endloop
  endfacet
  facet normal -0 0 -1
    outer loop
      vertex 5 26 11
      vertex 1 21 11
      vertex 1 26 11
    endloop
  endfacet
  facet normal -1 0 0
    outer loop
      vertex 1 15 2.1
      vertex 1 21 11
      vertex 1 21 2.1
    endloop
  endfacet
  facet normal -1 -0 0
    outer loop
      vertex 1 21 11
      vertex 1 15 2.1
      vertex 1 17 15
    endloop
  endfacet
  facet normal -1 0 0
    outer loop
      vertex 1 21 11
      vertex 1 26 15
      vertex 1 26 11
    endloop
  endfacet
  facet normal -1 -0 0
    outer loop
      vertex 1 26 15
      vertex 1 21 11
      vertex 1 17 15
    endloop
  endfacet
  facet normal 0 1 -0
    outer loop
      vertex 5 21 2.1
      vertex 1 21 11
      vertex 5 21 11
    endloop
  endfacet
  facet normal 0 1 0
    outer loop
      vertex 1 21 11
      vertex 5 21 2.1
      vertex 1 21 2.1
    endloop
  endfacet
  facet normal 1 0 0
    outer loop
      vertex 34 26 15
      vertex 34 21 11
      vertex 34 26 11
    endloop
  endfacet
  facet normal 1 -0 0
    outer loop
      vertex 34 17 15
      vertex 34 21 11
      vertex 34 26 15
    endloop
  endfacet
  facet normal 1 0 0
    outer loop
      vertex 34 15 2.1
      vertex 34 21 11
      vertex 34 17 15
    endloop
  endfacet
  facet normal 1 0 0
    outer loop
      vertex 34 21 11
      vertex 34 15 2.1
      vertex 34 21 2.1
    endloop
  endfacet
  facet normal 0 0 -1
    outer loop
      vertex 30 21 11
      vertex 34 26 11
      vertex 34 21 11
    endloop
  endfacet
  facet normal -0 0 -1
    outer loop
      vertex 34 26 11
      vertex 30 21 11
      vertex 30 26 11
    endloop
  endfacet
  facet normal -1 0 0
    outer loop
      vertex 30 15 2.1
      vertex 30 21 11
      vertex 30 21 2.1
    endloop
  endfacet
  facet normal -1 -0 0
    outer loop
      vertex 30 21 11
      vertex 30 15 2.1
      vertex 30 17 15
    endloop
  endfacet
  facet normal -1 0 0
    outer loop
      vertex 30 21 11
      vertex 30 26 15
      vertex 30 26 11
    endloop
  endfacet
  facet normal -1 -0 0
    outer loop
      vertex 30 26 15
      vertex 30 21 11
      vertex 30 17 15
    endloop
  endfacet
  facet normal 0 1 -0
    outer loop
      vertex 34 21 2.1
      vertex 30 21 11
      vertex 34 21 11
    endloop
  endfacet
  facet normal 0 1 0
    outer loop
      vertex 30 21 11
      vertex 34 21 2.1
      vertex 30 21 2.1
    endloop
  endfacet
  facet normal 0 1 -0
    outer loop
      vertex 5 26 11
      vertex 1 26 15
      vertex 5 26 15
    endloop
  endfacet
  facet normal 0 1 0
    outer loop
      vertex 1 26 15
      vertex 5 26 11
      vertex 1 26 11
    endloop
  endfacet
  facet normal -0 0 1
    outer loop
      vertex 1 26 15
      vertex 5 17 15
      vertex 5 26 15
    endloop
  endfacet
  facet normal 0 0 1
    outer loop
      vertex 5 17 15
      vertex 1 26 15
      vertex 1 17 15
    endloop
  endfacet
  facet normal 0 1 -0
    outer loop
      vertex 34 26 11
      vertex 30 26 15
      vertex 34 26 15
    endloop
  endfacet
  facet normal 0 1 0
    outer loop
      vertex 30 26 15
      vertex 34 26 11
      vertex 30 26 11
    endloop
  endfacet
  facet normal -0 0 1
    outer loop
      vertex 30 26 15
      vertex 34 17 15
      vertex 34 26 15
    endloop
  endfacet
  facet normal 0 0 1
    outer loop
      vertex 34 17 15
      vertex 30 26 15
      vertex 30 17 15
    endloop
  endfacet
  facet normal 1 0 0
    outer loop
      vertex 74 29 15
      vertex 74 24 11
      vertex 74 29 11
    endloop
  endfacet
  facet normal 1 -0 0
    outer loop
      vertex 74 20 15
      vertex 74 24 11
      vertex 74 29 15
    endloop
  endfacet
  facet normal 1 0 0
    outer loop
      vertex 74 15 2.1
      vertex 74 24 11
      vertex 74 20 15
    endloop
  endfacet
  facet normal 1 0 0
    outer loop
      vertex 74 24 11
      vertex 74 15 2.1
      vertex 74 24 2.1
    endloop
  endfacet
  facet normal 0 0 -1
    outer loop
      vertex 70 24 11
      vertex 74 29 11
      vertex 74 24 11
    endloop
  endfacet
  facet normal -0 0 -1
    outer loop
      vertex 74 29 11
      vertex 70 24 11
      vertex 70 29 11
    endloop
  endfacet
  facet normal -1 0 0
    outer loop
      vertex 70 15 2.1
      vertex 70 24 11
      vertex 70 24 2.1
    endloop
  endfacet
  facet normal -1 -0 0
    outer loop
      vertex 70 24 11
      vertex 70 15 2.1
      vertex 70 20 15
    endloop
  endfacet
  facet normal -1 0 0
    outer loop
      vertex 70 24 11
      vertex 70 29 15
      vertex 70 29 11
    endloop
  endfacet
  facet normal -1 -0 0
    outer loop
      vertex 70 29 15
      vertex 70 24 11
      vertex 70 20 15
    endloop
  endfacet
  facet normal 0 1 -0
    outer loop
      vertex 74 24 2.1
      vertex 70 24 11
      vertex 74 24 11
    endloop
  endfacet
  facet normal 0 1 0
    outer loop
      vertex 70 24 11
      vertex 74 24 2.1
      vertex 70 24 2.1
    endloop
  endfacet
  facet normal 1 0 0
    outer loop
      vertex 109 44 15
      vertex 109 39 11
      vertex 109 44 11
    endloop
  endfacet
  facet normal 1 -0 0
    outer loop
      vertex 109 35 15
      vertex 109 39 11
      vertex 109 44 15
    endloop
  endfacet
  facet normal 1 0 0
    outer loop
      vertex 109 35 15
      vertex 109 39 2.1
      vertex 109 39 11
    endloop
  endfacet
  facet normal 1 0 0
    outer loop
      vertex 109 39 2.1
      vertex 109 35 15
      vertex 109 20 2.1
    endloop
  endfacet
  facet normal 0 0 -1
    outer loop
      vertex 105 39 11
      vertex 109 44 11
      vertex 109 39 11
    endloop
  endfacet
  facet normal -0 0 -1
    outer loop
      vertex 109 44 11
      vertex 105 39 11
      vertex 105 44 11
    endloop
  endfacet
  facet normal -1 0 0
    outer loop
      vertex 105 39 2.1
      vertex 105 35 15
      vertex 105 39 11
    endloop
  endfacet
  facet normal -1 0 -0
    outer loop
      vertex 105 35 15
      vertex 105 39 2.1
      vertex 105 20 2.1
    endloop
  endfacet
  facet normal -1 0 0
    outer loop
      vertex 105 39 11
      vertex 105 44 15
      vertex 105 44 11
    endloop
  endfacet
  facet normal -1 -0 0
    outer loop
      vertex 105 44 15
      vertex 105 39 11
      vertex 105 35 15
    endloop
  endfacet
  facet normal 0 1 -0
    outer loop
      vertex 109 39 2.1
      vertex 105 39 11
      vertex 109 39 11
    endloop
  endfacet
  facet normal 0 1 0
    outer loop
      vertex 105 39 11
      vertex 109 39 2.1
      vertex 105 39 2.1
    endloop
  endfacet
  facet normal 0 1 -0
    outer loop
      vertex 74 29 11
      vertex 70 29 15
      vertex 74 29 15
    endloop
  endfacet
  facet normal 0 1 0
    outer loop
      vertex 70 29 15
      vertex 74 29 11
      vertex 70 29 11
    endloop
  endfacet
  facet normal -0 0 1
    outer loop
      vertex 70 29 15
      vertex 74 20 15
      vertex 74 29 15
    endloop
  endfacet
  facet normal 0 0 1
    outer loop
      vertex 74 20 15
      vertex 70 29 15
      vertex 70 20 15
    endloop
  endfacet
  facet normal 0 1 -0
    outer loop
      vertex 109 44 11
      vertex 105 44 15
      vertex 109 44 15
    endloop
  endfacet
  facet normal 0 1 0
    outer loop
      vertex 105 44 15
      vertex 109 44 11
      vertex 105 44 11
    endloop
  endfacet
  facet normal -0 0 1
    outer loop
      vertex 105 44 15
      vertex 109 35 15
      vertex 109 44 15
    endloop
  endfacet
  facet normal 0 0 1
    outer loop
      vertex 109 35 15
      vertex 105 44 15
      vertex 105 35 15
    endloop
  endfacet
  facet normal 0 -0.988194 0.153208
    outer loop
      vertex 1 15 2.1
      vertex 5 17 15
      vertex 1 17 15
    endloop
  endfacet
  facet normal 0 -0.988194 0.153208
    outer loop
      vertex 5 17 15
      vertex 1 15 2.1
      vertex 5 15 2.1
    endloop
  endfacet
  facet normal 0 -0.988194 0.153208
    outer loop
      vertex 30 15 2.1
      vertex 34 17 15
      vertex 30 17 15
    endloop
  endfacet
  facet normal 0 -0.988194 0.153208
    outer loop
      vertex 34 17 15
      vertex 30 15 2.1
      vertex 34 15 2.1
    endloop
  endfacet
  facet normal 0 -0.932411 0.3614
    outer loop
      vertex 70 15 2.1
      vertex 74 20 15
      vertex 70 20 15
    endloop
  endfacet
  facet normal 0 -0.932411 0.3614
    outer loop
      vertex 74 20 15
      vertex 70 15 2.1
      vertex 74 15 2.1
    endloop
  endfacet
  facet normal 0 -0.652039 0.758185
    outer loop
      vertex 105 35 15
      vertex 109 20 2.1
      vertex 109 35 15
    endloop
  endfacet
  facet normal 0 -0.652039 0.758185
    outer loop
      vertex 109 20 2.1
      vertex 105 35 15
      vertex 105 20 2.1
    endloop
  endfacet
endsolid OpenSCAD_Model
