solid OpenSCAD_Model
  facet normal -1 0 0
    outer loop
      vertex 10 40 0
      vertex 10 20 0.4
      vertex 10 40 1.8
    endloop
  endfacet
  facet normal -1 0 0
    outer loop
      vertex 10 0 0
      vertex 10 20 0.4
      vertex 10 40 0
    endloop
  endfacet
  facet normal -1 -0 0
    outer loop
      vertex 10 20 0.4
      vertex 10 0 0
      vertex 10 0 0.4
    endloop
  endfacet
  facet normal -1 0 0
    outer loop
      vertex 10 20 1.4
      vertex 10 40 1.8
      vertex 10 20 0.4
    endloop
  endfacet
  facet normal -1 0 0
    outer loop
      vertex 10 0 1.8
      vertex 10 20 1.4
      vertex 10 0 1.4
    endloop
  endfacet
  facet normal -1 0 0
    outer loop
      vertex 10 20 1.4
      vertex 10 0 1.8
      vertex 10 40 1.8
    endloop
  endfacet
  facet normal -0 0 1
    outer loop
      vertex 0 40 1.8
      vertex 8.2 0 1.8
      vertex 8.2 40 1.8
    endloop
  endfacet
  facet normal 0 0 1
    outer loop
      vertex 8.2 0 1.8
      vertex 0 40 1.8
      vertex 0 0 1.8
    endloop
  endfacet
  facet normal 0 0 -1
    outer loop
      vertex 0 0 0
      vertex 8.2 40 0
      vertex 8.2 0 0
    endloop
  endfacet
  facet normal -0 0 -1
    outer loop
      vertex 8.2 40 0
      vertex 0 0 0
      vertex 0 40 0
    endloop
  endfacet
  facet normal -1 0 0
    outer loop
      vertex 0 0 0
      vertex 0 40 1.8
      vertex 0 40 0
    endloop
  endfacet
  facet normal -1 -0 0
    outer loop
      vertex 0 40 1.8
      vertex 0 0 0
      vertex 0 0 1.8
    endloop
  endfacet
  facet normal 0 1 -0
    outer loop
      vertex 8.2 40 0
      vertex 0 40 1.8
      vertex 8.2 40 1.8
    endloop
  endfacet
  facet normal 0 1 0
    outer loop
      vertex 0 40 1.8
      vertex 8.2 40 0
      vertex 0 40 0
    endloop
  endfacet
  facet normal 0 -1 0
    outer loop
      vertex 90 0 0
      vertex 98.2 0 0.4
      vertex 90 0 0.4
    endloop
  endfacet
  facet normal 0 -1 -0
    outer loop
      vertex 98.2 0 0.4
      vertex 90 0 0
      vertex 98.2 0 0
    endloop
  endfacet
  facet normal 0 -1 0
    outer loop
      vertex 80 0 0
      vertex 88.2 0 0.4
      vertex 80 0 0.4
    endloop
  endfacet
  facet normal 0 -1 -0
    outer loop
      vertex 88.2 0 0.4
      vertex 80 0 0
      vertex 88.2 0 0
    endloop
  endfacet
  facet normal 0 -1 0
    outer loop
      vertex 70 0 0
      vertex 78.2 0 0.4
      vertex 70 0 0.4
    endloop
  endfacet
  facet normal 0 -1 -0
    outer loop
      vertex 78.2 0 0.4
      vertex 70 0 0
      vertex 78.2 0 0
    endloop
  endfacet
  facet normal 0 -1 0
    outer loop
      vertex 60 0 0
      vertex 68.2 0 0.4
      vertex 60 0 0.4
    endloop
  endfacet
  facet normal 0 -1 -0
    outer loop
      vertex 68.2 0 0.4
      vertex 60 0 0
      vertex 68.2 0 0
    endloop
  endfacet
  facet normal 0 -1 0
    outer loop
      vertex 50 0 0
      vertex 58.2 0 0.4
      vertex 50 0 0.4
    endloop
  endfacet
  facet normal 0 -1 -0
    outer loop
      vertex 58.2 0 0.4
      vertex 50 0 0
      vertex 58.2 0 0
    endloop
  endfacet
  facet normal 0 -1 0
    outer loop
      vertex 40 0 0
      vertex 48.2 0 0.4
      vertex 40 0 0.4
    endloop
  endfacet
  facet normal 0 -1 -0
    outer loop
      vertex 48.2 0 0.4
      vertex 40 0 0
      vertex 48.2 0 0
    endloop
  endfacet
  facet normal 0 -1 0
    outer loop
      vertex 30 0 0
      vertex 38.2 0 0.4
      vertex 30 0 0.4
    endloop
  endfacet
  facet normal 0 -1 -0
    outer loop
      vertex 38.2 0 0.4
      vertex 30 0 0
      vertex 38.2 0 0
    endloop
  endfacet
  facet normal 0 -1 0
    outer loop
      vertex 20 0 0
      vertex 28.2 0 0.4
      vertex 20 0 0.4
    endloop
  endfacet
  facet normal 0 -1 -0
    outer loop
      vertex 28.2 0 0.4
      vertex 20 0 0
      vertex 28.2 0 0
    endloop
  endfacet
  facet normal 0 -1 0
    outer loop
      vertex 10 0 0
      vertex 18.2 0 0.4
      vertex 10 0 0.4
    endloop
  endfacet
  facet normal 0 -1 -0
    outer loop
      vertex 18.2 0 0.4
      vertex 10 0 0
      vertex 18.2 0 0
    endloop
  endfacet
  facet normal 0 -1 0
    outer loop
      vertex 0 0 1.8
      vertex 8.2 0 1.4
      vertex 8.2 0 1.8
    endloop
  endfacet
  facet normal 0 -1 0
    outer loop
      vertex 10 0 0.4
      vertex 10 0 1.4
      vertex 8.2 0 1.4
    endloop
  endfacet
  facet normal 0 -1 0
    outer loop
      vertex 10 0 1.4
      vertex 10 0 0.4
      vertex 18.2 0 1.4
    endloop
  endfacet
  facet normal 0 -1 0
    outer loop
      vertex 18.2 0 1.4
      vertex 18.2 0 0.4
      vertex 20 0 1.4
    endloop
  endfacet
  facet normal 0 -1 0
    outer loop
      vertex 20 0 0.4
      vertex 20 0 1.4
      vertex 18.2 0 0.4
    endloop
  endfacet
  facet normal 0 -1 0
    outer loop
      vertex 28.2 0 0.4
      vertex 28.2 0 1.4
      vertex 20 0 0.4
    endloop
  endfacet
  facet normal 0 -1 0
    outer loop
      vertex 28.2 0 1.4
      vertex 28.2 0 0.4
      vertex 30 0 1.4
    endloop
  endfacet
  facet normal 0 -1 0
    outer loop
      vertex 30 0 1.4
      vertex 30 0 0.4
      vertex 38.2 0 1.4
    endloop
  endfacet
  facet normal 0 -1 0
    outer loop
      vertex 38.2 0 1.4
      vertex 38.2 0 0.4
      vertex 40 0 1.4
    endloop
  endfacet
  facet normal 0 -1 0
    outer loop
      vertex 40 0 0.4
      vertex 40 0 1.4
      vertex 38.2 0 0.4
    endloop
  endfacet
  facet normal 0 -1 0
    outer loop
      vertex 48.2 0 0.4
      vertex 48.2 0 1.4
      vertex 40 0 0.4
    endloop
  endfacet
  facet normal 0 -1 0
    outer loop
      vertex 48.2 0 1.4
      vertex 48.2 0 0.4
      vertex 50 0 1.4
    endloop
  endfacet
  facet normal 0 -1 0
    outer loop
      vertex 50 0 1.4
      vertex 50 0 0.4
      vertex 58.2 0 1.4
    endloop
  endfacet
  facet normal 0 -1 0
    outer loop
      vertex 58.2 0 0.4
      vertex 58.2 0 1.4
      vertex 50 0 0.4
    endloop
  endfacet
  facet normal 0 -1 0
    outer loop
      vertex 60 0 0.4
      vertex 60 0 1.4
      vertex 58.2 0 0.4
    endloop
  endfacet
  facet normal 0 -1 0
    outer loop
      vertex 60 0 1.4
      vertex 60 0 0.4
      vertex 68.2 0 1.4
    endloop
  endfacet
  facet normal 0 -1 0
    outer loop
      vertex 68.2 0 0.4
      vertex 68.2 0 1.4
      vertex 60 0 0.4
    endloop
  endfacet
  facet normal 0 -1 0
    outer loop
      vertex 68.2 0 1.4
      vertex 68.2 0 0.4
      vertex 70 0 1.4
    endloop
  endfacet
  facet normal 0 -1 0
    outer loop
      vertex 70 0 0.4
      vertex 70 0 1.4
      vertex 68.2 0 0.4
    endloop
  endfacet
  facet normal 0 -1 0
    outer loop
      vertex 10 0 0.4
      vertex 8.2 0 1.4
      vertex 8.2 0 0.4
    endloop
  endfacet
  facet normal 0 -1 0
    outer loop
      vertex 0 0 1.8
      vertex 8.2 0 0.4
      vertex 8.2 0 1.4
    endloop
  endfacet
  facet normal 0 -1 0
    outer loop
      vertex 0 0 0
      vertex 8.2 0 0.4
      vertex 0 0 1.8
    endloop
  endfacet
  facet normal 0 -1 -0
    outer loop
      vertex 8.2 0 0.4
      vertex 0 0 0
      vertex 8.2 0 0
    endloop
  endfacet
  facet normal 0 -1 0
    outer loop
      vertex 10 0 1.4
      vertex 18.2 0 1.8
      vertex 10 0 1.8
    endloop
  endfacet
  facet normal 0 -1 -0
    outer loop
      vertex 18.2 0 1.8
      vertex 10 0 1.4
      vertex 18.2 0 1.4
    endloop
  endfacet
  facet normal 0 -1 0
    outer loop
      vertex 20 0 1.4
      vertex 28.2 0 1.8
      vertex 20 0 1.8
    endloop
  endfacet
  facet normal 0 -1 -0
    outer loop
      vertex 28.2 0 1.8
      vertex 20 0 1.4
      vertex 28.2 0 1.4
    endloop
  endfacet
  facet normal 0 -1 0
    outer loop
      vertex 30 0 1.4
      vertex 38.2 0 1.8
      vertex 30 0 1.8
    endloop
  endfacet
  facet normal 0 -1 -0
    outer loop
      vertex 38.2 0 1.8
      vertex 30 0 1.4
      vertex 38.2 0 1.4
    endloop
  endfacet
  facet normal 0 -1 0
    outer loop
      vertex 40 0 1.4
      vertex 48.2 0 1.8
      vertex 40 0 1.8
    endloop
  endfacet
  facet normal 0 -1 -0
    outer loop
      vertex 48.2 0 1.8
      vertex 40 0 1.4
      vertex 48.2 0 1.4
    endloop
  endfacet
  facet normal 0 -1 0
    outer loop
      vertex 50 0 1.4
      vertex 58.2 0 1.8
      vertex 50 0 1.8
    endloop
  endfacet
  facet normal 0 -1 -0
    outer loop
      vertex 58.2 0 1.8
      vertex 50 0 1.4
      vertex 58.2 0 1.4
    endloop
  endfacet
  facet normal 0 -1 0
    outer loop
      vertex 60 0 1.4
      vertex 68.2 0 1.8
      vertex 60 0 1.8
    endloop
  endfacet
  facet normal 0 -1 -0
    outer loop
      vertex 68.2 0 1.8
      vertex 60 0 1.4
      vertex 68.2 0 1.4
    endloop
  endfacet
  facet normal 0 -1 0
    outer loop
      vertex 70 0 1.4
      vertex 78.2 0 1.8
      vertex 70 0 1.8
    endloop
  endfacet
  facet normal 0 -1 -0
    outer loop
      vertex 78.2 0 1.8
      vertex 70 0 1.4
      vertex 78.2 0 1.4
    endloop
  endfacet
  facet normal 0 -1 0
    outer loop
      vertex 80 0 1.4
      vertex 88.2 0 1.8
      vertex 80 0 1.8
    endloop
  endfacet
  facet normal 0 -1 -0
    outer loop
      vertex 88.2 0 1.8
      vertex 80 0 1.4
      vertex 88.2 0 1.4
    endloop
  endfacet
  facet normal 0 -1 0
    outer loop
      vertex 90 0 1.4
      vertex 98.2 0 1.8
      vertex 90 0 1.8
    endloop
  endfacet
  facet normal 0 -1 -0
    outer loop
      vertex 98.2 0 1.8
      vertex 90 0 1.4
      vertex 98.2 0 1.4
    endloop
  endfacet
  facet normal 0 -1 -0
    outer loop
      vertex 18.2 0 1.4
      vertex 10 0 0.4
      vertex 18.2 0 0.4
    endloop
  endfacet
  facet normal 0 -1 0
    outer loop
      vertex 20 0 1.4
      vertex 20 0 0.4
      vertex 28.2 0 1.4
    endloop
  endfacet
  facet normal 0 -1 0
    outer loop
      vertex 30 0 0.4
      vertex 30 0 1.4
      vertex 28.2 0 0.4
    endloop
  endfacet
  facet normal 0 -1 0
    outer loop
      vertex 38.2 0 0.4
      vertex 38.2 0 1.4
      vertex 30 0 0.4
    endloop
  endfacet
  facet normal 0 -1 0
    outer loop
      vertex 40 0 1.4
      vertex 40 0 0.4
      vertex 48.2 0 1.4
    endloop
  endfacet
  facet normal 0 -1 0
    outer loop
      vertex 50 0 0.4
      vertex 50 0 1.4
      vertex 48.2 0 0.4
    endloop
  endfacet
  facet normal 0 -1 0
    outer loop
      vertex 58.2 0 1.4
      vertex 58.2 0 0.4
      vertex 60 0 1.4
    endloop
  endfacet
  facet normal 0 -1 0
    outer loop
      vertex 70 0 1.4
      vertex 70 0 0.4
      vertex 78.2 0 1.4
    endloop
  endfacet
  facet normal 0 -1 0
    outer loop
      vertex 78.2 0 0.4
      vertex 78.2 0 1.4
      vertex 70 0 0.4
    endloop
  endfacet
  facet normal 0 -1 0
    outer loop
      vertex 78.2 0 1.4
      vertex 78.2 0 0.4
      vertex 80 0 1.4
    endloop
  endfacet
  facet normal 0 -1 0
    outer loop
      vertex 80 0 0.4
      vertex 80 0 1.4
      vertex 78.2 0 0.4
    endloop
  endfacet
  facet normal 0 -1 0
    outer loop
      vertex 80 0 1.4
      vertex 80 0 0.4
      vertex 88.2 0 1.4
    endloop
  endfacet
  facet normal 0 -1 0
    outer loop
      vertex 88.2 0 0.4
      vertex 88.2 0 1.4
      vertex 80 0 0.4
    endloop
  endfacet
  facet normal 0 -1 0
    outer loop
      vertex 88.2 0 1.4
      vertex 88.2 0 0.4
      vertex 90 0 1.4
    endloop
  endfacet
  facet normal 0 -1 0
    outer loop
      vertex 90 0 0.4
      vertex 90 0 1.4
      vertex 88.2 0 0.4
    endloop
  endfacet
  facet normal 0 -1 0
    outer loop
      vertex 90 0 1.4
      vertex 90 0 0.4
      vertex 98.2 0 1.4
    endloop
  endfacet
  facet normal 0 -1 0
    outer loop
      vertex 98.2 0 0.4
      vertex 98.2 0 1.4
      vertex 90 0 0.4
    endloop
  endfacet
  facet normal 0 -1 0
    outer loop
      vertex 98.2 0 1.4
      vertex 98.2 0 0.4
      vertex 100 0 1.4
    endloop
  endfacet
  facet normal 0 -1 -0
    outer loop
      vertex 100 0 1.4
      vertex 98.2 0 0.4
      vertex 100 0 0.4
    endloop
  endfacet
  facet normal 0 0 -1
    outer loop
      vertex 8.2 0 0.4
      vertex 10 20 0.4
      vertex 10 0 0.4
    endloop
  endfacet
  facet normal -0 0 -1
    outer loop
      vertex 10 20 0.4
      vertex 8.2 0 0.4
      vertex 8.2 20 0.4
    endloop
  endfacet
  facet normal 1 0 0
    outer loop
      vertex 8.2 40 1.8
      vertex 8.2 20 1.4
      vertex 8.2 40 0
    endloop
  endfacet
  facet normal 1 -0 0
    outer loop
      vertex 8.2 0 1.8
      vertex 8.2 20 1.4
      vertex 8.2 40 1.8
    endloop
  endfacet
  facet normal 1 0 0
    outer loop
      vertex 8.2 20 1.4
      vertex 8.2 0 1.8
      vertex 8.2 0 1.4
    endloop
  endfacet
  facet normal 1 -0 0
    outer loop
      vertex 8.2 20 0.4
      vertex 8.2 40 0
      vertex 8.2 20 1.4
    endloop
  endfacet
  facet normal 1 0 0
    outer loop
      vertex 8.2 0 0
      vertex 8.2 20 0.4
      vertex 8.2 0 0.4
    endloop
  endfacet
  facet normal 1 0 0
    outer loop
      vertex 8.2 20 0.4
      vertex 8.2 0 0
      vertex 8.2 40 0
    endloop
  endfacet
  facet normal 0 1 -0
    outer loop
      vertex 10 20 0.4
      vertex 8.2 20 1.4
      vertex 10 20 1.4
    endloop
  endfacet
  facet normal 0 1 0
    outer loop
      vertex 8.2 20 1.4
      vertex 10 20 0.4
      vertex 8.2 20 0.4
    endloop
  endfacet
  facet normal -0 0 1
    outer loop
      vertex 8.2 20 1.4
      vertex 10 0 1.4
      vertex 10 20 1.4
    endloop
  endfacet
  facet normal 0 0 1
    outer loop
      vertex 10 0 1.4
      vertex 8.2 20 1.4
      vertex 8.2 0 1.4
    endloop
  endfacet
  facet normal -1 0 0
    outer loop
      vertex 20 40 0
      vertex 20 20 0.4
      vertex 20 40 1.8
    endloop
  endfacet
  facet normal -1 0 0
    outer loop
      vertex 20 0 0
      vertex 20 20 0.4
      vertex 20 40 0
    endloop
  endfacet
  facet normal -1 -0 0
    outer loop
      vertex 20 20 0.4
      vertex 20 0 0
      vertex 20 0 0.4
    endloop
  endfacet
  facet normal -1 0 0
    outer loop
      vertex 20 20 1.4
      vertex 20 40 1.8
      vertex 20 20 0.4
    endloop
  endfacet
  facet normal -1 0 0
    outer loop
      vertex 20 0 1.8
      vertex 20 20 1.4
      vertex 20 0 1.4
    endloop
  endfacet
  facet normal -1 0 0
    outer loop
      vertex 20 20 1.4
      vertex 20 0 1.8
      vertex 20 40 1.8
    endloop
  endfacet
  facet normal -0 0 1
    outer loop
      vertex 10 40 1.8
      vertex 18.2 0 1.8
      vertex 18.2 40 1.8
    endloop
  endfacet
  facet normal 0 0 1
    outer loop
      vertex 18.2 0 1.8
      vertex 10 40 1.8
      vertex 10 0 1.8
    endloop
  endfacet
  facet normal 0 0 -1
    outer loop
      vertex 10 0 0
      vertex 18.2 40 0
      vertex 18.2 0 0
    endloop
  endfacet
  facet normal -0 0 -1
    outer loop
      vertex 18.2 40 0
      vertex 10 0 0
      vertex 10 40 0
    endloop
  endfacet
  facet normal 0 1 -0
    outer loop
      vertex 18.2 40 0
      vertex 10 40 1.8
      vertex 18.2 40 1.8
    endloop
  endfacet
  facet normal 0 1 0
    outer loop
      vertex 10 40 1.8
      vertex 18.2 40 0
      vertex 10 40 0
    endloop
  endfacet
  facet normal 0 0 -1
    outer loop
      vertex 18.2 0 0.4
      vertex 20 20 0.4
      vertex 20 0 0.4
    endloop
  endfacet
  facet normal -0 0 -1
    outer loop
      vertex 20 20 0.4
      vertex 18.2 0 0.4
      vertex 18.2 20 0.4
    endloop
  endfacet
  facet normal 1 0 0
    outer loop
      vertex 18.2 40 1.8
      vertex 18.2 20 1.4
      vertex 18.2 40 0
    endloop
  endfacet
  facet normal 1 -0 0
    outer loop
      vertex 18.2 0 1.8
      vertex 18.2 20 1.4
      vertex 18.2 40 1.8
    endloop
  endfacet
  facet normal 1 0 0
    outer loop
      vertex 18.2 20 1.4
      vertex 18.2 0 1.8
      vertex 18.2 0 1.4
    endloop
  endfacet
  facet normal 1 -0 0
    outer loop
      vertex 18.2 20 0.4
      vertex 18.2 40 0
      vertex 18.2 20 1.4
    endloop
  endfacet
  facet normal 1 0 0
    outer loop
      vertex 18.2 0 0
      vertex 18.2 20 0.4
      vertex 18.2 0 0.4
    endloop
  endfacet
  facet normal 1 0 0
    outer loop
      vertex 18.2 20 0.4
      vertex 18.2 0 0
      vertex 18.2 40 0
    endloop
  endfacet
  facet normal 0 1 -0
    outer loop
      vertex 20 20 0.4
      vertex 18.2 20 1.4
      vertex 20 20 1.4
    endloop
  endfacet
  facet normal 0 1 0
    outer loop
      vertex 18.2 20 1.4
      vertex 20 20 0.4
      vertex 18.2 20 0.4
    endloop
  endfacet
  facet normal -0 0 1
    outer loop
      vertex 18.2 20 1.4
      vertex 20 0 1.4
      vertex 20 20 1.4
    endloop
  endfacet
  facet normal 0 0 1
    outer loop
      vertex 20 0 1.4
      vertex 18.2 20 1.4
      vertex 18.2 0 1.4
    endloop
  endfacet
  facet normal -1 0 0
    outer loop
      vertex 30 40 0
      vertex 30 20 0.4
      vertex 30 40 1.8
    endloop
  endfacet
  facet normal -1 0 0
    outer loop
      vertex 30 0 0
      vertex 30 20 0.4
      vertex 30 40 0
    endloop
  endfacet
  facet normal -1 -0 0
    outer loop
      vertex 30 20 0.4
      vertex 30 0 0
      vertex 30 0 0.4
    endloop
  endfacet
  facet normal -1 0 0
    outer loop
      vertex 30 20 1.4
      vertex 30 40 1.8
      vertex 30 20 0.4
    endloop
  endfacet
  facet normal -1 0 0
    outer loop
      vertex 30 0 1.8
      vertex 30 20 1.4
      vertex 30 0 1.4
    endloop
  endfacet
  facet normal -1 0 0
    outer loop
      vertex 30 20 1.4
      vertex 30 0 1.8
      vertex 30 40 1.8
    endloop
  endfacet
  facet normal -0 0 1
    outer loop
      vertex 20 40 1.8
      vertex 28.2 0 1.8
      vertex 28.2 40 1.8
    endloop
  endfacet
  facet normal 0 0 1
    outer loop
      vertex 28.2 0 1.8
      vertex 20 40 1.8
      vertex 20 0 1.8
    endloop
  endfacet
  facet normal 0 0 -1
    outer loop
      vertex 20 0 0
      vertex 28.2 40 0
      vertex 28.2 0 0
    endloop
  endfacet
  facet normal -0 0 -1
    outer loop
      vertex 28.2 40 0
      vertex 20 0 0
      vertex 20 40 0
    endloop
  endfacet
  facet normal 0 1 -0
    outer loop
      vertex 28.2 40 0
      vertex 20 40 1.8
      vertex 28.2 40 1.8
    endloop
  endfacet
  facet normal 0 1 0
    outer loop
      vertex 20 40 1.8
      vertex 28.2 40 0
      vertex 20 40 0
    endloop
  endfacet
  facet normal 0 0 -1
    outer loop
      vertex 28.2 0 0.4
      vertex 30 20 0.4
      vertex 30 0 0.4
    endloop
  endfacet
  facet normal -0 0 -1
    outer loop
      vertex 30 20 0.4
      vertex 28.2 0 0.4
      vertex 28.2 20 0.4
    endloop
  endfacet
  facet normal 1 0 0
    outer loop
      vertex 28.2 40 1.8
      vertex 28.2 20 1.4
      vertex 28.2 40 0
    endloop
  endfacet
  facet normal 1 -0 0
    outer loop
      vertex 28.2 0 1.8
      vertex 28.2 20 1.4
      vertex 28.2 40 1.8
    endloop
  endfacet
  facet normal 1 0 0
    outer loop
      vertex 28.2 20 1.4
      vertex 28.2 0 1.8
      vertex 28.2 0 1.4
    endloop
  endfacet
  facet normal 1 -0 0
    outer loop
      vertex 28.2 20 0.4
      vertex 28.2 40 0
      vertex 28.2 20 1.4
    endloop
  endfacet
  facet normal 1 0 0
    outer loop
      vertex 28.2 0 0
      vertex 28.2 20 0.4
      vertex 28.2 0 0.4
    endloop
  endfacet
  facet normal 1 0 0
    outer loop
      vertex 28.2 20 0.4
      vertex 28.2 0 0
      vertex 28.2 40 0
    endloop
  endfacet
  facet normal 0 1 -0
    outer loop
      vertex 30 20 0.4
      vertex 28.2 20 1.4
      vertex 30 20 1.4
    endloop
  endfacet
  facet normal 0 1 0
    outer loop
      vertex 28.2 20 1.4
      vertex 30 20 0.4
      vertex 28.2 20 0.4
    endloop
  endfacet
  facet normal -0 0 1
    outer loop
      vertex 28.2 20 1.4
      vertex 30 0 1.4
      vertex 30 20 1.4
    endloop
  endfacet
  facet normal 0 0 1
    outer loop
      vertex 30 0 1.4
      vertex 28.2 20 1.4
      vertex 28.2 0 1.4
    endloop
  endfacet
  facet normal -1 0 0
    outer loop
      vertex 40 40 0
      vertex 40 20 0.4
      vertex 40 40 1.8
    endloop
  endfacet
  facet normal -1 0 0
    outer loop
      vertex 40 0 0
      vertex 40 20 0.4
      vertex 40 40 0
    endloop
  endfacet
  facet normal -1 -0 0
    outer loop
      vertex 40 20 0.4
      vertex 40 0 0
      vertex 40 0 0.4
    endloop
  endfacet
  facet normal -1 0 0
    outer loop
      vertex 40 20 1.4
      vertex 40 40 1.8
      vertex 40 20 0.4
    endloop
  endfacet
  facet normal -1 0 0
    outer loop
      vertex 40 0 1.8
      vertex 40 20 1.4
      vertex 40 0 1.4
    endloop
  endfacet
  facet normal -1 0 0
    outer loop
      vertex 40 20 1.4
      vertex 40 0 1.8
      vertex 40 40 1.8
    endloop
  endfacet
  facet normal -0 0 1
    outer loop
      vertex 30 40 1.8
      vertex 38.2 0 1.8
      vertex 38.2 40 1.8
    endloop
  endfacet
  facet normal 0 0 1
    outer loop
      vertex 38.2 0 1.8
      vertex 30 40 1.8
      vertex 30 0 1.8
    endloop
  endfacet
  facet normal 0 0 -1
    outer loop
      vertex 30 0 0
      vertex 38.2 40 0
      vertex 38.2 0 0
    endloop
  endfacet
  facet normal -0 0 -1
    outer loop
      vertex 38.2 40 0
      vertex 30 0 0
      vertex 30 40 0
    endloop
  endfacet
  facet normal 0 1 -0
    outer loop
      vertex 38.2 40 0
      vertex 30 40 1.8
      vertex 38.2 40 1.8
    endloop
  endfacet
  facet normal 0 1 0
    outer loop
      vertex 30 40 1.8
      vertex 38.2 40 0
      vertex 30 40 0
    endloop
  endfacet
  facet normal 0 0 -1
    outer loop
      vertex 38.2 0 0.4
      vertex 40 20 0.4
      vertex 40 0 0.4
    endloop
  endfacet
  facet normal -0 0 -1
    outer loop
      vertex 40 20 0.4
      vertex 38.2 0 0.4
      vertex 38.2 20 0.4
    endloop
  endfacet
  facet normal 1 0 0
    outer loop
      vertex 38.2 40 1.8
      vertex 38.2 20 1.4
      vertex 38.2 40 0
    endloop
  endfacet
  facet normal 1 -0 0
    outer loop
      vertex 38.2 0 1.8
      vertex 38.2 20 1.4
      vertex 38.2 40 1.8
    endloop
  endfacet
  facet normal 1 0 0
    outer loop
      vertex 38.2 20 1.4
      vertex 38.2 0 1.8
      vertex 38.2 0 1.4
    endloop
  endfacet
  facet normal 1 -0 0
    outer loop
      vertex 38.2 20 0.4
      vertex 38.2 40 0
      vertex 38.2 20 1.4
    endloop
  endfacet
  facet normal 1 0 0
    outer loop
      vertex 38.2 0 0
      vertex 38.2 20 0.4
      vertex 38.2 0 0.4
    endloop
  endfacet
  facet normal 1 0 0
    outer loop
      vertex 38.2 20 0.4
      vertex 38.2 0 0
      vertex 38.2 40 0
    endloop
  endfacet
  facet normal 0 1 -0
    outer loop
      vertex 40 20 0.4
      vertex 38.2 20 1.4
      vertex 40 20 1.4
    endloop
  endfacet
  facet normal 0 1 0
    outer loop
      vertex 38.2 20 1.4
      vertex 40 20 0.4
      vertex 38.2 20 0.4
    endloop
  endfacet
  facet normal -0 0 1
    outer loop
      vertex 38.2 20 1.4
      vertex 40 0 1.4
      vertex 40 20 1.4
    endloop
  endfacet
  facet normal 0 0 1
    outer loop
      vertex 40 0 1.4
      vertex 38.2 20 1.4
      vertex 38.2 0 1.4
    endloop
  endfacet
  facet normal -1 0 0
    outer loop
      vertex 50 40 0
      vertex 50 20 0.4
      vertex 50 40 1.8
    endloop
  endfacet
  facet normal -1 0 0
    outer loop
      vertex 50 0 0
      vertex 50 20 0.4
      vertex 50 40 0
    endloop
  endfacet
  facet normal -1 -0 0
    outer loop
      vertex 50 20 0.4
      vertex 50 0 0
      vertex 50 0 0.4
    endloop
  endfacet
  facet normal -1 0 0
    outer loop
      vertex 50 20 1.4
      vertex 50 40 1.8
      vertex 50 20 0.4
    endloop
  endfacet
  facet normal -1 0 0
    outer loop
      vertex 50 0 1.8
      vertex 50 20 1.4
      vertex 50 0 1.4
    endloop
  endfacet
  facet normal -1 0 0
    outer loop
      vertex 50 20 1.4
      vertex 50 0 1.8
      vertex 50 40 1.8
    endloop
  endfacet
  facet normal -0 0 1
    outer loop
      vertex 40 40 1.8
      vertex 48.2 0 1.8
      vertex 48.2 40 1.8
    endloop
  endfacet
  facet normal 0 0 1
    outer loop
      vertex 48.2 0 1.8
      vertex 40 40 1.8
      vertex 40 0 1.8
    endloop
  endfacet
  facet normal 0 0 -1
    outer loop
      vertex 40 0 0
      vertex 48.2 40 0
      vertex 48.2 0 0
    endloop
  endfacet
  facet normal -0 0 -1
    outer loop
      vertex 48.2 40 0
      vertex 40 0 0
      vertex 40 40 0
    endloop
  endfacet
  facet normal 0 1 -0
    outer loop
      vertex 48.2 40 0
      vertex 40 40 1.8
      vertex 48.2 40 1.8
    endloop
  endfacet
  facet normal 0 1 0
    outer loop
      vertex 40 40 1.8
      vertex 48.2 40 0
      vertex 40 40 0
    endloop
  endfacet
  facet normal 0 0 -1
    outer loop
      vertex 48.2 0 0.4
      vertex 50 20 0.4
      vertex 50 0 0.4
    endloop
  endfacet
  facet normal -0 0 -1
    outer loop
      vertex 50 20 0.4
      vertex 48.2 0 0.4
      vertex 48.2 20 0.4
    endloop
  endfacet
  facet normal 1 0 0
    outer loop
      vertex 48.2 40 1.8
      vertex 48.2 20 1.4
      vertex 48.2 40 0
    endloop
  endfacet
  facet normal 1 -0 0
    outer loop
      vertex 48.2 0 1.8
      vertex 48.2 20 1.4
      vertex 48.2 40 1.8
    endloop
  endfacet
  facet normal 1 0 0
    outer loop
      vertex 48.2 20 1.4
      vertex 48.2 0 1.8
      vertex 48.2 0 1.4
    endloop
  endfacet
  facet normal 1 -0 0
    outer loop
      vertex 48.2 20 0.4
      vertex 48.2 40 0
      vertex 48.2 20 1.4
    endloop
  endfacet
  facet normal 1 0 0
    outer loop
      vertex 48.2 0 0
      vertex 48.2 20 0.4
      vertex 48.2 0 0.4
    endloop
  endfacet
  facet normal 1 0 0
    outer loop
      vertex 48.2 20 0.4
      vertex 48.2 0 0
      vertex 48.2 40 0
    endloop
  endfacet
  facet normal 0 1 -0
    outer loop
      vertex 50 20 0.4
      vertex 48.2 20 1.4
      vertex 50 20 1.4
    endloop
  endfacet
  facet normal 0 1 0
    outer loop
      vertex 48.2 20 1.4
      vertex 50 20 0.4
      vertex 48.2 20 0.4
    endloop
  endfacet
  facet normal -0 0 1
    outer loop
      vertex 48.2 20 1.4
      vertex 50 0 1.4
      vertex 50 20 1.4
    endloop
  endfacet
  facet normal 0 0 1
    outer loop
      vertex 50 0 1.4
      vertex 48.2 20 1.4
      vertex 48.2 0 1.4
    endloop
  endfacet
  facet normal -1 0 0
    outer loop
      vertex 60 40 0
      vertex 60 20 0.4
      vertex 60 40 1.8
    endloop
  endfacet
  facet normal -1 0 0
    outer loop
      vertex 60 0 0
      vertex 60 20 0.4
      vertex 60 40 0
    endloop
  endfacet
  facet normal -1 -0 0
    outer loop
      vertex 60 20 0.4
      vertex 60 0 0
      vertex 60 0 0.4
    endloop
  endfacet
  facet normal -1 0 0
    outer loop
      vertex 60 20 1.4
      vertex 60 40 1.8
      vertex 60 20 0.4
    endloop
  endfacet
  facet normal -1 0 0
    outer loop
      vertex 60 0 1.8
      vertex 60 20 1.4
      vertex 60 0 1.4
    endloop
  endfacet
  facet normal -1 0 0
    outer loop
      vertex 60 20 1.4
      vertex 60 0 1.8
      vertex 60 40 1.8
    endloop
  endfacet
  facet normal -0 0 1
    outer loop
      vertex 50 40 1.8
      vertex 58.2 0 1.8
      vertex 58.2 40 1.8
    endloop
  endfacet
  facet normal 0 0 1
    outer loop
      vertex 58.2 0 1.8
      vertex 50 40 1.8
      vertex 50 0 1.8
    endloop
  endfacet
  facet normal 0 0 -1
    outer loop
      vertex 50 0 0
      vertex 58.2 40 0
      vertex 58.2 0 0
    endloop
  endfacet
  facet normal -0 0 -1
    outer loop
      vertex 58.2 40 0
      vertex 50 0 0
      vertex 50 40 0
    endloop
  endfacet
  facet normal 0 1 -0
    outer loop
      vertex 58.2 40 0
      vertex 50 40 1.8
      vertex 58.2 40 1.8
    endloop
  endfacet
  facet normal 0 1 0
    outer loop
      vertex 50 40 1.8
      vertex 58.2 40 0
      vertex 50 40 0
    endloop
  endfacet
  facet normal 0 0 -1
    outer loop
      vertex 58.2 0 0.4
      vertex 60 20 0.4
      vertex 60 0 0.4
    endloop
  endfacet
  facet normal -0 0 -1
    outer loop
      vertex 60 20 0.4
      vertex 58.2 0 0.4
      vertex 58.2 20 0.4
    endloop
  endfacet
  facet normal 1 0 0
    outer loop
      vertex 58.2 40 1.8
      vertex 58.2 20 1.4
      vertex 58.2 40 0
    endloop
  endfacet
  facet normal 1 -0 0
    outer loop
      vertex 58.2 0 1.8
      vertex 58.2 20 1.4
      vertex 58.2 40 1.8
    endloop
  endfacet
  facet normal 1 0 0
    outer loop
      vertex 58.2 20 1.4
      vertex 58.2 0 1.8
      vertex 58.2 0 1.4
    endloop
  endfacet
  facet normal 1 -0 0
    outer loop
      vertex 58.2 20 0.4
      vertex 58.2 40 0
      vertex 58.2 20 1.4
    endloop
  endfacet
  facet normal 1 0 0
    outer loop
      vertex 58.2 0 0
      vertex 58.2 20 0.4
      vertex 58.2 0 0.4
    endloop
  endfacet
  facet normal 1 0 0
    outer loop
      vertex 58.2 20 0.4
      vertex 58.2 0 0
      vertex 58.2 40 0
    endloop
  endfacet
  facet normal 0 1 -0
    outer loop
      vertex 60 20 0.4
      vertex 58.2 20 1.4
      vertex 60 20 1.4
    endloop
  endfacet
  facet normal 0 1 0
    outer loop
      vertex 58.2 20 1.4
      vertex 60 20 0.4
      vertex 58.2 20 0.4
    endloop
  endfacet
  facet normal -0 0 1
    outer loop
      vertex 58.2 20 1.4
      vertex 60 0 1.4
      vertex 60 20 1.4
    endloop
  endfacet
  facet normal 0 0 1
    outer loop
      vertex 60 0 1.4
      vertex 58.2 20 1.4
      vertex 58.2 0 1.4
    endloop
  endfacet
  facet normal -1 0 0
    outer loop
      vertex 70 40 0
      vertex 70 20 0.4
      vertex 70 40 1.8
    endloop
  endfacet
  facet normal -1 0 0
    outer loop
      vertex 70 0 0
      vertex 70 20 0.4
      vertex 70 40 0
    endloop
  endfacet
  facet normal -1 -0 0
    outer loop
      vertex 70 20 0.4
      vertex 70 0 0
      vertex 70 0 0.4
    endloop
  endfacet
  facet normal -1 0 0
    outer loop
      vertex 70 20 1.4
      vertex 70 40 1.8
      vertex 70 20 0.4
    endloop
  endfacet
  facet normal -1 0 0
    outer loop
      vertex 70 0 1.8
      vertex 70 20 1.4
      vertex 70 0 1.4
    endloop
  endfacet
  facet normal -1 0 0
    outer loop
      vertex 70 20 1.4
      vertex 70 0 1.8
      vertex 70 40 1.8
    endloop
  endfacet
  facet normal -0 0 1
    outer loop
      vertex 60 40 1.8
      vertex 68.2 0 1.8
      vertex 68.2 40 1.8
    endloop
  endfacet
  facet normal 0 0 1
    outer loop
      vertex 68.2 0 1.8
      vertex 60 40 1.8
      vertex 60 0 1.8
    endloop
  endfacet
  facet normal 0 0 -1
    outer loop
      vertex 60 0 0
      vertex 68.2 40 0
      vertex 68.2 0 0
    endloop
  endfacet
  facet normal -0 0 -1
    outer loop
      vertex 68.2 40 0
      vertex 60 0 0
      vertex 60 40 0
    endloop
  endfacet
  facet normal 0 1 -0
    outer loop
      vertex 68.2 40 0
      vertex 60 40 1.8
      vertex 68.2 40 1.8
    endloop
  endfacet
  facet normal 0 1 0
    outer loop
      vertex 60 40 1.8
      vertex 68.2 40 0
      vertex 60 40 0
    endloop
  endfacet
  facet normal 0 0 -1
    outer loop
      vertex 68.2 0 0.4
      vertex 70 20 0.4
      vertex 70 0 0.4
    endloop
  endfacet
  facet normal -0 0 -1
    outer loop
      vertex 70 20 0.4
      vertex 68.2 0 0.4
      vertex 68.2 20 0.4
    endloop
  endfacet
  facet normal 1 0 0
    outer loop
      vertex 68.2 40 1.8
      vertex 68.2 20 1.4
      vertex 68.2 40 0
    endloop
  endfacet
  facet normal 1 -0 0
    outer loop
      vertex 68.2 0 1.8
      vertex 68.2 20 1.4
      vertex 68.2 40 1.8
    endloop
  endfacet
  facet normal 1 0 0
    outer loop
      vertex 68.2 20 1.4
      vertex 68.2 0 1.8
      vertex 68.2 0 1.4
    endloop
  endfacet
  facet normal 1 -0 0
    outer loop
      vertex 68.2 20 0.4
      vertex 68.2 40 0
      vertex 68.2 20 1.4
    endloop
  endfacet
  facet normal 1 0 0
    outer loop
      vertex 68.2 0 0
      vertex 68.2 20 0.4
      vertex 68.2 0 0.4
    endloop
  endfacet
  facet normal 1 0 0
    outer loop
      vertex 68.2 20 0.4
      vertex 68.2 0 0
      vertex 68.2 40 0
    endloop
  endfacet
  facet normal 0 1 -0
    outer loop
      vertex 70 20 0.4
      vertex 68.2 20 1.4
      vertex 70 20 1.4
    endloop
  endfacet
  facet normal 0 1 0
    outer loop
      vertex 68.2 20 1.4
      vertex 70 20 0.4
      vertex 68.2 20 0.4
    endloop
  endfacet
  facet normal -0 0 1
    outer loop
      vertex 68.2 20 1.4
      vertex 70 0 1.4
      vertex 70 20 1.4
    endloop
  endfacet
  facet normal 0 0 1
    outer loop
      vertex 70 0 1.4
      vertex 68.2 20 1.4
      vertex 68.2 0 1.4
    endloop
  endfacet
  facet normal -1 0 0
    outer loop
      vertex 80 40 0
      vertex 80 20 0.4
      vertex 80 40 1.8
    endloop
  endfacet
  facet normal -1 0 0
    outer loop
      vertex 80 0 0
      vertex 80 20 0.4
      vertex 80 40 0
    endloop
  endfacet
  facet normal -1 -0 0
    outer loop
      vertex 80 20 0.4
      vertex 80 0 0
      vertex 80 0 0.4
    endloop
  endfacet
  facet normal -1 0 0
    outer loop
      vertex 80 20 1.4
      vertex 80 40 1.8
      vertex 80 20 0.4
    endloop
  endfacet
  facet normal -1 0 0
    outer loop
      vertex 80 0 1.8
      vertex 80 20 1.4
      vertex 80 0 1.4
    endloop
  endfacet
  facet normal -1 0 0
    outer loop
      vertex 80 20 1.4
      vertex 80 0 1.8
      vertex 80 40 1.8
    endloop
  endfacet
  facet normal -0 0 1
    outer loop
      vertex 70 40 1.8
      vertex 78.2 0 1.8
      vertex 78.2 40 1.8
    endloop
  endfacet
  facet normal 0 0 1
    outer loop
      vertex 78.2 0 1.8
      vertex 70 40 1.8
      vertex 70 0 1.8
    endloop
  endfacet
  facet normal 0 0 -1
    outer loop
      vertex 70 0 0
      vertex 78.2 40 0
      vertex 78.2 0 0
    endloop
  endfacet
  facet normal -0 0 -1
    outer loop
      vertex 78.2 40 0
      vertex 70 0 0
      vertex 70 40 0
    endloop
  endfacet
  facet normal 0 1 -0
    outer loop
      vertex 78.2 40 0
      vertex 70 40 1.8
      vertex 78.2 40 1.8
    endloop
  endfacet
  facet normal 0 1 0
    outer loop
      vertex 70 40 1.8
      vertex 78.2 40 0
      vertex 70 40 0
    endloop
  endfacet
  facet normal 0 0 -1
    outer loop
      vertex 78.2 0 0.4
      vertex 80 20 0.4
      vertex 80 0 0.4
    endloop
  endfacet
  facet normal -0 0 -1
    outer loop
      vertex 80 20 0.4
      vertex 78.2 0 0.4
      vertex 78.2 20 0.4
    endloop
  endfacet
  facet normal 1 0 0
    outer loop
      vertex 78.2 40 1.8
      vertex 78.2 20 1.4
      vertex 78.2 40 0
    endloop
  endfacet
  facet normal 1 -0 0
    outer loop
      vertex 78.2 0 1.8
      vertex 78.2 20 1.4
      vertex 78.2 40 1.8
    endloop
  endfacet
  facet normal 1 0 0
    outer loop
      vertex 78.2 20 1.4
      vertex 78.2 0 1.8
      vertex 78.2 0 1.4
    endloop
  endfacet
  facet normal 1 -0 0
    outer loop
      vertex 78.2 20 0.4
      vertex 78.2 40 0
      vertex 78.2 20 1.4
    endloop
  endfacet
  facet normal 1 0 0
    outer loop
      vertex 78.2 0 0
      vertex 78.2 20 0.4
      vertex 78.2 0 0.4
    endloop
  endfacet
  facet normal 1 0 0
    outer loop
      vertex 78.2 20 0.4
      vertex 78.2 0 0
      vertex 78.2 40 0
    endloop
  endfacet
  facet normal 0 1 -0
    outer loop
      vertex 80 20 0.4
      vertex 78.2 20 1.4
      vertex 80 20 1.4
    endloop
  endfacet
  facet normal 0 1 0
    outer loop
      vertex 78.2 20 1.4
      vertex 80 20 0.4
      vertex 78.2 20 0.4
    endloop
  endfacet
  facet normal -0 0 1
    outer loop
      vertex 78.2 20 1.4
      vertex 80 0 1.4
      vertex 80 20 1.4
    endloop
  endfacet
  facet normal 0 0 1
    outer loop
      vertex 80 0 1.4
      vertex 78.2 20 1.4
      vertex 78.2 0 1.4
    endloop
  endfacet
  facet normal -1 0 0
    outer loop
      vertex 90 40 0
      vertex 90 20 0.4
      vertex 90 40 1.8
    endloop
  endfacet
  facet normal -1 0 0
    outer loop
      vertex 90 0 0
      vertex 90 20 0.4
      vertex 90 40 0
    endloop
  endfacet
  facet normal -1 -0 0
    outer loop
      vertex 90 20 0.4
      vertex 90 0 0
      vertex 90 0 0.4
    endloop
  endfacet
  facet normal -1 0 0
    outer loop
      vertex 90 20 1.4
      vertex 90 40 1.8
      vertex 90 20 0.4
    endloop
  endfacet
  facet normal -1 0 0
    outer loop
      vertex 90 0 1.8
      vertex 90 20 1.4
      vertex 90 0 1.4
    endloop
  endfacet
  facet normal -1 0 0
    outer loop
      vertex 90 20 1.4
      vertex 90 0 1.8
      vertex 90 40 1.8
    endloop
  endfacet
  facet normal -0 0 1
    outer loop
      vertex 80 40 1.8
      vertex 88.2 0 1.8
      vertex 88.2 40 1.8
    endloop
  endfacet
  facet normal 0 0 1
    outer loop
      vertex 88.2 0 1.8
      vertex 80 40 1.8
      vertex 80 0 1.8
    endloop
  endfacet
  facet normal 0 0 -1
    outer loop
      vertex 80 0 0
      vertex 88.2 40 0
      vertex 88.2 0 0
    endloop
  endfacet
  facet normal -0 0 -1
    outer loop
      vertex 88.2 40 0
      vertex 80 0 0
      vertex 80 40 0
    endloop
  endfacet
  facet normal 0 1 -0
    outer loop
      vertex 88.2 40 0
      vertex 80 40 1.8
      vertex 88.2 40 1.8
    endloop
  endfacet
  facet normal 0 1 0
    outer loop
      vertex 80 40 1.8
      vertex 88.2 40 0
      vertex 80 40 0
    endloop
  endfacet
  facet normal 0 0 -1
    outer loop
      vertex 88.2 0 0.4
      vertex 90 20 0.4
      vertex 90 0 0.4
    endloop
  endfacet
  facet normal -0 0 -1
    outer loop
      vertex 90 20 0.4
      vertex 88.2 0 0.4
      vertex 88.2 20 0.4
    endloop
  endfacet
  facet normal 1 0 0
    outer loop
      vertex 88.2 40 1.8
      vertex 88.2 20 1.4
      vertex 88.2 40 0
    endloop
  endfacet
  facet normal 1 -0 0
    outer loop
      vertex 88.2 0 1.8
      vertex 88.2 20 1.4
      vertex 88.2 40 1.8
    endloop
  endfacet
  facet normal 1 0 0
    outer loop
      vertex 88.2 20 1.4
      vertex 88.2 0 1.8
      vertex 88.2 0 1.4
    endloop
  endfacet
  facet normal 1 -0 0
    outer loop
      vertex 88.2 20 0.4
      vertex 88.2 40 0
      vertex 88.2 20 1.4
    endloop
  endfacet
  facet normal 1 0 0
    outer loop
      vertex 88.2 0 0
      vertex 88.2 20 0.4
      vertex 88.2 0 0.4
    endloop
  endfacet
  facet normal 1 0 0
    outer loop
      vertex 88.2 20 0.4
      vertex 88.2 0 0
      vertex 88.2 40 0
    endloop
  endfacet
  facet normal 0 1 -0
    outer loop
      vertex 90 20 0.4
      vertex 88.2 20 1.4
      vertex 90 20 1.4
    endloop
  endfacet
  facet normal 0 1 0
    outer loop
      vertex 88.2 20 1.4
      vertex 90 20 0.4
      vertex 88.2 20 0.4
    endloop
  endfacet
  facet normal -0 0 1
    outer loop
      vertex 88.2 20 1.4
      vertex 90 0 1.4
      vertex 90 20 1.4
    endloop
  endfacet
  facet normal 0 0 1
    outer loop
      vertex 90 0 1.4
      vertex 88.2 20 1.4
      vertex 88.2 0 1.4
    endloop
  endfacet
  facet normal 1 -0 0
    outer loop
      vertex 100 0 1.4
      vertex 100 20 0.4
      vertex 100 20 1.4
    endloop
  endfacet
  facet normal 1 0 0
    outer loop
      vertex 100 20 0.4
      vertex 100 0 1.4
      vertex 100 0 0.4
    endloop
  endfacet
  facet normal -0 0 1
    outer loop
      vertex 90 40 1.8
      vertex 98.2 0 1.8
      vertex 98.2 40 1.8
    endloop
  endfacet
  facet normal 0 0 1
    outer loop
      vertex 98.2 0 1.8
      vertex 90 40 1.8
      vertex 90 0 1.8
    endloop
  endfacet
  facet normal 0 0 -1
    outer loop
      vertex 90 0 0
      vertex 98.2 40 0
      vertex 98.2 0 0
    endloop
  endfacet
  facet normal -0 0 -1
    outer loop
      vertex 98.2 40 0
      vertex 90 0 0
      vertex 90 40 0
    endloop
  endfacet
  facet normal 0 1 -0
    outer loop
      vertex 98.2 40 0
      vertex 90 40 1.8
      vertex 98.2 40 1.8
    endloop
  endfacet
  facet normal 0 1 0
    outer loop
      vertex 90 40 1.8
      vertex 98.2 40 0
      vertex 90 40 0
    endloop
  endfacet
  facet normal 0 0 -1
    outer loop
      vertex 98.2 0 0.4
      vertex 100 20 0.4
      vertex 100 0 0.4
    endloop
  endfacet
  facet normal -0 0 -1
    outer loop
      vertex 100 20 0.4
      vertex 98.2 0 0.4
      vertex 98.2 20 0.4
    endloop
  endfacet
  facet normal 1 0 0
    outer loop
      vertex 98.2 40 1.8
      vertex 98.2 20 1.4
      vertex 98.2 40 0
    endloop
  endfacet
  facet normal 1 -0 0
    outer loop
      vertex 98.2 0 1.8
      vertex 98.2 20 1.4
      vertex 98.2 40 1.8
    endloop
  endfacet
  facet normal 1 0 0
    outer loop
      vertex 98.2 20 1.4
      vertex 98.2 0 1.8
      vertex 98.2 0 1.4
    endloop
  endfacet
  facet normal 1 -0 0
    outer loop
      vertex 98.2 20 0.4
      vertex 98.2 40 0
      vertex 98.2 20 1.4
    endloop
  endfacet
  facet normal 1 0 0
    outer loop
      vertex 98.2 0 0
      vertex 98.2 20 0.4
      vertex 98.2 0 0.4
    endloop
  endfacet
  facet normal 1 0 0
    outer loop
      vertex 98.2 20 0.4
      vertex 98.2 0 0
      vertex 98.2 40 0
    endloop
  endfacet
  facet normal 0 1 -0
    outer loop
      vertex 100 20 0.4
      vertex 98.2 20 1.4
      vertex 100 20 1.4
    endloop
  endfacet
  facet normal 0 1 0
    outer loop
      vertex 98.2 20 1.4
      vertex 100 20 0.4
      vertex 98.2 20 0.4
    endloop
  endfacet
  facet normal -0 0 1
    outer loop
      vertex 98.2 20 1.4
      vertex 100 0 1.4
      vertex 100 20 1.4
    endloop
  endfacet
  facet normal 0 0 1
    outer loop
      vertex 100 0 1.4
      vertex 98.2 20 1.4
      vertex 98.2 0 1.4
    endloop
  endfacet
endsolid OpenSCAD_Model
