solid OpenSCAD_Model
  facet normal 1 -0 0
    outer loop
      vertex 20 6.12381 2
      vertex 20 10 0
      vertex 20 10 2
    endloop
  endfacet
  facet normal 1 0 0
    outer loop
      vertex 20 10 0
      vertex 20 6.12381 2
      vertex 20 6.12381 0
    endloop
  endfacet
  facet normal 1 -0 0
    outer loop
      vertex 20 0 2
      vertex 20 3.87619 0
      vertex 20 3.87619 2
    endloop
  endfacet
  facet normal 1 0 0
    outer loop
      vertex 20 3.87619 0
      vertex 20 0 2
      vertex 20 0 0
    endloop
  endfacet
  facet normal 0 0 1
    outer loop
      vertex -1.9 6.5 2
      vertex 0 3.975 2
      vertex 0 6.025 2
    endloop
  endfacet
  facet normal 0 0 1
    outer loop
      vertex -1.9 6.5 2
      vertex -1.9 3.5 2
      vertex 0 3.975 2
    endloop
  endfacet
  facet normal -0 0 1
    outer loop
      vertex -2 6.5 2
      vertex -1.9 3.5 2
      vertex -1.9 6.5 2
    endloop
  endfacet
  facet normal 0 0 1
    outer loop
      vertex -1.9 3.5 2
      vertex -2 6.5 2
      vertex -2 3.5 2
    endloop
  endfacet
  facet normal 0 0 1
    outer loop
      vertex 20 10 2
      vertex 18 6.6 2
      vertex 20 6.12381 2
    endloop
  endfacet
  facet normal -0 0 1
    outer loop
      vertex 16.5 7.42487 2
      vertex 18 6.6 2
      vertex 20 10 2
    endloop
  endfacet
  facet normal 0 0 1
    outer loop
      vertex 17.9 6.6 2
      vertex 16.5 7.42487 2
      vertex 17.9 3.4 2
    endloop
  endfacet
  facet normal 0 0 1
    outer loop
      vertex 18 6.6 2
      vertex 16.5 7.42487 2
      vertex 17.9 6.6 2
    endloop
  endfacet
  facet normal 0 0 1
    outer loop
      vertex 20 10 2
      vertex 10 7.42487 2
      vertex 16.5 7.42487 2
    endloop
  endfacet
  facet normal 0 0 1
    outer loop
      vertex 10 7.42487 2
      vertex 8 7.42487 2
      vertex 10 2.57513 2
    endloop
  endfacet
  facet normal -0 0 1
    outer loop
      vertex 0 10 2
      vertex 10 7.42487 2
      vertex 20 10 2
    endloop
  endfacet
  facet normal 0 0 1
    outer loop
      vertex 10 7.42487 2
      vertex 0 10 2
      vertex 8 7.42487 2
    endloop
  endfacet
  facet normal 0 0 1
    outer loop
      vertex 0 6.025 2
      vertex 1.5 7.42487 2
      vertex 0 10 2
    endloop
  endfacet
  facet normal 0 0 1
    outer loop
      vertex 8 7.42487 2
      vertex 0 10 2
      vertex 1.5 7.42487 2
    endloop
  endfacet
  facet normal -0 0 1
    outer loop
      vertex 18 3.4 2
      vertex 20 0 2
      vertex 20 3.87619 2
    endloop
  endfacet
  facet normal 0 0 1
    outer loop
      vertex 16.5 2.57513 2
      vertex 18 3.4 2
      vertex 17.9 3.4 2
    endloop
  endfacet
  facet normal 0 0 1
    outer loop
      vertex 16.5 2.57513 2
      vertex 17.9 3.4 2
      vertex 16.5 7.42487 2
    endloop
  endfacet
  facet normal 0 0 1
    outer loop
      vertex 18 3.4 2
      vertex 16.5 2.57513 2
      vertex 20 0 2
    endloop
  endfacet
  facet normal -0 0 1
    outer loop
      vertex 10 2.57513 2
      vertex 20 0 2
      vertex 16.5 2.57513 2
    endloop
  endfacet
  facet normal 0 0 1
    outer loop
      vertex 8 2.57513 2
      vertex 10 2.57513 2
      vertex 8 7.42487 2
    endloop
  endfacet
  facet normal 0 0 1
    outer loop
      vertex 0 0 2
      vertex 10 2.57513 2
      vertex 8 2.57513 2
    endloop
  endfacet
  facet normal 0 0 1
    outer loop
      vertex 0 0 2
      vertex 8 2.57513 2
      vertex 1.5 2.57513 2
    endloop
  endfacet
  facet normal 0 0 1
    outer loop
      vertex 1.5 7.42487 2
      vertex 0 6.025 2
      vertex 1.5 2.57513 2
    endloop
  endfacet
  facet normal -0 0 1
    outer loop
      vertex 0 3.975 2
      vertex 1.5 2.57513 2
      vertex 0 6.025 2
    endloop
  endfacet
  facet normal 0 0 1
    outer loop
      vertex 10 2.57513 2
      vertex 0 0 2
      vertex 20 0 2
    endloop
  endfacet
  facet normal 0 0 1
    outer loop
      vertex 0 0 2
      vertex 1.5 2.57513 2
      vertex 0 3.975 2
    endloop
  endfacet
  facet normal 0 0 -1
    outer loop
      vertex 20 0 0
      vertex 18 3.4 0
      vertex 20 3.87619 0
    endloop
  endfacet
  facet normal 0 0 -1
    outer loop
      vertex 20 0 0
      vertex 17.9 3.4 0
      vertex 18 3.4 0
    endloop
  endfacet
  facet normal 0 0 -1
    outer loop
      vertex 0 3.975 0
      vertex 17.9 3.4 0
      vertex 0 0 0
    endloop
  endfacet
  facet normal 0 0 -1
    outer loop
      vertex 0 0 0
      vertex 17.9 3.4 0
      vertex 20 0 0
    endloop
  endfacet
  facet normal 0 0 -1
    outer loop
      vertex 18 6.6 0
      vertex 20 10 0
      vertex 20 6.12381 0
    endloop
  endfacet
  facet normal 0 0 -1
    outer loop
      vertex 17.9 6.6 0
      vertex 20 10 0
      vertex 18 6.6 0
    endloop
  endfacet
  facet normal 0 0 -1
    outer loop
      vertex 17.9 3.4 0
      vertex 0 3.975 0
      vertex 17.9 6.6 0
    endloop
  endfacet
  facet normal 0 0 -1
    outer loop
      vertex 0 6.025 0
      vertex 17.9 6.6 0
      vertex 0 3.975 0
    endloop
  endfacet
  facet normal 0 0 -1
    outer loop
      vertex 0 10 0
      vertex 17.9 6.6 0
      vertex 0 6.025 0
    endloop
  endfacet
  facet normal 0 0 -1
    outer loop
      vertex 17.9 6.6 0
      vertex 0 10 0
      vertex 20 10 0
    endloop
  endfacet
  facet normal 0 0 -1
    outer loop
      vertex -1.9 3.5 0
      vertex 0 6.025 0
      vertex 0 3.975 0
    endloop
  endfacet
  facet normal 0 0 -1
    outer loop
      vertex -1.9 3.5 0
      vertex -1.9 6.5 0
      vertex 0 6.025 0
    endloop
  endfacet
  facet normal 0 0 -1
    outer loop
      vertex -2 3.5 0
      vertex -1.9 6.5 0
      vertex -1.9 3.5 0
    endloop
  endfacet
  facet normal -0 0 -1
    outer loop
      vertex -1.9 6.5 0
      vertex -2 3.5 0
      vertex -2 6.5 0
    endloop
  endfacet
  facet normal -1 0 0
    outer loop
      vertex 0 6.025 0
      vertex 0 10 2
      vertex 0 10 0
    endloop
  endfacet
  facet normal -1 -0 0
    outer loop
      vertex 0 10 2
      vertex 0 6.025 0
      vertex 0 6.025 2
    endloop
  endfacet
  facet normal -1 0 0
    outer loop
      vertex 0 0 0
      vertex 0 3.975 2
      vertex 0 3.975 0
    endloop
  endfacet
  facet normal -1 -0 0
    outer loop
      vertex 0 3.975 2
      vertex 0 0 0
      vertex 0 0 2
    endloop
  endfacet
  facet normal 0 1 -0
    outer loop
      vertex 20 10 0
      vertex 0 10 2
      vertex 20 10 2
    endloop
  endfacet
  facet normal 0 1 0
    outer loop
      vertex 0 10 2
      vertex 20 10 0
      vertex 0 10 0
    endloop
  endfacet
  facet normal 0 -1 0
    outer loop
      vertex 0 0 0
      vertex 20 0 2
      vertex 0 0 2
    endloop
  endfacet
  facet normal 0 -1 -0
    outer loop
      vertex 20 0 2
      vertex 0 0 0
      vertex 20 0 0
    endloop
  endfacet
  facet normal -0.23162 -0.972806 0
    outer loop
      vertex 18 6.6 0
      vertex 20 6.12381 2
      vertex 18 6.6 2
    endloop
  endfacet
  facet normal -0.23162 -0.972806 -0
    outer loop
      vertex 20 6.12381 2
      vertex 18 6.6 0
      vertex 20 6.12381 0
    endloop
  endfacet
  facet normal 0 -1 0
    outer loop
      vertex 17.9 6.6 0
      vertex 18 6.6 2
      vertex 17.9 6.6 2
    endloop
  endfacet
  facet normal 0 -1 -0
    outer loop
      vertex 18 6.6 2
      vertex 17.9 6.6 0
      vertex 18 6.6 0
    endloop
  endfacet
  facet normal 1 -0 0
    outer loop
      vertex 17.9 3.4 2
      vertex 17.9 6.6 0
      vertex 17.9 6.6 2
    endloop
  endfacet
  facet normal 1 0 0
    outer loop
      vertex 17.9 6.6 0
      vertex 17.9 3.4 2
      vertex 17.9 3.4 0
    endloop
  endfacet
  facet normal -0.23162 0.972806 0
    outer loop
      vertex 20 3.87619 0
      vertex 18 3.4 2
      vertex 20 3.87619 2
    endloop
  endfacet
  facet normal -0.23162 0.972806 0
    outer loop
      vertex 18 3.4 2
      vertex 20 3.87619 0
      vertex 18 3.4 0
    endloop
  endfacet
  facet normal 0 1 -0
    outer loop
      vertex 18 3.4 0
      vertex 17.9 3.4 2
      vertex 18 3.4 2
    endloop
  endfacet
  facet normal 0 1 0
    outer loop
      vertex 17.9 3.4 2
      vertex 18 3.4 0
      vertex 17.9 3.4 0
    endloop
  endfacet
  facet normal 1 0 0
    outer loop
      vertex 8 6 32
      vertex 8 4 32
      vertex 8 6 13.4583
    endloop
  endfacet
  facet normal 1 0 0
    outer loop
      vertex 8 4 13.4583
      vertex 8 6 13.4583
      vertex 8 4 32
    endloop
  endfacet
  facet normal 1 -0 0
    outer loop
      vertex 8 4 13.4583
      vertex 8 7.42487 2
      vertex 8 6 13.4583
    endloop
  endfacet
  facet normal 1 0 0
    outer loop
      vertex 8 7.42487 2
      vertex 8 4 13.4583
      vertex 8 2.57513 2
    endloop
  endfacet
  facet normal -0 0 1
    outer loop
      vertex 1.5 6 32
      vertex 8 4 32
      vertex 8 6 32
    endloop
  endfacet
  facet normal 0 0 1
    outer loop
      vertex 8 4 32
      vertex 1.5 6 32
      vertex 1.5 4 32
    endloop
  endfacet
  facet normal -1 0 0
    outer loop
      vertex 1.5 6 13.4583
      vertex 1.5 4 13.4583
      vertex 1.5 6 32
    endloop
  endfacet
  facet normal -1 0 0
    outer loop
      vertex 1.5 7.42487 2
      vertex 1.5 4 13.4583
      vertex 1.5 6 13.4583
    endloop
  endfacet
  facet normal -1 0 -0
    outer loop
      vertex 1.5 4 13.4583
      vertex 1.5 7.42487 2
      vertex 1.5 2.57513 2
    endloop
  endfacet
  facet normal -1 -0 0
    outer loop
      vertex 1.5 6 32
      vertex 1.5 4 13.4583
      vertex 1.5 4 32
    endloop
  endfacet
  facet normal 0 1 -0
    outer loop
      vertex 8 6 13.4583
      vertex 1.5 6 32
      vertex 8 6 32
    endloop
  endfacet
  facet normal 0 1 0
    outer loop
      vertex 1.5 6 32
      vertex 8 6 13.4583
      vertex 1.5 6 13.4583
    endloop
  endfacet
  facet normal 0 -1 0
    outer loop
      vertex 1.5 4 13.4583
      vertex 8 4 32
      vertex 1.5 4 32
    endloop
  endfacet
  facet normal 0 -1 -0
    outer loop
      vertex 8 4 32
      vertex 1.5 4 13.4583
      vertex 8 4 13.4583
    endloop
  endfacet
  facet normal 1 0 0
    outer loop
      vertex 16.5 6 32
      vertex 16.5 4 32
      vertex 16.5 6 13.4583
    endloop
  endfacet
  facet normal 1 0 0
    outer loop
      vertex 16.5 4 13.4583
      vertex 16.5 6 13.4583
      vertex 16.5 4 32
    endloop
  endfacet
  facet normal 1 -0 0
    outer loop
      vertex 16.5 4 13.4583
      vertex 16.5 7.42487 2
      vertex 16.5 6 13.4583
    endloop
  endfacet
  facet normal 1 0 0
    outer loop
      vertex 16.5 7.42487 2
      vertex 16.5 4 13.4583
      vertex 16.5 2.57513 2
    endloop
  endfacet
  facet normal -0 0 1
    outer loop
      vertex 10 6 32
      vertex 16.5 4 32
      vertex 16.5 6 32
    endloop
  endfacet
  facet normal 0 0 1
    outer loop
      vertex 16.5 4 32
      vertex 10 6 32
      vertex 10 4 32
    endloop
  endfacet
  facet normal -1 0 0
    outer loop
      vertex 10 6 13.4583
      vertex 10 4 13.4583
      vertex 10 6 32
    endloop
  endfacet
  facet normal -1 0 0
    outer loop
      vertex 10 7.42487 2
      vertex 10 4 13.4583
      vertex 10 6 13.4583
    endloop
  endfacet
  facet normal -1 0 -0
    outer loop
      vertex 10 4 13.4583
      vertex 10 7.42487 2
      vertex 10 2.57513 2
    endloop
  endfacet
  facet normal -1 -0 0
    outer loop
      vertex 10 6 32
      vertex 10 4 13.4583
      vertex 10 4 32
    endloop
  endfacet
  facet normal 0 1 -0
    outer loop
      vertex 16.5 6 13.4583
      vertex 10 6 32
      vertex 16.5 6 32
    endloop
  endfacet
  facet normal 0 1 0
    outer loop
      vertex 10 6 32
      vertex 16.5 6 13.4583
      vertex 10 6 13.4583
    endloop
  endfacet
  facet normal 0 -1 0
    outer loop
      vertex 10 4 13.4583
      vertex 16.5 4 32
      vertex 10 4 32
    endloop
  endfacet
  facet normal 0 -1 -0
    outer loop
      vertex 16.5 4 32
      vertex 10 4 13.4583
      vertex 16.5 4 13.4583
    endloop
  endfacet
  facet normal 0 -0.992357 0.123402
    outer loop
      vertex 1.5 2.57513 2
      vertex 8 4 13.4583
      vertex 1.5 4 13.4583
    endloop
  endfacet
  facet normal 0 -0.992357 0.123402
    outer loop
      vertex 8 4 13.4583
      vertex 1.5 2.57513 2
      vertex 8 2.57513 2
    endloop
  endfacet
  facet normal 0 0.992357 0.123402
    outer loop
      vertex 8 7.42487 2
      vertex 1.5 6 13.4583
      vertex 8 6 13.4583
    endloop
  endfacet
  facet normal 0 0.992357 0.123402
    outer loop
      vertex 1.5 6 13.4583
      vertex 8 7.42487 2
      vertex 1.5 7.42487 2
    endloop
  endfacet
  facet normal 0 -0.992357 0.123402
    outer loop
      vertex 10 2.57513 2
      vertex 16.5 4 13.4583
      vertex 10 4 13.4583
    endloop
  endfacet
  facet normal 0 -0.992357 0.123402
    outer loop
      vertex 16.5 4 13.4583
      vertex 10 2.57513 2
      vertex 16.5 2.57513 2
    endloop
  endfacet
  facet normal 0 0.992357 0.123402
    outer loop
      vertex 16.5 7.42487 2
      vertex 10 6 13.4583
      vertex 16.5 6 13.4583
    endloop
  endfacet
  facet normal 0 0.992357 0.123402
    outer loop
      vertex 10 6 13.4583
      vertex 16.5 7.42487 2
      vertex 10 7.42487 2
    endloop
  endfacet
  facet normal 0 1 -0
    outer loop
      vertex -1.9 6.5 0
      vertex -2 6.5 2
      vertex -1.9 6.5 2
    endloop
  endfacet
  facet normal 0 1 0
    outer loop
      vertex -2 6.5 2
      vertex -1.9 6.5 0
      vertex -2 6.5 0
    endloop
  endfacet
  facet normal -1 0 0
    outer loop
      vertex -2 3.5 0
      vertex -2 6.5 2
      vertex -2 6.5 0
    endloop
  endfacet
  facet normal -1 -0 0
    outer loop
      vertex -2 6.5 2
      vertex -2 3.5 0
      vertex -2 3.5 2
    endloop
  endfacet
  facet normal 0.242536 -0.970143 0
    outer loop
      vertex -1.9 3.5 0
      vertex 0 3.975 2
      vertex -1.9 3.5 2
    endloop
  endfacet
  facet normal 0.242536 -0.970143 0
    outer loop
      vertex 0 3.975 2
      vertex -1.9 3.5 0
      vertex 0 3.975 0
    endloop
  endfacet
  facet normal 0 -1 0
    outer loop
      vertex -2 3.5 0
      vertex -1.9 3.5 2
      vertex -2 3.5 2
    endloop
  endfacet
  facet normal 0 -1 -0
    outer loop
      vertex -1.9 3.5 2
      vertex -2 3.5 0
      vertex -1.9 3.5 0
    endloop
  endfacet
  facet normal 0.242536 0.970143 -0
    outer loop
      vertex 0 6.025 0
      vertex -1.9 6.5 2
      vertex 0 6.025 2
    endloop
  endfacet
  facet normal 0.242536 0.970143 0
    outer loop
      vertex -1.9 6.5 2
      vertex 0 6.025 0
      vertex -1.9 6.5 0
    endloop
  endfacet
endsolid OpenSCAD_Model
