solid OpenSCAD_Model
  facet normal 1 0 0
    outer loop
      vertex 10 1 43
      vertex 10 0 42
      vertex 10 1 1
    endloop
  endfacet
  facet normal 1 0 0
    outer loop
      vertex 10 1 43
      vertex 10 -2 42
      vertex 10 0 42
    endloop
  endfacet
  facet normal 1 -0 0
    outer loop
      vertex 10 -3 43
      vertex 10 -2 42
      vertex 10 1 43
    endloop
  endfacet
  facet normal 1 0 0
    outer loop
      vertex 10 -3 32
      vertex 10 -2 42
      vertex 10 -3 43
    endloop
  endfacet
  facet normal 1 0 0
    outer loop
      vertex 10 -2 42
      vertex 10 -3 32
      vertex 10 -2 32
    endloop
  endfacet
  facet normal 1 0 0
    outer loop
      vertex 10 22 43
      vertex 10 21 42
      vertex 10 22 32
    endloop
  endfacet
  facet normal 1 0 0
    outer loop
      vertex 10 22 43
      vertex 10 19 42
      vertex 10 21 42
    endloop
  endfacet
  facet normal 1 -0 0
    outer loop
      vertex 10 18 43
      vertex 10 19 42
      vertex 10 22 43
    endloop
  endfacet
  facet normal 1 0 0
    outer loop
      vertex 10 18 1
      vertex 10 19 42
      vertex 10 18 43
    endloop
  endfacet
  facet normal 1 0 0
    outer loop
      vertex 10 19 42
      vertex 10 18 1
      vertex 10 19 0
    endloop
  endfacet
  facet normal 1 -0 0
    outer loop
      vertex 10 1 1
      vertex 10 19 0
      vertex 10 18 1
    endloop
  endfacet
  facet normal 1 0 0
    outer loop
      vertex 10 1 1
      vertex 10 0 0
      vertex 10 19 0
    endloop
  endfacet
  facet normal 1 0 0
    outer loop
      vertex 10 0 0
      vertex 10 1 1
      vertex 10 0 42
    endloop
  endfacet
  facet normal 1 0 0
    outer loop
      vertex 10 22 32
      vertex 10 21 42
      vertex 10 21 32
    endloop
  endfacet
  facet normal 0 0 -1
    outer loop
      vertex 0 -2 42
      vertex 10 0 42
      vertex 10 -2 42
    endloop
  endfacet
  facet normal -0 0 -1
    outer loop
      vertex 10 0 42
      vertex 0 -2 42
      vertex 0 0 42
    endloop
  endfacet
  facet normal 0 0 -1
    outer loop
      vertex 0 0 0
      vertex 10 19 0
      vertex 10 0 0
    endloop
  endfacet
  facet normal -0 0 -1
    outer loop
      vertex 10 19 0
      vertex 0 0 0
      vertex 0 19 0
    endloop
  endfacet
  facet normal -1 0 0
    outer loop
      vertex 0 -2 32
      vertex 0 -3 32
      vertex 0 -2 42
    endloop
  endfacet
  facet normal -1 0 0
    outer loop
      vertex 0 19 0
      vertex 0 18 1
      vertex 0 19 42
    endloop
  endfacet
  facet normal -1 0 0
    outer loop
      vertex 0 19 0
      vertex 0 1 1
      vertex 0 18 1
    endloop
  endfacet
  facet normal -1 0 0
    outer loop
      vertex 0 0 0
      vertex 0 1 1
      vertex 0 19 0
    endloop
  endfacet
  facet normal -1 0 0
    outer loop
      vertex 0 0 42
      vertex 0 1 1
      vertex 0 0 0
    endloop
  endfacet
  facet normal -1 0 0
    outer loop
      vertex 0 1 1
      vertex 0 0 42
      vertex 0 1 43
    endloop
  endfacet
  facet normal -1 0 0
    outer loop
      vertex 0 -2 42
      vertex 0 1 43
      vertex 0 0 42
    endloop
  endfacet
  facet normal -1 0 0
    outer loop
      vertex 0 -2 42
      vertex 0 -3 43
      vertex 0 1 43
    endloop
  endfacet
  facet normal -1 0 0
    outer loop
      vertex 0 -3 43
      vertex 0 -2 42
      vertex 0 -3 32
    endloop
  endfacet
  facet normal -1 0 0
    outer loop
      vertex 0 21 42
      vertex 0 22 32
      vertex 0 21 32
    endloop
  endfacet
  facet normal -1 0 0
    outer loop
      vertex 0 22 32
      vertex 0 21 42
      vertex 0 22 43
    endloop
  endfacet
  facet normal -1 0 0
    outer loop
      vertex 0 19 42
      vertex 0 22 43
      vertex 0 21 42
    endloop
  endfacet
  facet normal -1 0 0
    outer loop
      vertex 0 19 42
      vertex 0 18 43
      vertex 0 22 43
    endloop
  endfacet
  facet normal -1 0 0
    outer loop
      vertex 0 18 43
      vertex 0 19 42
      vertex 0 18 1
    endloop
  endfacet
  facet normal 0 1 -0
    outer loop
      vertex 10 1 1
      vertex 0 1 43
      vertex 10 1 43
    endloop
  endfacet
  facet normal 0 1 0
    outer loop
      vertex 0 1 43
      vertex 10 1 1
      vertex 0 1 1
    endloop
  endfacet
  facet normal 0 -1 0
    outer loop
      vertex 0 0 0
      vertex 10 0 42
      vertex 0 0 42
    endloop
  endfacet
  facet normal 0 -1 -0
    outer loop
      vertex 10 0 42
      vertex 0 0 0
      vertex 10 0 0
    endloop
  endfacet
  facet normal -0 0 1
    outer loop
      vertex 0 18 1
      vertex 10 1 1
      vertex 10 18 1
    endloop
  endfacet
  facet normal 0 0 1
    outer loop
      vertex 10 1 1
      vertex 0 18 1
      vertex 0 1 1
    endloop
  endfacet
  facet normal 0 -1 0
    outer loop
      vertex 0 18 1
      vertex 10 18 43
      vertex 0 18 43
    endloop
  endfacet
  facet normal 0 -1 -0
    outer loop
      vertex 10 18 43
      vertex 0 18 1
      vertex 10 18 1
    endloop
  endfacet
  facet normal 0 0 -1
    outer loop
      vertex 0 19 42
      vertex 10 21 42
      vertex 10 19 42
    endloop
  endfacet
  facet normal -0 0 -1
    outer loop
      vertex 10 21 42
      vertex 0 19 42
      vertex 0 21 42
    endloop
  endfacet
  facet normal 0 1 -0
    outer loop
      vertex 10 19 0
      vertex 0 19 42
      vertex 10 19 42
    endloop
  endfacet
  facet normal 0 1 0
    outer loop
      vertex 0 19 42
      vertex 10 19 0
      vertex 0 19 0
    endloop
  endfacet
  facet normal -0 0 1
    outer loop
      vertex 0 22 43
      vertex 10 18 43
      vertex 10 22 43
    endloop
  endfacet
  facet normal 0 0 1
    outer loop
      vertex 10 18 43
      vertex 0 22 43
      vertex 0 18 43
    endloop
  endfacet
  facet normal 0 1 -0
    outer loop
      vertex 10 22 32
      vertex 0 22 43
      vertex 10 22 43
    endloop
  endfacet
  facet normal 0 1 0
    outer loop
      vertex 0 22 43
      vertex 10 22 32
      vertex 0 22 32
    endloop
  endfacet
  facet normal -0 0 1
    outer loop
      vertex 0 1 43
      vertex 10 -3 43
      vertex 10 1 43
    endloop
  endfacet
  facet normal 0 0 1
    outer loop
      vertex 10 -3 43
      vertex 0 1 43
      vertex 0 -3 43
    endloop
  endfacet
  facet normal 0 -1 0
    outer loop
      vertex 0 -3 32
      vertex 10 -3 43
      vertex 0 -3 43
    endloop
  endfacet
  facet normal 0 -1 -0
    outer loop
      vertex 10 -3 43
      vertex 0 -3 32
      vertex 10 -3 32
    endloop
  endfacet
  facet normal 0 0 -1
    outer loop
      vertex 0 21 32
      vertex 10 22 32
      vertex 10 21 32
    endloop
  endfacet
  facet normal -0 0 -1
    outer loop
      vertex 10 22 32
      vertex 0 21 32
      vertex 0 22 32
    endloop
  endfacet
  facet normal 0 -1 0
    outer loop
      vertex 0 21 32
      vertex 10 21 42
      vertex 0 21 42
    endloop
  endfacet
  facet normal 0 -1 -0
    outer loop
      vertex 10 21 42
      vertex 0 21 32
      vertex 10 21 32
    endloop
  endfacet
  facet normal 0 0 -1
    outer loop
      vertex 0 -3 32
      vertex 10 -2 32
      vertex 10 -3 32
    endloop
  endfacet
  facet normal -0 0 -1
    outer loop
      vertex 10 -2 32
      vertex 0 -3 32
      vertex 0 -2 32
    endloop
  endfacet
  facet normal 0 1 -0
    outer loop
      vertex 10 -2 32
      vertex 0 -2 42
      vertex 10 -2 42
    endloop
  endfacet
  facet normal 0 1 0
    outer loop
      vertex 0 -2 42
      vertex 10 -2 32
      vertex 0 -2 32
    endloop
  endfacet
  facet normal 1 0 0
    outer loop
      vertex 21 1 43
      vertex 21 0 42
      vertex 21 1 1
    endloop
  endfacet
  facet normal 1 0 0
    outer loop
      vertex 21 1 43
      vertex 21 -2 42
      vertex 21 0 42
    endloop
  endfacet
  facet normal 1 -0 0
    outer loop
      vertex 21 -3 43
      vertex 21 -2 42
      vertex 21 1 43
    endloop
  endfacet
  facet normal 1 0 0
    outer loop
      vertex 21 -3 32
      vertex 21 -2 42
      vertex 21 -3 43
    endloop
  endfacet
  facet normal 1 0 0
    outer loop
      vertex 21 -2 42
      vertex 21 -3 32
      vertex 21 -2 32
    endloop
  endfacet
  facet normal 1 0 0
    outer loop
      vertex 21 22 43
      vertex 21 21 42
      vertex 21 22 32
    endloop
  endfacet
  facet normal 1 0 0
    outer loop
      vertex 21 22 43
      vertex 21 19 42
      vertex 21 21 42
    endloop
  endfacet
  facet normal 1 -0 0
    outer loop
      vertex 21 18 43
      vertex 21 19 42
      vertex 21 22 43
    endloop
  endfacet
  facet normal 1 0 0
    outer loop
      vertex 21 18 1
      vertex 21 19 42
      vertex 21 18 43
    endloop
  endfacet
  facet normal 1 0 0
    outer loop
      vertex 21 19 42
      vertex 21 18 1
      vertex 21 19 0
    endloop
  endfacet
  facet normal 1 -0 0
    outer loop
      vertex 21 1 1
      vertex 21 19 0
      vertex 21 18 1
    endloop
  endfacet
  facet normal 1 0 0
    outer loop
      vertex 21 1 1
      vertex 21 0 0
      vertex 21 19 0
    endloop
  endfacet
  facet normal 1 0 0
    outer loop
      vertex 21 0 0
      vertex 21 1 1
      vertex 21 0 42
    endloop
  endfacet
  facet normal 1 0 0
    outer loop
      vertex 21 22 32
      vertex 21 21 42
      vertex 21 21 32
    endloop
  endfacet
  facet normal 0 0 -1
    outer loop
      vertex 11 -2 42
      vertex 21 0 42
      vertex 21 -2 42
    endloop
  endfacet
  facet normal -0 0 -1
    outer loop
      vertex 21 0 42
      vertex 11 -2 42
      vertex 11 0 42
    endloop
  endfacet
  facet normal 0 0 -1
    outer loop
      vertex 11 0 0
      vertex 21 19 0
      vertex 21 0 0
    endloop
  endfacet
  facet normal -0 0 -1
    outer loop
      vertex 21 19 0
      vertex 11 0 0
      vertex 11 19 0
    endloop
  endfacet
  facet normal -1 0 0
    outer loop
      vertex 11 -2 32
      vertex 11 -3 32
      vertex 11 -2 42
    endloop
  endfacet
  facet normal -1 0 0
    outer loop
      vertex 11 19 0
      vertex 11 18 1
      vertex 11 19 42
    endloop
  endfacet
  facet normal -1 0 0
    outer loop
      vertex 11 19 0
      vertex 11 1 1
      vertex 11 18 1
    endloop
  endfacet
  facet normal -1 0 0
    outer loop
      vertex 11 0 0
      vertex 11 1 1
      vertex 11 19 0
    endloop
  endfacet
  facet normal -1 0 0
    outer loop
      vertex 11 0 42
      vertex 11 1 1
      vertex 11 0 0
    endloop
  endfacet
  facet normal -1 0 0
    outer loop
      vertex 11 1 1
      vertex 11 0 42
      vertex 11 1 43
    endloop
  endfacet
  facet normal -1 0 0
    outer loop
      vertex 11 -2 42
      vertex 11 1 43
      vertex 11 0 42
    endloop
  endfacet
  facet normal -1 0 0
    outer loop
      vertex 11 -2 42
      vertex 11 -3 43
      vertex 11 1 43
    endloop
  endfacet
  facet normal -1 0 0
    outer loop
      vertex 11 -3 43
      vertex 11 -2 42
      vertex 11 -3 32
    endloop
  endfacet
  facet normal -1 0 0
    outer loop
      vertex 11 21 42
      vertex 11 22 32
      vertex 11 21 32
    endloop
  endfacet
  facet normal -1 0 0
    outer loop
      vertex 11 22 32
      vertex 11 21 42
      vertex 11 22 43
    endloop
  endfacet
  facet normal -1 0 0
    outer loop
      vertex 11 19 42
      vertex 11 22 43
      vertex 11 21 42
    endloop
  endfacet
  facet normal -1 0 0
    outer loop
      vertex 11 19 42
      vertex 11 18 43
      vertex 11 22 43
    endloop
  endfacet
  facet normal -1 0 0
    outer loop
      vertex 11 18 43
      vertex 11 19 42
      vertex 11 18 1
    endloop
  endfacet
  facet normal 0 1 -0
    outer loop
      vertex 21 1 1
      vertex 11 1 43
      vertex 21 1 43
    endloop
  endfacet
  facet normal 0 1 0
    outer loop
      vertex 11 1 43
      vertex 21 1 1
      vertex 11 1 1
    endloop
  endfacet
  facet normal 0 -1 0
    outer loop
      vertex 11 0 0
      vertex 21 0 42
      vertex 11 0 42
    endloop
  endfacet
  facet normal 0 -1 -0
    outer loop
      vertex 21 0 42
      vertex 11 0 0
      vertex 21 0 0
    endloop
  endfacet
  facet normal -0 0 1
    outer loop
      vertex 11 18 1
      vertex 21 1 1
      vertex 21 18 1
    endloop
  endfacet
  facet normal 0 0 1
    outer loop
      vertex 21 1 1
      vertex 11 18 1
      vertex 11 1 1
    endloop
  endfacet
  facet normal 0 -1 0
    outer loop
      vertex 11 18 1
      vertex 21 18 43
      vertex 11 18 43
    endloop
  endfacet
  facet normal 0 -1 -0
    outer loop
      vertex 21 18 43
      vertex 11 18 1
      vertex 21 18 1
    endloop
  endfacet
  facet normal 0 0 -1
    outer loop
      vertex 11 19 42
      vertex 21 21 42
      vertex 21 19 42
    endloop
  endfacet
  facet normal -0 0 -1
    outer loop
      vertex 21 21 42
      vertex 11 19 42
      vertex 11 21 42
    endloop
  endfacet
  facet normal 0 1 -0
    outer loop
      vertex 21 19 0
      vertex 11 19 42
      vertex 21 19 42
    endloop
  endfacet
  facet normal 0 1 0
    outer loop
      vertex 11 19 42
      vertex 21 19 0
      vertex 11 19 0
    endloop
  endfacet
  facet normal -0 0 1
    outer loop
      vertex 11 22 43
      vertex 21 18 43
      vertex 21 22 43
    endloop
  endfacet
  facet normal 0 0 1
    outer loop
      vertex 21 18 43
      vertex 11 22 43
      vertex 11 18 43
    endloop
  endfacet
  facet normal 0 1 -0
    outer loop
      vertex 21 22 32
      vertex 11 22 43
      vertex 21 22 43
    endloop
  endfacet
  facet normal 0 1 0
    outer loop
      vertex 11 22 43
      vertex 21 22 32
      vertex 11 22 32
    endloop
  endfacet
  facet normal -0 0 1
    outer loop
      vertex 11 1 43
      vertex 21 -3 43
      vertex 21 1 43
    endloop
  endfacet
  facet normal 0 0 1
    outer loop
      vertex 21 -3 43
      vertex 11 1 43
      vertex 11 -3 43
    endloop
  endfacet
  facet normal 0 -1 0
    outer loop
      vertex 11 -3 32
      vertex 21 -3 43
      vertex 11 -3 43
    endloop
  endfacet
  facet normal 0 -1 -0
    outer loop
      vertex 21 -3 43
      vertex 11 -3 32
      vertex 21 -3 32
    endloop
  endfacet
  facet normal 0 0 -1
    outer loop
      vertex 11 21 32
      vertex 21 22 32
      vertex 21 21 32
    endloop
  endfacet
  facet normal -0 0 -1
    outer loop
      vertex 21 22 32
      vertex 11 21 32
      vertex 11 22 32
    endloop
  endfacet
  facet normal 0 -1 0
    outer loop
      vertex 11 21 32
      vertex 21 21 42
      vertex 11 21 42
    endloop
  endfacet
  facet normal 0 -1 -0
    outer loop
      vertex 21 21 42
      vertex 11 21 32
      vertex 21 21 32
    endloop
  endfacet
  facet normal 0 0 -1
    outer loop
      vertex 11 -3 32
      vertex 21 -2 32
      vertex 21 -3 32
    endloop
  endfacet
  facet normal -0 0 -1
    outer loop
      vertex 21 -2 32
      vertex 11 -3 32
      vertex 11 -2 32
    endloop
  endfacet
  facet normal 0 1 -0
    outer loop
      vertex 21 -2 32
      vertex 11 -2 42
      vertex 21 -2 42
    endloop
  endfacet
  facet normal 0 1 0
    outer loop
      vertex 11 -2 42
      vertex 21 -2 32
      vertex 11 -2 32
    endloop
  endfacet
  facet normal 1 0 0
    outer loop
      vertex 32 1 43
      vertex 32 0 42
      vertex 32 1 1
    endloop
  endfacet
  facet normal 1 0 0
    outer loop
      vertex 32 1 43
      vertex 32 -2 42
      vertex 32 0 42
    endloop
  endfacet
  facet normal 1 -0 0
    outer loop
      vertex 32 -3 43
      vertex 32 -2 42
      vertex 32 1 43
    endloop
  endfacet
  facet normal 1 0 0
    outer loop
      vertex 32 -3 32
      vertex 32 -2 42
      vertex 32 -3 43
    endloop
  endfacet
  facet normal 1 0 0
    outer loop
      vertex 32 -2 42
      vertex 32 -3 32
      vertex 32 -2 32
    endloop
  endfacet
  facet normal 1 0 0
    outer loop
      vertex 32 22 43
      vertex 32 21 42
      vertex 32 22 32
    endloop
  endfacet
  facet normal 1 0 0
    outer loop
      vertex 32 22 43
      vertex 32 19 42
      vertex 32 21 42
    endloop
  endfacet
  facet normal 1 -0 0
    outer loop
      vertex 32 18 43
      vertex 32 19 42
      vertex 32 22 43
    endloop
  endfacet
  facet normal 1 0 0
    outer loop
      vertex 32 18 1
      vertex 32 19 42
      vertex 32 18 43
    endloop
  endfacet
  facet normal 1 0 0
    outer loop
      vertex 32 19 42
      vertex 32 18 1
      vertex 32 19 0
    endloop
  endfacet
  facet normal 1 -0 0
    outer loop
      vertex 32 1 1
      vertex 32 19 0
      vertex 32 18 1
    endloop
  endfacet
  facet normal 1 0 0
    outer loop
      vertex 32 1 1
      vertex 32 0 0
      vertex 32 19 0
    endloop
  endfacet
  facet normal 1 0 0
    outer loop
      vertex 32 0 0
      vertex 32 1 1
      vertex 32 0 42
    endloop
  endfacet
  facet normal 1 0 0
    outer loop
      vertex 32 22 32
      vertex 32 21 42
      vertex 32 21 32
    endloop
  endfacet
  facet normal 0 0 -1
    outer loop
      vertex 22 -2 42
      vertex 32 0 42
      vertex 32 -2 42
    endloop
  endfacet
  facet normal -0 0 -1
    outer loop
      vertex 32 0 42
      vertex 22 -2 42
      vertex 22 0 42
    endloop
  endfacet
  facet normal 0 0 -1
    outer loop
      vertex 22 0 0
      vertex 32 19 0
      vertex 32 0 0
    endloop
  endfacet
  facet normal -0 0 -1
    outer loop
      vertex 32 19 0
      vertex 22 0 0
      vertex 22 19 0
    endloop
  endfacet
  facet normal -1 0 0
    outer loop
      vertex 22 -2 32
      vertex 22 -3 32
      vertex 22 -2 42
    endloop
  endfacet
  facet normal -1 0 0
    outer loop
      vertex 22 19 0
      vertex 22 18 1
      vertex 22 19 42
    endloop
  endfacet
  facet normal -1 0 0
    outer loop
      vertex 22 19 0
      vertex 22 1 1
      vertex 22 18 1
    endloop
  endfacet
  facet normal -1 0 0
    outer loop
      vertex 22 0 0
      vertex 22 1 1
      vertex 22 19 0
    endloop
  endfacet
  facet normal -1 0 0
    outer loop
      vertex 22 0 42
      vertex 22 1 1
      vertex 22 0 0
    endloop
  endfacet
  facet normal -1 0 0
    outer loop
      vertex 22 1 1
      vertex 22 0 42
      vertex 22 1 43
    endloop
  endfacet
  facet normal -1 0 0
    outer loop
      vertex 22 -2 42
      vertex 22 1 43
      vertex 22 0 42
    endloop
  endfacet
  facet normal -1 0 0
    outer loop
      vertex 22 -2 42
      vertex 22 -3 43
      vertex 22 1 43
    endloop
  endfacet
  facet normal -1 0 0
    outer loop
      vertex 22 -3 43
      vertex 22 -2 42
      vertex 22 -3 32
    endloop
  endfacet
  facet normal -1 0 0
    outer loop
      vertex 22 21 42
      vertex 22 22 32
      vertex 22 21 32
    endloop
  endfacet
  facet normal -1 0 0
    outer loop
      vertex 22 22 32
      vertex 22 21 42
      vertex 22 22 43
    endloop
  endfacet
  facet normal -1 0 0
    outer loop
      vertex 22 19 42
      vertex 22 22 43
      vertex 22 21 42
    endloop
  endfacet
  facet normal -1 0 0
    outer loop
      vertex 22 19 42
      vertex 22 18 43
      vertex 22 22 43
    endloop
  endfacet
  facet normal -1 0 0
    outer loop
      vertex 22 18 43
      vertex 22 19 42
      vertex 22 18 1
    endloop
  endfacet
  facet normal 0 1 -0
    outer loop
      vertex 32 1 1
      vertex 22 1 43
      vertex 32 1 43
    endloop
  endfacet
  facet normal 0 1 0
    outer loop
      vertex 22 1 43
      vertex 32 1 1
      vertex 22 1 1
    endloop
  endfacet
  facet normal 0 -1 0
    outer loop
      vertex 22 0 0
      vertex 32 0 42
      vertex 22 0 42
    endloop
  endfacet
  facet normal 0 -1 -0
    outer loop
      vertex 32 0 42
      vertex 22 0 0
      vertex 32 0 0
    endloop
  endfacet
  facet normal -0 0 1
    outer loop
      vertex 22 18 1
      vertex 32 1 1
      vertex 32 18 1
    endloop
  endfacet
  facet normal 0 0 1
    outer loop
      vertex 32 1 1
      vertex 22 18 1
      vertex 22 1 1
    endloop
  endfacet
  facet normal 0 -1 0
    outer loop
      vertex 22 18 1
      vertex 32 18 43
      vertex 22 18 43
    endloop
  endfacet
  facet normal 0 -1 -0
    outer loop
      vertex 32 18 43
      vertex 22 18 1
      vertex 32 18 1
    endloop
  endfacet
  facet normal 0 0 -1
    outer loop
      vertex 22 19 42
      vertex 32 21 42
      vertex 32 19 42
    endloop
  endfacet
  facet normal -0 0 -1
    outer loop
      vertex 32 21 42
      vertex 22 19 42
      vertex 22 21 42
    endloop
  endfacet
  facet normal 0 1 -0
    outer loop
      vertex 32 19 0
      vertex 22 19 42
      vertex 32 19 42
    endloop
  endfacet
  facet normal 0 1 0
    outer loop
      vertex 22 19 42
      vertex 32 19 0
      vertex 22 19 0
    endloop
  endfacet
  facet normal -0 0 1
    outer loop
      vertex 22 22 43
      vertex 32 18 43
      vertex 32 22 43
    endloop
  endfacet
  facet normal 0 0 1
    outer loop
      vertex 32 18 43
      vertex 22 22 43
      vertex 22 18 43
    endloop
  endfacet
  facet normal 0 1 -0
    outer loop
      vertex 32 22 32
      vertex 22 22 43
      vertex 32 22 43
    endloop
  endfacet
  facet normal 0 1 0
    outer loop
      vertex 22 22 43
      vertex 32 22 32
      vertex 22 22 32
    endloop
  endfacet
  facet normal -0 0 1
    outer loop
      vertex 22 1 43
      vertex 32 -3 43
      vertex 32 1 43
    endloop
  endfacet
  facet normal 0 0 1
    outer loop
      vertex 32 -3 43
      vertex 22 1 43
      vertex 22 -3 43
    endloop
  endfacet
  facet normal 0 -1 0
    outer loop
      vertex 22 -3 32
      vertex 32 -3 43
      vertex 22 -3 43
    endloop
  endfacet
  facet normal 0 -1 -0
    outer loop
      vertex 32 -3 43
      vertex 22 -3 32
      vertex 32 -3 32
    endloop
  endfacet
  facet normal 0 0 -1
    outer loop
      vertex 22 21 32
      vertex 32 22 32
      vertex 32 21 32
    endloop
  endfacet
  facet normal -0 0 -1
    outer loop
      vertex 32 22 32
      vertex 22 21 32
      vertex 22 22 32
    endloop
  endfacet
  facet normal 0 -1 0
    outer loop
      vertex 22 21 32
      vertex 32 21 42
      vertex 22 21 42
    endloop
  endfacet
  facet normal 0 -1 -0
    outer loop
      vertex 32 21 42
      vertex 22 21 32
      vertex 32 21 32
    endloop
  endfacet
  facet normal 0 0 -1
    outer loop
      vertex 22 -3 32
      vertex 32 -2 32
      vertex 32 -3 32
    endloop
  endfacet
  facet normal -0 0 -1
    outer loop
      vertex 32 -2 32
      vertex 22 -3 32
      vertex 22 -2 32
    endloop
  endfacet
  facet normal 0 1 -0
    outer loop
      vertex 32 -2 32
      vertex 22 -2 42
      vertex 32 -2 42
    endloop
  endfacet
  facet normal 0 1 0
    outer loop
      vertex 22 -2 42
      vertex 32 -2 32
      vertex 22 -2 32
    endloop
  endfacet
  facet normal 1 0 0
    outer loop
      vertex 43 1 43
      vertex 43 0 42
      vertex 43 1 1
    endloop
  endfacet
  facet normal 1 0 0
    outer loop
      vertex 43 1 43
      vertex 43 -2 42
      vertex 43 0 42
    endloop
  endfacet
  facet normal 1 -0 0
    outer loop
      vertex 43 -3 43
      vertex 43 -2 42
      vertex 43 1 43
    endloop
  endfacet
  facet normal 1 0 0
    outer loop
      vertex 43 -3 32
      vertex 43 -2 42
      vertex 43 -3 43
    endloop
  endfacet
  facet normal 1 0 0
    outer loop
      vertex 43 -2 42
      vertex 43 -3 32
      vertex 43 -2 32
    endloop
  endfacet
  facet normal 1 0 0
    outer loop
      vertex 43 22 43
      vertex 43 21 42
      vertex 43 22 32
    endloop
  endfacet
  facet normal 1 0 0
    outer loop
      vertex 43 22 43
      vertex 43 19 42
      vertex 43 21 42
    endloop
  endfacet
  facet normal 1 -0 0
    outer loop
      vertex 43 18 43
      vertex 43 19 42
      vertex 43 22 43
    endloop
  endfacet
  facet normal 1 0 0
    outer loop
      vertex 43 18 1
      vertex 43 19 42
      vertex 43 18 43
    endloop
  endfacet
  facet normal 1 0 0
    outer loop
      vertex 43 19 42
      vertex 43 18 1
      vertex 43 19 0
    endloop
  endfacet
  facet normal 1 -0 0
    outer loop
      vertex 43 1 1
      vertex 43 19 0
      vertex 43 18 1
    endloop
  endfacet
  facet normal 1 0 0
    outer loop
      vertex 43 1 1
      vertex 43 0 0
      vertex 43 19 0
    endloop
  endfacet
  facet normal 1 0 0
    outer loop
      vertex 43 0 0
      vertex 43 1 1
      vertex 43 0 42
    endloop
  endfacet
  facet normal 1 0 0
    outer loop
      vertex 43 22 32
      vertex 43 21 42
      vertex 43 21 32
    endloop
  endfacet
  facet normal 0 0 -1
    outer loop
      vertex 33 -2 42
      vertex 43 0 42
      vertex 43 -2 42
    endloop
  endfacet
  facet normal -0 0 -1
    outer loop
      vertex 43 0 42
      vertex 33 -2 42
      vertex 33 0 42
    endloop
  endfacet
  facet normal 0 0 -1
    outer loop
      vertex 33 0 0
      vertex 43 19 0
      vertex 43 0 0
    endloop
  endfacet
  facet normal -0 0 -1
    outer loop
      vertex 43 19 0
      vertex 33 0 0
      vertex 33 19 0
    endloop
  endfacet
  facet normal -1 0 0
    outer loop
      vertex 33 -2 32
      vertex 33 -3 32
      vertex 33 -2 42
    endloop
  endfacet
  facet normal -1 0 0
    outer loop
      vertex 33 19 0
      vertex 33 18 1
      vertex 33 19 42
    endloop
  endfacet
  facet normal -1 0 0
    outer loop
      vertex 33 19 0
      vertex 33 1 1
      vertex 33 18 1
    endloop
  endfacet
  facet normal -1 0 0
    outer loop
      vertex 33 0 0
      vertex 33 1 1
      vertex 33 19 0
    endloop
  endfacet
  facet normal -1 0 0
    outer loop
      vertex 33 0 42
      vertex 33 1 1
      vertex 33 0 0
    endloop
  endfacet
  facet normal -1 0 0
    outer loop
      vertex 33 1 1
      vertex 33 0 42
      vertex 33 1 43
    endloop
  endfacet
  facet normal -1 0 0
    outer loop
      vertex 33 -2 42
      vertex 33 1 43
      vertex 33 0 42
    endloop
  endfacet
  facet normal -1 0 0
    outer loop
      vertex 33 -2 42
      vertex 33 -3 43
      vertex 33 1 43
    endloop
  endfacet
  facet normal -1 0 0
    outer loop
      vertex 33 -3 43
      vertex 33 -2 42
      vertex 33 -3 32
    endloop
  endfacet
  facet normal -1 0 0
    outer loop
      vertex 33 21 42
      vertex 33 22 32
      vertex 33 21 32
    endloop
  endfacet
  facet normal -1 0 0
    outer loop
      vertex 33 22 32
      vertex 33 21 42
      vertex 33 22 43
    endloop
  endfacet
  facet normal -1 0 0
    outer loop
      vertex 33 19 42
      vertex 33 22 43
      vertex 33 21 42
    endloop
  endfacet
  facet normal -1 0 0
    outer loop
      vertex 33 19 42
      vertex 33 18 43
      vertex 33 22 43
    endloop
  endfacet
  facet normal -1 0 0
    outer loop
      vertex 33 18 43
      vertex 33 19 42
      vertex 33 18 1
    endloop
  endfacet
  facet normal 0 1 -0
    outer loop
      vertex 43 1 1
      vertex 33 1 43
      vertex 43 1 43
    endloop
  endfacet
  facet normal 0 1 0
    outer loop
      vertex 33 1 43
      vertex 43 1 1
      vertex 33 1 1
    endloop
  endfacet
  facet normal 0 -1 0
    outer loop
      vertex 33 0 0
      vertex 43 0 42
      vertex 33 0 42
    endloop
  endfacet
  facet normal 0 -1 -0
    outer loop
      vertex 43 0 42
      vertex 33 0 0
      vertex 43 0 0
    endloop
  endfacet
  facet normal -0 0 1
    outer loop
      vertex 33 18 1
      vertex 43 1 1
      vertex 43 18 1
    endloop
  endfacet
  facet normal 0 0 1
    outer loop
      vertex 43 1 1
      vertex 33 18 1
      vertex 33 1 1
    endloop
  endfacet
  facet normal 0 -1 0
    outer loop
      vertex 33 18 1
      vertex 43 18 43
      vertex 33 18 43
    endloop
  endfacet
  facet normal 0 -1 -0
    outer loop
      vertex 43 18 43
      vertex 33 18 1
      vertex 43 18 1
    endloop
  endfacet
  facet normal 0 0 -1
    outer loop
      vertex 33 19 42
      vertex 43 21 42
      vertex 43 19 42
    endloop
  endfacet
  facet normal -0 0 -1
    outer loop
      vertex 43 21 42
      vertex 33 19 42
      vertex 33 21 42
    endloop
  endfacet
  facet normal 0 1 -0
    outer loop
      vertex 43 19 0
      vertex 33 19 42
      vertex 43 19 42
    endloop
  endfacet
  facet normal 0 1 0
    outer loop
      vertex 33 19 42
      vertex 43 19 0
      vertex 33 19 0
    endloop
  endfacet
  facet normal -0 0 1
    outer loop
      vertex 33 22 43
      vertex 43 18 43
      vertex 43 22 43
    endloop
  endfacet
  facet normal 0 0 1
    outer loop
      vertex 43 18 43
      vertex 33 22 43
      vertex 33 18 43
    endloop
  endfacet
  facet normal 0 1 -0
    outer loop
      vertex 43 22 32
      vertex 33 22 43
      vertex 43 22 43
    endloop
  endfacet
  facet normal 0 1 0
    outer loop
      vertex 33 22 43
      vertex 43 22 32
      vertex 33 22 32
    endloop
  endfacet
  facet normal -0 0 1
    outer loop
      vertex 33 1 43
      vertex 43 -3 43
      vertex 43 1 43
    endloop
  endfacet
  facet normal 0 0 1
    outer loop
      vertex 43 -3 43
      vertex 33 1 43
      vertex 33 -3 43
    endloop
  endfacet
  facet normal 0 -1 0
    outer loop
      vertex 33 -3 32
      vertex 43 -3 43
      vertex 33 -3 43
    endloop
  endfacet
  facet normal 0 -1 -0
    outer loop
      vertex 43 -3 43
      vertex 33 -3 32
      vertex 43 -3 32
    endloop
  endfacet
  facet normal 0 0 -1
    outer loop
      vertex 33 21 32
      vertex 43 22 32
      vertex 43 21 32
    endloop
  endfacet
  facet normal -0 0 -1
    outer loop
      vertex 43 22 32
      vertex 33 21 32
      vertex 33 22 32
    endloop
  endfacet
  facet normal 0 -1 0
    outer loop
      vertex 33 21 32
      vertex 43 21 42
      vertex 33 21 42
    endloop
  endfacet
  facet normal 0 -1 -0
    outer loop
      vertex 43 21 42
      vertex 33 21 32
      vertex 43 21 32
    endloop
  endfacet
  facet normal 0 0 -1
    outer loop
      vertex 33 -3 32
      vertex 43 -2 32
      vertex 43 -3 32
    endloop
  endfacet
  facet normal -0 0 -1
    outer loop
      vertex 43 -2 32
      vertex 33 -3 32
      vertex 33 -2 32
    endloop
  endfacet
  facet normal 0 1 -0
    outer loop
      vertex 43 -2 32
      vertex 33 -2 42
      vertex 43 -2 42
    endloop
  endfacet
  facet normal 0 1 0
    outer loop
      vertex 33 -2 42
      vertex 43 -2 32
      vertex 33 -2 32
    endloop
  endfacet
  facet normal 1 0 0
    outer loop
      vertex 54 1 43
      vertex 54 0 42
      vertex 54 1 1
    endloop
  endfacet
  facet normal 1 0 0
    outer loop
      vertex 54 1 43
      vertex 54 -2 42
      vertex 54 0 42
    endloop
  endfacet
  facet normal 1 -0 0
    outer loop
      vertex 54 -3 43
      vertex 54 -2 42
      vertex 54 1 43
    endloop
  endfacet
  facet normal 1 0 0
    outer loop
      vertex 54 -3 32
      vertex 54 -2 42
      vertex 54 -3 43
    endloop
  endfacet
  facet normal 1 0 0
    outer loop
      vertex 54 -2 42
      vertex 54 -3 32
      vertex 54 -2 32
    endloop
  endfacet
  facet normal 1 0 0
    outer loop
      vertex 54 22 43
      vertex 54 21 42
      vertex 54 22 32
    endloop
  endfacet
  facet normal 1 0 0
    outer loop
      vertex 54 22 43
      vertex 54 19 42
      vertex 54 21 42
    endloop
  endfacet
  facet normal 1 -0 0
    outer loop
      vertex 54 18 43
      vertex 54 19 42
      vertex 54 22 43
    endloop
  endfacet
  facet normal 1 0 0
    outer loop
      vertex 54 18 1
      vertex 54 19 42
      vertex 54 18 43
    endloop
  endfacet
  facet normal 1 0 0
    outer loop
      vertex 54 19 42
      vertex 54 18 1
      vertex 54 19 0
    endloop
  endfacet
  facet normal 1 -0 0
    outer loop
      vertex 54 1 1
      vertex 54 19 0
      vertex 54 18 1
    endloop
  endfacet
  facet normal 1 0 0
    outer loop
      vertex 54 1 1
      vertex 54 0 0
      vertex 54 19 0
    endloop
  endfacet
  facet normal 1 0 0
    outer loop
      vertex 54 0 0
      vertex 54 1 1
      vertex 54 0 42
    endloop
  endfacet
  facet normal 1 0 0
    outer loop
      vertex 54 22 32
      vertex 54 21 42
      vertex 54 21 32
    endloop
  endfacet
  facet normal 0 0 -1
    outer loop
      vertex 44 -2 42
      vertex 54 0 42
      vertex 54 -2 42
    endloop
  endfacet
  facet normal -0 0 -1
    outer loop
      vertex 54 0 42
      vertex 44 -2 42
      vertex 44 0 42
    endloop
  endfacet
  facet normal 0 0 -1
    outer loop
      vertex 44 0 0
      vertex 54 19 0
      vertex 54 0 0
    endloop
  endfacet
  facet normal -0 0 -1
    outer loop
      vertex 54 19 0
      vertex 44 0 0
      vertex 44 19 0
    endloop
  endfacet
  facet normal -1 0 0
    outer loop
      vertex 44 -2 32
      vertex 44 -3 32
      vertex 44 -2 42
    endloop
  endfacet
  facet normal -1 0 0
    outer loop
      vertex 44 19 0
      vertex 44 18 1
      vertex 44 19 42
    endloop
  endfacet
  facet normal -1 0 0
    outer loop
      vertex 44 19 0
      vertex 44 1 1
      vertex 44 18 1
    endloop
  endfacet
  facet normal -1 0 0
    outer loop
      vertex 44 0 0
      vertex 44 1 1
      vertex 44 19 0
    endloop
  endfacet
  facet normal -1 0 0
    outer loop
      vertex 44 0 42
      vertex 44 1 1
      vertex 44 0 0
    endloop
  endfacet
  facet normal -1 0 0
    outer loop
      vertex 44 1 1
      vertex 44 0 42
      vertex 44 1 43
    endloop
  endfacet
  facet normal -1 0 0
    outer loop
      vertex 44 -2 42
      vertex 44 1 43
      vertex 44 0 42
    endloop
  endfacet
  facet normal -1 0 0
    outer loop
      vertex 44 -2 42
      vertex 44 -3 43
      vertex 44 1 43
    endloop
  endfacet
  facet normal -1 0 0
    outer loop
      vertex 44 -3 43
      vertex 44 -2 42
      vertex 44 -3 32
    endloop
  endfacet
  facet normal -1 0 0
    outer loop
      vertex 44 21 42
      vertex 44 22 32
      vertex 44 21 32
    endloop
  endfacet
  facet normal -1 0 0
    outer loop
      vertex 44 22 32
      vertex 44 21 42
      vertex 44 22 43
    endloop
  endfacet
  facet normal -1 0 0
    outer loop
      vertex 44 19 42
      vertex 44 22 43
      vertex 44 21 42
    endloop
  endfacet
  facet normal -1 0 0
    outer loop
      vertex 44 19 42
      vertex 44 18 43
      vertex 44 22 43
    endloop
  endfacet
  facet normal -1 0 0
    outer loop
      vertex 44 18 43
      vertex 44 19 42
      vertex 44 18 1
    endloop
  endfacet
  facet normal 0 1 -0
    outer loop
      vertex 54 1 1
      vertex 44 1 43
      vertex 54 1 43
    endloop
  endfacet
  facet normal 0 1 0
    outer loop
      vertex 44 1 43
      vertex 54 1 1
      vertex 44 1 1
    endloop
  endfacet
  facet normal 0 -1 0
    outer loop
      vertex 44 0 0
      vertex 54 0 42
      vertex 44 0 42
    endloop
  endfacet
  facet normal 0 -1 -0
    outer loop
      vertex 54 0 42
      vertex 44 0 0
      vertex 54 0 0
    endloop
  endfacet
  facet normal -0 0 1
    outer loop
      vertex 44 18 1
      vertex 54 1 1
      vertex 54 18 1
    endloop
  endfacet
  facet normal 0 0 1
    outer loop
      vertex 54 1 1
      vertex 44 18 1
      vertex 44 1 1
    endloop
  endfacet
  facet normal 0 -1 0
    outer loop
      vertex 44 18 1
      vertex 54 18 43
      vertex 44 18 43
    endloop
  endfacet
  facet normal 0 -1 -0
    outer loop
      vertex 54 18 43
      vertex 44 18 1
      vertex 54 18 1
    endloop
  endfacet
  facet normal 0 0 -1
    outer loop
      vertex 44 19 42
      vertex 54 21 42
      vertex 54 19 42
    endloop
  endfacet
  facet normal -0 0 -1
    outer loop
      vertex 54 21 42
      vertex 44 19 42
      vertex 44 21 42
    endloop
  endfacet
  facet normal 0 1 -0
    outer loop
      vertex 54 19 0
      vertex 44 19 42
      vertex 54 19 42
    endloop
  endfacet
  facet normal 0 1 0
    outer loop
      vertex 44 19 42
      vertex 54 19 0
      vertex 44 19 0
    endloop
  endfacet
  facet normal -0 0 1
    outer loop
      vertex 44 22 43
      vertex 54 18 43
      vertex 54 22 43
    endloop
  endfacet
  facet normal 0 0 1
    outer loop
      vertex 54 18 43
      vertex 44 22 43
      vertex 44 18 43
    endloop
  endfacet
  facet normal 0 1 -0
    outer loop
      vertex 54 22 32
      vertex 44 22 43
      vertex 54 22 43
    endloop
  endfacet
  facet normal 0 1 0
    outer loop
      vertex 44 22 43
      vertex 54 22 32
      vertex 44 22 32
    endloop
  endfacet
  facet normal -0 0 1
    outer loop
      vertex 44 1 43
      vertex 54 -3 43
      vertex 54 1 43
    endloop
  endfacet
  facet normal 0 0 1
    outer loop
      vertex 54 -3 43
      vertex 44 1 43
      vertex 44 -3 43
    endloop
  endfacet
  facet normal 0 -1 0
    outer loop
      vertex 44 -3 32
      vertex 54 -3 43
      vertex 44 -3 43
    endloop
  endfacet
  facet normal 0 -1 -0
    outer loop
      vertex 54 -3 43
      vertex 44 -3 32
      vertex 54 -3 32
    endloop
  endfacet
  facet normal 0 0 -1
    outer loop
      vertex 44 21 32
      vertex 54 22 32
      vertex 54 21 32
    endloop
  endfacet
  facet normal -0 0 -1
    outer loop
      vertex 54 22 32
      vertex 44 21 32
      vertex 44 22 32
    endloop
  endfacet
  facet normal 0 -1 0
    outer loop
      vertex 44 21 32
      vertex 54 21 42
      vertex 44 21 42
    endloop
  endfacet
  facet normal 0 -1 -0
    outer loop
      vertex 54 21 42
      vertex 44 21 32
      vertex 54 21 32
    endloop
  endfacet
  facet normal 0 0 -1
    outer loop
      vertex 44 -3 32
      vertex 54 -2 32
      vertex 54 -3 32
    endloop
  endfacet
  facet normal -0 0 -1
    outer loop
      vertex 54 -2 32
      vertex 44 -3 32
      vertex 44 -2 32
    endloop
  endfacet
  facet normal 0 1 -0
    outer loop
      vertex 54 -2 32
      vertex 44 -2 42
      vertex 54 -2 42
    endloop
  endfacet
  facet normal 0 1 0
    outer loop
      vertex 44 -2 42
      vertex 54 -2 32
      vertex 44 -2 32
    endloop
  endfacet
endsolid OpenSCAD_Model
