solid OpenSCAD_Model
  facet normal 1 0 0
    outer loop
      vertex 50 4 30
      vertex 50 3 10
      vertex 50 4 0
    endloop
  endfacet
  facet normal 1 0 0
    outer loop
      vertex 50 4 30
      vertex 50 1 10
      vertex 50 3 10
    endloop
  endfacet
  facet normal 1 -0 0
    outer loop
      vertex 50 0 30
      vertex 50 1 10
      vertex 50 4 30
    endloop
  endfacet
  facet normal 1 0 0
    outer loop
      vertex 50 0 0
      vertex 50 1 10
      vertex 50 0 30
    endloop
  endfacet
  facet normal 1 0 0
    outer loop
      vertex 50 1 10
      vertex 50 0 0
      vertex 50 1 0
    endloop
  endfacet
  facet normal 1 0 0
    outer loop
      vertex 50 4 0
      vertex 50 3 10
      vertex 50 3 0
    endloop
  endfacet
  facet normal -0 0 1
    outer loop
      vertex 0 4 30
      vertex 50 0 30
      vertex 50 4 30
    endloop
  endfacet
  facet normal 0 0 1
    outer loop
      vertex 50 0 30
      vertex 0 4 30
      vertex 0 0 30
    endloop
  endfacet
  facet normal 0 0 -1
    outer loop
      vertex 0 1 10
      vertex 5 3 10
      vertex 5 1 10
    endloop
  endfacet
  facet normal -0 0 -1
    outer loop
      vertex 5 3 10
      vertex 0 1 10
      vertex 0 3 10
    endloop
  endfacet
  facet normal 0 0 -1
    outer loop
      vertex 5 1 10
      vertex 45 1 10
      vertex 45 0 10
    endloop
  endfacet
  facet normal 0 0 -1
    outer loop
      vertex 45 1 10
      vertex 5 1 10
      vertex 45 3 10
    endloop
  endfacet
  facet normal 0 0 -1
    outer loop
      vertex 5 1 10
      vertex 45 0 10
      vertex 5 0 10
    endloop
  endfacet
  facet normal 0 0 -1
    outer loop
      vertex 5 3 10
      vertex 45 3 10
      vertex 5 1 10
    endloop
  endfacet
  facet normal 0 0 -1
    outer loop
      vertex 45 3 10
      vertex 5 3 10
      vertex 45 4 10
    endloop
  endfacet
  facet normal -0 0 -1
    outer loop
      vertex 45 4 10
      vertex 5 3 10
      vertex 5 4 10
    endloop
  endfacet
  facet normal 0 0 -1
    outer loop
      vertex 45 1 10
      vertex 50 3 10
      vertex 50 1 10
    endloop
  endfacet
  facet normal -0 0 -1
    outer loop
      vertex 50 3 10
      vertex 45 1 10
      vertex 45 3 10
    endloop
  endfacet
  facet normal -1 0 0
    outer loop
      vertex 0 1 0
      vertex 0 0 0
      vertex 0 1 10
    endloop
  endfacet
  facet normal -1 0 0
    outer loop
      vertex 0 3 10
      vertex 0 4 0
      vertex 0 3 0
    endloop
  endfacet
  facet normal -1 0 0
    outer loop
      vertex 0 4 0
      vertex 0 3 10
      vertex 0 4 30
    endloop
  endfacet
  facet normal -1 0 0
    outer loop
      vertex 0 1 10
      vertex 0 4 30
      vertex 0 3 10
    endloop
  endfacet
  facet normal -1 0 0
    outer loop
      vertex 0 1 10
      vertex 0 0 30
      vertex 0 4 30
    endloop
  endfacet
  facet normal -1 0 0
    outer loop
      vertex 0 0 30
      vertex 0 1 10
      vertex 0 0 0
    endloop
  endfacet
  facet normal 0 1 0
    outer loop
      vertex 50 4 30
      vertex 49 4 29
      vertex 0 4 30
    endloop
  endfacet
  facet normal 0 1 0
    outer loop
      vertex 50 4 30
      vertex 49 4 11
      vertex 49 4 29
    endloop
  endfacet
  facet normal 0 1 0
    outer loop
      vertex 49 4 11
      vertex 45 4 10
      vertex 1 4 11
    endloop
  endfacet
  facet normal 0 1 -0
    outer loop
      vertex 50 4 0
      vertex 49 4 11
      vertex 50 4 30
    endloop
  endfacet
  facet normal 0 1 0
    outer loop
      vertex 50 4 0
      vertex 45 4 10
      vertex 49 4 11
    endloop
  endfacet
  facet normal 0 1 0
    outer loop
      vertex 45 4 10
      vertex 50 4 0
      vertex 45 4 0
    endloop
  endfacet
  facet normal 0 1 -0
    outer loop
      vertex 1 4 29
      vertex 0 4 30
      vertex 49 4 29
    endloop
  endfacet
  facet normal 0 1 -0
    outer loop
      vertex 1 4 11
      vertex 0 4 30
      vertex 1 4 29
    endloop
  endfacet
  facet normal 0 1 -0
    outer loop
      vertex 5 4 10
      vertex 1 4 11
      vertex 45 4 10
    endloop
  endfacet
  facet normal 0 1 0
    outer loop
      vertex 0 4 0
      vertex 5 4 10
      vertex 5 4 0
    endloop
  endfacet
  facet normal 0 1 0
    outer loop
      vertex 1 4 11
      vertex 0 4 0
      vertex 0 4 30
    endloop
  endfacet
  facet normal 0 1 0
    outer loop
      vertex 5 4 10
      vertex 0 4 0
      vertex 1 4 11
    endloop
  endfacet
  facet normal 0 -1 0
    outer loop
      vertex 0 0 30
      vertex 1 0 29
      vertex 50 0 30
    endloop
  endfacet
  facet normal 0 -1 0
    outer loop
      vertex 0 0 30
      vertex 1 0 11
      vertex 1 0 29
    endloop
  endfacet
  facet normal 0 -1 0
    outer loop
      vertex 1 0 11
      vertex 5 0 10
      vertex 49 0 11
    endloop
  endfacet
  facet normal 0 -1 0
    outer loop
      vertex 0 0 0
      vertex 1 0 11
      vertex 0 0 30
    endloop
  endfacet
  facet normal 0 -1 0
    outer loop
      vertex 0 0 0
      vertex 5 0 10
      vertex 1 0 11
    endloop
  endfacet
  facet normal 0 -1 -0
    outer loop
      vertex 5 0 10
      vertex 0 0 0
      vertex 5 0 0
    endloop
  endfacet
  facet normal 0 -1 0
    outer loop
      vertex 49 0 29
      vertex 50 0 30
      vertex 1 0 29
    endloop
  endfacet
  facet normal 0 -1 0
    outer loop
      vertex 49 0 11
      vertex 50 0 30
      vertex 49 0 29
    endloop
  endfacet
  facet normal 0 -1 0
    outer loop
      vertex 45 0 10
      vertex 49 0 11
      vertex 5 0 10
    endloop
  endfacet
  facet normal 0 -1 0
    outer loop
      vertex 50 0 0
      vertex 45 0 10
      vertex 45 0 0
    endloop
  endfacet
  facet normal 0 -1 0
    outer loop
      vertex 49 0 11
      vertex 50 0 0
      vertex 50 0 30
    endloop
  endfacet
  facet normal 0 -1 0
    outer loop
      vertex 45 0 10
      vertex 50 0 0
      vertex 49 0 11
    endloop
  endfacet
  facet normal 0 -0.707107 -0.707107
    outer loop
      vertex 2 1.1 28
      vertex 49 0.0999994 29
      vertex 1 0.0999994 29
    endloop
  endfacet
  facet normal 0 -0.707107 -0.707107
    outer loop
      vertex 49 0.0999994 29
      vertex 2 1.1 28
      vertex 48 1.1 28
    endloop
  endfacet
  facet normal 1 -0 0
    outer loop
      vertex 1 0 29
      vertex 1 0.0999994 11
      vertex 1 0.0999994 29
    endloop
  endfacet
  facet normal 1 0 0
    outer loop
      vertex 1 0.0999994 11
      vertex 1 0 29
      vertex 1 0 11
    endloop
  endfacet
  facet normal 0.707107 -0.707107 0
    outer loop
      vertex 1 0.0999994 29
      vertex 2 1.1 12
      vertex 2 1.1 28
    endloop
  endfacet
  facet normal 0.707107 -0.707107 0
    outer loop
      vertex 2 1.1 12
      vertex 1 0.0999994 29
      vertex 1 0.0999994 11
    endloop
  endfacet
  facet normal 0 0 -1
    outer loop
      vertex 1 0 29
      vertex 49 0.0999994 29
      vertex 49 0 29
    endloop
  endfacet
  facet normal -0 0 -1
    outer loop
      vertex 49 0.0999994 29
      vertex 1 0 29
      vertex 1 0.0999994 29
    endloop
  endfacet
  facet normal 0 -1 0
    outer loop
      vertex 2 1.1 12
      vertex 48 1.1 28
      vertex 2 1.1 28
    endloop
  endfacet
  facet normal 0 -1 -0
    outer loop
      vertex 48 1.1 28
      vertex 2 1.1 12
      vertex 48 1.1 12
    endloop
  endfacet
  facet normal -1 0 0
    outer loop
      vertex 49 0 11
      vertex 49 0.0999994 29
      vertex 49 0.0999994 11
    endloop
  endfacet
  facet normal -1 -0 0
    outer loop
      vertex 49 0.0999994 29
      vertex 49 0 11
      vertex 49 0 29
    endloop
  endfacet
  facet normal -0 0 1
    outer loop
      vertex 1 0.0999994 11
      vertex 49 0 11
      vertex 49 0.0999994 11
    endloop
  endfacet
  facet normal 0 0 1
    outer loop
      vertex 49 0 11
      vertex 1 0.0999994 11
      vertex 1 0 11
    endloop
  endfacet
  facet normal 0 -0.707107 0.707107
    outer loop
      vertex 1 0.0999994 11
      vertex 48 1.1 12
      vertex 2 1.1 12
    endloop
  endfacet
  facet normal 0 -0.707107 0.707107
    outer loop
      vertex 48 1.1 12
      vertex 1 0.0999994 11
      vertex 49 0.0999994 11
    endloop
  endfacet
  facet normal -0.707107 -0.707107 0
    outer loop
      vertex 49 0.0999994 11
      vertex 48 1.1 28
      vertex 48 1.1 12
    endloop
  endfacet
  facet normal -0.707107 -0.707107 0
    outer loop
      vertex 48 1.1 28
      vertex 49 0.0999994 11
      vertex 49 0.0999994 29
    endloop
  endfacet
  facet normal 0 0.707107 0.707107
    outer loop
      vertex 49 4 11
      vertex 2 3 12
      vertex 48 3 12
    endloop
  endfacet
  facet normal 0 0.707107 0.707107
    outer loop
      vertex 2 3 12
      vertex 49 4 11
      vertex 1 4 11
    endloop
  endfacet
  facet normal 0 0.707107 -0.707107
    outer loop
      vertex 48 3 28
      vertex 1 4 29
      vertex 49 4 29
    endloop
  endfacet
  facet normal 0 0.707107 -0.707107
    outer loop
      vertex 1 4 29
      vertex 48 3 28
      vertex 2 3 28
    endloop
  endfacet
  facet normal -0.707107 0.707107 0
    outer loop
      vertex 48 3 12
      vertex 49 4 29
      vertex 49 4 11
    endloop
  endfacet
  facet normal -0.707107 0.707107 0
    outer loop
      vertex 49 4 29
      vertex 48 3 12
      vertex 48 3 28
    endloop
  endfacet
  facet normal 0.707107 0.707107 0
    outer loop
      vertex 2 3 28
      vertex 1 4 11
      vertex 1 4 29
    endloop
  endfacet
  facet normal 0.707107 0.707107 0
    outer loop
      vertex 1 4 11
      vertex 2 3 28
      vertex 2 3 12
    endloop
  endfacet
  facet normal 0 1 -0
    outer loop
      vertex 48 3 12
      vertex 2 3 28
      vertex 48 3 28
    endloop
  endfacet
  facet normal 0 1 0
    outer loop
      vertex 2 3 28
      vertex 48 3 12
      vertex 2 3 12
    endloop
  endfacet
  facet normal 1 -0 0
    outer loop
      vertex 5 3 10
      vertex 5 4 0
      vertex 5 4 10
    endloop
  endfacet
  facet normal 1 0 0
    outer loop
      vertex 5 4 0
      vertex 5 3 10
      vertex 5 3 0
    endloop
  endfacet
  facet normal 0 0 -1
    outer loop
      vertex 0 3 0
      vertex 5 4 0
      vertex 5 3 0
    endloop
  endfacet
  facet normal -0 0 -1
    outer loop
      vertex 5 4 0
      vertex 0 3 0
      vertex 0 4 0
    endloop
  endfacet
  facet normal 0 -1 0
    outer loop
      vertex 0 3 0
      vertex 5 3 10
      vertex 0 3 10
    endloop
  endfacet
  facet normal 0 -1 -0
    outer loop
      vertex 5 3 10
      vertex 0 3 0
      vertex 5 3 0
    endloop
  endfacet
  facet normal 0 0 -1
    outer loop
      vertex 45 3 0
      vertex 50 4 0
      vertex 50 3 0
    endloop
  endfacet
  facet normal -0 0 -1
    outer loop
      vertex 50 4 0
      vertex 45 3 0
      vertex 45 4 0
    endloop
  endfacet
  facet normal -1 0 0
    outer loop
      vertex 45 3 0
      vertex 45 4 10
      vertex 45 4 0
    endloop
  endfacet
  facet normal -1 -0 0
    outer loop
      vertex 45 4 10
      vertex 45 3 0
      vertex 45 3 10
    endloop
  endfacet
  facet normal 0 -1 0
    outer loop
      vertex 45 3 0
      vertex 50 3 10
      vertex 45 3 10
    endloop
  endfacet
  facet normal 0 -1 -0
    outer loop
      vertex 50 3 10
      vertex 45 3 0
      vertex 50 3 0
    endloop
  endfacet
  facet normal 1 -0 0
    outer loop
      vertex 5 0 10
      vertex 5 1 0
      vertex 5 1 10
    endloop
  endfacet
  facet normal 1 0 0
    outer loop
      vertex 5 1 0
      vertex 5 0 10
      vertex 5 0 0
    endloop
  endfacet
  facet normal 0 0 -1
    outer loop
      vertex 0 0 0
      vertex 5 1 0
      vertex 5 0 0
    endloop
  endfacet
  facet normal -0 0 -1
    outer loop
      vertex 5 1 0
      vertex 0 0 0
      vertex 0 1 0
    endloop
  endfacet
  facet normal 0 1 -0
    outer loop
      vertex 5 1 0
      vertex 0 1 10
      vertex 5 1 10
    endloop
  endfacet
  facet normal 0 1 0
    outer loop
      vertex 0 1 10
      vertex 5 1 0
      vertex 0 1 0
    endloop
  endfacet
  facet normal 0 0 -1
    outer loop
      vertex 45 0 0
      vertex 50 1 0
      vertex 50 0 0
    endloop
  endfacet
  facet normal -0 0 -1
    outer loop
      vertex 50 1 0
      vertex 45 0 0
      vertex 45 1 0
    endloop
  endfacet
  facet normal -1 0 0
    outer loop
      vertex 45 0 0
      vertex 45 1 10
      vertex 45 1 0
    endloop
  endfacet
  facet normal -1 -0 0
    outer loop
      vertex 45 1 10
      vertex 45 0 0
      vertex 45 0 10
    endloop
  endfacet
  facet normal 0 1 -0
    outer loop
      vertex 50 1 0
      vertex 45 1 10
      vertex 50 1 10
    endloop
  endfacet
  facet normal 0 1 0
    outer loop
      vertex 45 1 10
      vertex 50 1 0
      vertex 45 1 0
    endloop
  endfacet
endsolid OpenSCAD_Model
