<?xml version="1.0" encoding="UTF-8" standalone="no"?>
<!-- Created with Inkscape (http://www.inkscape.org/) -->

<svg
   xmlns:dc="http://purl.org/dc/elements/1.1/"
   xmlns:cc="http://creativecommons.org/ns#"
   xmlns:rdf="http://www.w3.org/1999/02/22-rdf-syntax-ns#"
   xmlns:svg="http://www.w3.org/2000/svg"
   xmlns="http://www.w3.org/2000/svg"
   version="1.0"
   width="100%"
   height="100%"
   viewBox="0 0 45.853369 99.999631"
   id="svg4753"
   xml:space="preserve"><metadata
     id="metadata4763"><rdf:RDF><cc:Work
         rdf:about=""><dc:format>image/svg+xml</dc:format><dc:type
           rdf:resource="http://purl.org/dc/dcmitype/StillImage" /><dc:title></dc:title></cc:Work></rdf:RDF></metadata><defs
     id="defs4761" /><path
     d="m 29.782779,18.047 c 5.697,0 8.008,4.695 8.871,7.283 l 6.999,23.008 c 1.396,4.949 -4.899,6.998 -6.4,2.175 l -6.298,-21.125 h -1.833 l 10.916,37.578 h -10.057 v 29.296 c 0,4.996 -7.514,4.971 -7.514,0 V 66.774 h -3.063 l 0.005,29.447 c 0,5.037 -7.545,5.037 -7.545,0 l -0.002,-29.255 H 3.7727783 L 14.603779,29.388 h -1.694 l -6.2990007,21.2 c -1.5,4.621 -7.85,2.724 -6.39599993,-2.228 L 7.2077783,25.33 c 0.749,-2.625 3.0450007,-7.283 8.7950007,-7.283 h 13.78 z"
     id="path4755" /><circle
     cx="22.924999"
     cy="8.1639996"
     r="8.1639996"
     transform="translate(0.00777837,0)"
     id="circle4757" /></svg>