  0
SECTION
  2
HEADER
  9
$ACADVER
  1
AC1014
  9
$HANDSEED
  5
FFFF
  9
$MEASUREMENT
 70
     1
  0
ENDSEC
  0
SECTION
  2
TABLES
  0
TABLE
  2
VPORT
  5
8
330
0
100
AcDbSymbolTable
 70
     4
  0
VPORT
  5
2E
330
8
100
AcDbSymbolTableRecord
100
AcDbViewportTableRecord
  2
*ACTIVE
 70
     0
 10
0.0
 20
0.0
 11
1.0
 21
1.0
 12
210.0
 22
148.5
 13
0.0
 23
0.0
 14
10.0
 24
10.0
 15
10.0
 25
10.0
 16
0.0
 26
0.0
 36
1.0
 17
0.0
 27
0.0
 37
0.0
 40
341.0
 41
1.24
 42
50.0
 43
0.0
 44
0.0
 50
0.0
 51
0.0
 71
     0
 72
   100
 73
     1
 74
     3
 75
     0
 76
     0
 77
     0
 78
     0
  0
ENDTAB
  0
TABLE
  2
LTYPE
  5
5
330
0
100
AcDbSymbolTable
 70
     1
  0
LTYPE
  5
14
330
5
100
AcDbSymbolTableRecord
100
AcDbLinetypeTableRecord
  2
BYBLOCK
 70
     0
  3

 72
    65
 73
     0
 40
0.0
  0
LTYPE
  5
15
330
5
100
AcDbSymbolTableRecord
100
AcDbLinetypeTableRecord
  2
BYLAYER
 70
     0
  3

 72
    65
 73
     0
 40
0.0
  0
LTYPE
  5
16
330
5
100
AcDbSymbolTableRecord
100
AcDbLinetypeTableRecord
  2
CONTINUOUS
 70
     0
  3
Solid line
 72
    65
 73
     0
 40
0.0
  0
ENDTAB
  0
TABLE
  2
LAYER
  5
2
100
AcDbSymbolTable
 70
1
  0
LAYER
  5
50
100
AcDbSymbolTableRecord
100
AcDbLayerTableRecord
  2
0
 70
0
  6
CONTINUOUS
  0
ENDTAB
  0
TABLE
  2
STYLE
  5
3
330
0
100
AcDbSymbolTable
 70
     1
  0
STYLE
  5
11
330
3
100
AcDbSymbolTableRecord
100
AcDbTextStyleTableRecord
  2
STANDARD
 70
     0
 40
0.0
 41
1.0
 50
0.0
 71
     0
 42
2.5
  3
txt
  4

  0
ENDTAB
  0
TABLE
  2
VIEW
  5
6
330
0
100
AcDbSymbolTable
 70
     0
  0
ENDTAB
  0
TABLE
  2
UCS
  5
7
330
0
100
AcDbSymbolTable
 70
     0
  0
ENDTAB
  0
TABLE
  2
APPID
  5
9
330
0
100
AcDbSymbolTable
 70
     2
  0
APPID
  5
12
330
9
100
AcDbSymbolTableRecord
100
AcDbRegAppTableRecord
  2
ACAD
 70
     0
  0
ENDTAB
  0
TABLE
  2
DIMSTYLE
  5
A
330
0
100
AcDbSymbolTable
 70
     1
  0
DIMSTYLE
105
27
330
A
100
AcDbSymbolTableRecord
100
AcDbDimStyleTableRecord
  2
ISO-25
 70
     0
  3

  4

  5

  6

  7

 40
1.0
 41
2.5
 42
0.625
 43
3.75
 44
1.25
 45
0.0
 46
0.0
 47
0.0
 48
0.0
140
2.5
141
2.5
142
0.0
143
0.03937007874016
144
1.0
145
0.0
146
1.0
147
0.625
 71
     0
 72
     0
 73
     0
 74
     0
 75
     0
 76
     0
 77
     1
 78
     8
170
     0
171
     3
172
     1
173
     0
174
     0
175
     0
176
     0
177
     0
178
     0
270
     2
271
     2
272
     2
273
     2
274
     3
340
11
275
     0
280
     0
281
     0
282
     0
283
     0
284
     8
285
     0
286
     0
287
     3
288
     0
  0
ENDTAB
  0
TABLE
  2
BLOCK_RECORD
  5
1
330
0
100
AcDbSymbolTable
 70
     1
  0
BLOCK_RECORD
  5
1F
330
1
100
AcDbSymbolTableRecord
100
AcDbBlockTableRecord
  2
*MODEL_SPACE
  0
BLOCK_RECORD
  5
1B
330
1
100
AcDbSymbolTableRecord
100
AcDbBlockTableRecord
  2
*PAPER_SPACE
  0
ENDTAB
  0
ENDSEC
  0
SECTION
  2
BLOCKS
  0
BLOCK
  5
20
330
1F
100
AcDbEntity
  8
0
100
AcDbBlockBegin
  2
*MODEL_SPACE
 70
     0
 10
0.0
 20
0.0
 30
0.0
  3
*MODEL_SPACE
  1

  0
ENDBLK
  5
21
330
1F
100
AcDbEntity
  8
0
100
AcDbBlockEnd
  0
BLOCK
  5
1C
330
1B
100
AcDbEntity
 67
     1
  8
0
100
AcDbBlockBegin
  2
*PAPER_SPACE
  1

  0
ENDBLK
  5
1D
330
1B
100
AcDbEntity
 67
     1
  8
0
100
AcDbBlockEnd
  0
ENDSEC
  0
SECTION
  2
ENTITIES
  0
LINE
  5
100
100
AcDbEntity
  8
0
 62
7
100
AcDbLine
 10
8.405362
 20
23.128958
 30
0.0
 11
8.553312
 21
23.125134
 31
0.0
  0
LINE
  5
101
100
AcDbEntity
  8
0
 62
7
100
AcDbLine
 10
8.553312
 20
23.125134
 30
0.0
 11
8.695763
 21
23.113898
 31
0.0
  0
LINE
  5
102
100
AcDbEntity
  8
0
 62
7
100
AcDbLine
 10
8.695763
 20
23.113898
 30
0.0
 11
8.832816
 21
23.095602
 31
0.0
  0
LINE
  5
103
100
AcDbEntity
  8
0
 62
7
100
AcDbLine
 10
8.832816
 20
23.095602
 30
0.0
 11
8.964569
 21
23.070597
 31
0.0
  0
LINE
  5
104
100
AcDbEntity
  8
0
 62
7
100
AcDbLine
 10
8.964569
 20
23.070597
 30
0.0
 11
9.091124
 21
23.039233
 31
0.0
  0
LINE
  5
105
100
AcDbEntity
  8
0
 62
7
100
AcDbLine
 10
9.091124
 20
23.039233
 30
0.0
 11
9.212580
 21
23.001863
 31
0.0
  0
LINE
  5
106
100
AcDbEntity
  8
0
 62
7
100
AcDbLine
 10
9.212580
 20
23.001863
 30
0.0
 11
9.329038
 21
22.958838
 31
0.0
  0
LINE
  5
107
100
AcDbEntity
  8
0
 62
7
100
AcDbLine
 10
9.329038
 20
22.958838
 30
0.0
 11
9.440597
 21
22.910510
 31
0.0
  0
LINE
  5
108
100
AcDbEntity
  8
0
 62
7
100
AcDbLine
 10
9.440597
 20
22.910510
 30
0.0
 11
9.547359
 21
22.857230
 31
0.0
  0
LINE
  5
109
100
AcDbEntity
  8
0
 62
7
100
AcDbLine
 10
9.547359
 20
22.857230
 30
0.0
 11
9.649422
 21
22.799349
 31
0.0
  0
LINE
  5
10a
100
AcDbEntity
  8
0
 62
7
100
AcDbLine
 10
9.649422
 20
22.799349
 30
0.0
 11
9.746888
 21
22.737220
 31
0.0
  0
LINE
  5
10b
100
AcDbEntity
  8
0
 62
7
100
AcDbLine
 10
9.746888
 20
22.737220
 30
0.0
 11
9.839857
 21
22.671193
 31
0.0
  0
LINE
  5
10c
100
AcDbEntity
  8
0
 62
7
100
AcDbLine
 10
9.839857
 20
22.671193
 30
0.0
 11
9.928428
 21
22.601620
 31
0.0
  0
LINE
  5
10d
100
AcDbEntity
  8
0
 62
7
100
AcDbLine
 10
9.928428
 20
22.601620
 30
0.0
 11
10.012701
 21
22.528854
 31
0.0
  0
LINE
  5
10e
100
AcDbEntity
  8
0
 62
7
100
AcDbLine
 10
10.012701
 20
22.528854
 30
0.0
 11
10.092778
 21
22.453244
 31
0.0
  0
LINE
  5
10f
100
AcDbEntity
  8
0
 62
7
100
AcDbLine
 10
10.092778
 20
22.453244
 30
0.0
 11
10.168757
 21
22.375143
 31
0.0
  0
LINE
  5
110
100
AcDbEntity
  8
0
 62
7
100
AcDbLine
 10
10.168757
 20
22.375143
 30
0.0
 11
10.240740
 21
22.294902
 31
0.0
  0
LINE
  5
111
100
AcDbEntity
  8
0
 62
7
100
AcDbLine
 10
10.240740
 20
22.294902
 30
0.0
 11
10.308825
 21
22.212873
 31
0.0
  0
LINE
  5
112
100
AcDbEntity
  8
0
 62
7
100
AcDbLine
 10
10.308825
 20
22.212873
 30
0.0
 11
10.373115
 21
22.129407
 31
0.0
  0
LINE
  5
113
100
AcDbEntity
  8
0
 62
7
100
AcDbLine
 10
10.373115
 20
22.129407
 30
0.0
 11
10.433708
 21
22.044856
 31
0.0
  0
LINE
  5
114
100
AcDbEntity
  8
0
 62
7
100
AcDbLine
 10
10.433708
 20
22.044856
 30
0.0
 11
10.490704
 21
21.959571
 31
0.0
  0
LINE
  5
115
100
AcDbEntity
  8
0
 62
7
100
AcDbLine
 10
10.490704
 20
21.959571
 30
0.0
 11
10.544205
 21
21.873904
 31
0.0
  0
LINE
  5
116
100
AcDbEntity
  8
0
 62
7
100
AcDbLine
 10
10.544205
 20
21.873904
 30
0.0
 11
10.594309
 21
21.788206
 31
0.0
  0
LINE
  5
117
100
AcDbEntity
  8
0
 62
7
100
AcDbLine
 10
10.594309
 20
21.788206
 30
0.0
 11
10.641118
 21
21.702828
 31
0.0
  0
LINE
  5
118
100
AcDbEntity
  8
0
 62
7
100
AcDbLine
 10
10.641118
 20
21.702828
 30
0.0
 11
10.684731
 21
21.618123
 31
0.0
  0
LINE
  5
119
100
AcDbEntity
  8
0
 62
7
100
AcDbLine
 10
10.684731
 20
21.618123
 30
0.0
 11
10.725248
 21
21.534441
 31
0.0
  0
LINE
  5
11a
100
AcDbEntity
  8
0
 62
7
100
AcDbLine
 10
10.725248
 20
21.534441
 30
0.0
 11
10.762770
 21
21.452135
 31
0.0
  0
LINE
  5
11b
100
AcDbEntity
  8
0
 62
7
100
AcDbLine
 10
10.762770
 20
21.452135
 30
0.0
 11
10.797397
 21
21.371555
 31
0.0
  0
LINE
  5
11c
100
AcDbEntity
  8
0
 62
7
100
AcDbLine
 10
10.797397
 20
21.371555
 30
0.0
 11
10.829229
 21
21.293054
 31
0.0
  0
LINE
  5
11d
100
AcDbEntity
  8
0
 62
7
100
AcDbLine
 10
10.829229
 20
21.293054
 30
0.0
 11
10.858366
 21
21.216982
 31
0.0
  0
LINE
  5
11e
100
AcDbEntity
  8
0
 62
7
100
AcDbLine
 10
10.858366
 20
21.216982
 30
0.0
 11
10.884909
 21
21.143692
 31
0.0
  0
LINE
  5
11f
100
AcDbEntity
  8
0
 62
7
100
AcDbLine
 10
10.884909
 20
21.143692
 30
0.0
 11
10.908957
 21
21.073534
 31
0.0
  0
LINE
  5
120
100
AcDbEntity
  8
0
 62
7
100
AcDbLine
 10
10.908957
 20
21.073534
 30
0.0
 11
10.970684
 21
20.870616
 31
0.0
  0
LINE
  5
121
100
AcDbEntity
  8
0
 62
7
100
AcDbLine
 10
10.970684
 20
20.870616
 30
0.0
 11
11.032412
 21
20.667699
 31
0.0
  0
LINE
  5
122
100
AcDbEntity
  8
0
 62
7
100
AcDbLine
 10
11.032412
 20
20.667699
 30
0.0
 11
11.094139
 21
20.464781
 31
0.0
  0
LINE
  5
123
100
AcDbEntity
  8
0
 62
7
100
AcDbLine
 10
11.094139
 20
20.464781
 30
0.0
 11
11.155866
 21
20.261863
 31
0.0
  0
LINE
  5
124
100
AcDbEntity
  8
0
 62
7
100
AcDbLine
 10
11.155866
 20
20.261863
 30
0.0
 11
11.217594
 21
20.058945
 31
0.0
  0
LINE
  5
125
100
AcDbEntity
  8
0
 62
7
100
AcDbLine
 10
11.217594
 20
20.058945
 30
0.0
 11
11.279321
 21
19.856028
 31
0.0
  0
LINE
  5
126
100
AcDbEntity
  8
0
 62
7
100
AcDbLine
 10
11.279321
 20
19.856028
 30
0.0
 11
11.341048
 21
19.653110
 31
0.0
  0
LINE
  5
127
100
AcDbEntity
  8
0
 62
7
100
AcDbLine
 10
11.341048
 20
19.653110
 30
0.0
 11
11.402775
 21
19.450192
 31
0.0
  0
LINE
  5
128
100
AcDbEntity
  8
0
 62
7
100
AcDbLine
 10
11.402775
 20
19.450192
 30
0.0
 11
11.464503
 21
19.247274
 31
0.0
  0
LINE
  5
129
100
AcDbEntity
  8
0
 62
7
100
AcDbLine
 10
11.464503
 20
19.247274
 30
0.0
 11
11.526230
 21
19.044356
 31
0.0
  0
LINE
  5
12a
100
AcDbEntity
  8
0
 62
7
100
AcDbLine
 10
11.526230
 20
19.044356
 30
0.0
 11
11.587957
 21
18.841439
 31
0.0
  0
LINE
  5
12b
100
AcDbEntity
  8
0
 62
7
100
AcDbLine
 10
11.587957
 20
18.841439
 30
0.0
 11
11.649685
 21
18.638521
 31
0.0
  0
LINE
  5
12c
100
AcDbEntity
  8
0
 62
7
100
AcDbLine
 10
11.649685
 20
18.638521
 30
0.0
 11
11.711412
 21
18.435603
 31
0.0
  0
LINE
  5
12d
100
AcDbEntity
  8
0
 62
7
100
AcDbLine
 10
11.711412
 20
18.435603
 30
0.0
 11
11.773139
 21
18.232685
 31
0.0
  0
LINE
  5
12e
100
AcDbEntity
  8
0
 62
7
100
AcDbLine
 10
11.773139
 20
18.232685
 30
0.0
 11
11.834866
 21
18.029768
 31
0.0
  0
LINE
  5
12f
100
AcDbEntity
  8
0
 62
7
100
AcDbLine
 10
11.834866
 20
18.029768
 30
0.0
 11
11.896594
 21
17.826850
 31
0.0
  0
LINE
  5
130
100
AcDbEntity
  8
0
 62
7
100
AcDbLine
 10
11.896594
 20
17.826850
 30
0.0
 11
11.958321
 21
17.623932
 31
0.0
  0
LINE
  5
131
100
AcDbEntity
  8
0
 62
7
100
AcDbLine
 10
11.958321
 20
17.623932
 30
0.0
 11
12.020048
 21
17.421014
 31
0.0
  0
LINE
  5
132
100
AcDbEntity
  8
0
 62
7
100
AcDbLine
 10
12.020048
 20
17.421014
 30
0.0
 11
12.081776
 21
17.218096
 31
0.0
  0
LINE
  5
133
100
AcDbEntity
  8
0
 62
7
100
AcDbLine
 10
12.081776
 20
17.218096
 30
0.0
 11
12.143503
 21
17.015179
 31
0.0
  0
LINE
  5
134
100
AcDbEntity
  8
0
 62
7
100
AcDbLine
 10
12.143503
 20
17.015179
 30
0.0
 11
12.205230
 21
16.812261
 31
0.0
  0
LINE
  5
135
100
AcDbEntity
  8
0
 62
7
100
AcDbLine
 10
12.205230
 20
16.812261
 30
0.0
 11
12.266957
 21
16.609343
 31
0.0
  0
LINE
  5
136
100
AcDbEntity
  8
0
 62
7
100
AcDbLine
 10
12.266957
 20
16.609343
 30
0.0
 11
12.328685
 21
16.406425
 31
0.0
  0
LINE
  5
137
100
AcDbEntity
  8
0
 62
7
100
AcDbLine
 10
12.328685
 20
16.406425
 30
0.0
 11
12.390412
 21
16.203508
 31
0.0
  0
LINE
  5
138
100
AcDbEntity
  8
0
 62
7
100
AcDbLine
 10
12.390412
 20
16.203508
 30
0.0
 11
12.452139
 21
16.000590
 31
0.0
  0
LINE
  5
139
100
AcDbEntity
  8
0
 62
7
100
AcDbLine
 10
12.452139
 20
16.000590
 30
0.0
 11
12.513867
 21
15.797672
 31
0.0
  0
LINE
  5
13a
100
AcDbEntity
  8
0
 62
7
100
AcDbLine
 10
12.513867
 20
15.797672
 30
0.0
 11
12.575594
 21
15.594754
 31
0.0
  0
LINE
  5
13b
100
AcDbEntity
  8
0
 62
7
100
AcDbLine
 10
12.575594
 20
15.594754
 30
0.0
 11
12.637321
 21
15.391836
 31
0.0
  0
LINE
  5
13c
100
AcDbEntity
  8
0
 62
7
100
AcDbLine
 10
12.637321
 20
15.391836
 30
0.0
 11
12.699049
 21
15.188919
 31
0.0
  0
LINE
  5
13d
100
AcDbEntity
  8
0
 62
7
100
AcDbLine
 10
12.699049
 20
15.188919
 30
0.0
 11
12.760776
 21
14.986001
 31
0.0
  0
LINE
  5
13e
100
AcDbEntity
  8
0
 62
7
100
AcDbLine
 10
12.760776
 20
14.986001
 30
0.0
 11
12.822503
 21
14.783083
 31
0.0
  0
LINE
  5
13f
100
AcDbEntity
  8
0
 62
7
100
AcDbLine
 10
12.822503
 20
14.783083
 30
0.0
 11
12.884230
 21
14.580165
 31
0.0
  0
LINE
  5
140
100
AcDbEntity
  8
0
 62
7
100
AcDbLine
 10
12.884230
 20
14.580165
 30
0.0
 11
12.914915
 21
14.451655
 31
0.0
  0
LINE
  5
141
100
AcDbEntity
  8
0
 62
7
100
AcDbLine
 10
12.914915
 20
14.451655
 30
0.0
 11
12.933524
 21
14.328146
 31
0.0
  0
LINE
  5
142
100
AcDbEntity
  8
0
 62
7
100
AcDbLine
 10
12.933524
 20
14.328146
 30
0.0
 11
12.940707
 21
14.209842
 31
0.0
  0
LINE
  5
143
100
AcDbEntity
  8
0
 62
7
100
AcDbLine
 10
12.940707
 20
14.209842
 30
0.0
 11
12.937109
 21
14.096950
 31
0.0
  0
LINE
  5
144
100
AcDbEntity
  8
0
 62
7
100
AcDbLine
 10
12.937109
 20
14.096950
 30
0.0
 11
12.923373
 21
13.989675
 31
0.0
  0
LINE
  5
145
100
AcDbEntity
  8
0
 62
7
100
AcDbLine
 10
12.923373
 20
13.989675
 30
0.0
 11
12.900143
 21
13.888221
 31
0.0
  0
LINE
  5
146
100
AcDbEntity
  8
0
 62
7
100
AcDbLine
 10
12.900143
 20
13.888221
 30
0.0
 11
12.868067
 21
13.792795
 31
0.0
  0
LINE
  5
147
100
AcDbEntity
  8
0
 62
7
100
AcDbLine
 10
12.868067
 20
13.792795
 30
0.0
 11
12.827789
 21
13.703601
 31
0.0
  0
LINE
  5
148
100
AcDbEntity
  8
0
 62
7
100
AcDbLine
 10
12.827789
 20
13.703601
 30
0.0
 11
12.779954
 21
13.620844
 31
0.0
  0
LINE
  5
149
100
AcDbEntity
  8
0
 62
7
100
AcDbLine
 10
12.779954
 20
13.620844
 30
0.0
 11
12.725208
 21
13.544731
 31
0.0
  0
LINE
  5
14a
100
AcDbEntity
  8
0
 62
7
100
AcDbLine
 10
12.725208
 20
13.544731
 30
0.0
 11
12.664196
 21
13.475465
 31
0.0
  0
LINE
  5
14b
100
AcDbEntity
  8
0
 62
7
100
AcDbLine
 10
12.664196
 20
13.475465
 30
0.0
 11
12.597562
 21
13.413253
 31
0.0
  0
LINE
  5
14c
100
AcDbEntity
  8
0
 62
7
100
AcDbLine
 10
12.597562
 20
13.413253
 30
0.0
 11
12.525952
 21
13.358300
 31
0.0
  0
LINE
  5
14d
100
AcDbEntity
  8
0
 62
7
100
AcDbLine
 10
12.525952
 20
13.358300
 30
0.0
 11
12.450011
 21
13.310811
 31
0.0
  0
LINE
  5
14e
100
AcDbEntity
  8
0
 62
7
100
AcDbLine
 10
12.450011
 20
13.310811
 30
0.0
 11
12.370384
 21
13.270991
 31
0.0
  0
LINE
  5
14f
100
AcDbEntity
  8
0
 62
7
100
AcDbLine
 10
12.370384
 20
13.270991
 30
0.0
 11
12.287717
 21
13.239045
 31
0.0
  0
LINE
  5
150
100
AcDbEntity
  8
0
 62
7
100
AcDbLine
 10
12.287717
 20
13.239045
 30
0.0
 11
12.202655
 21
13.215181
 31
0.0
  0
LINE
  5
151
100
AcDbEntity
  8
0
 62
7
100
AcDbLine
 10
12.202655
 20
13.215181
 30
0.0
 11
12.115843
 21
13.199599
 31
0.0
  0
LINE
  5
152
100
AcDbEntity
  8
0
 62
7
100
AcDbLine
 10
12.115843
 20
13.199599
 30
0.0
 11
12.027925
 21
13.192507
 31
0.0
  0
LINE
  5
153
100
AcDbEntity
  8
0
 62
7
100
AcDbLine
 10
12.027925
 20
13.192507
 30
0.0
 11
11.939548
 21
13.194116
 31
0.0
  0
LINE
  5
154
100
AcDbEntity
  8
0
 62
7
100
AcDbLine
 10
11.939548
 20
13.194116
 30
0.0
 11
11.851357
 21
13.204620
 31
0.0
  0
LINE
  5
155
100
AcDbEntity
  8
0
 62
7
100
AcDbLine
 10
11.851357
 20
13.204620
 30
0.0
 11
11.763996
 21
13.224231
 31
0.0
  0
LINE
  5
156
100
AcDbEntity
  8
0
 62
7
100
AcDbLine
 10
11.763996
 20
13.224231
 30
0.0
 11
11.678110
 21
13.253151
 31
0.0
  0
LINE
  5
157
100
AcDbEntity
  8
0
 62
7
100
AcDbLine
 10
11.678110
 20
13.253151
 30
0.0
 11
11.594345
 21
13.291591
 31
0.0
  0
LINE
  5
158
100
AcDbEntity
  8
0
 62
7
100
AcDbLine
 10
11.594345
 20
13.291591
 30
0.0
 11
11.513347
 21
13.339752
 31
0.0
  0
LINE
  5
159
100
AcDbEntity
  8
0
 62
7
100
AcDbLine
 10
11.513347
 20
13.339752
 30
0.0
 11
11.435760
 21
13.397840
 31
0.0
  0
LINE
  5
15a
100
AcDbEntity
  8
0
 62
7
100
AcDbLine
 10
11.435760
 20
13.397840
 30
0.0
 11
11.362230
 21
13.466060
 31
0.0
  0
LINE
  5
15b
100
AcDbEntity
  8
0
 62
7
100
AcDbLine
 10
11.362230
 20
13.466060
 30
0.0
 11
11.293401
 21
13.544618
 31
0.0
  0
LINE
  5
15c
100
AcDbEntity
  8
0
 62
7
100
AcDbLine
 10
11.293401
 20
13.544618
 30
0.0
 11
11.229919
 21
13.633719
 31
0.0
  0
LINE
  5
15d
100
AcDbEntity
  8
0
 62
7
100
AcDbLine
 10
11.229919
 20
13.633719
 30
0.0
 11
11.172429
 21
13.733568
 31
0.0
  0
LINE
  5
15e
100
AcDbEntity
  8
0
 62
7
100
AcDbLine
 10
11.172429
 20
13.733568
 30
0.0
 11
11.121577
 21
13.844370
 31
0.0
  0
LINE
  5
15f
100
AcDbEntity
  8
0
 62
7
100
AcDbLine
 10
11.121577
 20
13.844370
 30
0.0
 11
11.078007
 21
13.966331
 31
0.0
  0
LINE
  5
160
100
AcDbEntity
  8
0
 62
7
100
AcDbLine
 10
11.078007
 20
13.966331
 30
0.0
 11
11.022462
 21
14.152642
 31
0.0
  0
LINE
  5
161
100
AcDbEntity
  8
0
 62
7
100
AcDbLine
 10
11.022462
 20
14.152642
 30
0.0
 11
10.966917
 21
14.338953
 31
0.0
  0
LINE
  5
162
100
AcDbEntity
  8
0
 62
7
100
AcDbLine
 10
10.966917
 20
14.338953
 30
0.0
 11
10.911372
 21
14.525263
 31
0.0
  0
LINE
  5
163
100
AcDbEntity
  8
0
 62
7
100
AcDbLine
 10
10.911372
 20
14.525263
 30
0.0
 11
10.855827
 21
14.711574
 31
0.0
  0
LINE
  5
164
100
AcDbEntity
  8
0
 62
7
100
AcDbLine
 10
10.855827
 20
14.711574
 30
0.0
 11
10.800282
 21
14.897885
 31
0.0
  0
LINE
  5
165
100
AcDbEntity
  8
0
 62
7
100
AcDbLine
 10
10.800282
 20
14.897885
 30
0.0
 11
10.744737
 21
15.084196
 31
0.0
  0
LINE
  5
166
100
AcDbEntity
  8
0
 62
7
100
AcDbLine
 10
10.744737
 20
15.084196
 30
0.0
 11
10.689192
 21
15.270507
 31
0.0
  0
LINE
  5
167
100
AcDbEntity
  8
0
 62
7
100
AcDbLine
 10
10.689192
 20
15.270507
 30
0.0
 11
10.633648
 21
15.456817
 31
0.0
  0
LINE
  5
168
100
AcDbEntity
  8
0
 62
7
100
AcDbLine
 10
10.633648
 20
15.456817
 30
0.0
 11
10.578103
 21
15.643128
 31
0.0
  0
LINE
  5
169
100
AcDbEntity
  8
0
 62
7
100
AcDbLine
 10
10.578103
 20
15.643128
 30
0.0
 11
10.522558
 21
15.829439
 31
0.0
  0
LINE
  5
16a
100
AcDbEntity
  8
0
 62
7
100
AcDbLine
 10
10.522558
 20
15.829439
 30
0.0
 11
10.467013
 21
16.015750
 31
0.0
  0
LINE
  5
16b
100
AcDbEntity
  8
0
 62
7
100
AcDbLine
 10
10.467013
 20
16.015750
 30
0.0
 11
10.411468
 21
16.202060
 31
0.0
  0
LINE
  5
16c
100
AcDbEntity
  8
0
 62
7
100
AcDbLine
 10
10.411468
 20
16.202060
 30
0.0
 11
10.355923
 21
16.388371
 31
0.0
  0
LINE
  5
16d
100
AcDbEntity
  8
0
 62
7
100
AcDbLine
 10
10.355923
 20
16.388371
 30
0.0
 11
10.300378
 21
16.574682
 31
0.0
  0
LINE
  5
16e
100
AcDbEntity
  8
0
 62
7
100
AcDbLine
 10
10.300378
 20
16.574682
 30
0.0
 11
10.244834
 21
16.760993
 31
0.0
  0
LINE
  5
16f
100
AcDbEntity
  8
0
 62
7
100
AcDbLine
 10
10.244834
 20
16.760993
 30
0.0
 11
10.189289
 21
16.947303
 31
0.0
  0
LINE
  5
170
100
AcDbEntity
  8
0
 62
7
100
AcDbLine
 10
10.189289
 20
16.947303
 30
0.0
 11
10.133744
 21
17.133614
 31
0.0
  0
LINE
  5
171
100
AcDbEntity
  8
0
 62
7
100
AcDbLine
 10
10.133744
 20
17.133614
 30
0.0
 11
10.078199
 21
17.319925
 31
0.0
  0
LINE
  5
172
100
AcDbEntity
  8
0
 62
7
100
AcDbLine
 10
10.078199
 20
17.319925
 30
0.0
 11
10.022654
 21
17.506236
 31
0.0
  0
LINE
  5
173
100
AcDbEntity
  8
0
 62
7
100
AcDbLine
 10
10.022654
 20
17.506236
 30
0.0
 11
9.967109
 21
17.692546
 31
0.0
  0
LINE
  5
174
100
AcDbEntity
  8
0
 62
7
100
AcDbLine
 10
9.967109
 20
17.692546
 30
0.0
 11
9.911564
 21
17.878857
 31
0.0
  0
LINE
  5
175
100
AcDbEntity
  8
0
 62
7
100
AcDbLine
 10
9.911564
 20
17.878857
 30
0.0
 11
9.856020
 21
18.065168
 31
0.0
  0
LINE
  5
176
100
AcDbEntity
  8
0
 62
7
100
AcDbLine
 10
9.856020
 20
18.065168
 30
0.0
 11
9.800475
 21
18.251479
 31
0.0
  0
LINE
  5
177
100
AcDbEntity
  8
0
 62
7
100
AcDbLine
 10
9.800475
 20
18.251479
 30
0.0
 11
9.744930
 21
18.437789
 31
0.0
  0
LINE
  5
178
100
AcDbEntity
  8
0
 62
7
100
AcDbLine
 10
9.744930
 20
18.437789
 30
0.0
 11
9.689385
 21
18.624100
 31
0.0
  0
LINE
  5
179
100
AcDbEntity
  8
0
 62
7
100
AcDbLine
 10
9.689385
 20
18.624100
 30
0.0
 11
9.633840
 21
18.810411
 31
0.0
  0
LINE
  5
17a
100
AcDbEntity
  8
0
 62
7
100
AcDbLine
 10
9.633840
 20
18.810411
 30
0.0
 11
9.578295
 21
18.996722
 31
0.0
  0
LINE
  5
17b
100
AcDbEntity
  8
0
 62
7
100
AcDbLine
 10
9.578295
 20
18.996722
 30
0.0
 11
9.522750
 21
19.183032
 31
0.0
  0
LINE
  5
17c
100
AcDbEntity
  8
0
 62
7
100
AcDbLine
 10
9.522750
 20
19.183032
 30
0.0
 11
9.467205
 21
19.369343
 31
0.0
  0
LINE
  5
17d
100
AcDbEntity
  8
0
 62
7
100
AcDbLine
 10
9.467205
 20
19.369343
 30
0.0
 11
9.411661
 21
19.555654
 31
0.0
  0
LINE
  5
17e
100
AcDbEntity
  8
0
 62
7
100
AcDbLine
 10
9.411661
 20
19.555654
 30
0.0
 11
9.356116
 21
19.741965
 31
0.0
  0
LINE
  5
17f
100
AcDbEntity
  8
0
 62
7
100
AcDbLine
 10
9.356116
 20
19.741965
 30
0.0
 11
9.300571
 21
19.928276
 31
0.0
  0
LINE
  5
180
100
AcDbEntity
  8
0
 62
7
100
AcDbLine
 10
9.300571
 20
19.928276
 30
0.0
 11
9.284405
 21
19.928276
 31
0.0
  0
LINE
  5
181
100
AcDbEntity
  8
0
 62
7
100
AcDbLine
 10
9.284405
 20
19.928276
 30
0.0
 11
9.268240
 21
19.928276
 31
0.0
  0
LINE
  5
182
100
AcDbEntity
  8
0
 62
7
100
AcDbLine
 10
9.268240
 20
19.928276
 30
0.0
 11
9.252074
 21
19.928276
 31
0.0
  0
LINE
  5
183
100
AcDbEntity
  8
0
 62
7
100
AcDbLine
 10
9.252074
 20
19.928276
 30
0.0
 11
9.235908
 21
19.928276
 31
0.0
  0
LINE
  5
184
100
AcDbEntity
  8
0
 62
7
100
AcDbLine
 10
9.235908
 20
19.928276
 30
0.0
 11
9.219743
 21
19.928276
 31
0.0
  0
LINE
  5
185
100
AcDbEntity
  8
0
 62
7
100
AcDbLine
 10
9.219743
 20
19.928276
 30
0.0
 11
9.203577
 21
19.928276
 31
0.0
  0
LINE
  5
186
100
AcDbEntity
  8
0
 62
7
100
AcDbLine
 10
9.203577
 20
19.928276
 30
0.0
 11
9.187411
 21
19.928276
 31
0.0
  0
LINE
  5
187
100
AcDbEntity
  8
0
 62
7
100
AcDbLine
 10
9.187411
 20
19.928276
 30
0.0
 11
9.171245
 21
19.928276
 31
0.0
  0
LINE
  5
188
100
AcDbEntity
  8
0
 62
7
100
AcDbLine
 10
9.171245
 20
19.928276
 30
0.0
 11
9.155080
 21
19.928276
 31
0.0
  0
LINE
  5
189
100
AcDbEntity
  8
0
 62
7
100
AcDbLine
 10
9.155080
 20
19.928276
 30
0.0
 11
9.138914
 21
19.928276
 31
0.0
  0
LINE
  5
18a
100
AcDbEntity
  8
0
 62
7
100
AcDbLine
 10
9.138914
 20
19.928276
 30
0.0
 11
9.122748
 21
19.928276
 31
0.0
  0
LINE
  5
18b
100
AcDbEntity
  8
0
 62
7
100
AcDbLine
 10
9.122748
 20
19.928276
 30
0.0
 11
9.106583
 21
19.928276
 31
0.0
  0
LINE
  5
18c
100
AcDbEntity
  8
0
 62
7
100
AcDbLine
 10
9.106583
 20
19.928276
 30
0.0
 11
9.090417
 21
19.928276
 31
0.0
  0
LINE
  5
18d
100
AcDbEntity
  8
0
 62
7
100
AcDbLine
 10
9.090417
 20
19.928276
 30
0.0
 11
9.074251
 21
19.928276
 31
0.0
  0
LINE
  5
18e
100
AcDbEntity
  8
0
 62
7
100
AcDbLine
 10
9.074251
 20
19.928276
 30
0.0
 11
9.058086
 21
19.928276
 31
0.0
  0
LINE
  5
18f
100
AcDbEntity
  8
0
 62
7
100
AcDbLine
 10
9.058086
 20
19.928276
 30
0.0
 11
9.041920
 21
19.928276
 31
0.0
  0
LINE
  5
190
100
AcDbEntity
  8
0
 62
7
100
AcDbLine
 10
9.041920
 20
19.928276
 30
0.0
 11
9.025754
 21
19.928276
 31
0.0
  0
LINE
  5
191
100
AcDbEntity
  8
0
 62
7
100
AcDbLine
 10
9.025754
 20
19.928276
 30
0.0
 11
9.009589
 21
19.928276
 31
0.0
  0
LINE
  5
192
100
AcDbEntity
  8
0
 62
7
100
AcDbLine
 10
9.009589
 20
19.928276
 30
0.0
 11
8.993423
 21
19.928276
 31
0.0
  0
LINE
  5
193
100
AcDbEntity
  8
0
 62
7
100
AcDbLine
 10
8.993423
 20
19.928276
 30
0.0
 11
8.977257
 21
19.928276
 31
0.0
  0
LINE
  5
194
100
AcDbEntity
  8
0
 62
7
100
AcDbLine
 10
8.977257
 20
19.928276
 30
0.0
 11
8.961091
 21
19.928276
 31
0.0
  0
LINE
  5
195
100
AcDbEntity
  8
0
 62
7
100
AcDbLine
 10
8.961091
 20
19.928276
 30
0.0
 11
8.944926
 21
19.928276
 31
0.0
  0
LINE
  5
196
100
AcDbEntity
  8
0
 62
7
100
AcDbLine
 10
8.944926
 20
19.928276
 30
0.0
 11
8.928760
 21
19.928276
 31
0.0
  0
LINE
  5
197
100
AcDbEntity
  8
0
 62
7
100
AcDbLine
 10
8.928760
 20
19.928276
 30
0.0
 11
8.912594
 21
19.928276
 31
0.0
  0
LINE
  5
198
100
AcDbEntity
  8
0
 62
7
100
AcDbLine
 10
8.912594
 20
19.928276
 30
0.0
 11
8.896429
 21
19.928276
 31
0.0
  0
LINE
  5
199
100
AcDbEntity
  8
0
 62
7
100
AcDbLine
 10
8.896429
 20
19.928276
 30
0.0
 11
8.880263
 21
19.928276
 31
0.0
  0
LINE
  5
19a
100
AcDbEntity
  8
0
 62
7
100
AcDbLine
 10
8.880263
 20
19.928276
 30
0.0
 11
8.864097
 21
19.928276
 31
0.0
  0
LINE
  5
19b
100
AcDbEntity
  8
0
 62
7
100
AcDbLine
 10
8.864097
 20
19.928276
 30
0.0
 11
8.847932
 21
19.928276
 31
0.0
  0
LINE
  5
19c
100
AcDbEntity
  8
0
 62
7
100
AcDbLine
 10
8.847932
 20
19.928276
 30
0.0
 11
8.831766
 21
19.928276
 31
0.0
  0
LINE
  5
19d
100
AcDbEntity
  8
0
 62
7
100
AcDbLine
 10
8.831766
 20
19.928276
 30
0.0
 11
8.815600
 21
19.928276
 31
0.0
  0
LINE
  5
19e
100
AcDbEntity
  8
0
 62
7
100
AcDbLine
 10
8.815600
 20
19.928276
 30
0.0
 11
8.799435
 21
19.928276
 31
0.0
  0
LINE
  5
19f
100
AcDbEntity
  8
0
 62
7
100
AcDbLine
 10
8.799435
 20
19.928276
 30
0.0
 11
8.783269
 21
19.928276
 31
0.0
  0
LINE
  5
1a0
100
AcDbEntity
  8
0
 62
7
100
AcDbLine
 10
8.783269
 20
19.928276
 30
0.0
 11
8.879542
 21
19.596859
 31
0.0
  0
LINE
  5
1a1
100
AcDbEntity
  8
0
 62
7
100
AcDbLine
 10
8.879542
 20
19.596859
 30
0.0
 11
8.975815
 21
19.265441
 31
0.0
  0
LINE
  5
1a2
100
AcDbEntity
  8
0
 62
7
100
AcDbLine
 10
8.975815
 20
19.265441
 30
0.0
 11
9.072088
 21
18.934024
 31
0.0
  0
LINE
  5
1a3
100
AcDbEntity
  8
0
 62
7
100
AcDbLine
 10
9.072088
 20
18.934024
 30
0.0
 11
9.168361
 21
18.602607
 31
0.0
  0
LINE
  5
1a4
100
AcDbEntity
  8
0
 62
7
100
AcDbLine
 10
9.168361
 20
18.602607
 30
0.0
 11
9.264634
 21
18.271190
 31
0.0
  0
LINE
  5
1a5
100
AcDbEntity
  8
0
 62
7
100
AcDbLine
 10
9.264634
 20
18.271190
 30
0.0
 11
9.360907
 21
17.939773
 31
0.0
  0
LINE
  5
1a6
100
AcDbEntity
  8
0
 62
7
100
AcDbLine
 10
9.360907
 20
17.939773
 30
0.0
 11
9.457180
 21
17.608356
 31
0.0
  0
LINE
  5
1a7
100
AcDbEntity
  8
0
 62
7
100
AcDbLine
 10
9.457180
 20
17.608356
 30
0.0
 11
9.553453
 21
17.276939
 31
0.0
  0
LINE
  5
1a8
100
AcDbEntity
  8
0
 62
7
100
AcDbLine
 10
9.553453
 20
17.276939
 30
0.0
 11
9.649726
 21
16.945522
 31
0.0
  0
LINE
  5
1a9
100
AcDbEntity
  8
0
 62
7
100
AcDbLine
 10
9.649726
 20
16.945522
 30
0.0
 11
9.745999
 21
16.614105
 31
0.0
  0
LINE
  5
1aa
100
AcDbEntity
  8
0
 62
7
100
AcDbLine
 10
9.745999
 20
16.614105
 30
0.0
 11
9.842273
 21
16.282687
 31
0.0
  0
LINE
  5
1ab
100
AcDbEntity
  8
0
 62
7
100
AcDbLine
 10
9.842273
 20
16.282687
 30
0.0
 11
9.938546
 21
15.951271
 31
0.0
  0
LINE
  5
1ac
100
AcDbEntity
  8
0
 62
7
100
AcDbLine
 10
9.938546
 20
15.951271
 30
0.0
 11
10.034819
 21
15.619853
 31
0.0
  0
LINE
  5
1ad
100
AcDbEntity
  8
0
 62
7
100
AcDbLine
 10
10.034819
 20
15.619853
 30
0.0
 11
10.131092
 21
15.288436
 31
0.0
  0
LINE
  5
1ae
100
AcDbEntity
  8
0
 62
7
100
AcDbLine
 10
10.131092
 20
15.288436
 30
0.0
 11
10.227365
 21
14.957019
 31
0.0
  0
LINE
  5
1af
100
AcDbEntity
  8
0
 62
7
100
AcDbLine
 10
10.227365
 20
14.957019
 30
0.0
 11
10.323638
 21
14.625602
 31
0.0
  0
LINE
  5
1b0
100
AcDbEntity
  8
0
 62
7
100
AcDbLine
 10
10.323638
 20
14.625602
 30
0.0
 11
10.419911
 21
14.294185
 31
0.0
  0
LINE
  5
1b1
100
AcDbEntity
  8
0
 62
7
100
AcDbLine
 10
10.419911
 20
14.294185
 30
0.0
 11
10.516184
 21
13.962768
 31
0.0
  0
LINE
  5
1b2
100
AcDbEntity
  8
0
 62
7
100
AcDbLine
 10
10.516184
 20
13.962768
 30
0.0
 11
10.612457
 21
13.631351
 31
0.0
  0
LINE
  5
1b3
100
AcDbEntity
  8
0
 62
7
100
AcDbLine
 10
10.612457
 20
13.631351
 30
0.0
 11
10.708730
 21
13.299934
 31
0.0
  0
LINE
  5
1b4
100
AcDbEntity
  8
0
 62
7
100
AcDbLine
 10
10.708730
 20
13.299934
 30
0.0
 11
10.805003
 21
12.968517
 31
0.0
  0
LINE
  5
1b5
100
AcDbEntity
  8
0
 62
7
100
AcDbLine
 10
10.805003
 20
12.968517
 30
0.0
 11
10.901276
 21
12.637100
 31
0.0
  0
LINE
  5
1b6
100
AcDbEntity
  8
0
 62
7
100
AcDbLine
 10
10.901276
 20
12.637100
 30
0.0
 11
10.997549
 21
12.305683
 31
0.0
  0
LINE
  5
1b7
100
AcDbEntity
  8
0
 62
7
100
AcDbLine
 10
10.997549
 20
12.305683
 30
0.0
 11
11.093822
 21
11.974266
 31
0.0
  0
LINE
  5
1b8
100
AcDbEntity
  8
0
 62
7
100
AcDbLine
 10
11.093822
 20
11.974266
 30
0.0
 11
11.190095
 21
11.642849
 31
0.0
  0
LINE
  5
1b9
100
AcDbEntity
  8
0
 62
7
100
AcDbLine
 10
11.190095
 20
11.642849
 30
0.0
 11
11.286368
 21
11.311431
 31
0.0
  0
LINE
  5
1ba
100
AcDbEntity
  8
0
 62
7
100
AcDbLine
 10
11.286368
 20
11.311431
 30
0.0
 11
11.382641
 21
10.980014
 31
0.0
  0
LINE
  5
1bb
100
AcDbEntity
  8
0
 62
7
100
AcDbLine
 10
11.382641
 20
10.980014
 30
0.0
 11
11.478914
 21
10.648597
 31
0.0
  0
LINE
  5
1bc
100
AcDbEntity
  8
0
 62
7
100
AcDbLine
 10
11.478914
 20
10.648597
 30
0.0
 11
11.575188
 21
10.317180
 31
0.0
  0
LINE
  5
1bd
100
AcDbEntity
  8
0
 62
7
100
AcDbLine
 10
11.575188
 20
10.317180
 30
0.0
 11
11.671461
 21
9.985763
 31
0.0
  0
LINE
  5
1be
100
AcDbEntity
  8
0
 62
7
100
AcDbLine
 10
11.671461
 20
9.985763
 30
0.0
 11
11.767734
 21
9.654346
 31
0.0
  0
LINE
  5
1bf
100
AcDbEntity
  8
0
 62
7
100
AcDbLine
 10
11.767734
 20
9.654346
 30
0.0
 11
11.864007
 21
9.322929
 31
0.0
  0
LINE
  5
1c0
100
AcDbEntity
  8
0
 62
7
100
AcDbLine
 10
11.864007
 20
9.322929
 30
0.0
 11
11.775310
 21
9.322929
 31
0.0
  0
LINE
  5
1c1
100
AcDbEntity
  8
0
 62
7
100
AcDbLine
 10
11.775310
 20
9.322929
 30
0.0
 11
11.686612
 21
9.322929
 31
0.0
  0
LINE
  5
1c2
100
AcDbEntity
  8
0
 62
7
100
AcDbLine
 10
11.686612
 20
9.322929
 30
0.0
 11
11.597915
 21
9.322929
 31
0.0
  0
LINE
  5
1c3
100
AcDbEntity
  8
0
 62
7
100
AcDbLine
 10
11.597915
 20
9.322929
 30
0.0
 11
11.509218
 21
9.322929
 31
0.0
  0
LINE
  5
1c4
100
AcDbEntity
  8
0
 62
7
100
AcDbLine
 10
11.509218
 20
9.322929
 30
0.0
 11
11.420521
 21
9.322929
 31
0.0
  0
LINE
  5
1c5
100
AcDbEntity
  8
0
 62
7
100
AcDbLine
 10
11.420521
 20
9.322929
 30
0.0
 11
11.331824
 21
9.322929
 31
0.0
  0
LINE
  5
1c6
100
AcDbEntity
  8
0
 62
7
100
AcDbLine
 10
11.331824
 20
9.322929
 30
0.0
 11
11.243127
 21
9.322929
 31
0.0
  0
LINE
  5
1c7
100
AcDbEntity
  8
0
 62
7
100
AcDbLine
 10
11.243127
 20
9.322929
 30
0.0
 11
11.154429
 21
9.322929
 31
0.0
  0
LINE
  5
1c8
100
AcDbEntity
  8
0
 62
7
100
AcDbLine
 10
11.154429
 20
9.322929
 30
0.0
 11
11.065732
 21
9.322929
 31
0.0
  0
LINE
  5
1c9
100
AcDbEntity
  8
0
 62
7
100
AcDbLine
 10
11.065732
 20
9.322929
 30
0.0
 11
10.977035
 21
9.322929
 31
0.0
  0
LINE
  5
1ca
100
AcDbEntity
  8
0
 62
7
100
AcDbLine
 10
10.977035
 20
9.322929
 30
0.0
 11
10.888338
 21
9.322929
 31
0.0
  0
LINE
  5
1cb
100
AcDbEntity
  8
0
 62
7
100
AcDbLine
 10
10.888338
 20
9.322929
 30
0.0
 11
10.799641
 21
9.322929
 31
0.0
  0
LINE
  5
1cc
100
AcDbEntity
  8
0
 62
7
100
AcDbLine
 10
10.799641
 20
9.322929
 30
0.0
 11
10.710944
 21
9.322929
 31
0.0
  0
LINE
  5
1cd
100
AcDbEntity
  8
0
 62
7
100
AcDbLine
 10
10.710944
 20
9.322929
 30
0.0
 11
10.622246
 21
9.322929
 31
0.0
  0
LINE
  5
1ce
100
AcDbEntity
  8
0
 62
7
100
AcDbLine
 10
10.622246
 20
9.322929
 30
0.0
 11
10.533549
 21
9.322929
 31
0.0
  0
LINE
  5
1cf
100
AcDbEntity
  8
0
 62
7
100
AcDbLine
 10
10.533549
 20
9.322929
 30
0.0
 11
10.444852
 21
9.322929
 31
0.0
  0
LINE
  5
1d0
100
AcDbEntity
  8
0
 62
7
100
AcDbLine
 10
10.444852
 20
9.322929
 30
0.0
 11
10.356155
 21
9.322929
 31
0.0
  0
LINE
  5
1d1
100
AcDbEntity
  8
0
 62
7
100
AcDbLine
 10
10.356155
 20
9.322929
 30
0.0
 11
10.267458
 21
9.322929
 31
0.0
  0
LINE
  5
1d2
100
AcDbEntity
  8
0
 62
7
100
AcDbLine
 10
10.267458
 20
9.322929
 30
0.0
 11
10.178761
 21
9.322929
 31
0.0
  0
LINE
  5
1d3
100
AcDbEntity
  8
0
 62
7
100
AcDbLine
 10
10.178761
 20
9.322929
 30
0.0
 11
10.090064
 21
9.322929
 31
0.0
  0
LINE
  5
1d4
100
AcDbEntity
  8
0
 62
7
100
AcDbLine
 10
10.090064
 20
9.322929
 30
0.0
 11
10.001367
 21
9.322929
 31
0.0
  0
LINE
  5
1d5
100
AcDbEntity
  8
0
 62
7
100
AcDbLine
 10
10.001367
 20
9.322929
 30
0.0
 11
9.912669
 21
9.322929
 31
0.0
  0
LINE
  5
1d6
100
AcDbEntity
  8
0
 62
7
100
AcDbLine
 10
9.912669
 20
9.322929
 30
0.0
 11
9.823972
 21
9.322929
 31
0.0
  0
LINE
  5
1d7
100
AcDbEntity
  8
0
 62
7
100
AcDbLine
 10
9.823972
 20
9.322929
 30
0.0
 11
9.735275
 21
9.322929
 31
0.0
  0
LINE
  5
1d8
100
AcDbEntity
  8
0
 62
7
100
AcDbLine
 10
9.735275
 20
9.322929
 30
0.0
 11
9.646578
 21
9.322929
 31
0.0
  0
LINE
  5
1d9
100
AcDbEntity
  8
0
 62
7
100
AcDbLine
 10
9.646578
 20
9.322929
 30
0.0
 11
9.557881
 21
9.322929
 31
0.0
  0
LINE
  5
1da
100
AcDbEntity
  8
0
 62
7
100
AcDbLine
 10
9.557881
 20
9.322929
 30
0.0
 11
9.469183
 21
9.322929
 31
0.0
  0
LINE
  5
1db
100
AcDbEntity
  8
0
 62
7
100
AcDbLine
 10
9.469183
 20
9.322929
 30
0.0
 11
9.380486
 21
9.322929
 31
0.0
  0
LINE
  5
1dc
100
AcDbEntity
  8
0
 62
7
100
AcDbLine
 10
9.380486
 20
9.322929
 30
0.0
 11
9.291789
 21
9.322929
 31
0.0
  0
LINE
  5
1dd
100
AcDbEntity
  8
0
 62
7
100
AcDbLine
 10
9.291789
 20
9.322929
 30
0.0
 11
9.203092
 21
9.322929
 31
0.0
  0
LINE
  5
1de
100
AcDbEntity
  8
0
 62
7
100
AcDbLine
 10
9.203092
 20
9.322929
 30
0.0
 11
9.114395
 21
9.322929
 31
0.0
  0
LINE
  5
1df
100
AcDbEntity
  8
0
 62
7
100
AcDbLine
 10
9.114395
 20
9.322929
 30
0.0
 11
9.025698
 21
9.322929
 31
0.0
  0
LINE
  5
1e0
100
AcDbEntity
  8
0
 62
7
100
AcDbLine
 10
9.025698
 20
9.322929
 30
0.0
 11
9.025698
 21
9.064554
 31
0.0
  0
LINE
  5
1e1
100
AcDbEntity
  8
0
 62
7
100
AcDbLine
 10
9.025698
 20
9.064554
 30
0.0
 11
9.025698
 21
8.806180
 31
0.0
  0
LINE
  5
1e2
100
AcDbEntity
  8
0
 62
7
100
AcDbLine
 10
9.025698
 20
8.806180
 30
0.0
 11
9.025698
 21
8.547806
 31
0.0
  0
LINE
  5
1e3
100
AcDbEntity
  8
0
 62
7
100
AcDbLine
 10
9.025698
 20
8.547806
 30
0.0
 11
9.025698
 21
8.289431
 31
0.0
  0
LINE
  5
1e4
100
AcDbEntity
  8
0
 62
7
100
AcDbLine
 10
9.025698
 20
8.289431
 30
0.0
 11
9.025698
 21
8.031057
 31
0.0
  0
LINE
  5
1e5
100
AcDbEntity
  8
0
 62
7
100
AcDbLine
 10
9.025698
 20
8.031057
 30
0.0
 11
9.025698
 21
7.772682
 31
0.0
  0
LINE
  5
1e6
100
AcDbEntity
  8
0
 62
7
100
AcDbLine
 10
9.025698
 20
7.772682
 30
0.0
 11
9.025698
 21
7.514308
 31
0.0
  0
LINE
  5
1e7
100
AcDbEntity
  8
0
 62
7
100
AcDbLine
 10
9.025698
 20
7.514308
 30
0.0
 11
9.025698
 21
7.255933
 31
0.0
  0
LINE
  5
1e8
100
AcDbEntity
  8
0
 62
7
100
AcDbLine
 10
9.025698
 20
7.255933
 30
0.0
 11
9.025698
 21
6.997559
 31
0.0
  0
LINE
  5
1e9
100
AcDbEntity
  8
0
 62
7
100
AcDbLine
 10
9.025698
 20
6.997559
 30
0.0
 11
9.025698
 21
6.739184
 31
0.0
  0
LINE
  5
1ea
100
AcDbEntity
  8
0
 62
7
100
AcDbLine
 10
9.025698
 20
6.739184
 30
0.0
 11
9.025698
 21
6.480810
 31
0.0
  0
LINE
  5
1eb
100
AcDbEntity
  8
0
 62
7
100
AcDbLine
 10
9.025698
 20
6.480810
 30
0.0
 11
9.025698
 21
6.222436
 31
0.0
  0
LINE
  5
1ec
100
AcDbEntity
  8
0
 62
7
100
AcDbLine
 10
9.025698
 20
6.222436
 30
0.0
 11
9.025698
 21
5.964061
 31
0.0
  0
LINE
  5
1ed
100
AcDbEntity
  8
0
 62
7
100
AcDbLine
 10
9.025698
 20
5.964061
 30
0.0
 11
9.025698
 21
5.705687
 31
0.0
  0
LINE
  5
1ee
100
AcDbEntity
  8
0
 62
7
100
AcDbLine
 10
9.025698
 20
5.705687
 30
0.0
 11
9.025698
 21
5.447312
 31
0.0
  0
LINE
  5
1ef
100
AcDbEntity
  8
0
 62
7
100
AcDbLine
 10
9.025698
 20
5.447312
 30
0.0
 11
9.025698
 21
5.188938
 31
0.0
  0
LINE
  5
1f0
100
AcDbEntity
  8
0
 62
7
100
AcDbLine
 10
9.025698
 20
5.188938
 30
0.0
 11
9.025698
 21
4.930563
 31
0.0
  0
LINE
  5
1f1
100
AcDbEntity
  8
0
 62
7
100
AcDbLine
 10
9.025698
 20
4.930563
 30
0.0
 11
9.025698
 21
4.672189
 31
0.0
  0
LINE
  5
1f2
100
AcDbEntity
  8
0
 62
7
100
AcDbLine
 10
9.025698
 20
4.672189
 30
0.0
 11
9.025698
 21
4.413814
 31
0.0
  0
LINE
  5
1f3
100
AcDbEntity
  8
0
 62
7
100
AcDbLine
 10
9.025698
 20
4.413814
 30
0.0
 11
9.025698
 21
4.155440
 31
0.0
  0
LINE
  5
1f4
100
AcDbEntity
  8
0
 62
7
100
AcDbLine
 10
9.025698
 20
4.155440
 30
0.0
 11
9.025698
 21
3.897066
 31
0.0
  0
LINE
  5
1f5
100
AcDbEntity
  8
0
 62
7
100
AcDbLine
 10
9.025698
 20
3.897066
 30
0.0
 11
9.025698
 21
3.638691
 31
0.0
  0
LINE
  5
1f6
100
AcDbEntity
  8
0
 62
7
100
AcDbLine
 10
9.025698
 20
3.638691
 30
0.0
 11
9.025698
 21
3.380317
 31
0.0
  0
LINE
  5
1f7
100
AcDbEntity
  8
0
 62
7
100
AcDbLine
 10
9.025698
 20
3.380317
 30
0.0
 11
9.025698
 21
3.121942
 31
0.0
  0
LINE
  5
1f8
100
AcDbEntity
  8
0
 62
7
100
AcDbLine
 10
9.025698
 20
3.121942
 30
0.0
 11
9.025698
 21
2.863568
 31
0.0
  0
LINE
  5
1f9
100
AcDbEntity
  8
0
 62
7
100
AcDbLine
 10
9.025698
 20
2.863568
 30
0.0
 11
9.025698
 21
2.605193
 31
0.0
  0
LINE
  5
1fa
100
AcDbEntity
  8
0
 62
7
100
AcDbLine
 10
9.025698
 20
2.605193
 30
0.0
 11
9.025698
 21
2.346819
 31
0.0
  0
LINE
  5
1fb
100
AcDbEntity
  8
0
 62
7
100
AcDbLine
 10
9.025698
 20
2.346819
 30
0.0
 11
9.025698
 21
2.088444
 31
0.0
  0
LINE
  5
1fc
100
AcDbEntity
  8
0
 62
7
100
AcDbLine
 10
9.025698
 20
2.088444
 30
0.0
 11
9.025698
 21
1.830070
 31
0.0
  0
LINE
  5
1fd
100
AcDbEntity
  8
0
 62
7
100
AcDbLine
 10
9.025698
 20
1.830070
 30
0.0
 11
9.025698
 21
1.571696
 31
0.0
  0
LINE
  5
1fe
100
AcDbEntity
  8
0
 62
7
100
AcDbLine
 10
9.025698
 20
1.571696
 30
0.0
 11
9.025698
 21
1.313321
 31
0.0
  0
LINE
  5
1ff
100
AcDbEntity
  8
0
 62
7
100
AcDbLine
 10
9.025698
 20
1.313321
 30
0.0
 11
9.025698
 21
1.054947
 31
0.0
  0
LINE
  5
200
100
AcDbEntity
  8
0
 62
7
100
AcDbLine
 10
9.025698
 20
1.054947
 30
0.0
 11
9.019616
 21
0.926912
 31
0.0
  0
LINE
  5
201
100
AcDbEntity
  8
0
 62
7
100
AcDbLine
 10
9.019616
 20
0.926912
 30
0.0
 11
9.001884
 21
0.807176
 31
0.0
  0
LINE
  5
202
100
AcDbEntity
  8
0
 62
7
100
AcDbLine
 10
9.001884
 20
0.807176
 30
0.0
 11
8.973280
 21
0.695735
 31
0.0
  0
LINE
  5
203
100
AcDbEntity
  8
0
 62
7
100
AcDbLine
 10
8.973280
 20
0.695735
 30
0.0
 11
8.934579
 21
0.592586
 31
0.0
  0
LINE
  5
204
100
AcDbEntity
  8
0
 62
7
100
AcDbLine
 10
8.934579
 20
0.592586
 30
0.0
 11
8.886560
 21
0.497724
 31
0.0
  0
LINE
  5
205
100
AcDbEntity
  8
0
 62
7
100
AcDbLine
 10
8.886560
 20
0.497724
 30
0.0
 11
8.829998
 21
0.411145
 31
0.0
  0
LINE
  5
206
100
AcDbEntity
  8
0
 62
7
100
AcDbLine
 10
8.829998
 20
0.411145
 30
0.0
 11
8.765670
 21
0.332847
 31
0.0
  0
LINE
  5
207
100
AcDbEntity
  8
0
 62
7
100
AcDbLine
 10
8.765670
 20
0.332847
 30
0.0
 11
8.694353
 21
0.262824
 31
0.0
  0
LINE
  5
208
100
AcDbEntity
  8
0
 62
7
100
AcDbLine
 10
8.694353
 20
0.262824
 30
0.0
 11
8.616823
 21
0.201073
 31
0.0
  0
LINE
  5
209
100
AcDbEntity
  8
0
 62
7
100
AcDbLine
 10
8.616823
 20
0.201073
 30
0.0
 11
8.533857
 21
0.147590
 31
0.0
  0
LINE
  5
20a
100
AcDbEntity
  8
0
 62
7
100
AcDbLine
 10
8.533857
 20
0.147590
 30
0.0
 11
8.446231
 21
0.102372
 31
0.0
  0
LINE
  5
20b
100
AcDbEntity
  8
0
 62
7
100
AcDbLine
 10
8.446231
 20
0.102372
 30
0.0
 11
8.354723
 21
0.065413
 31
0.0
  0
LINE
  5
20c
100
AcDbEntity
  8
0
 62
7
100
AcDbLine
 10
8.354723
 20
0.065413
 30
0.0
 11
8.260108
 21
0.036711
 31
0.0
  0
LINE
  5
20d
100
AcDbEntity
  8
0
 62
7
100
AcDbLine
 10
8.260108
 20
0.036711
 30
0.0
 11
8.163163
 21
0.016262
 31
0.0
  0
LINE
  5
20e
100
AcDbEntity
  8
0
 62
7
100
AcDbLine
 10
8.163163
 20
0.016262
 30
0.0
 11
8.064665
 21
0.004061
 31
0.0
  0
LINE
  5
20f
100
AcDbEntity
  8
0
 62
7
100
AcDbLine
 10
8.064665
 20
0.004061
 30
0.0
 11
7.965391
 21
0.000104
 31
0.0
  0
LINE
  5
210
100
AcDbEntity
  8
0
 62
7
100
AcDbLine
 10
7.965391
 20
0.000104
 30
0.0
 11
7.866116
 21
0.004389
 31
0.0
  0
LINE
  5
211
100
AcDbEntity
  8
0
 62
7
100
AcDbLine
 10
7.866116
 20
0.004389
 30
0.0
 11
7.767618
 21
0.016911
 31
0.0
  0
LINE
  5
212
100
AcDbEntity
  8
0
 62
7
100
AcDbLine
 10
7.767618
 20
0.016911
 30
0.0
 11
7.670673
 21
0.037665
 31
0.0
  0
LINE
  5
213
100
AcDbEntity
  8
0
 62
7
100
AcDbLine
 10
7.670673
 20
0.037665
 30
0.0
 11
7.576046
 21
0.066654
 31
0.0
  0
LINE
  5
214
100
AcDbEntity
  8
0
 62
7
100
AcDbLine
 10
7.576046
 20
0.066654
 30
0.0
 11
7.484537
 21
0.103864
 31
0.0
  0
LINE
  5
215
100
AcDbEntity
  8
0
 62
7
100
AcDbLine
 10
7.484537
 20
0.103864
 30
0.0
 11
7.396911
 21
0.149296
 31
0.0
  0
LINE
  5
216
100
AcDbEntity
  8
0
 62
7
100
AcDbLine
 10
7.396911
 20
0.149296
 30
0.0
 11
7.313945
 21
0.202945
 31
0.0
  0
LINE
  5
217
100
AcDbEntity
  8
0
 62
7
100
AcDbLine
 10
7.313945
 20
0.202945
 30
0.0
 11
7.236415
 21
0.264808
 31
0.0
  0
LINE
  5
218
100
AcDbEntity
  8
0
 62
7
100
AcDbLine
 10
7.236415
 20
0.264808
 30
0.0
 11
7.165098
 21
0.334882
 31
0.0
  0
LINE
  5
219
100
AcDbEntity
  8
0
 62
7
100
AcDbLine
 10
7.165098
 20
0.334882
 30
0.0
 11
7.100770
 21
0.413161
 31
0.0
  0
LINE
  5
21a
100
AcDbEntity
  8
0
 62
7
100
AcDbLine
 10
7.100770
 20
0.413161
 30
0.0
 11
7.044209
 21
0.499642
 31
0.0
  0
LINE
  5
21b
100
AcDbEntity
  8
0
 62
7
100
AcDbLine
 10
7.044209
 20
0.499642
 30
0.0
 11
6.996189
 21
0.594322
 31
0.0
  0
LINE
  5
21c
100
AcDbEntity
  8
0
 62
7
100
AcDbLine
 10
6.996189
 20
0.594322
 30
0.0
 11
6.957489
 21
0.697196
 31
0.0
  0
LINE
  5
21d
100
AcDbEntity
  8
0
 62
7
100
AcDbLine
 10
6.957489
 20
0.697196
 30
0.0
 11
6.928884
 21
0.808261
 31
0.0
  0
LINE
  5
21e
100
AcDbEntity
  8
0
 62
7
100
AcDbLine
 10
6.928884
 20
0.808261
 30
0.0
 11
6.911152
 21
0.927512
 31
0.0
  0
LINE
  5
21f
100
AcDbEntity
  8
0
 62
7
100
AcDbLine
 10
6.911152
 20
0.927512
 30
0.0
 11
6.905069
 21
1.054947
 31
0.0
  0
LINE
  5
220
100
AcDbEntity
  8
0
 62
7
100
AcDbLine
 10
6.905069
 20
1.054947
 30
0.0
 11
6.905069
 21
1.315014
 31
0.0
  0
LINE
  5
221
100
AcDbEntity
  8
0
 62
7
100
AcDbLine
 10
6.905069
 20
1.315014
 30
0.0
 11
6.905069
 21
1.575082
 31
0.0
  0
LINE
  5
222
100
AcDbEntity
  8
0
 62
7
100
AcDbLine
 10
6.905069
 20
1.575082
 30
0.0
 11
6.905069
 21
1.835150
 31
0.0
  0
LINE
  5
223
100
AcDbEntity
  8
0
 62
7
100
AcDbLine
 10
6.905069
 20
1.835150
 30
0.0
 11
6.905069
 21
2.095218
 31
0.0
  0
LINE
  5
224
100
AcDbEntity
  8
0
 62
7
100
AcDbLine
 10
6.905069
 20
2.095218
 30
0.0
 11
6.905069
 21
2.355286
 31
0.0
  0
LINE
  5
225
100
AcDbEntity
  8
0
 62
7
100
AcDbLine
 10
6.905069
 20
2.355286
 30
0.0
 11
6.905069
 21
2.615353
 31
0.0
  0
LINE
  5
226
100
AcDbEntity
  8
0
 62
7
100
AcDbLine
 10
6.905069
 20
2.615353
 30
0.0
 11
6.905069
 21
2.875421
 31
0.0
  0
LINE
  5
227
100
AcDbEntity
  8
0
 62
7
100
AcDbLine
 10
6.905069
 20
2.875421
 30
0.0
 11
6.905069
 21
3.135489
 31
0.0
  0
LINE
  5
228
100
AcDbEntity
  8
0
 62
7
100
AcDbLine
 10
6.905069
 20
3.135489
 30
0.0
 11
6.905069
 21
3.395557
 31
0.0
  0
LINE
  5
229
100
AcDbEntity
  8
0
 62
7
100
AcDbLine
 10
6.905069
 20
3.395557
 30
0.0
 11
6.905069
 21
3.655624
 31
0.0
  0
LINE
  5
22a
100
AcDbEntity
  8
0
 62
7
100
AcDbLine
 10
6.905069
 20
3.655624
 30
0.0
 11
6.905069
 21
3.915692
 31
0.0
  0
LINE
  5
22b
100
AcDbEntity
  8
0
 62
7
100
AcDbLine
 10
6.905069
 20
3.915692
 30
0.0
 11
6.905069
 21
4.175760
 31
0.0
  0
LINE
  5
22c
100
AcDbEntity
  8
0
 62
7
100
AcDbLine
 10
6.905069
 20
4.175760
 30
0.0
 11
6.905069
 21
4.435828
 31
0.0
  0
LINE
  5
22d
100
AcDbEntity
  8
0
 62
7
100
AcDbLine
 10
6.905069
 20
4.435828
 30
0.0
 11
6.905069
 21
4.695896
 31
0.0
  0
LINE
  5
22e
100
AcDbEntity
  8
0
 62
7
100
AcDbLine
 10
6.905069
 20
4.695896
 30
0.0
 11
6.905069
 21
4.955963
 31
0.0
  0
LINE
  5
22f
100
AcDbEntity
  8
0
 62
7
100
AcDbLine
 10
6.905069
 20
4.955963
 30
0.0
 11
6.905069
 21
5.216031
 31
0.0
  0
LINE
  5
230
100
AcDbEntity
  8
0
 62
7
100
AcDbLine
 10
6.905069
 20
5.216031
 30
0.0
 11
6.905069
 21
5.476099
 31
0.0
  0
LINE
  5
231
100
AcDbEntity
  8
0
 62
7
100
AcDbLine
 10
6.905069
 20
5.476099
 30
0.0
 11
6.905069
 21
5.736167
 31
0.0
  0
LINE
  5
232
100
AcDbEntity
  8
0
 62
7
100
AcDbLine
 10
6.905069
 20
5.736167
 30
0.0
 11
6.905069
 21
5.996234
 31
0.0
  0
LINE
  5
233
100
AcDbEntity
  8
0
 62
7
100
AcDbLine
 10
6.905069
 20
5.996234
 30
0.0
 11
6.905069
 21
6.256302
 31
0.0
  0
LINE
  5
234
100
AcDbEntity
  8
0
 62
7
100
AcDbLine
 10
6.905069
 20
6.256302
 30
0.0
 11
6.905069
 21
6.516370
 31
0.0
  0
LINE
  5
235
100
AcDbEntity
  8
0
 62
7
100
AcDbLine
 10
6.905069
 20
6.516370
 30
0.0
 11
6.905069
 21
6.776438
 31
0.0
  0
LINE
  5
236
100
AcDbEntity
  8
0
 62
7
100
AcDbLine
 10
6.905069
 20
6.776438
 30
0.0
 11
6.905069
 21
7.036506
 31
0.0
  0
LINE
  5
237
100
AcDbEntity
  8
0
 62
7
100
AcDbLine
 10
6.905069
 20
7.036506
 30
0.0
 11
6.905069
 21
7.296573
 31
0.0
  0
LINE
  5
238
100
AcDbEntity
  8
0
 62
7
100
AcDbLine
 10
6.905069
 20
7.296573
 30
0.0
 11
6.905069
 21
7.556641
 31
0.0
  0
LINE
  5
239
100
AcDbEntity
  8
0
 62
7
100
AcDbLine
 10
6.905069
 20
7.556641
 30
0.0
 11
6.905069
 21
7.816709
 31
0.0
  0
LINE
  5
23a
100
AcDbEntity
  8
0
 62
7
100
AcDbLine
 10
6.905069
 20
7.816709
 30
0.0
 11
6.905069
 21
8.076777
 31
0.0
  0
LINE
  5
23b
100
AcDbEntity
  8
0
 62
7
100
AcDbLine
 10
6.905069
 20
8.076777
 30
0.0
 11
6.905069
 21
8.336844
 31
0.0
  0
LINE
  5
23c
100
AcDbEntity
  8
0
 62
7
100
AcDbLine
 10
6.905069
 20
8.336844
 30
0.0
 11
6.905069
 21
8.596912
 31
0.0
  0
LINE
  5
23d
100
AcDbEntity
  8
0
 62
7
100
AcDbLine
 10
6.905069
 20
8.596912
 30
0.0
 11
6.905069
 21
8.856980
 31
0.0
  0
LINE
  5
23e
100
AcDbEntity
  8
0
 62
7
100
AcDbLine
 10
6.905069
 20
8.856980
 30
0.0
 11
6.905069
 21
9.117048
 31
0.0
  0
LINE
  5
23f
100
AcDbEntity
  8
0
 62
7
100
AcDbLine
 10
6.905069
 20
9.117048
 30
0.0
 11
6.905069
 21
9.377116
 31
0.0
  0
LINE
  5
240
100
AcDbEntity
  8
0
 62
7
100
AcDbLine
 10
6.905069
 20
9.377116
 30
0.0
 11
6.878054
 21
9.377116
 31
0.0
  0
LINE
  5
241
100
AcDbEntity
  8
0
 62
7
100
AcDbLine
 10
6.878054
 20
9.377116
 30
0.0
 11
6.851040
 21
9.377116
 31
0.0
  0
LINE
  5
242
100
AcDbEntity
  8
0
 62
7
100
AcDbLine
 10
6.851040
 20
9.377116
 30
0.0
 11
6.824026
 21
9.377116
 31
0.0
  0
LINE
  5
243
100
AcDbEntity
  8
0
 62
7
100
AcDbLine
 10
6.824026
 20
9.377116
 30
0.0
 11
6.797011
 21
9.377116
 31
0.0
  0
LINE
  5
244
100
AcDbEntity
  8
0
 62
7
100
AcDbLine
 10
6.797011
 20
9.377116
 30
0.0
 11
6.769997
 21
9.377116
 31
0.0
  0
LINE
  5
245
100
AcDbEntity
  8
0
 62
7
100
AcDbLine
 10
6.769997
 20
9.377116
 30
0.0
 11
6.742983
 21
9.377116
 31
0.0
  0
LINE
  5
246
100
AcDbEntity
  8
0
 62
7
100
AcDbLine
 10
6.742983
 20
9.377116
 30
0.0
 11
6.715969
 21
9.377116
 31
0.0
  0
LINE
  5
247
100
AcDbEntity
  8
0
 62
7
100
AcDbLine
 10
6.715969
 20
9.377116
 30
0.0
 11
6.688954
 21
9.377116
 31
0.0
  0
LINE
  5
248
100
AcDbEntity
  8
0
 62
7
100
AcDbLine
 10
6.688954
 20
9.377116
 30
0.0
 11
6.661940
 21
9.377116
 31
0.0
  0
LINE
  5
249
100
AcDbEntity
  8
0
 62
7
100
AcDbLine
 10
6.661940
 20
9.377116
 30
0.0
 11
6.634926
 21
9.377116
 31
0.0
  0
LINE
  5
24a
100
AcDbEntity
  8
0
 62
7
100
AcDbLine
 10
6.634926
 20
9.377116
 30
0.0
 11
6.607911
 21
9.377116
 31
0.0
  0
LINE
  5
24b
100
AcDbEntity
  8
0
 62
7
100
AcDbLine
 10
6.607911
 20
9.377116
 30
0.0
 11
6.580897
 21
9.377116
 31
0.0
  0
LINE
  5
24c
100
AcDbEntity
  8
0
 62
7
100
AcDbLine
 10
6.580897
 20
9.377116
 30
0.0
 11
6.553883
 21
9.377116
 31
0.0
  0
LINE
  5
24d
100
AcDbEntity
  8
0
 62
7
100
AcDbLine
 10
6.553883
 20
9.377116
 30
0.0
 11
6.526868
 21
9.377116
 31
0.0
  0
LINE
  5
24e
100
AcDbEntity
  8
0
 62
7
100
AcDbLine
 10
6.526868
 20
9.377116
 30
0.0
 11
6.499854
 21
9.377116
 31
0.0
  0
LINE
  5
24f
100
AcDbEntity
  8
0
 62
7
100
AcDbLine
 10
6.499854
 20
9.377116
 30
0.0
 11
6.472840
 21
9.377116
 31
0.0
  0
LINE
  5
250
100
AcDbEntity
  8
0
 62
7
100
AcDbLine
 10
6.472840
 20
9.377116
 30
0.0
 11
6.445825
 21
9.377116
 31
0.0
  0
LINE
  5
251
100
AcDbEntity
  8
0
 62
7
100
AcDbLine
 10
6.445825
 20
9.377116
 30
0.0
 11
6.418811
 21
9.377116
 31
0.0
  0
LINE
  5
252
100
AcDbEntity
  8
0
 62
7
100
AcDbLine
 10
6.418811
 20
9.377116
 30
0.0
 11
6.391797
 21
9.377116
 31
0.0
  0
LINE
  5
253
100
AcDbEntity
  8
0
 62
7
100
AcDbLine
 10
6.391797
 20
9.377116
 30
0.0
 11
6.364783
 21
9.377116
 31
0.0
  0
LINE
  5
254
100
AcDbEntity
  8
0
 62
7
100
AcDbLine
 10
6.364783
 20
9.377116
 30
0.0
 11
6.337768
 21
9.377116
 31
0.0
  0
LINE
  5
255
100
AcDbEntity
  8
0
 62
7
100
AcDbLine
 10
6.337768
 20
9.377116
 30
0.0
 11
6.310754
 21
9.377116
 31
0.0
  0
LINE
  5
256
100
AcDbEntity
  8
0
 62
7
100
AcDbLine
 10
6.310754
 20
9.377116
 30
0.0
 11
6.283740
 21
9.377116
 31
0.0
  0
LINE
  5
257
100
AcDbEntity
  8
0
 62
7
100
AcDbLine
 10
6.283740
 20
9.377116
 30
0.0
 11
6.256725
 21
9.377116
 31
0.0
  0
LINE
  5
258
100
AcDbEntity
  8
0
 62
7
100
AcDbLine
 10
6.256725
 20
9.377116
 30
0.0
 11
6.229711
 21
9.377116
 31
0.0
  0
LINE
  5
259
100
AcDbEntity
  8
0
 62
7
100
AcDbLine
 10
6.229711
 20
9.377116
 30
0.0
 11
6.202697
 21
9.377116
 31
0.0
  0
LINE
  5
25a
100
AcDbEntity
  8
0
 62
7
100
AcDbLine
 10
6.202697
 20
9.377116
 30
0.0
 11
6.175682
 21
9.377116
 31
0.0
  0
LINE
  5
25b
100
AcDbEntity
  8
0
 62
7
100
AcDbLine
 10
6.175682
 20
9.377116
 30
0.0
 11
6.148668
 21
9.377116
 31
0.0
  0
LINE
  5
25c
100
AcDbEntity
  8
0
 62
7
100
AcDbLine
 10
6.148668
 20
9.377116
 30
0.0
 11
6.121654
 21
9.377116
 31
0.0
  0
LINE
  5
25d
100
AcDbEntity
  8
0
 62
7
100
AcDbLine
 10
6.121654
 20
9.377116
 30
0.0
 11
6.094639
 21
9.377116
 31
0.0
  0
LINE
  5
25e
100
AcDbEntity
  8
0
 62
7
100
AcDbLine
 10
6.094639
 20
9.377116
 30
0.0
 11
6.067625
 21
9.377116
 31
0.0
  0
LINE
  5
25f
100
AcDbEntity
  8
0
 62
7
100
AcDbLine
 10
6.067625
 20
9.377116
 30
0.0
 11
6.040611
 21
9.377116
 31
0.0
  0
LINE
  5
260
100
AcDbEntity
  8
0
 62
7
100
AcDbLine
 10
6.040611
 20
9.377116
 30
0.0
 11
6.040655
 21
9.117409
 31
0.0
  0
LINE
  5
261
100
AcDbEntity
  8
0
 62
7
100
AcDbLine
 10
6.040655
 20
9.117409
 30
0.0
 11
6.040699
 21
8.857703
 31
0.0
  0
LINE
  5
262
100
AcDbEntity
  8
0
 62
7
100
AcDbLine
 10
6.040699
 20
8.857703
 30
0.0
 11
6.040743
 21
8.597997
 31
0.0
  0
LINE
  5
263
100
AcDbEntity
  8
0
 62
7
100
AcDbLine
 10
6.040743
 20
8.597997
 30
0.0
 11
6.040787
 21
8.338291
 31
0.0
  0
LINE
  5
264
100
AcDbEntity
  8
0
 62
7
100
AcDbLine
 10
6.040787
 20
8.338291
 30
0.0
 11
6.040831
 21
8.078585
 31
0.0
  0
LINE
  5
265
100
AcDbEntity
  8
0
 62
7
100
AcDbLine
 10
6.040831
 20
8.078585
 30
0.0
 11
6.040875
 21
7.818879
 31
0.0
  0
LINE
  5
266
100
AcDbEntity
  8
0
 62
7
100
AcDbLine
 10
6.040875
 20
7.818879
 30
0.0
 11
6.040920
 21
7.559172
 31
0.0
  0
LINE
  5
267
100
AcDbEntity
  8
0
 62
7
100
AcDbLine
 10
6.040920
 20
7.559172
 30
0.0
 11
6.040964
 21
7.299466
 31
0.0
  0
LINE
  5
268
100
AcDbEntity
  8
0
 62
7
100
AcDbLine
 10
6.040964
 20
7.299466
 30
0.0
 11
6.041008
 21
7.039760
 31
0.0
  0
LINE
  5
269
100
AcDbEntity
  8
0
 62
7
100
AcDbLine
 10
6.041008
 20
7.039760
 30
0.0
 11
6.041052
 21
6.780054
 31
0.0
  0
LINE
  5
26a
100
AcDbEntity
  8
0
 62
7
100
AcDbLine
 10
6.041052
 20
6.780054
 30
0.0
 11
6.041096
 21
6.520348
 31
0.0
  0
LINE
  5
26b
100
AcDbEntity
  8
0
 62
7
100
AcDbLine
 10
6.041096
 20
6.520348
 30
0.0
 11
6.041140
 21
6.260641
 31
0.0
  0
LINE
  5
26c
100
AcDbEntity
  8
0
 62
7
100
AcDbLine
 10
6.041140
 20
6.260641
 30
0.0
 11
6.041184
 21
6.000935
 31
0.0
  0
LINE
  5
26d
100
AcDbEntity
  8
0
 62
7
100
AcDbLine
 10
6.041184
 20
6.000935
 30
0.0
 11
6.041228
 21
5.741229
 31
0.0
  0
LINE
  5
26e
100
AcDbEntity
  8
0
 62
7
100
AcDbLine
 10
6.041228
 20
5.741229
 30
0.0
 11
6.041272
 21
5.481523
 31
0.0
  0
LINE
  5
26f
100
AcDbEntity
  8
0
 62
7
100
AcDbLine
 10
6.041272
 20
5.481523
 30
0.0
 11
6.041316
 21
5.221817
 31
0.0
  0
LINE
  5
270
100
AcDbEntity
  8
0
 62
7
100
AcDbLine
 10
6.041316
 20
5.221817
 30
0.0
 11
6.041360
 21
4.962110
 31
0.0
  0
LINE
  5
271
100
AcDbEntity
  8
0
 62
7
100
AcDbLine
 10
6.041360
 20
4.962110
 30
0.0
 11
6.041404
 21
4.702404
 31
0.0
  0
LINE
  5
272
100
AcDbEntity
  8
0
 62
7
100
AcDbLine
 10
6.041404
 20
4.702404
 30
0.0
 11
6.041449
 21
4.442698
 31
0.0
  0
LINE
  5
273
100
AcDbEntity
  8
0
 62
7
100
AcDbLine
 10
6.041449
 20
4.442698
 30
0.0
 11
6.041493
 21
4.182992
 31
0.0
  0
LINE
  5
274
100
AcDbEntity
  8
0
 62
7
100
AcDbLine
 10
6.041493
 20
4.182992
 30
0.0
 11
6.041537
 21
3.923286
 31
0.0
  0
LINE
  5
275
100
AcDbEntity
  8
0
 62
7
100
AcDbLine
 10
6.041537
 20
3.923286
 30
0.0
 11
6.041581
 21
3.663580
 31
0.0
  0
LINE
  5
276
100
AcDbEntity
  8
0
 62
7
100
AcDbLine
 10
6.041581
 20
3.663580
 30
0.0
 11
6.041625
 21
3.403873
 31
0.0
  0
LINE
  5
277
100
AcDbEntity
  8
0
 62
7
100
AcDbLine
 10
6.041625
 20
3.403873
 30
0.0
 11
6.041669
 21
3.144167
 31
0.0
  0
LINE
  5
278
100
AcDbEntity
  8
0
 62
7
100
AcDbLine
 10
6.041669
 20
3.144167
 30
0.0
 11
6.041713
 21
2.884461
 31
0.0
  0
LINE
  5
279
100
AcDbEntity
  8
0
 62
7
100
AcDbLine
 10
6.041713
 20
2.884461
 30
0.0
 11
6.041757
 21
2.624755
 31
0.0
  0
LINE
  5
27a
100
AcDbEntity
  8
0
 62
7
100
AcDbLine
 10
6.041757
 20
2.624755
 30
0.0
 11
6.041801
 21
2.365049
 31
0.0
  0
LINE
  5
27b
100
AcDbEntity
  8
0
 62
7
100
AcDbLine
 10
6.041801
 20
2.365049
 30
0.0
 11
6.041846
 21
2.105342
 31
0.0
  0
LINE
  5
27c
100
AcDbEntity
  8
0
 62
7
100
AcDbLine
 10
6.041846
 20
2.105342
 30
0.0
 11
6.041890
 21
1.845636
 31
0.0
  0
LINE
  5
27d
100
AcDbEntity
  8
0
 62
7
100
AcDbLine
 10
6.041890
 20
1.845636
 30
0.0
 11
6.041934
 21
1.585930
 31
0.0
  0
LINE
  5
27e
100
AcDbEntity
  8
0
 62
7
100
AcDbLine
 10
6.041934
 20
1.585930
 30
0.0
 11
6.041978
 21
1.326224
 31
0.0
  0
LINE
  5
27f
100
AcDbEntity
  8
0
 62
7
100
AcDbLine
 10
6.041978
 20
1.326224
 30
0.0
 11
6.042022
 21
1.066518
 31
0.0
  0
LINE
  5
280
100
AcDbEntity
  8
0
 62
7
100
AcDbLine
 10
6.042022
 20
1.066518
 30
0.0
 11
6.035915
 21
0.937412
 31
0.0
  0
LINE
  5
281
100
AcDbEntity
  8
0
 62
7
100
AcDbLine
 10
6.035915
 20
0.937412
 30
0.0
 11
6.018109
 21
0.816635
 31
0.0
  0
LINE
  5
282
100
AcDbEntity
  8
0
 62
7
100
AcDbLine
 10
6.018109
 20
0.816635
 30
0.0
 11
5.989387
 21
0.704188
 31
0.0
  0
LINE
  5
283
100
AcDbEntity
  8
0
 62
7
100
AcDbLine
 10
5.989387
 20
0.704188
 30
0.0
 11
5.950527
 21
0.600070
 31
0.0
  0
LINE
  5
284
100
AcDbEntity
  8
0
 62
7
100
AcDbLine
 10
5.950527
 20
0.600070
 30
0.0
 11
5.902309
 21
0.504282
 31
0.0
  0
LINE
  5
285
100
AcDbEntity
  8
0
 62
7
100
AcDbLine
 10
5.902309
 20
0.504282
 30
0.0
 11
5.845514
 21
0.416824
 31
0.0
  0
LINE
  5
286
100
AcDbEntity
  8
0
 62
7
100
AcDbLine
 10
5.845514
 20
0.416824
 30
0.0
 11
5.780921
 21
0.337694
 31
0.0
  0
LINE
  5
287
100
AcDbEntity
  8
0
 62
7
100
AcDbLine
 10
5.780921
 20
0.337694
 30
0.0
 11
5.709310
 21
0.266894
 31
0.0
  0
LINE
  5
288
100
AcDbEntity
  8
0
 62
7
100
AcDbLine
 10
5.709310
 20
0.266894
 30
0.0
 11
5.631460
 21
0.204423
 31
0.0
  0
LINE
  5
289
100
AcDbEntity
  8
0
 62
7
100
AcDbLine
 10
5.631460
 20
0.204423
 30
0.0
 11
5.548151
 21
0.150282
 31
0.0
  0
LINE
  5
28a
100
AcDbEntity
  8
0
 62
7
100
AcDbLine
 10
5.548151
 20
0.150282
 30
0.0
 11
5.460164
 21
0.104470
 31
0.0
  0
LINE
  5
28b
100
AcDbEntity
  8
0
 62
7
100
AcDbLine
 10
5.460164
 20
0.104470
 30
0.0
 11
5.368278
 21
0.066988
 31
0.0
  0
LINE
  5
28c
100
AcDbEntity
  8
0
 62
7
100
AcDbLine
 10
5.368278
 20
0.066988
 30
0.0
 11
5.273273
 21
0.037835
 31
0.0
  0
LINE
  5
28d
100
AcDbEntity
  8
0
 62
7
100
AcDbLine
 10
5.273273
 20
0.037835
 30
0.0
 11
5.175928
 21
0.017010
 31
0.0
  0
LINE
  5
28e
100
AcDbEntity
  8
0
 62
7
100
AcDbLine
 10
5.175928
 20
0.017010
 30
0.0
 11
5.077024
 21
0.004516
 31
0.0
  0
LINE
  5
28f
100
AcDbEntity
  8
0
 62
7
100
AcDbLine
 10
5.077024
 20
0.004516
 30
0.0
 11
4.977340
 21
0.000351
 31
0.0
  0
LINE
  5
290
100
AcDbEntity
  8
0
 62
7
100
AcDbLine
 10
4.977340
 20
0.000351
 30
0.0
 11
4.877656
 21
0.004516
 31
0.0
  0
LINE
  5
291
100
AcDbEntity
  8
0
 62
7
100
AcDbLine
 10
4.877656
 20
0.004516
 30
0.0
 11
4.778751
 21
0.017010
 31
0.0
  0
LINE
  5
292
100
AcDbEntity
  8
0
 62
7
100
AcDbLine
 10
4.778751
 20
0.017010
 30
0.0
 11
4.681407
 21
0.037835
 31
0.0
  0
LINE
  5
293
100
AcDbEntity
  8
0
 62
7
100
AcDbLine
 10
4.681407
 20
0.037835
 30
0.0
 11
4.586401
 21
0.066988
 31
0.0
  0
LINE
  5
294
100
AcDbEntity
  8
0
 62
7
100
AcDbLine
 10
4.586401
 20
0.066988
 30
0.0
 11
4.494515
 21
0.104470
 31
0.0
  0
LINE
  5
295
100
AcDbEntity
  8
0
 62
7
100
AcDbLine
 10
4.494515
 20
0.104470
 30
0.0
 11
4.406528
 21
0.150282
 31
0.0
  0
LINE
  5
296
100
AcDbEntity
  8
0
 62
7
100
AcDbLine
 10
4.406528
 20
0.150282
 30
0.0
 11
4.323220
 21
0.204423
 31
0.0
  0
LINE
  5
297
100
AcDbEntity
  8
0
 62
7
100
AcDbLine
 10
4.323220
 20
0.204423
 30
0.0
 11
4.245370
 21
0.266894
 31
0.0
  0
LINE
  5
298
100
AcDbEntity
  8
0
 62
7
100
AcDbLine
 10
4.245370
 20
0.266894
 30
0.0
 11
4.173758
 21
0.337694
 31
0.0
  0
LINE
  5
299
100
AcDbEntity
  8
0
 62
7
100
AcDbLine
 10
4.173758
 20
0.337694
 30
0.0
 11
4.109165
 21
0.416824
 31
0.0
  0
LINE
  5
29a
100
AcDbEntity
  8
0
 62
7
100
AcDbLine
 10
4.109165
 20
0.416824
 30
0.0
 11
4.052370
 21
0.504282
 31
0.0
  0
LINE
  5
29b
100
AcDbEntity
  8
0
 62
7
100
AcDbLine
 10
4.052370
 20
0.504282
 30
0.0
 11
4.004153
 21
0.600070
 31
0.0
  0
LINE
  5
29c
100
AcDbEntity
  8
0
 62
7
100
AcDbLine
 10
4.004153
 20
0.600070
 30
0.0
 11
3.965293
 21
0.704188
 31
0.0
  0
LINE
  5
29d
100
AcDbEntity
  8
0
 62
7
100
AcDbLine
 10
3.965293
 20
0.704188
 30
0.0
 11
3.936570
 21
0.816635
 31
0.0
  0
LINE
  5
29e
100
AcDbEntity
  8
0
 62
7
100
AcDbLine
 10
3.936570
 20
0.816635
 30
0.0
 11
3.918765
 21
0.937412
 31
0.0
  0
LINE
  5
29f
100
AcDbEntity
  8
0
 62
7
100
AcDbLine
 10
3.918765
 20
0.937412
 30
0.0
 11
3.912657
 21
1.066518
 31
0.0
  0
LINE
  5
2a0
100
AcDbEntity
  8
0
 62
7
100
AcDbLine
 10
3.912657
 20
1.066518
 30
0.0
 11
3.912640
 21
1.324531
 31
0.0
  0
LINE
  5
2a1
100
AcDbEntity
  8
0
 62
7
100
AcDbLine
 10
3.912640
 20
1.324531
 30
0.0
 11
3.912622
 21
1.582544
 31
0.0
  0
LINE
  5
2a2
100
AcDbEntity
  8
0
 62
7
100
AcDbLine
 10
3.912622
 20
1.582544
 30
0.0
 11
3.912604
 21
1.840556
 31
0.0
  0
LINE
  5
2a3
100
AcDbEntity
  8
0
 62
7
100
AcDbLine
 10
3.912604
 20
1.840556
 30
0.0
 11
3.912587
 21
2.098569
 31
0.0
  0
LINE
  5
2a4
100
AcDbEntity
  8
0
 62
7
100
AcDbLine
 10
3.912587
 20
2.098569
 30
0.0
 11
3.912569
 21
2.356582
 31
0.0
  0
LINE
  5
2a5
100
AcDbEntity
  8
0
 62
7
100
AcDbLine
 10
3.912569
 20
2.356582
 30
0.0
 11
3.912552
 21
2.614595
 31
0.0
  0
LINE
  5
2a6
100
AcDbEntity
  8
0
 62
7
100
AcDbLine
 10
3.912552
 20
2.614595
 30
0.0
 11
3.912534
 21
2.872608
 31
0.0
  0
LINE
  5
2a7
100
AcDbEntity
  8
0
 62
7
100
AcDbLine
 10
3.912534
 20
2.872608
 30
0.0
 11
3.912516
 21
3.130621
 31
0.0
  0
LINE
  5
2a8
100
AcDbEntity
  8
0
 62
7
100
AcDbLine
 10
3.912516
 20
3.130621
 30
0.0
 11
3.912499
 21
3.388633
 31
0.0
  0
LINE
  5
2a9
100
AcDbEntity
  8
0
 62
7
100
AcDbLine
 10
3.912499
 20
3.388633
 30
0.0
 11
3.912481
 21
3.646646
 31
0.0
  0
LINE
  5
2aa
100
AcDbEntity
  8
0
 62
7
100
AcDbLine
 10
3.912481
 20
3.646646
 30
0.0
 11
3.912463
 21
3.904659
 31
0.0
  0
LINE
  5
2ab
100
AcDbEntity
  8
0
 62
7
100
AcDbLine
 10
3.912463
 20
3.904659
 30
0.0
 11
3.912446
 21
4.162672
 31
0.0
  0
LINE
  5
2ac
100
AcDbEntity
  8
0
 62
7
100
AcDbLine
 10
3.912446
 20
4.162672
 30
0.0
 11
3.912428
 21
4.420685
 31
0.0
  0
LINE
  5
2ad
100
AcDbEntity
  8
0
 62
7
100
AcDbLine
 10
3.912428
 20
4.420685
 30
0.0
 11
3.912411
 21
4.678698
 31
0.0
  0
LINE
  5
2ae
100
AcDbEntity
  8
0
 62
7
100
AcDbLine
 10
3.912411
 20
4.678698
 30
0.0
 11
3.912393
 21
4.936710
 31
0.0
  0
LINE
  5
2af
100
AcDbEntity
  8
0
 62
7
100
AcDbLine
 10
3.912393
 20
4.936710
 30
0.0
 11
3.912375
 21
5.194723
 31
0.0
  0
LINE
  5
2b0
100
AcDbEntity
  8
0
 62
7
100
AcDbLine
 10
3.912375
 20
5.194723
 30
0.0
 11
3.912357
 21
5.452736
 31
0.0
  0
LINE
  5
2b1
100
AcDbEntity
  8
0
 62
7
100
AcDbLine
 10
3.912357
 20
5.452736
 30
0.0
 11
3.912340
 21
5.710749
 31
0.0
  0
LINE
  5
2b2
100
AcDbEntity
  8
0
 62
7
100
AcDbLine
 10
3.912340
 20
5.710749
 30
0.0
 11
3.912322
 21
5.968762
 31
0.0
  0
LINE
  5
2b3
100
AcDbEntity
  8
0
 62
7
100
AcDbLine
 10
3.912322
 20
5.968762
 30
0.0
 11
3.912305
 21
6.226775
 31
0.0
  0
LINE
  5
2b4
100
AcDbEntity
  8
0
 62
7
100
AcDbLine
 10
3.912305
 20
6.226775
 30
0.0
 11
3.912287
 21
6.484788
 31
0.0
  0
LINE
  5
2b5
100
AcDbEntity
  8
0
 62
7
100
AcDbLine
 10
3.912287
 20
6.484788
 30
0.0
 11
3.912269
 21
6.742801
 31
0.0
  0
LINE
  5
2b6
100
AcDbEntity
  8
0
 62
7
100
AcDbLine
 10
3.912269
 20
6.742801
 30
0.0
 11
3.912252
 21
7.000813
 31
0.0
  0
LINE
  5
2b7
100
AcDbEntity
  8
0
 62
7
100
AcDbLine
 10
3.912252
 20
7.000813
 30
0.0
 11
3.912234
 21
7.258826
 31
0.0
  0
LINE
  5
2b8
100
AcDbEntity
  8
0
 62
7
100
AcDbLine
 10
3.912234
 20
7.258826
 30
0.0
 11
3.912216
 21
7.516839
 31
0.0
  0
LINE
  5
2b9
100
AcDbEntity
  8
0
 62
7
100
AcDbLine
 10
3.912216
 20
7.516839
 30
0.0
 11
3.912199
 21
7.774852
 31
0.0
  0
LINE
  5
2ba
100
AcDbEntity
  8
0
 62
7
100
AcDbLine
 10
3.912199
 20
7.774852
 30
0.0
 11
3.912181
 21
8.032865
 31
0.0
  0
LINE
  5
2bb
100
AcDbEntity
  8
0
 62
7
100
AcDbLine
 10
3.912181
 20
8.032865
 30
0.0
 11
3.912164
 21
8.290877
 31
0.0
  0
LINE
  5
2bc
100
AcDbEntity
  8
0
 62
7
100
AcDbLine
 10
3.912164
 20
8.290877
 30
0.0
 11
3.912146
 21
8.548890
 31
0.0
  0
LINE
  5
2bd
100
AcDbEntity
  8
0
 62
7
100
AcDbLine
 10
3.912146
 20
8.548890
 30
0.0
 11
3.912128
 21
8.806903
 31
0.0
  0
LINE
  5
2be
100
AcDbEntity
  8
0
 62
7
100
AcDbLine
 10
3.912128
 20
8.806903
 30
0.0
 11
3.912111
 21
9.064916
 31
0.0
  0
LINE
  5
2bf
100
AcDbEntity
  8
0
 62
7
100
AcDbLine
 10
3.912111
 20
9.064916
 30
0.0
 11
3.912093
 21
9.322929
 31
0.0
  0
LINE
  5
2c0
100
AcDbEntity
  8
0
 62
7
100
AcDbLine
 10
3.912093
 20
9.322929
 30
0.0
 11
3.823114
 21
9.322929
 31
0.0
  0
LINE
  5
2c1
100
AcDbEntity
  8
0
 62
7
100
AcDbLine
 10
3.823114
 20
9.322929
 30
0.0
 11
3.734134
 21
9.322929
 31
0.0
  0
LINE
  5
2c2
100
AcDbEntity
  8
0
 62
7
100
AcDbLine
 10
3.734134
 20
9.322929
 30
0.0
 11
3.645155
 21
9.322929
 31
0.0
  0
LINE
  5
2c3
100
AcDbEntity
  8
0
 62
7
100
AcDbLine
 10
3.645155
 20
9.322929
 30
0.0
 11
3.556176
 21
9.322929
 31
0.0
  0
LINE
  5
2c4
100
AcDbEntity
  8
0
 62
7
100
AcDbLine
 10
3.556176
 20
9.322929
 30
0.0
 11
3.467196
 21
9.322929
 31
0.0
  0
LINE
  5
2c5
100
AcDbEntity
  8
0
 62
7
100
AcDbLine
 10
3.467196
 20
9.322929
 30
0.0
 11
3.378217
 21
9.322929
 31
0.0
  0
LINE
  5
2c6
100
AcDbEntity
  8
0
 62
7
100
AcDbLine
 10
3.378217
 20
9.322929
 30
0.0
 11
3.289237
 21
9.322929
 31
0.0
  0
LINE
  5
2c7
100
AcDbEntity
  8
0
 62
7
100
AcDbLine
 10
3.289237
 20
9.322929
 30
0.0
 11
3.200258
 21
9.322929
 31
0.0
  0
LINE
  5
2c8
100
AcDbEntity
  8
0
 62
7
100
AcDbLine
 10
3.200258
 20
9.322929
 30
0.0
 11
3.111279
 21
9.322929
 31
0.0
  0
LINE
  5
2c9
100
AcDbEntity
  8
0
 62
7
100
AcDbLine
 10
3.111279
 20
9.322929
 30
0.0
 11
3.022299
 21
9.322929
 31
0.0
  0
LINE
  5
2ca
100
AcDbEntity
  8
0
 62
7
100
AcDbLine
 10
3.022299
 20
9.322929
 30
0.0
 11
2.933320
 21
9.322929
 31
0.0
  0
LINE
  5
2cb
100
AcDbEntity
  8
0
 62
7
100
AcDbLine
 10
2.933320
 20
9.322929
 30
0.0
 11
2.844341
 21
9.322929
 31
0.0
  0
LINE
  5
2cc
100
AcDbEntity
  8
0
 62
7
100
AcDbLine
 10
2.844341
 20
9.322929
 30
0.0
 11
2.755361
 21
9.322929
 31
0.0
  0
LINE
  5
2cd
100
AcDbEntity
  8
0
 62
7
100
AcDbLine
 10
2.755361
 20
9.322929
 30
0.0
 11
2.666382
 21
9.322929
 31
0.0
  0
LINE
  5
2ce
100
AcDbEntity
  8
0
 62
7
100
AcDbLine
 10
2.666382
 20
9.322929
 30
0.0
 11
2.577402
 21
9.322929
 31
0.0
  0
LINE
  5
2cf
100
AcDbEntity
  8
0
 62
7
100
AcDbLine
 10
2.577402
 20
9.322929
 30
0.0
 11
2.488423
 21
9.322929
 31
0.0
  0
LINE
  5
2d0
100
AcDbEntity
  8
0
 62
7
100
AcDbLine
 10
2.488423
 20
9.322929
 30
0.0
 11
2.399444
 21
9.322929
 31
0.0
  0
LINE
  5
2d1
100
AcDbEntity
  8
0
 62
7
100
AcDbLine
 10
2.399444
 20
9.322929
 30
0.0
 11
2.310464
 21
9.322929
 31
0.0
  0
LINE
  5
2d2
100
AcDbEntity
  8
0
 62
7
100
AcDbLine
 10
2.310464
 20
9.322929
 30
0.0
 11
2.221485
 21
9.322929
 31
0.0
  0
LINE
  5
2d3
100
AcDbEntity
  8
0
 62
7
100
AcDbLine
 10
2.221485
 20
9.322929
 30
0.0
 11
2.132505
 21
9.322929
 31
0.0
  0
LINE
  5
2d4
100
AcDbEntity
  8
0
 62
7
100
AcDbLine
 10
2.132505
 20
9.322929
 30
0.0
 11
2.043526
 21
9.322929
 31
0.0
  0
LINE
  5
2d5
100
AcDbEntity
  8
0
 62
7
100
AcDbLine
 10
2.043526
 20
9.322929
 30
0.0
 11
1.954547
 21
9.322929
 31
0.0
  0
LINE
  5
2d6
100
AcDbEntity
  8
0
 62
7
100
AcDbLine
 10
1.954547
 20
9.322929
 30
0.0
 11
1.865567
 21
9.322929
 31
0.0
  0
LINE
  5
2d7
100
AcDbEntity
  8
0
 62
7
100
AcDbLine
 10
1.865567
 20
9.322929
 30
0.0
 11
1.776588
 21
9.322929
 31
0.0
  0
LINE
  5
2d8
100
AcDbEntity
  8
0
 62
7
100
AcDbLine
 10
1.776588
 20
9.322929
 30
0.0
 11
1.687609
 21
9.322929
 31
0.0
  0
LINE
  5
2d9
100
AcDbEntity
  8
0
 62
7
100
AcDbLine
 10
1.687609
 20
9.322929
 30
0.0
 11
1.598629
 21
9.322929
 31
0.0
  0
LINE
  5
2da
100
AcDbEntity
  8
0
 62
7
100
AcDbLine
 10
1.598629
 20
9.322929
 30
0.0
 11
1.509650
 21
9.322929
 31
0.0
  0
LINE
  5
2db
100
AcDbEntity
  8
0
 62
7
100
AcDbLine
 10
1.509650
 20
9.322929
 30
0.0
 11
1.420670
 21
9.322929
 31
0.0
  0
LINE
  5
2dc
100
AcDbEntity
  8
0
 62
7
100
AcDbLine
 10
1.420670
 20
9.322929
 30
0.0
 11
1.331691
 21
9.322929
 31
0.0
  0
LINE
  5
2dd
100
AcDbEntity
  8
0
 62
7
100
AcDbLine
 10
1.331691
 20
9.322929
 30
0.0
 11
1.242712
 21
9.322929
 31
0.0
  0
LINE
  5
2de
100
AcDbEntity
  8
0
 62
7
100
AcDbLine
 10
1.242712
 20
9.322929
 30
0.0
 11
1.153732
 21
9.322929
 31
0.0
  0
LINE
  5
2df
100
AcDbEntity
  8
0
 62
7
100
AcDbLine
 10
1.153732
 20
9.322929
 30
0.0
 11
1.064753
 21
9.322929
 31
0.0
  0
LINE
  5
2e0
100
AcDbEntity
  8
0
 62
7
100
AcDbLine
 10
1.064753
 20
9.322929
 30
0.0
 11
1.160285
 21
9.654346
 31
0.0
  0
LINE
  5
2e1
100
AcDbEntity
  8
0
 62
7
100
AcDbLine
 10
1.160285
 20
9.654346
 30
0.0
 11
1.255809
 21
9.985763
 31
0.0
  0
LINE
  5
2e2
100
AcDbEntity
  8
0
 62
7
100
AcDbLine
 10
1.255809
 20
9.985763
 30
0.0
 11
1.351332
 21
10.317180
 31
0.0
  0
LINE
  5
2e3
100
AcDbEntity
  8
0
 62
7
100
AcDbLine
 10
1.351332
 20
10.317180
 30
0.0
 11
1.446856
 21
10.648597
 31
0.0
  0
LINE
  5
2e4
100
AcDbEntity
  8
0
 62
7
100
AcDbLine
 10
1.446856
 20
10.648597
 30
0.0
 11
1.542379
 21
10.980014
 31
0.0
  0
LINE
  5
2e5
100
AcDbEntity
  8
0
 62
7
100
AcDbLine
 10
1.542379
 20
10.980014
 30
0.0
 11
1.637902
 21
11.311431
 31
0.0
  0
LINE
  5
2e6
100
AcDbEntity
  8
0
 62
7
100
AcDbLine
 10
1.637902
 20
11.311431
 30
0.0
 11
1.733426
 21
11.642849
 31
0.0
  0
LINE
  5
2e7
100
AcDbEntity
  8
0
 62
7
100
AcDbLine
 10
1.733426
 20
11.642849
 30
0.0
 11
1.828949
 21
11.974266
 31
0.0
  0
LINE
  5
2e8
100
AcDbEntity
  8
0
 62
7
100
AcDbLine
 10
1.828949
 20
11.974266
 30
0.0
 11
1.924473
 21
12.305683
 31
0.0
  0
LINE
  5
2e9
100
AcDbEntity
  8
0
 62
7
100
AcDbLine
 10
1.924473
 20
12.305683
 30
0.0
 11
2.019996
 21
12.637100
 31
0.0
  0
LINE
  5
2ea
100
AcDbEntity
  8
0
 62
7
100
AcDbLine
 10
2.019996
 20
12.637100
 30
0.0
 11
2.115519
 21
12.968517
 31
0.0
  0
LINE
  5
2eb
100
AcDbEntity
  8
0
 62
7
100
AcDbLine
 10
2.115519
 20
12.968517
 30
0.0
 11
2.211043
 21
13.299934
 31
0.0
  0
LINE
  5
2ec
100
AcDbEntity
  8
0
 62
7
100
AcDbLine
 10
2.211043
 20
13.299934
 30
0.0
 11
2.306566
 21
13.631351
 31
0.0
  0
LINE
  5
2ed
100
AcDbEntity
  8
0
 62
7
100
AcDbLine
 10
2.306566
 20
13.631351
 30
0.0
 11
2.402090
 21
13.962768
 31
0.0
  0
LINE
  5
2ee
100
AcDbEntity
  8
0
 62
7
100
AcDbLine
 10
2.402090
 20
13.962768
 30
0.0
 11
2.497613
 21
14.294185
 31
0.0
  0
LINE
  5
2ef
100
AcDbEntity
  8
0
 62
7
100
AcDbLine
 10
2.497613
 20
14.294185
 30
0.0
 11
2.593136
 21
14.625602
 31
0.0
  0
LINE
  5
2f0
100
AcDbEntity
  8
0
 62
7
100
AcDbLine
 10
2.593136
 20
14.625602
 30
0.0
 11
2.688660
 21
14.957019
 31
0.0
  0
LINE
  5
2f1
100
AcDbEntity
  8
0
 62
7
100
AcDbLine
 10
2.688660
 20
14.957019
 30
0.0
 11
2.784183
 21
15.288436
 31
0.0
  0
LINE
  5
2f2
100
AcDbEntity
  8
0
 62
7
100
AcDbLine
 10
2.784183
 20
15.288436
 30
0.0
 11
2.879707
 21
15.619853
 31
0.0
  0
LINE
  5
2f3
100
AcDbEntity
  8
0
 62
7
100
AcDbLine
 10
2.879707
 20
15.619853
 30
0.0
 11
2.975230
 21
15.951271
 31
0.0
  0
LINE
  5
2f4
100
AcDbEntity
  8
0
 62
7
100
AcDbLine
 10
2.975230
 20
15.951271
 30
0.0
 11
3.070754
 21
16.282687
 31
0.0
  0
LINE
  5
2f5
100
AcDbEntity
  8
0
 62
7
100
AcDbLine
 10
3.070754
 20
16.282687
 30
0.0
 11
3.166277
 21
16.614105
 31
0.0
  0
LINE
  5
2f6
100
AcDbEntity
  8
0
 62
7
100
AcDbLine
 10
3.166277
 20
16.614105
 30
0.0
 11
3.261800
 21
16.945522
 31
0.0
  0
LINE
  5
2f7
100
AcDbEntity
  8
0
 62
7
100
AcDbLine
 10
3.261800
 20
16.945522
 30
0.0
 11
3.357324
 21
17.276939
 31
0.0
  0
LINE
  5
2f8
100
AcDbEntity
  8
0
 62
7
100
AcDbLine
 10
3.357324
 20
17.276939
 30
0.0
 11
3.452847
 21
17.608356
 31
0.0
  0
LINE
  5
2f9
100
AcDbEntity
  8
0
 62
7
100
AcDbLine
 10
3.452847
 20
17.608356
 30
0.0
 11
3.548370
 21
17.939773
 31
0.0
  0
LINE
  5
2fa
100
AcDbEntity
  8
0
 62
7
100
AcDbLine
 10
3.548370
 20
17.939773
 30
0.0
 11
3.643894
 21
18.271190
 31
0.0
  0
LINE
  5
2fb
100
AcDbEntity
  8
0
 62
7
100
AcDbLine
 10
3.643894
 20
18.271190
 30
0.0
 11
3.739417
 21
18.602607
 31
0.0
  0
LINE
  5
2fc
100
AcDbEntity
  8
0
 62
7
100
AcDbLine
 10
3.739417
 20
18.602607
 30
0.0
 11
3.834941
 21
18.934024
 31
0.0
  0
LINE
  5
2fd
100
AcDbEntity
  8
0
 62
7
100
AcDbLine
 10
3.834941
 20
18.934024
 30
0.0
 11
3.930464
 21
19.265441
 31
0.0
  0
LINE
  5
2fe
100
AcDbEntity
  8
0
 62
7
100
AcDbLine
 10
3.930464
 20
19.265441
 30
0.0
 11
4.025987
 21
19.596859
 31
0.0
  0
LINE
  5
2ff
100
AcDbEntity
  8
0
 62
7
100
AcDbLine
 10
4.025987
 20
19.596859
 30
0.0
 11
4.121511
 21
19.928276
 31
0.0
  0
LINE
  5
300
100
AcDbEntity
  8
0
 62
7
100
AcDbLine
 10
4.121511
 20
19.928276
 30
0.0
 11
4.106570
 21
19.928276
 31
0.0
  0
LINE
  5
301
100
AcDbEntity
  8
0
 62
7
100
AcDbLine
 10
4.106570
 20
19.928276
 30
0.0
 11
4.091629
 21
19.928276
 31
0.0
  0
LINE
  5
302
100
AcDbEntity
  8
0
 62
7
100
AcDbLine
 10
4.091629
 20
19.928276
 30
0.0
 11
4.076688
 21
19.928276
 31
0.0
  0
LINE
  5
303
100
AcDbEntity
  8
0
 62
7
100
AcDbLine
 10
4.076688
 20
19.928276
 30
0.0
 11
4.061748
 21
19.928276
 31
0.0
  0
LINE
  5
304
100
AcDbEntity
  8
0
 62
7
100
AcDbLine
 10
4.061748
 20
19.928276
 30
0.0
 11
4.046807
 21
19.928276
 31
0.0
  0
LINE
  5
305
100
AcDbEntity
  8
0
 62
7
100
AcDbLine
 10
4.046807
 20
19.928276
 30
0.0
 11
4.031866
 21
19.928276
 31
0.0
  0
LINE
  5
306
100
AcDbEntity
  8
0
 62
7
100
AcDbLine
 10
4.031866
 20
19.928276
 30
0.0
 11
4.016925
 21
19.928276
 31
0.0
  0
LINE
  5
307
100
AcDbEntity
  8
0
 62
7
100
AcDbLine
 10
4.016925
 20
19.928276
 30
0.0
 11
4.001984
 21
19.928276
 31
0.0
  0
LINE
  5
308
100
AcDbEntity
  8
0
 62
7
100
AcDbLine
 10
4.001984
 20
19.928276
 30
0.0
 11
3.987043
 21
19.928276
 31
0.0
  0
LINE
  5
309
100
AcDbEntity
  8
0
 62
7
100
AcDbLine
 10
3.987043
 20
19.928276
 30
0.0
 11
3.972103
 21
19.928276
 31
0.0
  0
LINE
  5
30a
100
AcDbEntity
  8
0
 62
7
100
AcDbLine
 10
3.972103
 20
19.928276
 30
0.0
 11
3.957162
 21
19.928276
 31
0.0
  0
LINE
  5
30b
100
AcDbEntity
  8
0
 62
7
100
AcDbLine
 10
3.957162
 20
19.928276
 30
0.0
 11
3.942221
 21
19.928276
 31
0.0
  0
LINE
  5
30c
100
AcDbEntity
  8
0
 62
7
100
AcDbLine
 10
3.942221
 20
19.928276
 30
0.0
 11
3.927280
 21
19.928276
 31
0.0
  0
LINE
  5
30d
100
AcDbEntity
  8
0
 62
7
100
AcDbLine
 10
3.927280
 20
19.928276
 30
0.0
 11
3.912339
 21
19.928276
 31
0.0
  0
LINE
  5
30e
100
AcDbEntity
  8
0
 62
7
100
AcDbLine
 10
3.912339
 20
19.928276
 30
0.0
 11
3.897398
 21
19.928276
 31
0.0
  0
LINE
  5
30f
100
AcDbEntity
  8
0
 62
7
100
AcDbLine
 10
3.897398
 20
19.928276
 30
0.0
 11
3.882457
 21
19.928276
 31
0.0
  0
LINE
  5
310
100
AcDbEntity
  8
0
 62
7
100
AcDbLine
 10
3.882457
 20
19.928276
 30
0.0
 11
3.867517
 21
19.928276
 31
0.0
  0
LINE
  5
311
100
AcDbEntity
  8
0
 62
7
100
AcDbLine
 10
3.867517
 20
19.928276
 30
0.0
 11
3.852576
 21
19.928276
 31
0.0
  0
LINE
  5
312
100
AcDbEntity
  8
0
 62
7
100
AcDbLine
 10
3.852576
 20
19.928276
 30
0.0
 11
3.837635
 21
19.928276
 31
0.0
  0
LINE
  5
313
100
AcDbEntity
  8
0
 62
7
100
AcDbLine
 10
3.837635
 20
19.928276
 30
0.0
 11
3.822694
 21
19.928276
 31
0.0
  0
LINE
  5
314
100
AcDbEntity
  8
0
 62
7
100
AcDbLine
 10
3.822694
 20
19.928276
 30
0.0
 11
3.807753
 21
19.928276
 31
0.0
  0
LINE
  5
315
100
AcDbEntity
  8
0
 62
7
100
AcDbLine
 10
3.807753
 20
19.928276
 30
0.0
 11
3.792812
 21
19.928276
 31
0.0
  0
LINE
  5
316
100
AcDbEntity
  8
0
 62
7
100
AcDbLine
 10
3.792812
 20
19.928276
 30
0.0
 11
3.777872
 21
19.928276
 31
0.0
  0
LINE
  5
317
100
AcDbEntity
  8
0
 62
7
100
AcDbLine
 10
3.777872
 20
19.928276
 30
0.0
 11
3.762931
 21
19.928276
 31
0.0
  0
LINE
  5
318
100
AcDbEntity
  8
0
 62
7
100
AcDbLine
 10
3.762931
 20
19.928276
 30
0.0
 11
3.747990
 21
19.928276
 31
0.0
  0
LINE
  5
319
100
AcDbEntity
  8
0
 62
7
100
AcDbLine
 10
3.747990
 20
19.928276
 30
0.0
 11
3.733049
 21
19.928276
 31
0.0
  0
LINE
  5
31a
100
AcDbEntity
  8
0
 62
7
100
AcDbLine
 10
3.733049
 20
19.928276
 30
0.0
 11
3.718108
 21
19.928276
 31
0.0
  0
LINE
  5
31b
100
AcDbEntity
  8
0
 62
7
100
AcDbLine
 10
3.718108
 20
19.928276
 30
0.0
 11
3.703167
 21
19.928276
 31
0.0
  0
LINE
  5
31c
100
AcDbEntity
  8
0
 62
7
100
AcDbLine
 10
3.703167
 20
19.928276
 30
0.0
 11
3.688226
 21
19.928276
 31
0.0
  0
LINE
  5
31d
100
AcDbEntity
  8
0
 62
7
100
AcDbLine
 10
3.688226
 20
19.928276
 30
0.0
 11
3.673286
 21
19.928276
 31
0.0
  0
LINE
  5
31e
100
AcDbEntity
  8
0
 62
7
100
AcDbLine
 10
3.673286
 20
19.928276
 30
0.0
 11
3.658345
 21
19.928276
 31
0.0
  0
LINE
  5
31f
100
AcDbEntity
  8
0
 62
7
100
AcDbLine
 10
3.658345
 20
19.928276
 30
0.0
 11
3.643404
 21
19.928276
 31
0.0
  0
LINE
  5
320
100
AcDbEntity
  8
0
 62
7
100
AcDbLine
 10
3.643404
 20
19.928276
 30
0.0
 11
3.587850
 21
19.741303
 31
0.0
  0
LINE
  5
321
100
AcDbEntity
  8
0
 62
7
100
AcDbLine
 10
3.587850
 20
19.741303
 30
0.0
 11
3.532296
 21
19.554331
 31
0.0
  0
LINE
  5
322
100
AcDbEntity
  8
0
 62
7
100
AcDbLine
 10
3.532296
 20
19.554331
 30
0.0
 11
3.476743
 21
19.367359
 31
0.0
  0
LINE
  5
323
100
AcDbEntity
  8
0
 62
7
100
AcDbLine
 10
3.476743
 20
19.367359
 30
0.0
 11
3.421189
 21
19.180387
 31
0.0
  0
LINE
  5
324
100
AcDbEntity
  8
0
 62
7
100
AcDbLine
 10
3.421189
 20
19.180387
 30
0.0
 11
3.365635
 21
18.993414
 31
0.0
  0
LINE
  5
325
100
AcDbEntity
  8
0
 62
7
100
AcDbLine
 10
3.365635
 20
18.993414
 30
0.0
 11
3.310082
 21
18.806442
 31
0.0
  0
LINE
  5
326
100
AcDbEntity
  8
0
 62
7
100
AcDbLine
 10
3.310082
 20
18.806442
 30
0.0
 11
3.254528
 21
18.619470
 31
0.0
  0
LINE
  5
327
100
AcDbEntity
  8
0
 62
7
100
AcDbLine
 10
3.254528
 20
18.619470
 30
0.0
 11
3.198974
 21
18.432498
 31
0.0
  0
LINE
  5
328
100
AcDbEntity
  8
0
 62
7
100
AcDbLine
 10
3.198974
 20
18.432498
 30
0.0
 11
3.143421
 21
18.245526
 31
0.0
  0
LINE
  5
329
100
AcDbEntity
  8
0
 62
7
100
AcDbLine
 10
3.143421
 20
18.245526
 30
0.0
 11
3.087867
 21
18.058553
 31
0.0
  0
LINE
  5
32a
100
AcDbEntity
  8
0
 62
7
100
AcDbLine
 10
3.087867
 20
18.058553
 30
0.0
 11
3.032314
 21
17.871581
 31
0.0
  0
LINE
  5
32b
100
AcDbEntity
  8
0
 62
7
100
AcDbLine
 10
3.032314
 20
17.871581
 30
0.0
 11
2.976782
 21
17.684609
 31
0.0
  0
LINE
  5
32c
100
AcDbEntity
  8
0
 62
7
100
AcDbLine
 10
2.976782
 20
17.684609
 30
0.0
 11
2.921229
 21
17.497637
 31
0.0
  0
LINE
  5
32d
100
AcDbEntity
  8
0
 62
7
100
AcDbLine
 10
2.921229
 20
17.497637
 30
0.0
 11
2.865675
 21
17.310664
 31
0.0
  0
LINE
  5
32e
100
AcDbEntity
  8
0
 62
7
100
AcDbLine
 10
2.865675
 20
17.310664
 30
0.0
 11
2.810121
 21
17.123692
 31
0.0
  0
LINE
  5
32f
100
AcDbEntity
  8
0
 62
7
100
AcDbLine
 10
2.810121
 20
17.123692
 30
0.0
 11
2.754568
 21
16.936720
 31
0.0
  0
LINE
  5
330
100
AcDbEntity
  8
0
 62
7
100
AcDbLine
 10
2.754568
 20
16.936720
 30
0.0
 11
2.699014
 21
16.749748
 31
0.0
  0
LINE
  5
331
100
AcDbEntity
  8
0
 62
7
100
AcDbLine
 10
2.699014
 20
16.749748
 30
0.0
 11
2.643460
 21
16.562776
 31
0.0
  0
LINE
  5
332
100
AcDbEntity
  8
0
 62
7
100
AcDbLine
 10
2.643460
 20
16.562776
 30
0.0
 11
2.587906
 21
16.375803
 31
0.0
  0
LINE
  5
333
100
AcDbEntity
  8
0
 62
7
100
AcDbLine
 10
2.587906
 20
16.375803
 30
0.0
 11
2.532353
 21
16.188831
 31
0.0
  0
LINE
  5
334
100
AcDbEntity
  8
0
 62
7
100
AcDbLine
 10
2.532353
 20
16.188831
 30
0.0
 11
2.476799
 21
16.001859
 31
0.0
  0
LINE
  5
335
100
AcDbEntity
  8
0
 62
7
100
AcDbLine
 10
2.476799
 20
16.001859
 30
0.0
 11
2.421245
 21
15.814887
 31
0.0
  0
LINE
  5
336
100
AcDbEntity
  8
0
 62
7
100
AcDbLine
 10
2.421245
 20
15.814887
 30
0.0
 11
2.365692
 21
15.627914
 31
0.0
  0
LINE
  5
337
100
AcDbEntity
  8
0
 62
7
100
AcDbLine
 10
2.365692
 20
15.627914
 30
0.0
 11
2.310138
 21
15.440942
 31
0.0
  0
LINE
  5
338
100
AcDbEntity
  8
0
 62
7
100
AcDbLine
 10
2.310138
 20
15.440942
 30
0.0
 11
2.254584
 21
15.253970
 31
0.0
  0
LINE
  5
339
100
AcDbEntity
  8
0
 62
7
100
AcDbLine
 10
2.254584
 20
15.253970
 30
0.0
 11
2.199031
 21
15.066998
 31
0.0
  0
LINE
  5
33a
100
AcDbEntity
  8
0
 62
7
100
AcDbLine
 10
2.199031
 20
15.066998
 30
0.0
 11
2.143477
 21
14.880026
 31
0.0
  0
LINE
  5
33b
100
AcDbEntity
  8
0
 62
7
100
AcDbLine
 10
2.143477
 20
14.880026
 30
0.0
 11
2.087923
 21
14.693053
 31
0.0
  0
LINE
  5
33c
100
AcDbEntity
  8
0
 62
7
100
AcDbLine
 10
2.087923
 20
14.693053
 30
0.0
 11
2.032370
 21
14.506081
 31
0.0
  0
LINE
  5
33d
100
AcDbEntity
  8
0
 62
7
100
AcDbLine
 10
2.032370
 20
14.506081
 30
0.0
 11
1.976816
 21
14.319109
 31
0.0
  0
LINE
  5
33e
100
AcDbEntity
  8
0
 62
7
100
AcDbLine
 10
1.976816
 20
14.319109
 30
0.0
 11
1.921262
 21
14.132137
 31
0.0
  0
LINE
  5
33f
100
AcDbEntity
  8
0
 62
7
100
AcDbLine
 10
1.921262
 20
14.132137
 30
0.0
 11
1.865709
 21
13.945164
 31
0.0
  0
LINE
  5
340
100
AcDbEntity
  8
0
 62
7
100
AcDbLine
 10
1.865709
 20
13.945164
 30
0.0
 11
1.822120
 21
13.828260
 31
0.0
  0
LINE
  5
341
100
AcDbEntity
  8
0
 62
7
100
AcDbLine
 10
1.822120
 20
13.828260
 30
0.0
 11
1.771165
 21
13.721955
 31
0.0
  0
LINE
  5
342
100
AcDbEntity
  8
0
 62
7
100
AcDbLine
 10
1.771165
 20
13.721955
 30
0.0
 11
1.713498
 21
13.626070
 31
0.0
  0
LINE
  5
343
100
AcDbEntity
  8
0
 62
7
100
AcDbLine
 10
1.713498
 20
13.626070
 30
0.0
 11
1.649772
 21
13.540428
 31
0.0
  0
LINE
  5
344
100
AcDbEntity
  8
0
 62
7
100
AcDbLine
 10
1.649772
 20
13.540428
 30
0.0
 11
1.580642
 21
13.464847
 31
0.0
  0
LINE
  5
345
100
AcDbEntity
  8
0
 62
7
100
AcDbLine
 10
1.580642
 20
13.464847
 30
0.0
 11
1.506761
 21
13.399151
 31
0.0
  0
LINE
  5
346
100
AcDbEntity
  8
0
 62
7
100
AcDbLine
 10
1.506761
 20
13.399151
 30
0.0
 11
1.428784
 21
13.343159
 31
0.0
  0
LINE
  5
347
100
AcDbEntity
  8
0
 62
7
100
AcDbLine
 10
1.428784
 20
13.343159
 30
0.0
 11
1.347363
 21
13.296693
 31
0.0
  0
LINE
  5
348
100
AcDbEntity
  8
0
 62
7
100
AcDbLine
 10
1.347363
 20
13.296693
 30
0.0
 11
1.263154
 21
13.259574
 31
0.0
  0
LINE
  5
349
100
AcDbEntity
  8
0
 62
7
100
AcDbLine
 10
1.263154
 20
13.259574
 30
0.0
 11
1.176810
 21
13.231622
 31
0.0
  0
LINE
  5
34a
100
AcDbEntity
  8
0
 62
7
100
AcDbLine
 10
1.176810
 20
13.231622
 30
0.0
 11
1.088985
 21
13.212660
 31
0.0
  0
LINE
  5
34b
100
AcDbEntity
  8
0
 62
7
100
AcDbLine
 10
1.088985
 20
13.212660
 30
0.0
 11
1.000333
 21
13.202507
 31
0.0
  0
LINE
  5
34c
100
AcDbEntity
  8
0
 62
7
100
AcDbLine
 10
1.000333
 20
13.202507
 30
0.0
 11
0.911507
 21
13.200986
 31
0.0
  0
LINE
  5
34d
100
AcDbEntity
  8
0
 62
7
100
AcDbLine
 10
0.911507
 20
13.200986
 30
0.0
 11
0.823162
 21
13.207916
 31
0.0
  0
LINE
  5
34e
100
AcDbEntity
  8
0
 62
7
100
AcDbLine
 10
0.823162
 20
13.207916
 30
0.0
 11
0.735952
 21
13.223120
 31
0.0
  0
LINE
  5
34f
100
AcDbEntity
  8
0
 62
7
100
AcDbLine
 10
0.735952
 20
13.223120
 30
0.0
 11
0.650530
 21
13.246417
 31
0.0
  0
LINE
  5
350
100
AcDbEntity
  8
0
 62
7
100
AcDbLine
 10
0.650530
 20
13.246417
 30
0.0
 11
0.567551
 21
13.277630
 31
0.0
  0
LINE
  5
351
100
AcDbEntity
  8
0
 62
7
100
AcDbLine
 10
0.567551
 20
13.277630
 30
0.0
 11
0.487668
 21
13.316580
 31
0.0
  0
LINE
  5
352
100
AcDbEntity
  8
0
 62
7
100
AcDbLine
 10
0.487668
 20
13.316580
 30
0.0
 11
0.411535
 21
13.363086
 31
0.0
  0
LINE
  5
353
100
AcDbEntity
  8
0
 62
7
100
AcDbLine
 10
0.411535
 20
13.363086
 30
0.0
 11
0.339807
 21
13.416971
 31
0.0
  0
LINE
  5
354
100
AcDbEntity
  8
0
 62
7
100
AcDbLine
 10
0.339807
 20
13.416971
 30
0.0
 11
0.273136
 21
13.478055
 31
0.0
  0
LINE
  5
355
100
AcDbEntity
  8
0
 62
7
100
AcDbLine
 10
0.273136
 20
13.478055
 30
0.0
 11
0.212178
 21
13.546159
 31
0.0
  0
LINE
  5
356
100
AcDbEntity
  8
0
 62
7
100
AcDbLine
 10
0.212178
 20
13.546159
 30
0.0
 11
0.157586
 21
13.621105
 31
0.0
  0
LINE
  5
357
100
AcDbEntity
  8
0
 62
7
100
AcDbLine
 10
0.157586
 20
13.621105
 30
0.0
 11
0.110013
 21
13.702714
 31
0.0
  0
LINE
  5
358
100
AcDbEntity
  8
0
 62
7
100
AcDbLine
 10
0.110013
 20
13.702714
 30
0.0
 11
0.070114
 21
13.790806
 31
0.0
  0
LINE
  5
359
100
AcDbEntity
  8
0
 62
7
100
AcDbLine
 10
0.070114
 20
13.790806
 30
0.0
 11
0.038543
 21
13.885202
 31
0.0
  0
LINE
  5
35a
100
AcDbEntity
  8
0
 62
7
100
AcDbLine
 10
0.038543
 20
13.885202
 30
0.0
 11
0.015953
 21
13.985724
 31
0.0
  0
LINE
  5
35b
100
AcDbEntity
  8
0
 62
7
100
AcDbLine
 10
0.015953
 20
13.985724
 30
0.0
 11
0.002999
 21
14.092193
 31
0.0
  0
LINE
  5
35c
100
AcDbEntity
  8
0
 62
7
100
AcDbLine
 10
0.002999
 20
14.092193
 30
0.0
 11
0.000334
 21
14.204429
 31
0.0
  0
LINE
  5
35d
100
AcDbEntity
  8
0
 62
7
100
AcDbLine
 10
0.000334
 20
14.204429
 30
0.0
 11
0.008613
 21
14.322255
 31
0.0
  0
LINE
  5
35e
100
AcDbEntity
  8
0
 62
7
100
AcDbLine
 10
0.008613
 20
14.322255
 30
0.0
 11
0.028488
 21
14.445490
 31
0.0
  0
LINE
  5
35f
100
AcDbEntity
  8
0
 62
7
100
AcDbLine
 10
0.028488
 20
14.445490
 30
0.0
 11
0.060615
 21
14.573956
 31
0.0
  0
LINE
  5
360
100
AcDbEntity
  8
0
 62
7
100
AcDbLine
 10
0.060615
 20
14.573956
 30
0.0
 11
0.122290
 21
14.777068
 31
0.0
  0
LINE
  5
361
100
AcDbEntity
  8
0
 62
7
100
AcDbLine
 10
0.122290
 20
14.777068
 30
0.0
 11
0.183964
 21
14.980179
 31
0.0
  0
LINE
  5
362
100
AcDbEntity
  8
0
 62
7
100
AcDbLine
 10
0.183964
 20
14.980179
 30
0.0
 11
0.245638
 21
15.183291
 31
0.0
  0
LINE
  5
363
100
AcDbEntity
  8
0
 62
7
100
AcDbLine
 10
0.245638
 20
15.183291
 30
0.0
 11
0.307313
 21
15.386403
 31
0.0
  0
LINE
  5
364
100
AcDbEntity
  8
0
 62
7
100
AcDbLine
 10
0.307313
 20
15.386403
 30
0.0
 11
0.368987
 21
15.589515
 31
0.0
  0
LINE
  5
365
100
AcDbEntity
  8
0
 62
7
100
AcDbLine
 10
0.368987
 20
15.589515
 30
0.0
 11
0.430661
 21
15.792626
 31
0.0
  0
LINE
  5
366
100
AcDbEntity
  8
0
 62
7
100
AcDbLine
 10
0.430661
 20
15.792626
 30
0.0
 11
0.492336
 21
15.995738
 31
0.0
  0
LINE
  5
367
100
AcDbEntity
  8
0
 62
7
100
AcDbLine
 10
0.492336
 20
15.995738
 30
0.0
 11
0.554010
 21
16.198850
 31
0.0
  0
LINE
  5
368
100
AcDbEntity
  8
0
 62
7
100
AcDbLine
 10
0.554010
 20
16.198850
 30
0.0
 11
0.615685
 21
16.401962
 31
0.0
  0
LINE
  5
369
100
AcDbEntity
  8
0
 62
7
100
AcDbLine
 10
0.615685
 20
16.401962
 30
0.0
 11
0.677359
 21
16.605074
 31
0.0
  0
LINE
  5
36a
100
AcDbEntity
  8
0
 62
7
100
AcDbLine
 10
0.677359
 20
16.605074
 30
0.0
 11
0.739033
 21
16.808186
 31
0.0
  0
LINE
  5
36b
100
AcDbEntity
  8
0
 62
7
100
AcDbLine
 10
0.739033
 20
16.808186
 30
0.0
 11
0.800708
 21
17.011297
 31
0.0
  0
LINE
  5
36c
100
AcDbEntity
  8
0
 62
7
100
AcDbLine
 10
0.800708
 20
17.011297
 30
0.0
 11
0.862382
 21
17.214409
 31
0.0
  0
LINE
  5
36d
100
AcDbEntity
  8
0
 62
7
100
AcDbLine
 10
0.862382
 20
17.214409
 30
0.0
 11
0.924056
 21
17.417521
 31
0.0
  0
LINE
  5
36e
100
AcDbEntity
  8
0
 62
7
100
AcDbLine
 10
0.924056
 20
17.417521
 30
0.0
 11
0.985731
 21
17.620633
 31
0.0
  0
LINE
  5
36f
100
AcDbEntity
  8
0
 62
7
100
AcDbLine
 10
0.985731
 20
17.620633
 30
0.0
 11
1.047405
 21
17.823744
 31
0.0
  0
LINE
  5
370
100
AcDbEntity
  8
0
 62
7
100
AcDbLine
 10
1.047405
 20
17.823744
 30
0.0
 11
1.109080
 21
18.026856
 31
0.0
  0
LINE
  5
371
100
AcDbEntity
  8
0
 62
7
100
AcDbLine
 10
1.109080
 20
18.026856
 30
0.0
 11
1.170754
 21
18.229968
 31
0.0
  0
LINE
  5
372
100
AcDbEntity
  8
0
 62
7
100
AcDbLine
 10
1.170754
 20
18.229968
 30
0.0
 11
1.232428
 21
18.433080
 31
0.0
  0
LINE
  5
373
100
AcDbEntity
  8
0
 62
7
100
AcDbLine
 10
1.232428
 20
18.433080
 30
0.0
 11
1.294103
 21
18.636192
 31
0.0
  0
LINE
  5
374
100
AcDbEntity
  8
0
 62
7
100
AcDbLine
 10
1.294103
 20
18.636192
 30
0.0
 11
1.355777
 21
18.839304
 31
0.0
  0
LINE
  5
375
100
AcDbEntity
  8
0
 62
7
100
AcDbLine
 10
1.355777
 20
18.839304
 30
0.0
 11
1.417451
 21
19.042415
 31
0.0
  0
LINE
  5
376
100
AcDbEntity
  8
0
 62
7
100
AcDbLine
 10
1.417451
 20
19.042415
 30
0.0
 11
1.479126
 21
19.245527
 31
0.0
  0
LINE
  5
377
100
AcDbEntity
  8
0
 62
7
100
AcDbLine
 10
1.479126
 20
19.245527
 30
0.0
 11
1.540800
 21
19.448639
 31
0.0
  0
LINE
  5
378
100
AcDbEntity
  8
0
 62
7
100
AcDbLine
 10
1.540800
 20
19.448639
 30
0.0
 11
1.602475
 21
19.651751
 31
0.0
  0
LINE
  5
379
100
AcDbEntity
  8
0
 62
7
100
AcDbLine
 10
1.602475
 20
19.651751
 30
0.0
 11
1.664149
 21
19.854862
 31
0.0
  0
LINE
  5
37a
100
AcDbEntity
  8
0
 62
7
100
AcDbLine
 10
1.664149
 20
19.854862
 30
0.0
 11
1.725823
 21
20.057974
 31
0.0
  0
LINE
  5
37b
100
AcDbEntity
  8
0
 62
7
100
AcDbLine
 10
1.725823
 20
20.057974
 30
0.0
 11
1.787498
 21
20.261086
 31
0.0
  0
LINE
  5
37c
100
AcDbEntity
  8
0
 62
7
100
AcDbLine
 10
1.787498
 20
20.261086
 30
0.0
 11
1.849172
 21
20.464198
 31
0.0
  0
LINE
  5
37d
100
AcDbEntity
  8
0
 62
7
100
AcDbLine
 10
1.849172
 20
20.464198
 30
0.0
 11
1.910846
 21
20.667310
 31
0.0
  0
LINE
  5
37e
100
AcDbEntity
  8
0
 62
7
100
AcDbLine
 10
1.910846
 20
20.667310
 30
0.0
 11
1.972521
 21
20.870422
 31
0.0
  0
LINE
  5
37f
100
AcDbEntity
  8
0
 62
7
100
AcDbLine
 10
1.972521
 20
20.870422
 30
0.0
 11
2.034195
 21
21.073533
 31
0.0
  0
LINE
  5
380
100
AcDbEntity
  8
0
 62
7
100
AcDbLine
 10
2.034195
 20
21.073533
 30
0.0
 11
2.055308
 21
21.144610
 31
0.0
  0
LINE
  5
381
100
AcDbEntity
  8
0
 62
7
100
AcDbLine
 10
2.055308
 20
21.144610
 30
0.0
 11
2.079078
 21
21.218702
 31
0.0
  0
LINE
  5
382
100
AcDbEntity
  8
0
 62
7
100
AcDbLine
 10
2.079078
 20
21.218702
 30
0.0
 11
2.105603
 21
21.295465
 31
0.0
  0
LINE
  5
383
100
AcDbEntity
  8
0
 62
7
100
AcDbLine
 10
2.105603
 20
21.295465
 30
0.0
 11
2.134981
 21
21.374553
 31
0.0
  0
LINE
  5
384
100
AcDbEntity
  8
0
 62
7
100
AcDbLine
 10
2.134981
 20
21.374553
 30
0.0
 11
2.167312
 21
21.455619
 31
0.0
  0
LINE
  5
385
100
AcDbEntity
  8
0
 62
7
100
AcDbLine
 10
2.167312
 20
21.455619
 30
0.0
 11
2.202694
 21
21.538318
 31
0.0
  0
LINE
  5
386
100
AcDbEntity
  8
0
 62
7
100
AcDbLine
 10
2.202694
 20
21.538318
 30
0.0
 11
2.241226
 21
21.622305
 31
0.0
  0
LINE
  5
387
100
AcDbEntity
  8
0
 62
7
100
AcDbLine
 10
2.241226
 20
21.622305
 30
0.0
 11
2.283005
 21
21.707233
 31
0.0
  0
LINE
  5
388
100
AcDbEntity
  8
0
 62
7
100
AcDbLine
 10
2.283005
 20
21.707233
 30
0.0
 11
2.328131
 21
21.792756
 31
0.0
  0
LINE
  5
389
100
AcDbEntity
  8
0
 62
7
100
AcDbLine
 10
2.328131
 20
21.792756
 30
0.0
 11
2.376702
 21
21.878530
 31
0.0
  0
LINE
  5
38a
100
AcDbEntity
  8
0
 62
7
100
AcDbLine
 10
2.376702
 20
21.878530
 30
0.0
 11
2.428817
 21
21.964208
 31
0.0
  0
LINE
  5
38b
100
AcDbEntity
  8
0
 62
7
100
AcDbLine
 10
2.428817
 20
21.964208
 30
0.0
 11
2.484574
 21
22.049444
 31
0.0
  0
LINE
  5
38c
100
AcDbEntity
  8
0
 62
7
100
AcDbLine
 10
2.484574
 20
22.049444
 30
0.0
 11
2.544072
 21
22.133893
 31
0.0
  0
LINE
  5
38d
100
AcDbEntity
  8
0
 62
7
100
AcDbLine
 10
2.544072
 20
22.133893
 30
0.0
 11
2.607409
 21
22.217209
 31
0.0
  0
LINE
  5
38e
100
AcDbEntity
  8
0
 62
7
100
AcDbLine
 10
2.607409
 20
22.217209
 30
0.0
 11
2.674684
 21
22.299046
 31
0.0
  0
LINE
  5
38f
100
AcDbEntity
  8
0
 62
7
100
AcDbLine
 10
2.674684
 20
22.299046
 30
0.0
 11
2.745995
 21
22.379058
 31
0.0
  0
LINE
  5
390
100
AcDbEntity
  8
0
 62
7
100
AcDbLine
 10
2.745995
 20
22.379058
 30
0.0
 11
2.821441
 21
22.456900
 31
0.0
  0
LINE
  5
391
100
AcDbEntity
  8
0
 62
7
100
AcDbLine
 10
2.821441
 20
22.456900
 30
0.0
 11
2.901121
 21
22.532226
 31
0.0
  0
LINE
  5
392
100
AcDbEntity
  8
0
 62
7
100
AcDbLine
 10
2.901121
 20
22.532226
 30
0.0
 11
2.985133
 21
22.604689
 31
0.0
  0
LINE
  5
393
100
AcDbEntity
  8
0
 62
7
100
AcDbLine
 10
2.985133
 20
22.604689
 30
0.0
 11
3.073575
 21
22.673946
 31
0.0
  0
LINE
  5
394
100
AcDbEntity
  8
0
 62
7
100
AcDbLine
 10
3.073575
 20
22.673946
 30
0.0
 11
3.166547
 21
22.739648
 31
0.0
  0
LINE
  5
395
100
AcDbEntity
  8
0
 62
7
100
AcDbLine
 10
3.166547
 20
22.739648
 30
0.0
 11
3.264146
 21
22.801452
 31
0.0
  0
LINE
  5
396
100
AcDbEntity
  8
0
 62
7
100
AcDbLine
 10
3.264146
 20
22.801452
 30
0.0
 11
3.366471
 21
22.859010
 31
0.0
  0
LINE
  5
397
100
AcDbEntity
  8
0
 62
7
100
AcDbLine
 10
3.366471
 20
22.859010
 30
0.0
 11
3.473621
 21
22.911977
 31
0.0
  0
LINE
  5
398
100
AcDbEntity
  8
0
 62
7
100
AcDbLine
 10
3.473621
 20
22.911977
 30
0.0
 11
3.585695
 21
22.960009
 31
0.0
  0
LINE
  5
399
100
AcDbEntity
  8
0
 62
7
100
AcDbLine
 10
3.585695
 20
22.960009
 30
0.0
 11
3.702790
 21
23.002757
 31
0.0
  0
LINE
  5
39a
100
AcDbEntity
  8
0
 62
7
100
AcDbLine
 10
3.702790
 20
23.002757
 30
0.0
 11
3.825006
 21
23.039878
 31
0.0
  0
LINE
  5
39b
100
AcDbEntity
  8
0
 62
7
100
AcDbLine
 10
3.825006
 20
23.039878
 30
0.0
 11
3.952441
 21
23.071025
 31
0.0
  0
LINE
  5
39c
100
AcDbEntity
  8
0
 62
7
100
AcDbLine
 10
3.952441
 20
23.071025
 30
0.0
 11
4.085193
 21
23.095852
 31
0.0
  0
LINE
  5
39d
100
AcDbEntity
  8
0
 62
7
100
AcDbLine
 10
4.085193
 20
23.095852
 30
0.0
 11
4.223361
 21
23.114013
 31
0.0
  0
LINE
  5
39e
100
AcDbEntity
  8
0
 62
7
100
AcDbLine
 10
4.223361
 20
23.114013
 30
0.0
 11
4.367044
 21
23.125163
 31
0.0
  0
LINE
  5
39f
100
AcDbEntity
  8
0
 62
7
100
AcDbLine
 10
4.367044
 20
23.125163
 30
0.0
 11
4.516340
 21
23.128956
 31
0.0
  0
LINE
  5
3a0
100
AcDbEntity
  8
0
 62
7
100
AcDbLine
 10
4.516340
 20
23.128956
 30
0.0
 11
4.637872
 21
23.128956
 31
0.0
  0
LINE
  5
3a1
100
AcDbEntity
  8
0
 62
7
100
AcDbLine
 10
4.637872
 20
23.128956
 30
0.0
 11
4.759404
 21
23.128956
 31
0.0
  0
LINE
  5
3a2
100
AcDbEntity
  8
0
 62
7
100
AcDbLine
 10
4.759404
 20
23.128956
 30
0.0
 11
4.880936
 21
23.128956
 31
0.0
  0
LINE
  5
3a3
100
AcDbEntity
  8
0
 62
7
100
AcDbLine
 10
4.880936
 20
23.128956
 30
0.0
 11
5.002468
 21
23.128956
 31
0.0
  0
LINE
  5
3a4
100
AcDbEntity
  8
0
 62
7
100
AcDbLine
 10
5.002468
 20
23.128956
 30
0.0
 11
5.124000
 21
23.128956
 31
0.0
  0
LINE
  5
3a5
100
AcDbEntity
  8
0
 62
7
100
AcDbLine
 10
5.124000
 20
23.128956
 30
0.0
 11
5.245532
 21
23.128956
 31
0.0
  0
LINE
  5
3a6
100
AcDbEntity
  8
0
 62
7
100
AcDbLine
 10
5.245532
 20
23.128956
 30
0.0
 11
5.367064
 21
23.128956
 31
0.0
  0
LINE
  5
3a7
100
AcDbEntity
  8
0
 62
7
100
AcDbLine
 10
5.367064
 20
23.128956
 30
0.0
 11
5.488596
 21
23.128956
 31
0.0
  0
LINE
  5
3a8
100
AcDbEntity
  8
0
 62
7
100
AcDbLine
 10
5.488596
 20
23.128956
 30
0.0
 11
5.610127
 21
23.128956
 31
0.0
  0
LINE
  5
3a9
100
AcDbEntity
  8
0
 62
7
100
AcDbLine
 10
5.610127
 20
23.128956
 30
0.0
 11
5.731659
 21
23.128956
 31
0.0
  0
LINE
  5
3aa
100
AcDbEntity
  8
0
 62
7
100
AcDbLine
 10
5.731659
 20
23.128956
 30
0.0
 11
5.853191
 21
23.128956
 31
0.0
  0
LINE
  5
3ab
100
AcDbEntity
  8
0
 62
7
100
AcDbLine
 10
5.853191
 20
23.128956
 30
0.0
 11
5.974723
 21
23.128956
 31
0.0
  0
LINE
  5
3ac
100
AcDbEntity
  8
0
 62
7
100
AcDbLine
 10
5.974723
 20
23.128956
 30
0.0
 11
6.096255
 21
23.128956
 31
0.0
  0
LINE
  5
3ad
100
AcDbEntity
  8
0
 62
7
100
AcDbLine
 10
6.096255
 20
23.128956
 30
0.0
 11
6.217787
 21
23.128956
 31
0.0
  0
LINE
  5
3ae
100
AcDbEntity
  8
0
 62
7
100
AcDbLine
 10
6.217787
 20
23.128956
 30
0.0
 11
6.339319
 21
23.128956
 31
0.0
  0
LINE
  5
3af
100
AcDbEntity
  8
0
 62
7
100
AcDbLine
 10
6.339319
 20
23.128956
 30
0.0
 11
6.460851
 21
23.128956
 31
0.0
  0
LINE
  5
3b0
100
AcDbEntity
  8
0
 62
7
100
AcDbLine
 10
6.460851
 20
23.128956
 30
0.0
 11
6.582383
 21
23.128956
 31
0.0
  0
LINE
  5
3b1
100
AcDbEntity
  8
0
 62
7
100
AcDbLine
 10
6.582383
 20
23.128956
 30
0.0
 11
6.703915
 21
23.128956
 31
0.0
  0
LINE
  5
3b2
100
AcDbEntity
  8
0
 62
7
100
AcDbLine
 10
6.703915
 20
23.128956
 30
0.0
 11
6.825447
 21
23.128956
 31
0.0
  0
LINE
  5
3b3
100
AcDbEntity
  8
0
 62
7
100
AcDbLine
 10
6.825447
 20
23.128956
 30
0.0
 11
6.946979
 21
23.128956
 31
0.0
  0
LINE
  5
3b4
100
AcDbEntity
  8
0
 62
7
100
AcDbLine
 10
6.946979
 20
23.128956
 30
0.0
 11
7.068511
 21
23.128956
 31
0.0
  0
LINE
  5
3b5
100
AcDbEntity
  8
0
 62
7
100
AcDbLine
 10
7.068511
 20
23.128956
 30
0.0
 11
7.190043
 21
23.128956
 31
0.0
  0
LINE
  5
3b6
100
AcDbEntity
  8
0
 62
7
100
AcDbLine
 10
7.190043
 20
23.128956
 30
0.0
 11
7.311575
 21
23.128956
 31
0.0
  0
LINE
  5
3b7
100
AcDbEntity
  8
0
 62
7
100
AcDbLine
 10
7.311575
 20
23.128956
 30
0.0
 11
7.433107
 21
23.128956
 31
0.0
  0
LINE
  5
3b8
100
AcDbEntity
  8
0
 62
7
100
AcDbLine
 10
7.433107
 20
23.128956
 30
0.0
 11
7.554639
 21
23.128956
 31
0.0
  0
LINE
  5
3b9
100
AcDbEntity
  8
0
 62
7
100
AcDbLine
 10
7.554639
 20
23.128956
 30
0.0
 11
7.676171
 21
23.128956
 31
0.0
  0
LINE
  5
3ba
100
AcDbEntity
  8
0
 62
7
100
AcDbLine
 10
7.676171
 20
23.128956
 30
0.0
 11
7.797702
 21
23.128956
 31
0.0
  0
LINE
  5
3bb
100
AcDbEntity
  8
0
 62
7
100
AcDbLine
 10
7.797702
 20
23.128956
 30
0.0
 11
7.919234
 21
23.128956
 31
0.0
  0
LINE
  5
3bc
100
AcDbEntity
  8
0
 62
7
100
AcDbLine
 10
7.919234
 20
23.128956
 30
0.0
 11
8.040766
 21
23.128956
 31
0.0
  0
LINE
  5
3bd
100
AcDbEntity
  8
0
 62
7
100
AcDbLine
 10
8.040766
 20
23.128956
 30
0.0
 11
8.162298
 21
23.128956
 31
0.0
  0
LINE
  5
3be
100
AcDbEntity
  8
0
 62
7
100
AcDbLine
 10
8.162298
 20
23.128956
 30
0.0
 11
8.283830
 21
23.128956
 31
0.0
  0
LINE
  5
3bf
100
AcDbEntity
  8
0
 62
7
100
AcDbLine
 10
8.283830
 20
23.128956
 30
0.0
 11
8.405362
 21
23.128958
 31
0.0
  0
LINE
  5
3c0
100
AcDbEntity
  8
0
 62
7
100
AcDbLine
 10
8.776202
 20
25.918160
 30
0.0
 11
8.752797
 21
25.685986
 31
0.0
  0
LINE
  5
3c1
100
AcDbEntity
  8
0
 62
7
100
AcDbLine
 10
8.752797
 20
25.685986
 30
0.0
 11
8.729392
 21
25.453811
 31
0.0
  0
LINE
  5
3c2
100
AcDbEntity
  8
0
 62
7
100
AcDbLine
 10
8.729392
 20
25.453811
 30
0.0
 11
8.662265
 21
25.237563
 31
0.0
  0
LINE
  5
3c3
100
AcDbEntity
  8
0
 62
7
100
AcDbLine
 10
8.662265
 20
25.237563
 30
0.0
 11
8.595138
 21
25.021315
 31
0.0
  0
LINE
  5
3c4
100
AcDbEntity
  8
0
 62
7
100
AcDbLine
 10
8.595138
 20
25.021315
 30
0.0
 11
8.488921
 21
24.825626
 31
0.0
  0
LINE
  5
3c5
100
AcDbEntity
  8
0
 62
7
100
AcDbLine
 10
8.488921
 20
24.825626
 30
0.0
 11
8.382705
 21
24.629937
 31
0.0
  0
LINE
  5
3c6
100
AcDbEntity
  8
0
 62
7
100
AcDbLine
 10
8.382705
 20
24.629937
 30
0.0
 11
8.242031
 21
24.459440
 31
0.0
  0
LINE
  5
3c7
100
AcDbEntity
  8
0
 62
7
100
AcDbLine
 10
8.242031
 20
24.459440
 30
0.0
 11
8.101358
 21
24.288942
 31
0.0
  0
LINE
  5
3c8
100
AcDbEntity
  8
0
 62
7
100
AcDbLine
 10
8.101358
 20
24.288942
 30
0.0
 11
7.930861
 21
24.148269
 31
0.0
  0
LINE
  5
3c9
100
AcDbEntity
  8
0
 62
7
100
AcDbLine
 10
7.930861
 20
24.148269
 30
0.0
 11
7.760363
 21
24.007596
 31
0.0
  0
LINE
  5
3ca
100
AcDbEntity
  8
0
 62
7
100
AcDbLine
 10
7.760363
 20
24.007596
 30
0.0
 11
7.564674
 21
23.901379
 31
0.0
  0
LINE
  5
3cb
100
AcDbEntity
  8
0
 62
7
100
AcDbLine
 10
7.564674
 20
23.901379
 30
0.0
 11
7.368985
 21
23.795163
 31
0.0
  0
LINE
  5
3cc
100
AcDbEntity
  8
0
 62
7
100
AcDbLine
 10
7.368985
 20
23.795163
 30
0.0
 11
7.152737
 21
23.728035
 31
0.0
  0
LINE
  5
3cd
100
AcDbEntity
  8
0
 62
7
100
AcDbLine
 10
7.152737
 20
23.728035
 30
0.0
 11
6.936489
 21
23.660908
 31
0.0
  0
LINE
  5
3ce
100
AcDbEntity
  8
0
 62
7
100
AcDbLine
 10
6.936489
 20
23.660908
 30
0.0
 11
6.704315
 21
23.637504
 31
0.0
  0
LINE
  5
3cf
100
AcDbEntity
  8
0
 62
7
100
AcDbLine
 10
6.704315
 20
23.637504
 30
0.0
 11
6.472140
 21
23.614099
 31
0.0
  0
LINE
  5
3d0
100
AcDbEntity
  8
0
 62
7
100
AcDbLine
 10
6.472140
 20
23.614099
 30
0.0
 11
6.239966
 21
23.637504
 31
0.0
  0
LINE
  5
3d1
100
AcDbEntity
  8
0
 62
7
100
AcDbLine
 10
6.239966
 20
23.637504
 30
0.0
 11
6.007791
 21
23.660908
 31
0.0
  0
LINE
  5
3d2
100
AcDbEntity
  8
0
 62
7
100
AcDbLine
 10
6.007791
 20
23.660908
 30
0.0
 11
5.791542
 21
23.728035
 31
0.0
  0
LINE
  5
3d3
100
AcDbEntity
  8
0
 62
7
100
AcDbLine
 10
5.791542
 20
23.728035
 30
0.0
 11
5.575294
 21
23.795163
 31
0.0
  0
LINE
  5
3d4
100
AcDbEntity
  8
0
 62
7
100
AcDbLine
 10
5.575294
 20
23.795163
 30
0.0
 11
5.379606
 21
23.901379
 31
0.0
  0
LINE
  5
3d5
100
AcDbEntity
  8
0
 62
7
100
AcDbLine
 10
5.379606
 20
23.901379
 30
0.0
 11
5.183917
 21
24.007596
 31
0.0
  0
LINE
  5
3d6
100
AcDbEntity
  8
0
 62
7
100
AcDbLine
 10
5.183917
 20
24.007596
 30
0.0
 11
5.013419
 21
24.148269
 31
0.0
  0
LINE
  5
3d7
100
AcDbEntity
  8
0
 62
7
100
AcDbLine
 10
5.013419
 20
24.148269
 30
0.0
 11
4.842922
 21
24.288942
 31
0.0
  0
LINE
  5
3d8
100
AcDbEntity
  8
0
 62
7
100
AcDbLine
 10
4.842922
 20
24.288942
 30
0.0
 11
4.702248
 21
24.459440
 31
0.0
  0
LINE
  5
3d9
100
AcDbEntity
  8
0
 62
7
100
AcDbLine
 10
4.702248
 20
24.459440
 30
0.0
 11
4.561575
 21
24.629937
 31
0.0
  0
LINE
  5
3da
100
AcDbEntity
  8
0
 62
7
100
AcDbLine
 10
4.561575
 20
24.629937
 30
0.0
 11
4.455359
 21
24.825626
 31
0.0
  0
LINE
  5
3db
100
AcDbEntity
  8
0
 62
7
100
AcDbLine
 10
4.455359
 20
24.825626
 30
0.0
 11
4.349142
 21
25.021315
 31
0.0
  0
LINE
  5
3dc
100
AcDbEntity
  8
0
 62
7
100
AcDbLine
 10
4.349142
 20
25.021315
 30
0.0
 11
4.282015
 21
25.237563
 31
0.0
  0
LINE
  5
3dd
100
AcDbEntity
  8
0
 62
7
100
AcDbLine
 10
4.282015
 20
25.237563
 30
0.0
 11
4.214888
 21
25.453811
 31
0.0
  0
LINE
  5
3de
100
AcDbEntity
  8
0
 62
7
100
AcDbLine
 10
4.214888
 20
25.453811
 30
0.0
 11
4.191483
 21
25.685986
 31
0.0
  0
LINE
  5
3df
100
AcDbEntity
  8
0
 62
7
100
AcDbLine
 10
4.191483
 20
25.685986
 30
0.0
 11
4.168077
 21
25.918160
 31
0.0
  0
LINE
  5
3e0
100
AcDbEntity
  8
0
 62
7
100
AcDbLine
 10
4.168077
 20
25.918160
 30
0.0
 11
4.191483
 21
26.150335
 31
0.0
  0
LINE
  5
3e1
100
AcDbEntity
  8
0
 62
7
100
AcDbLine
 10
4.191483
 20
26.150335
 30
0.0
 11
4.214888
 21
26.382509
 31
0.0
  0
LINE
  5
3e2
100
AcDbEntity
  8
0
 62
7
100
AcDbLine
 10
4.214888
 20
26.382509
 30
0.0
 11
4.282015
 21
26.598757
 31
0.0
  0
LINE
  5
3e3
100
AcDbEntity
  8
0
 62
7
100
AcDbLine
 10
4.282015
 20
26.598757
 30
0.0
 11
4.349142
 21
26.815005
 31
0.0
  0
LINE
  5
3e4
100
AcDbEntity
  8
0
 62
7
100
AcDbLine
 10
4.349142
 20
26.815005
 30
0.0
 11
4.455359
 21
27.010694
 31
0.0
  0
LINE
  5
3e5
100
AcDbEntity
  8
0
 62
7
100
AcDbLine
 10
4.455359
 20
27.010694
 30
0.0
 11
4.561575
 21
27.206383
 31
0.0
  0
LINE
  5
3e6
100
AcDbEntity
  8
0
 62
7
100
AcDbLine
 10
4.561575
 20
27.206383
 30
0.0
 11
4.702248
 21
27.376881
 31
0.0
  0
LINE
  5
3e7
100
AcDbEntity
  8
0
 62
7
100
AcDbLine
 10
4.702248
 20
27.376881
 30
0.0
 11
4.842922
 21
27.547378
 31
0.0
  0
LINE
  5
3e8
100
AcDbEntity
  8
0
 62
7
100
AcDbLine
 10
4.842922
 20
27.547378
 30
0.0
 11
5.013419
 21
27.688051
 31
0.0
  0
LINE
  5
3e9
100
AcDbEntity
  8
0
 62
7
100
AcDbLine
 10
5.013419
 20
27.688051
 30
0.0
 11
5.183917
 21
27.828725
 31
0.0
  0
LINE
  5
3ea
100
AcDbEntity
  8
0
 62
7
100
AcDbLine
 10
5.183917
 20
27.828725
 30
0.0
 11
5.379606
 21
27.934941
 31
0.0
  0
LINE
  5
3eb
100
AcDbEntity
  8
0
 62
7
100
AcDbLine
 10
5.379606
 20
27.934941
 30
0.0
 11
5.575294
 21
28.041158
 31
0.0
  0
LINE
  5
3ec
100
AcDbEntity
  8
0
 62
7
100
AcDbLine
 10
5.575294
 20
28.041158
 30
0.0
 11
5.791542
 21
28.108285
 31
0.0
  0
LINE
  5
3ed
100
AcDbEntity
  8
0
 62
7
100
AcDbLine
 10
5.791542
 20
28.108285
 30
0.0
 11
6.007790
 21
28.175412
 31
0.0
  0
LINE
  5
3ee
100
AcDbEntity
  8
0
 62
7
100
AcDbLine
 10
6.007790
 20
28.175412
 30
0.0
 11
6.239965
 21
28.198817
 31
0.0
  0
LINE
  5
3ef
100
AcDbEntity
  8
0
 62
7
100
AcDbLine
 10
6.239965
 20
28.198817
 30
0.0
 11
6.472139
 21
28.222222
 31
0.0
  0
LINE
  5
3f0
100
AcDbEntity
  8
0
 62
7
100
AcDbLine
 10
6.472139
 20
28.222222
 30
0.0
 11
6.704314
 21
28.198817
 31
0.0
  0
LINE
  5
3f1
100
AcDbEntity
  8
0
 62
7
100
AcDbLine
 10
6.704314
 20
28.198817
 30
0.0
 11
6.936488
 21
28.175412
 31
0.0
  0
LINE
  5
3f2
100
AcDbEntity
  8
0
 62
7
100
AcDbLine
 10
6.936488
 20
28.175412
 30
0.0
 11
7.152736
 21
28.108285
 31
0.0
  0
LINE
  5
3f3
100
AcDbEntity
  8
0
 62
7
100
AcDbLine
 10
7.152736
 20
28.108285
 30
0.0
 11
7.368984
 21
28.041158
 31
0.0
  0
LINE
  5
3f4
100
AcDbEntity
  8
0
 62
7
100
AcDbLine
 10
7.368984
 20
28.041158
 30
0.0
 11
7.564674
 21
27.934941
 31
0.0
  0
LINE
  5
3f5
100
AcDbEntity
  8
0
 62
7
100
AcDbLine
 10
7.564674
 20
27.934941
 30
0.0
 11
7.760362
 21
27.828725
 31
0.0
  0
LINE
  5
3f6
100
AcDbEntity
  8
0
 62
7
100
AcDbLine
 10
7.760362
 20
27.828725
 30
0.0
 11
7.930860
 21
27.688051
 31
0.0
  0
LINE
  5
3f7
100
AcDbEntity
  8
0
 62
7
100
AcDbLine
 10
7.930860
 20
27.688051
 30
0.0
 11
8.101357
 21
27.547378
 31
0.0
  0
LINE
  5
3f8
100
AcDbEntity
  8
0
 62
7
100
AcDbLine
 10
8.101357
 20
27.547378
 30
0.0
 11
8.242031
 21
27.376881
 31
0.0
  0
LINE
  5
3f9
100
AcDbEntity
  8
0
 62
7
100
AcDbLine
 10
8.242031
 20
27.376881
 30
0.0
 11
8.382704
 21
27.206383
 31
0.0
  0
LINE
  5
3fa
100
AcDbEntity
  8
0
 62
7
100
AcDbLine
 10
8.382704
 20
27.206383
 30
0.0
 11
8.488921
 21
27.010694
 31
0.0
  0
LINE
  5
3fb
100
AcDbEntity
  8
0
 62
7
100
AcDbLine
 10
8.488921
 20
27.010694
 30
0.0
 11
8.595137
 21
26.815005
 31
0.0
  0
LINE
  5
3fc
100
AcDbEntity
  8
0
 62
7
100
AcDbLine
 10
8.595137
 20
26.815005
 30
0.0
 11
8.662264
 21
26.598757
 31
0.0
  0
LINE
  5
3fd
100
AcDbEntity
  8
0
 62
7
100
AcDbLine
 10
8.662264
 20
26.598757
 30
0.0
 11
8.729391
 21
26.382509
 31
0.0
  0
LINE
  5
3fe
100
AcDbEntity
  8
0
 62
7
100
AcDbLine
 10
8.729391
 20
26.382509
 30
0.0
 11
8.752796
 21
26.150335
 31
0.0
  0
LINE
  5
3ff
100
AcDbEntity
  8
0
 62
7
100
AcDbLine
 10
8.752796
 20
26.150335
 30
0.0
 11
8.776202
 21
25.918160
 31
0.0
  0
ENDSEC
  0
SECTION
  2
OBJECTS
  0
DICTIONARY
  5
C
330
0
100
AcDbDictionary
  3
ACAD_GROUP
350
D
  3
ACAD_MLINESTYLE
350
17
  0
DICTIONARY
  5
D
330
C
100
AcDbDictionary
  0
DICTIONARY
  5
1A
330
C
100
AcDbDictionary
  0
DICTIONARY
  5
17
330
C
100
AcDbDictionary
  3
STANDARD
350
18
  0
DICTIONARY
  5
19
330
C
100
AcDbDictionary
  0
ENDSEC
  0
EOF
