<?xml version="1.0" encoding="UTF-8" standalone="no"?>
<!-- Created with Inkscape (http://www.inkscape.org/) -->

<svg
   xmlns:dc="http://purl.org/dc/elements/1.1/"
   xmlns:cc="http://creativecommons.org/ns#"
   xmlns:rdf="http://www.w3.org/1999/02/22-rdf-syntax-ns#"
   xmlns:svg="http://www.w3.org/2000/svg"
   xmlns="http://www.w3.org/2000/svg"
   xmlns:sodipodi="http://sodipodi.sourceforge.net/DTD/sodipodi-0.dtd"
   xmlns:inkscape="http://www.inkscape.org/namespaces/inkscape"
   version="1.0"
   width="100%"
   height="100%"
   viewBox="0 0 45.853369 99.999631"
   id="svg4753"
   xml:space="preserve"
   inkscape:version="0.48.4 r9939"
   sodipodi:docname="noun_woman-clean2.dxf"><sodipodi:namedview
     pagecolor="#ffffff"
     bordercolor="#666666"
     borderopacity="1"
     objecttolerance="10"
     gridtolerance="10"
     guidetolerance="10"
     inkscape:pageopacity="0"
     inkscape:pageshadow="2"
     inkscape:window-width="921"
     inkscape:window-height="862"
     id="namedview6605"
     showgrid="false"
     inkscape:zoom="6.21"
     inkscape:cx="22.926685"
     inkscape:cy="49.999815"
     inkscape:window-x="1395"
     inkscape:window-y="326"
     inkscape:window-maximized="0"
     inkscape:current-layer="svg4753" /><metadata
     id="metadata4763"><rdf:RDF><cc:Work
         rdf:about=""><dc:format>image/svg+xml</dc:format><dc:type
           rdf:resource="http://purl.org/dc/dcmitype/StillImage" /><dc:title></dc:title></cc:Work></rdf:RDF></metadata><defs
     id="defs4761" /><path
     d="m 29.782779,18.047 0.524233,0.01355 0.504748,0.03981 0.485618,0.06483 0.466842,0.0886 0.448423,0.111131 0.430356,0.132414 0.412646,0.152451 0.39529,0.171242 0.378289,0.188788 0.361643,0.205089 0.345352,0.220143 0.329415,0.233953 0.313834,0.246517 0.298607,0.257835 0.283736,0.267908 0.269218,0.276736 0.255056,0.284318 0.241249,0.290654 0.227797,0.295746 0.214699,0.299591 0.201956,0.302191 0.189569,0.303545 0.177535,0.303655 0.165858,0.302519 0.154534,0.300136 0.143566,0.29651 0.132952,0.291636 0.122694,0.285519 0.11279,0.278154 0.103241,0.269545 0.09405,0.259691 0.08521,0.24859 0.218719,0.719 0.218719,0.719 0.218718,0.719 0.218719,0.719 0.218719,0.719 0.218718,0.719 0.218719,0.719 0.218719,0.719 0.218719,0.719 0.218718,0.719 0.218719,0.719 0.218719,0.719 0.218719,0.719 0.218718,0.719 0.218719,0.719 0.218719,0.719 0.218719,0.719 0.218718,0.719 0.218719,0.719 0.218719,0.719 0.218719,0.719 0.218718,0.719 0.218719,0.719 0.218719,0.719 0.218719,0.719 0.218718,0.719 0.218719,0.719 0.218719,0.719 0.218719,0.719 0.218718,0.719 0.218719,0.719 0.218719,0.719 0.108724,0.455351 0.06594,0.437632 0.02545,0.419186 -0.01275,0.400011 -0.04867,0.380109 -0.08231,0.359482 -0.113655,0.338125 -0.142717,0.316041 -0.169494,0.293232 -0.193983,0.269693 -0.216186,0.245429 -0.236105,0.220436 -0.253736,0.194716 -0.269082,0.168269 -0.282141,0.141095 -0.292914,0.113193 -0.301402,0.08456 -0.307603,0.05521 -0.311518,0.02513 -0.313147,-0.0057 -0.31249,-0.03722 -0.309547,-0.06949 L 41.379129,53.040015 41.082326,52.903812 40.795324,52.733163 40.52041,52.527339 40.259869,52.285613 40.015988,52.007258 39.791052,51.691546 39.587348,51.337751 39.407162,50.945145 39.252779,50.513 39.055966,49.852844 38.859154,49.192687 38.662342,48.532531 38.465529,47.872375 38.268717,47.212219 38.071904,46.552062 37.875091,45.891906 37.678279,45.23175 37.481467,44.571594 37.284654,43.911437 37.087842,43.251281 36.891029,42.591125 36.694217,41.930969 36.497404,41.270812 36.300592,40.610656 36.103779,39.9505 35.906966,39.290344 35.710154,38.630187 35.513342,37.970031 35.316529,37.309875 35.119716,36.649719 34.922904,35.989562 34.726092,35.329406 34.529279,34.66925 34.332466,34.009094 34.135654,33.348937 33.938841,32.688781 33.742029,32.028625 33.545216,31.368469 33.348404,30.708313 33.151591,30.048156 32.954779,29.388 l -0.05728,0 -0.05728,0 -0.05728,0 -0.05728,0 -0.05728,0 -0.05728,0 -0.05728,0 -0.05728,0 -0.05728,0 -0.05728,0 -0.05728,0 -0.05728,0 -0.05728,0 -0.05728,0 -0.05728,0 -0.05728,0 -0.05728,0 -0.05728,0 -0.05728,0 -0.05728,0 -0.05728,0 -0.05728,0 -0.05728,0 -0.05728,0 -0.05728,0 -0.05728,0 -0.05728,0 -0.05728,0 -0.05728,0 -0.05728,0 -0.05728,0 -0.05728,0 0.341125,1.174312 0.341125,1.174313 0.341125,1.174313 0.341125,1.174312 0.341125,1.174312 0.341125,1.174313 0.341125,1.174313 0.341125,1.174312 0.341125,1.174313 0.341125,1.174312 0.341125,1.174313 0.341125,1.174312 0.341125,1.174313 0.341125,1.174312 0.341125,1.174312 0.341125,1.174313 0.341125,1.174313 0.341125,1.174312 0.341125,1.174312 0.341125,1.174313 0.341125,1.174312 0.341125,1.174313 0.341125,1.174312 0.341125,1.174313 0.341125,1.174312 0.341125,1.174313 0.341125,1.174312 0.341125,1.174313 0.341125,1.174313 0.341125,1.174312 0.341125,1.174312 0.341125,1.174313 -0.314281,0 -0.314282,0 -0.314281,0 -0.314281,0 -0.314281,0 -0.314282,0 -0.314281,0 -0.314281,0 -0.314281,0 -0.314281,0 -0.314282,0 -0.314281,0 -0.314281,0 -0.314282,0 -0.314281,0 -0.314281,0 -0.314281,0 -0.314282,0 -0.314281,0 -0.314281,0 -0.314281,0 -0.314281,0 -0.314282,0 -0.314281,0 -0.314281,0 -0.314281,0 -0.314282,0 -0.314281,0 -0.314281,0 -0.314282,0 -0.314281,0 -0.314281,0 0,0.9155 0,0.9155 0,0.9155 0,0.9155 0,0.9155 0,0.9155 0,0.9155 0,0.9155 0,0.9155 0,0.9155 0,0.9155 0,0.9155 0,0.9155 0,0.9155 0,0.9155 0,0.9155 0,0.9155 0,0.9155 0,0.9155 0,0.9155 0,0.9155 0,0.9155 0,0.9155 0,0.9155 0,0.9155 0,0.9155 0,0.9155 0,0.9155 0,0.9155 0,0.9155 0,0.9155 0,0.9155 -0.02155,0.453667 -0.06283,0.424261 -0.101354,0.394869 -0.137127,0.36549 -0.170148,0.336125 -0.200416,0.306774 -0.227933,0.277436 -0.252699,0.248112 -0.274712,0.218803 -0.293974,0.189506 -0.310485,0.160223 -0.324243,0.130955 -0.335249,0.101699 -0.343505,0.07246 -0.349009,0.04323 -0.35176,0.01402 -0.35176,-0.01518 -0.349009,-0.04437 -0.343505,-0.07354 L 26.844256,99.763826 26.520013,99.631979 26.209528,99.471 25.915554,99.280904 25.640841,99.061703 25.388143,98.813412 25.16021,98.536045 24.959794,98.229614 24.789646,97.894135 24.652519,97.52962 24.551165,97.136083 24.488334,96.713539 24.466779,96.262 l 0,-0.9215 0,-0.9215 0,-0.9215 0,-0.9215 0,-0.9215 0,-0.9215 0,-0.9215 0,-0.9215 0,-0.9215 0,-0.9215 0,-0.9215 0,-0.9215 0,-0.9215 0,-0.9215 0,-0.9215 0,-0.9215 0,-0.9215 0,-0.9215 0,-0.9215 0,-0.9215 0,-0.9215 0,-0.9215 0,-0.9215 0,-0.9215 0,-0.9215 0,-0.9215 0,-0.9215 0,-0.9215 0,-0.9215 0,-0.9215 0,-0.9215 0,-0.9215 -0.09572,0 -0.09572,0 -0.09572,0 -0.09572,0 -0.09572,0 -0.09572,0 -0.09572,0 -0.09572,0 -0.09572,0 -0.09572,0 -0.09572,0 -0.09572,0 -0.09572,0 -0.09572,0 -0.09572,0 -0.09572,0 -0.09572,0 -0.09572,0 -0.09572,0 -0.09572,0 -0.09572,0 -0.09572,0 -0.09572,0 -0.09572,0 -0.09572,0 -0.09572,0 -0.09572,0 -0.09572,0 -0.09572,0 -0.09572,0 -0.09572,0 -0.09572,0 1.56e-4,0.920219 1.57e-4,0.920218 1.56e-4,0.920219 1.56e-4,0.920219 1.56e-4,0.920219 1.56e-4,0.920218 1.57e-4,0.920219 1.56e-4,0.920219 1.56e-4,0.920219 1.56e-4,0.920218 1.57e-4,0.920219 1.56e-4,0.920219 1.56e-4,0.920219 1.57e-4,0.920218 1.56e-4,0.920219 1.56e-4,0.920219 1.56e-4,0.920219 1.56e-4,0.920218 1.57e-4,0.920219 1.56e-4,0.920219 1.56e-4,0.920219 1.56e-4,0.920218 1.57e-4,0.920219 1.56e-4,0.920219 1.56e-4,0.920219 1.56e-4,0.920218 1.57e-4,0.920219 1.56e-4,0.920219 1.56e-4,0.920219 1.56e-4,0.920218 1.57e-4,0.920219 1.56e-4,0.920219 -0.02164,0.457462 -0.06309,0.427948 -0.101773,0.398435 -0.137692,0.368921 -0.17085,0.339407 -0.201243,0.309893 -0.228873,0.28038 -0.253741,0.250866 -0.275846,0.221353 -0.295187,0.191839 -0.311765,0.162325 -0.325581,0.132812 -0.336633,0.103297 -0.344922,0.07379 -0.350449,0.04427 -0.353211,0.01476 -0.353211,-0.01476 -0.350449,-0.04427 -0.344922,-0.07379 -0.336633,-0.103297 -0.325581,-0.132812 -0.311765,-0.162325 -0.295187,-0.191839 -0.275846,-0.221353 -0.253741,-0.250866 -0.228873,-0.28038 -0.201243,-0.309893 -0.17085,-0.339407 -0.137692,-0.368921 -0.101773,-0.398435 -0.06309,-0.427948 -0.02164,-0.457462 -6.3e-5,-0.914219 -6.2e-5,-0.914219 -6.3e-5,-0.914218 -6.2e-5,-0.914219 -6.3e-5,-0.914219 -6.2e-5,-0.914219 -6.3e-5,-0.914218 -6.2e-5,-0.914219 -6.3e-5,-0.914219 -6.2e-5,-0.914219 -6.3e-5,-0.914218 -6.2e-5,-0.914219 -6.3e-5,-0.914219 -6.2e-5,-0.914219 -6.3e-5,-0.914218 -6.2e-5,-0.914219 -6.3e-5,-0.914219 -6.2e-5,-0.914219 -6.3e-5,-0.914218 -6.2e-5,-0.914219 -6.3e-5,-0.914219 -6.2e-5,-0.914219 -6.3e-5,-0.914218 -6.2e-5,-0.914219 -6.3e-5,-0.914219 -6.2e-5,-0.914219 -6.3e-5,-0.914218 -6.2e-5,-0.914219 -6.3e-5,-0.914219 -6.2e-5,-0.914219 -6.3e-5,-0.914218 -6.2e-5,-0.914219 -0.315281,0 -0.315282,0 -0.315281,0 -0.315281,0 -0.315281,0 -0.315282,0 -0.315281,0 -0.315281,0 -0.315281,0 -0.315282,0 -0.315281,0 -0.315281,0 -0.3152815,0 -0.3152813,0 -0.3152813,0 -0.3152813,0 -0.3152812,0 -0.3152813,0 -0.3152813,0 -0.3152812,0 -0.3152813,0 -0.3152813,0 -0.3152813,0 -0.3152812,0 -0.3152813,0 -0.3152813,0 -0.3152812,0 -0.3152813,0 -0.3152813,0 -0.3152813,0 -0.3152812,0 -0.3152813,0 L 4.1112471,65.791687 4.4497158,64.617375 4.7881846,63.443063 5.1266534,62.26875 5.4651222,61.094437 5.8035909,59.920125 6.1420597,58.745812 6.4805285,57.5715 6.8189972,56.397187 7.157466,55.222875 7.4959348,54.048562 7.8344036,52.87425 8.1728723,51.699937 8.5113411,50.525625 8.8498099,49.351313 9.1882786,48.177 l 0.3384688,-1.174313 0.3384688,-1.174312 0.3384688,-1.174312 0.338469,-1.174313 0.338469,-1.174312 0.338468,-1.174313 0.338469,-1.174312 0.338469,-1.174313 0.338469,-1.174312 0.338468,-1.174313 0.338469,-1.174313 0.338469,-1.174312 0.338469,-1.174312 0.338468,-1.174313 0.338469,-1.174313 0.338469,-1.174312 -0.05294,0 -0.05294,0 -0.05294,0 -0.05294,0 -0.05294,0 -0.05294,0 -0.05294,0 -0.05294,0 -0.05294,0 -0.05294,0 -0.05294,0 -0.05294,0 -0.05294,0 -0.05294,0 -0.05294,0 -0.05294,0 -0.05294,0 -0.05294,0 -0.05294,0 -0.05294,0 -0.05294,0 -0.05294,0 -0.05294,0 -0.05294,0 -0.05294,0 -0.05294,0 -0.05294,0 -0.05294,0 -0.05294,0 -0.05294,0 -0.05294,0 -0.05294,0 -0.196844,0.6625 -0.196844,0.6625 -0.196843,0.6625 -0.196844,0.6625 -0.196844,0.6625 -0.196844,0.6625 -0.196843,0.6625 -0.196844,0.6625 -0.196844,0.6625 -0.196844,0.6625 -0.196843,0.6625 L 10.547654,37.338 10.35081,38.0005 10.153966,38.663 9.9571224,39.3255 9.7602787,39.988 9.5634349,40.6505 9.3665911,41.313 9.1697473,41.9755 8.9729036,42.638 8.7760598,43.3005 8.579216,43.963 8.3823722,44.6255 8.1855285,45.288 7.9886847,45.9505 7.7918409,46.613 7.5949972,47.2755 7.3981534,47.938 7.2013096,48.6005 7.0044658,49.263 6.8076221,49.9255 6.6107783,50.588 6.4563305,51.002229 6.2757817,51.3789 6.071449,51.718648 5.8456494,52.022107 5.6006999,52.289911 5.3389175,52.522695 5.0626192,52.721091 4.7741221,52.885734 4.4757431,53.017259 4.1697993,53.1163 3.8586077,53.183489 3.5444853,53.219463 3.2297492,53.224854 2.9167163,53.200297 2.6077037,53.146426 2.3050283,53.063875 2.0110073,52.953278 1.7279575,52.815269 1.4581961,52.650483 1.20404,52.459553 0.96780633,52.243113 0.75181201,52.001798 0.55837409,51.736242 0.38980958,51.447078 0.2484355,51.134941 0.13656886,50.800466 0.05652669,50.444285 0.010626,50.067033 0.00118381,49.669345 0.03051713,49.251854 0.10094298,48.815194 0.21477837,48.36 0.43330962,47.640312 0.65184087,46.920625 0.87037211,46.200938 1.0889034,45.48125 1.3074346,44.761562 1.5259659,44.041875 1.7444971,43.322187 1.9630284,42.6025 2.1815596,41.882812 2.4000908,41.163125 2.6186221,40.443437 2.8371533,39.72375 3.0556846,39.004062 3.2742158,38.284375 3.4927471,37.564687 3.7112783,36.845 3.9298096,36.125312 4.1483408,35.405625 4.3668721,34.685938 4.5854033,33.96625 4.8039346,33.246562 5.0224658,32.526875 5.2409971,31.807187 5.4595283,31.0875 5.6780596,30.367812 5.8965908,29.648125 6.1151221,28.928437 6.3336533,28.20875 6.5521846,27.489062 6.7707158,26.769375 6.9892471,26.049687 7.2077783,25.33 l 0.074809,-0.251846 0.084223,-0.262532 0.093986,-0.271995 0.1040977,-0.280231 0.1145588,-0.287242 0.1253692,-0.293029 0.1365287,-0.29759 0.1480375,-0.300926 0.1598954,-0.303036 0.1721024,-0.303923 0.1846588,-0.303583 0.1975642,-0.302018 0.2108188,-0.299229 0.2244227,-0.295213 0.2383757,-0.289974 0.2526778,-0.283508 0.2673293,-0.275818 0.2823301,-0.266902 0.297679,-0.256761 0.313379,-0.245396 0.329426,-0.232804 0.345824,-0.218989 0.36257,-0.203947 0.379666,-0.18768 0.397111,-0.170189 0.414904,-0.151471 0.433048,-0.13153 0.451541,-0.110363 0.470381,-0.08797 0.489573,-0.06435 0.509112,-0.03951 0.529002,-0.01344 0.430625,0 0.430625,0 0.430625,0 0.430625,0 0.430625,0 0.430625,0 0.430625,0 0.430625,0 0.430625,0 0.430625,0 0.430625,0 0.430625,0 0.430625,0 0.430625,0 0.430625,0 0.430625,0 0.430625,0 0.430625,0 0.430625,0 0.430625,0 0.430625,0 0.430625,0 0.430625,0 0.430625,0 0.430625,0 0.430625,0 0.430625,0 0.430625,0 0.430625,0 0.430625,0 0.430625,0 z"
     id="path4755"
     style="fill:none;stroke:#000000;stroke-opacity:1"
     inkscape:connector-curvature="0"
     sodipodi:nodetypes="ccccccccccccccccccccccccccccccccccccccccccccccccccccccccccccccccccccccccccccccccccccccccccccccccccccccccccccccccccccccccccccccccccccccccccccccccccccccccccccccccccccccccccccccccccccccccccccccccccccccccccccccccccccccccccccccccccccccccccccccccccccccccccccccccccccccccccccccccccccccccccccccccccccccccccccccccccccccccccccccccccccccccccccccccccccccccccccccccccccccccccccccccccccccccccccccccccccccccccccccccccccccccccccccccccccccccccccccccccccccccccccccccccccccccccccccccccccccccccccccccccccccccccccccccccccccccccccccccccccccccccccccccccccccccccccccccccccccccccccccccccccccccccccccccccccccccccccccccccccccccccccccccccccccccccccccccccccccccccccccccccccccccccccccccccccccccccccccccccccccccccccccccccccccccccccccccc" /><path
     transform="translate(0.00777837,0)"
     style="fill:none;stroke:#000000;stroke-opacity:1"
     d="m 31.088999,8.1639996 -0.08293,0.8226653 -0.08293,0.8226653 -0.237852,0.7662328 -0.237853,0.766234 -0.376357,0.693386 -0.376358,0.693386 -0.498449,0.604125 -0.498448,0.604125 -0.604125,0.498449 -0.604125,0.498448 -0.693386,0.376358 -0.693387,0.376357 -0.766233,0.237853 -0.766233,0.237852 -0.822666,0.08293 -0.822665,0.08293 -0.822665,-0.08293 -0.822666,-0.08293 L 20.513435,15.924284 19.747202,15.686431 19.053816,15.310074 18.36043,14.933716 17.756305,14.435268 17.15218,13.936819 16.653731,13.332694 16.155283,12.728569 15.778925,12.035183 15.402568,11.341797 15.164715,10.575563 14.926863,9.8093302 14.843932,8.9866649 14.761,8.1639996 14.843932,7.3413343 14.926863,6.5186689 15.164715,5.7524357 15.402568,4.9862025 15.778925,4.2928161 16.155283,3.5994298 16.653731,2.9953049 17.15218,2.3911801 17.756305,1.8927315 18.36043,1.3942829 19.053816,1.0179252 19.747202,0.64156755 20.513435,0.4037155 21.279668,0.16586345 22.102334,0.08293173 22.924999,0 l 0.822665,0.08293173 0.822666,0.08293172 0.766233,0.23785205 0.766233,0.23785205 0.693387,0.37635765 0.693386,0.3763577 0.604125,0.4984486 0.604125,0.4984486 0.498448,0.6041248 0.498449,0.6041249 0.376358,0.6933863 0.376357,0.6933864 0.237853,0.7662332 0.237852,0.7662332 0.08293,0.8226654 z"
     id="circle4757"
     inkscape:connector-curvature="0"
     sodipodi:nodetypes="ccccccccccccccccccccccccccccccccccccccccccccccccccccccccccccccccc" /></svg>