<?xml version="1.0" encoding="UTF-8" standalone="no"?>
<!-- Created with Inkscape (http://www.inkscape.org/) -->

<svg
   xmlns:dc="http://purl.org/dc/elements/1.1/"
   xmlns:cc="http://creativecommons.org/ns#"
   xmlns:rdf="http://www.w3.org/1999/02/22-rdf-syntax-ns#"
   xmlns:svg="http://www.w3.org/2000/svg"
   xmlns="http://www.w3.org/2000/svg"
   version="1.1"
   width="100%"
   height="100%"
   viewBox="0 0 73.771426 95.023399"
   id="svg5399"
   xml:space="preserve"><metadata
     id="metadata5411"><rdf:RDF><cc:Work
         rdf:about=""><dc:format>image/svg+xml</dc:format><dc:type
           rdf:resource="http://purl.org/dc/dcmitype/StillImage" /><dc:title></dc:title></cc:Work></rdf:RDF></metadata><defs
     id="defs5409" /><path
     d="m 51.391933,39.316403 c 0.1,-0.59 0.203,-0.96 0.276,-1.187 0.324,-1.129 0.834,-2.068 1.479,-2.545 0.509,-0.374 1.011,0.341 0.504,0.714 -0.424,0.312 -0.864,1.084 -1.151,2.163 0.065,0.249 0.082,0.433 -0.021,0.804 -0.324,1.178 -1.367,1.714 -1.087,0.051 z m -25.589,-5.849 c 3.101,-0.912 6.589,0.491 7.939,1.398 0.953,0.637 1.631,-0.818 0.68,-1.456 -1.644,-1.103 -3.556,-1.722 -5.568,-1.643 -1.336,0.053 -2.412,0.355 -3.455,0.947 -0.881,0.499 -0.571,1.041 0.404,0.754 z m 16.818,14.693 c -0.067,0.029 -0.151,0.057 -0.246,0.084 -1.137,0.424 -1.586,1.385 -2.601,2.082 -0.842,0.704 -1.776,1.244 -2.989,1.27 h -0.097 c -1.391,-0.027 -2.417,-0.735 -3.358,-1.592 -0.381,-0.307 -0.77,-0.678 -1.215,-1.121 -0.287,-0.285 -0.633,-0.496 -1.012,-0.637 -0.096,-0.026 -0.178,-0.057 -0.25,-0.086 -0.541,-0.223 -0.223,-1.054 0.338,-0.845 l 0.033,0.012 0.088,0.029 c 1.428,0.432 3.684,-0.52 5.419,0.298 1.74,-0.817 4,0.134 5.431,-0.298 l 0.088,-0.029 0.033,-0.012 c 0.562,-0.209 0.879,0.622 0.338,0.845 z m -6.338,2.461 c -0.232,-0.031 -0.395,-0.041 -0.621,-0.129 -0.332,-0.127 -0.523,0.371 -0.191,0.499 0.285,0.109 0.449,0.117 0.736,0.159 0.352,0.053 0.431,-0.479 0.076,-0.529 z m 4.093,-2.091 c -1.354,0.108 -2.887,0.136 -3.596,0.14 h -0.078 c -0.716,-0.004 -2.251,-0.032 -3.602,-0.141 0.338,0.333 0.688,0.684 1.057,1.002 0.578,0.396 1.344,0.684 2.588,0.688 1.236,-0.005 1.996,-0.291 2.574,-0.688 0.371,-0.319 0.719,-0.668 1.057,-1.001 z m -8.847,-11.431 c 0.031,-0.465 -0.176,-0.891 -0.52,-1.156 1.034,0.271 1.77,0.889 2.014,1.547 0.221,0.596 1.114,0.264 0.895,-0.332 -0.476,-1.282 -1.963,-2.18 -3.652,-2.299 -1.084,-0.076 -2.107,0.182 -2.871,0.691 l -0.729,-0.324 c -0.555,-0.246 -0.922,0.584 -0.369,0.83 l 0.361,0.161 c -0.037,0.049 -0.072,0.097 -0.107,0.148 l -0.82,-0.236 c -0.58,-0.167 -0.832,0.706 -0.25,0.873 l 1.195,0.344 c 0.256,0.072 0.449,-0.055 0.549,-0.262 0.355,-0.66 1.22,-1.193 2.361,-1.273 -0.405,0.206 -0.696,0.615 -0.729,1.101 -0.053,0.738 0.503,1.378 1.242,1.43 0.739,0.052 1.377,-0.505 1.43,-1.243 z m 20.813,-19.34 c -6.768,-27.4919997 -7.448,-14.9639997 -15.586,-14.5899997 -8.137,-0.374 -8.82,-12.907 -15.59,14.6069997 5.397,1.092 10.488,1.785 15.549,1.822 5.086,-0.038 10.201,-0.737 15.627,-1.839 z m 21.41,63.223 c -0.033,0.112 -0.112,0.202 -0.215,0.258 -0.177,0.108 -0.354,0.217 -0.543,0.325 -0.791,0.458 -1.688,0.911 -2.685,1.335 0.285,2.943 0.42,6.07 0.42,9.309 h -0.907 c 0,-2.91 -0.111,-5.727 -0.343,-8.4 -2.305,0.906 -4.739,1.554 -7.188,1.926 -0.35,2.669 -1.568,4.716 -3.334,6.198 -0.43,1.098 -1.506,1.722 -2.594,1.622 -2.217,1.017 -4.818,1.468 -7.428,1.468 -3.59,0 -6.851,-1.362 -9.248,-3.581 -0.033,-0.029 -0.058,-0.062 -0.078,-0.091 -0.859,-0.132 -1.783,-0.204 -2.748,-0.204 -0.947,0 -1.854,0.07 -2.695,0.195 -0.021,0.033 -0.051,0.067 -0.086,0.1 -2.396,2.219 -5.658,3.581 -9.248,3.581 -2.605,0 -5.209,-0.451 -7.424,-1.468 -1.092,0.1 -2.166,-0.524 -2.596,-1.622 -1.77,-1.484 -2.988,-3.534 -3.336,-6.208 -2.4470002,-0.376 -4.8810002,-1.027 -7.1860002,-1.938 -0.23,2.68 -0.342,5.504 -0.342,8.422 h -0.908 c 0,-3.24 0.137,-6.365 0.42,-9.311 -0.906,-0.395 -1.785,-0.832 -2.62100001,-1.316 -0.217,-0.123 -0.42,-0.248 -0.619,-0.371 -0.057,-0.035 -0.109,-0.082 -0.146,-0.139 -0.031,-0.051 -0.043,-0.074 -0.051,-0.1 -0.037,-0.106 -0.027,-0.219 0.014,-0.309 l 0.012,-0.031 0.182,-0.438 c 0.391,-0.936 0.707,-1.742 0.96700001,-2.436 0.932,-2.475 1.111,-3.441 1.113,-3.455 0.719,-4.068 3.332,-7.342 7.158,-9.438 h 0.013 c 2.0540002,-1.127 4.4550002,-1.91 7.1030002,-2.297 0,0 1.881,-0.259 4.445,-0.938 2.371,-0.625 5.303,-1.604 7.869,-3.059 -0.766,-0.022 -1.49,-0.05 -2.182,-0.078 l -1.914,-0.092 c -2.359,-0.113 -4.312,-0.271 -6.156,-0.5 -0.297,-0.035 -0.42,-0.273 -0.398,-0.497 l 0.207,-1.979 c -0.418,0.618 -0.92,1.329 -1.416,1.965 -0.047,0.086 -0.119,0.155 -0.219,0.192 -0.096,0.041 -0.199,0.043 -0.291,0.015 l -0.104,-0.015 c -0.758,-0.143 -1.678,-0.33 -2.42,-0.534 -0.318,-0.077 -0.613,-0.286 -0.59,-0.56 0.008,-0.082 0.023,-0.154 0.053,-0.219 0.014,-0.031 0.031,-0.062 0.049,-0.09 0.547,-1.1 1.051,-2.208 1.514,-3.319 0.57,-1.37 1.08,-2.739 1.537,-4.101 0.902,-2.69 1.594,-5.343 2.123,-7.856 -0.131,-0.206 -0.252,-0.419 -0.365,-0.634 l -0.035,-0.067 c -0.9,-1.743 -2.281,-6.093 0.836,-6.666 0.268,-0.05 0.521,-0.057 0.762,-0.031 l 0.066,-0.575 c -14.6310002,-3.162 -18.1500002,-9.906 -17.2070002,-13.784 0.963,-3.968 4.533,-3.467 7.5410002,-2.886 1.338,0.258 2.869,0.628 4.6,1.044 2.078,0.498 4.098,0.954 6.076,1.358 5.463,1.102 10.621,1.802 15.744,1.84 5.152,-0.038 10.336,-0.746 15.83,-1.862 1.953,-0.395 3.944,-0.845 5.992,-1.336 2.286,-0.549 5.793,-1.506 8.133,-1.42 2.099,0.076 3.459,0.992 4.01,3.262 0.955,3.927 -2.676,10.791 -17.768,13.901 l -0.017,0.59 c 0.431,-0.154 0.906,-0.198 1.428,-0.09 0.033,0.007 0.064,0.017 0.091,0.028 0.03,0.003 0.063,0.008 0.096,0.018 1.252,0.346 1.691,1.47 1.691,2.658 0,1.188 -0.419,2.589 -1.044,3.832 -0.014,0.028 -0.028,0.054 -0.045,0.076 -0.016,0.036 -0.03,0.073 -0.049,0.109 -0.422,0.801 -1.086,1.687 -1.885,2.415 0.391,4.352 1.213,9.055 2.779,13.713 0.215,0.646 -0.777,0.782 -1.162,0.863 -3.299,0.682 -6.785,0.939 -10.141,1.178 3.494,2.025 8.594,3.586 12.545,4.127 2.65,0.387 5.055,1.172 7.109,2.296 l -0.002,0.007 c 3.826,2.092 6.438,5.364 7.156,9.434 0.004,0.019 0.289,1.544 1.982,5.671 l 0.281,0.678 c 0.054,0.105 0.067,0.225 0.032,0.332 z m -25.108,-23.764 -1.424,-5.996 c -0.71,0.883 -1.56,1.673 -2.619,2.359 l -0.066,0.189 c -0.398,1.023 -0.525,2.41 -0.543,3.828 0.045,-0.016 0.092,-0.027 0.148,-0.031 1.481,-0.103 2.993,-0.207 4.504,-0.349 z m -4.685,5.514 c -0.69,-1.378 -0.881,-2.917 -0.881,-4.749 0,-1.114 0.055,-2.307 0.271,-3.367 l 0.072,-0.331 0.01,-0.039 c -0.916,0.469 -1.961,0.936 -3.199,1.582 l -0.051,0.025 c -1.477,0.771 -1.492,0.866 -3.488,0.883 -2,-0.017 -2.015,-0.111 -3.491,-0.883 -0.902,-0.473 -1.863,-0.896 -2.799,-1.362 0.236,1.093 0.295,2.335 0.295,3.492 0,1.832 -0.188,3.371 -0.879,4.749 -0.273,0.54 -1.084,0.134 -0.812,-0.408 0.211,-0.42 0.369,-0.861 0.488,-1.336 -1.021,1.138 -1.81,2.462 -2.395,3.883 h 0.001 c -0.971,2.351 -1.387,4.963 -1.387,7.436 0,6.263 7.871,5.724 10.688,9.016 0.039,-0.331 0.057,-0.666 0.057,-1.008 0,-1.8 -0.533,-3.479 -1.434,-4.889 -0.326,-0.51 0.439,-0.998 0.766,-0.487 0.471,0.737 0.852,1.545 1.121,2.401 0.51,-1.633 1.432,-3.084 2.639,-4.235 0.439,-0.417 1.064,0.241 0.627,0.658 -1.729,1.647 -2.811,3.973 -2.811,6.552 0,0.341 0.02,0.677 0.055,1.007 2.814,-3.29 10.668,-2.754 10.668,-9.015 0,-2.475 -0.416,-5.086 -1.387,-7.436 l -0.003,-0.002 c -0.593,-1.434 -1.392,-2.768 -2.427,-3.912 0.119,0.485 0.283,0.938 0.498,1.367 0.271,0.542 -0.542,0.948 -0.812,0.408 z m 6.795,-11.209 c -0.047,-0.045 -0.086,-0.107 -0.112,-0.186 -0.463,-1.297 -0.808,-2.742 -1.078,-4.312 -0.479,1.165 -1,2.246 -1.646,3.229 l 1.638,6.871 c 0.264,-0.025 0.528,-0.054 0.791,-0.084 l 0.407,-5.518 z m 0.177,-2.38 0.385,-5.223 c -0.221,0.093 -0.449,0.169 -0.676,0.223 -0.144,0.4 -0.283,0.795 -0.427,1.182 0.195,1.375 0.427,2.65 0.718,3.818 z m 1.396,-5.78 -0.062,0.043 -0.998,13.522 c 1.127,-0.146 2.246,-0.326 3.344,-0.554 0.135,-0.026 0.252,-0.054 0.354,-0.078 -1.441,-4.4 -2.232,-8.817 -2.638,-12.933 z m -3.196,-16.955 c 0.063,0.365 0.152,0.859 0.234,1.169 0.336,1.444 0.815,2.75 1.387,4.15 0.174,0.428 0.322,0.838 0.433,1.288 0.127,0.52 0.198,1.083 0.198,1.757 0.183,-0.218 0.382,-0.421 0.595,-0.598 v -0.047 c 0.015,-0.852 0.039,-1.669 0.073,-2.448 -0.238,-2.238 -1.275,-3.975 -2.92,-5.271 z m -5.482,-2.408 c -1.223,2.144 -3.088,4.154 -4.717,5.521 1.299,-0.569 4.896,-2.617 6.987,-4.855 -0.708,-0.261 -1.466,-0.484 -2.27,-0.666 z m -2.461,-0.427 c -0.088,0.708 -0.461,1.349 -1.049,1.907 0.578,-0.201 1.146,-0.435 1.685,-0.71 0.151,-0.098 0.303,-0.19 0.448,-0.278 l 0.041,-0.021 c 0.147,-0.22 0.289,-0.44 0.42,-0.66 -0.502,-0.093 -1.015,-0.172 -1.545,-0.238 z m -10.817,3.428 c 1.897,0.129 9.506,-0.299 9.916,-3.528 -0.832,-0.078 -1.692,-0.126 -2.58,-0.145 -1.939,1.833 -4.936,3.096 -7.336,3.673 z m -1.513,-2.742 c 1.064,0.482 2.143,0.918 3.188,1.285 1.561,-0.544 3.087,-1.291 4.296,-2.223 -2.793,0.029 -5.318,0.321 -7.484,0.938 z m -3.668,1.582 c 0.812,0.321 1.658,0.546 2.551,0.687 0.855,-0.09 1.799,-0.262 2.758,-0.515 -1.017,-0.377 -2.04,-0.813 -3.03,-1.295 -0.828,0.315 -1.59,0.688 -2.279,1.123 z m -2.099,1.764 3.834,-0.303 c -0.907,-0.19 -1.775,-0.468 -2.613,-0.845 -0.445,0.349 -0.854,0.732 -1.221,1.148 z m -2.316,6.162 c 0.148,0.072 0.291,0.157 0.422,0.249 0.299,0.21 0.57,0.477 0.82,0.78 l 0.002,-0.2 c 0.027,-1.307 0.332,-2.15 0.715,-3.07 0.555,-1.339 1.389,-2.398 2.402,-3.179 l -2.784,0.227 c -0.729,1.113 -1.219,2.425 -1.432,3.957 -0.049,0.401 -0.094,0.814 -0.145,1.236 z m -1.677,6.021 0.033,0.067 c 0.738,1.403 2.303,3.111 3.99,3.447 0.098,0.003 0.191,0.036 0.27,0.103 0.082,0.067 0.131,0.159 0.148,0.254 1.652,4.654 2.9,6.797 4.322,8.121 1.789,1.665 4.305,2.37 6.369,3.625 0.73,0.444 1.643,0.418 2.467,0.425 1.936,-0.017 1.727,-0.08 3.112,-0.805 1.908,-0.995 4.14,-1.773 5.728,-3.26 1.418,-1.325 2.664,-3.473 4.312,-8.117 0.017,-0.097 0.066,-0.187 0.148,-0.253 0.076,-0.067 0.168,-0.099 0.262,-0.104 0.059,-0.014 0.176,-0.042 0.332,-0.095 1.611,-0.539 2.883,-1.861 3.662,-3.342 0.018,-0.037 0.037,-0.071 0.057,-0.103 0.008,-0.023 0.021,-0.048 0.031,-0.07 0.584,-1.167 0.947,-2.425 0.945,-3.425 0,-0.839 -0.234,-1.623 -1.154,-1.816 -1.607,-0.335 -2.727,1.707 -3.119,2.858 -0.02,0.056 -0.039,0.11 -0.053,0.162 -0.188,0.575 -1.146,0.452 -0.768,-0.562 0.041,-0.108 0.084,-0.217 0.131,-0.327 0.23,-1.578 0.172,-2.542 -0.025,-3.338 -0.209,-0.864 -0.615,-1.667 -0.939,-2.489 -0.397,-1.006 -0.819,-2.29 -1.137,-4.272 -0.043,-0.298 -0.123,-0.583 -0.24,-0.842 -0.371,-0.217 -0.764,-0.418 -1.176,-0.604 -1.41,1.717 -3.66,3.422 -6.238,4.726 -1.475,0.745 -2.961,1.319 -4.341,1.697 -0.592,0.162 -0.881,-0.498 -0.361,-0.822 1.646,-1.028 3.608,-2.663 5.2,-4.527 -1.186,0.468 -2.432,0.787 -3.643,0.999 l -0.354,0.06 c -1.66,0.545 -3.668,0.828 -5.725,0.792 -0.9,-0.016 -1.773,-0.089 -2.598,-0.213 -2.273,0.413 -4.201,1.789 -5.174,4.138 -0.365,0.875 -0.623,1.598 -0.646,2.726 -0.012,0.547 0.029,1.183 0.143,1.964 0.055,0.135 0.102,0.257 0.146,0.378 0.008,0.015 0.014,0.031 0.02,0.048 l 0.045,0.141 0.023,0.067 c 0.188,0.612 -0.518,0.843 -0.846,0.27 -0.027,-0.014 -0.623,-1.891 -1.777,-2.707 -0.402,-0.28 -0.857,-0.426 -1.383,-0.33 -2.252,0.41 -0.773,4.242 -0.199,5.355 z m -1.375,8.374 2.727,-5.249 c -0.375,-0.309 -0.723,-0.654 -1.037,-1.025 -0.452,2.027 -1.007,4.136 -1.69,6.274 z m 0.949,5.274 0.666,-6.413 -4.832,9.305 c 0.584,0.176 1.357,0.271 1.943,0.346 1.008,-1.314 2.004,-2.889 2.223,-3.238 z m 6.975,-2.786 c -0.002,-0.046 0,-0.089 0.006,-0.129 -0.463,-0.71 -0.92,-1.555 -1.391,-2.584 -0.086,1.863 -0.236,3.874 -0.377,5.244 -0.061,0.602 -0.965,0.509 -0.904,-0.094 0.193,-1.848 0.398,-4.877 0.438,-7.099 l 0.002,-0.046 c -0.219,-0.559 -0.441,-1.157 -0.672,-1.802 -0.07,-0.02 -0.152,-0.044 -0.246,-0.075 -0.461,-0.156 -0.896,-0.367 -1.309,-0.623 l -0.831,1.603 -0.967,10.124 -0.184,1.889 c 1.859,0.217 3.854,0.363 6.281,0.479 0.336,-2.26 0.32,-4.623 0.154,-6.887 z m 3.755,7.031 c 0.196,0.007 0.325,0.105 0.391,0.236 -0.006,-1.469 -0.111,-2.924 -0.498,-4.011 -0.736,-0.418 -1.434,-0.891 -2.051,-1.462 -0.211,-0.195 -0.414,-0.404 -0.615,-0.634 0.09,1.916 0.049,3.874 -0.223,5.765 0.93,0.04 1.924,0.075 2.996,0.106 z m 43.342,22.977 -0.14,-0.339 c -1.709,-4.159 -2.018,-5.75 -2.037,-5.856 -0.758,-4.278 -3.803,-7.688 -8.34,-9.59 l 0.002,-0.004 c -1.558,-0.654 -3.287,-1.129 -5.164,-1.4 -4.15,-0.578 -9.435,-2.201 -13.047,-4.346 0.008,0.114 0.014,0.227 0.022,0.336 0.135,0.112 0.39,0.334 0.713,0.679 1.286,1.36 2.247,2.984 2.924,4.733 h 0.003 c 0.916,2.365 1.316,4.959 1.316,7.436 0,8.229 -11.631,6.216 -11.631,11.682 0,0.633 -0.908,0.633 -0.908,0 0,-5.465 -11.652,-3.453 -11.652,-11.682 0,-2.477 0.4,-5.069 1.316,-7.432 l -0.003,-0.006 c 0.678,-1.746 1.639,-3.371 2.926,-4.731 0.307,-0.323 0.551,-0.541 0.689,-0.659 0.01,-0.116 0.018,-0.234 0.023,-0.354 -3.609,2.144 -8.896,3.768 -13.047,4.345 -1.873,0.272 -3.605,0.747 -5.162,1.401 h 0.003 c -4.5350002,1.903 -7.5820002,5.312 -8.3400002,9.592 -0.016,0.086 -0.215,1.11 -1.156,3.617 -0.264,0.698 -0.586,1.519 -0.979,2.465 l -0.039,0.093 0.256,0.151 c 3.027,1.754 6.633,2.894 10.0860002,3.441 -0.004,-0.659 0.035,-1.354 0.131,-2.079 0.199,-1.558 0.861,-3.134 1.867,-4.592 -0.051,-0.815 -0.016,-1.626 0.104,-2.423 0.098,-0.641 1.059,-0.493 0.961,0.146 -0.051,0.346 -0.086,0.691 -0.104,1.043 0.576,-0.662 1.229,-1.287 1.939,-1.861 0.469,-0.381 1.039,0.326 0.568,0.707 -2.484,2.005 -4.117,4.63 -4.436,7.096 -0.549,4.268 0.799,7.173 3.082,9.04 0.578,0.474 0.26,1.04 1.289,1.296 0.383,0.095 0.764,0.047 1.096,-0.107 0.402,-0.189 0.719,0.211 0.637,0.534 1.91,0.739 4.1,1.08 6.324,1.08 2.789,0 5.359,-0.876 7.428,-2.358 -0.41,0.121 -0.795,0.256 -1.15,0.403 -0.559,0.233 -0.908,-0.604 -0.352,-0.837 1.621,-0.678 3.758,-1.081 6.104,-1.081 2.344,0 4.491,0.403 6.114,1.081 0.558,0.232 0.207,1.07 -0.352,0.837 -0.336,-0.141 -0.703,-0.27 -1.09,-0.384 2.064,1.47 4.625,2.339 7.4,2.339 2.225,0 4.416,-0.341 6.324,-1.08 -0.082,-0.323 0.233,-0.725 0.639,-0.534 0.891,0.42 1.93,-0.033 2.242,-0.979 0.006,-0.021 0.127,-0.195 0.145,-0.208 2.279,-1.867 3.629,-4.771 3.08,-9.04 -0.318,-2.466 -1.951,-5.091 -4.438,-7.097 -0.47,-0.381 0.102,-1.086 0.571,-0.705 0.709,0.572 1.361,1.197 1.938,1.861 -0.019,-0.353 -0.053,-0.699 -0.104,-1.043 -0.1,-0.642 0.863,-0.787 0.959,-0.147 0.121,0.797 0.156,1.606 0.104,2.423 1.007,1.458 1.666,3.034 1.867,4.592 0.095,0.727 0.135,1.42 0.129,2.079 2.584,-0.411 5.154,-1.137 7.56,-2.165 0.957,-0.41 1.821,-0.847 2.584,-1.288 l 0.206,-0.121 z m -38.676,-36.56 c -0.408,0.446 0.26,1.06 0.668,0.614 0.147,-0.104 0.291,-0.048 0.432,0.056 0.512,0.384 0.862,0.565 1.56,0.565 0.416,0 0.735,-0.078 1,-0.201 0.244,-0.11 0.754,-0.599 1.002,-0.42 0.408,0.446 1.076,-0.168 0.668,-0.614 0,0 -0.049,-0.057 -0.144,-0.124 -0.968,-0.71 -1.563,0.451 -2.526,0.451 -0.959,0 -1.54,-1.165 -2.519,-0.451 -0.092,0.067 -0.141,0.124 -0.141,0.124 z m 13.633,-7.969 -0.818,0.236 c -0.034,-0.051 -0.071,-0.099 -0.11,-0.148 l 0.363,-0.161 c 0.553,-0.247 0.184,-1.076 -0.369,-0.83 l -0.729,0.324 c -0.765,-0.509 -1.785,-0.767 -2.871,-0.691 -1.687,0.119 -3.175,1.017 -3.649,2.299 -0.221,0.597 0.674,0.928 0.895,0.332 0.242,-0.657 0.98,-1.276 2.014,-1.547 -0.346,0.265 -0.553,0.692 -0.52,1.156 0.051,0.738 0.691,1.295 1.43,1.243 0.736,-0.052 1.293,-0.693 1.242,-1.43 -0.036,-0.487 -0.325,-0.895 -0.729,-1.101 1.141,0.08 2.006,0.613 2.375,1.3 0.086,0.18 0.276,0.307 0.532,0.235 l 1.195,-0.344 c 0.581,-0.167 0.331,-1.04 -0.251,-0.873 z m -26.772,2.332 c -0.063,0.249 -0.081,0.433 0.021,0.804 0.324,1.178 1.369,1.714 1.09,0.051 -0.099,-0.59 -0.205,-0.961 -0.277,-1.187 -0.324,-1.129 -0.834,-2.067 -1.482,-2.545 -0.506,-0.375 -1.008,0.34 -0.502,0.714 0.423,0.312 0.863,1.084 1.15,2.163 z m 18.761,-3.596 c 1.351,-0.907 4.838,-2.31 7.939,-1.399 0.975,0.287 1.283,-0.255 0.406,-0.754 -1.045,-0.592 -2.123,-0.893 -3.457,-0.947 -2.01,-0.078 -3.923,0.54 -5.568,1.643 -0.95,0.639 -0.272,2.095 0.68,1.457 z"
     id="path5401"
     style="fill:#000000" /></svg>