  0
SECTION
  2
HEADER
  9
$ACADVER
  1
AC1014
  9
$HANDSEED
  5
FFFF
  9
$MEASUREMENT
 70
     1
  0
ENDSEC
  0
SECTION
  2
TABLES
  0
TABLE
  2
VPORT
  5
8
330
0
100
AcDbSymbolTable
 70
     4
  0
VPORT
  5
2E
330
8
100
AcDbSymbolTableRecord
100
AcDbViewportTableRecord
  2
*ACTIVE
 70
     0
 10
0.0
 20
0.0
 11
1.0
 21
1.0
 12
210.0
 22
148.5
 13
0.0
 23
0.0
 14
10.0
 24
10.0
 15
10.0
 25
10.0
 16
0.0
 26
0.0
 36
1.0
 17
0.0
 27
0.0
 37
0.0
 40
341.0
 41
1.24
 42
50.0
 43
0.0
 44
0.0
 50
0.0
 51
0.0
 71
     0
 72
   100
 73
     1
 74
     3
 75
     0
 76
     0
 77
     0
 78
     0
  0
ENDTAB
  0
TABLE
  2
LTYPE
  5
5
330
0
100
AcDbSymbolTable
 70
     1
  0
LTYPE
  5
14
330
5
100
AcDbSymbolTableRecord
100
AcDbLinetypeTableRecord
  2
BYBLOCK
 70
     0
  3

 72
    65
 73
     0
 40
0.0
  0
LTYPE
  5
15
330
5
100
AcDbSymbolTableRecord
100
AcDbLinetypeTableRecord
  2
BYLAYER
 70
     0
  3

 72
    65
 73
     0
 40
0.0
  0
LTYPE
  5
16
330
5
100
AcDbSymbolTableRecord
100
AcDbLinetypeTableRecord
  2
CONTINUOUS
 70
     0
  3
Solid line
 72
    65
 73
     0
 40
0.0
  0
ENDTAB
  0
TABLE
  2
LAYER
  5
2
100
AcDbSymbolTable
 70
1
  0
LAYER
  5
50
100
AcDbSymbolTableRecord
100
AcDbLayerTableRecord
  2
0
 70
0
  6
CONTINUOUS
  0
ENDTAB
  0
TABLE
  2
STYLE
  5
3
330
0
100
AcDbSymbolTable
 70
     1
  0
STYLE
  5
11
330
3
100
AcDbSymbolTableRecord
100
AcDbTextStyleTableRecord
  2
STANDARD
 70
     0
 40
0.0
 41
1.0
 50
0.0
 71
     0
 42
2.5
  3
txt
  4

  0
ENDTAB
  0
TABLE
  2
VIEW
  5
6
330
0
100
AcDbSymbolTable
 70
     0
  0
ENDTAB
  0
TABLE
  2
UCS
  5
7
330
0
100
AcDbSymbolTable
 70
     0
  0
ENDTAB
  0
TABLE
  2
APPID
  5
9
330
0
100
AcDbSymbolTable
 70
     2
  0
APPID
  5
12
330
9
100
AcDbSymbolTableRecord
100
AcDbRegAppTableRecord
  2
ACAD
 70
     0
  0
ENDTAB
  0
TABLE
  2
DIMSTYLE
  5
A
330
0
100
AcDbSymbolTable
 70
     1
  0
DIMSTYLE
105
27
330
A
100
AcDbSymbolTableRecord
100
AcDbDimStyleTableRecord
  2
ISO-25
 70
     0
  3

  4

  5

  6

  7

 40
1.0
 41
2.5
 42
0.625
 43
3.75
 44
1.25
 45
0.0
 46
0.0
 47
0.0
 48
0.0
140
2.5
141
2.5
142
0.0
143
0.03937007874016
144
1.0
145
0.0
146
1.0
147
0.625
 71
     0
 72
     0
 73
     0
 74
     0
 75
     0
 76
     0
 77
     1
 78
     8
170
     0
171
     3
172
     1
173
     0
174
     0
175
     0
176
     0
177
     0
178
     0
270
     2
271
     2
272
     2
273
     2
274
     3
340
11
275
     0
280
     0
281
     0
282
     0
283
     0
284
     8
285
     0
286
     0
287
     3
288
     0
  0
ENDTAB
  0
TABLE
  2
BLOCK_RECORD
  5
1
330
0
100
AcDbSymbolTable
 70
     1
  0
BLOCK_RECORD
  5
1F
330
1
100
AcDbSymbolTableRecord
100
AcDbBlockTableRecord
  2
*MODEL_SPACE
  0
BLOCK_RECORD
  5
1B
330
1
100
AcDbSymbolTableRecord
100
AcDbBlockTableRecord
  2
*PAPER_SPACE
  0
ENDTAB
  0
ENDSEC
  0
SECTION
  2
BLOCKS
  0
BLOCK
  5
20
330
1F
100
AcDbEntity
  8
0
100
AcDbBlockBegin
  2
*MODEL_SPACE
 70
     0
 10
0.0
 20
0.0
 30
0.0
  3
*MODEL_SPACE
  1

  0
ENDBLK
  5
21
330
1F
100
AcDbEntity
  8
0
100
AcDbBlockEnd
  0
BLOCK
  5
1C
330
1B
100
AcDbEntity
 67
     1
  8
0
100
AcDbBlockBegin
  2
*PAPER_SPACE
  1

  0
ENDBLK
  5
1D
330
1B
100
AcDbEntity
 67
     1
  8
0
100
AcDbBlockEnd
  0
ENDSEC
  0
SECTION
  2
ENTITIES
  0
LINE
  5
100
100
AcDbEntity
  8
0
 62
1
100
AcDbLine
 10
14.561280
 20
23.212778
 30
0.0
 11
14.398557
 21
24.136708
 31
0.0
  0
LINE
  5
101
100
AcDbEntity
  8
0
 62
1
100
AcDbLine
 10
14.398557
 20
24.136708
 30
0.0
 11
14.229912
 21
25.059083
 31
0.0
  0
LINE
  5
102
100
AcDbEntity
  8
0
 62
1
100
AcDbLine
 10
14.229912
 20
25.059083
 30
0.0
 11
14.011335
 21
25.968352
 31
0.0
  0
LINE
  5
103
100
AcDbEntity
  8
0
 62
1
100
AcDbLine
 10
14.011335
 20
25.968352
 30
0.0
 11
13.698816
 21
26.852963
 31
0.0
  0
LINE
  5
104
100
AcDbEntity
  8
0
 62
1
100
AcDbLine
 10
13.698816
 20
26.852963
 30
0.0
 11
13.531980
 21
27.252800
 31
0.0
  0
LINE
  5
105
100
AcDbEntity
  8
0
 62
1
100
AcDbLine
 10
13.531980
 20
27.252800
 30
0.0
 11
13.335216
 21
27.643549
 31
0.0
  0
LINE
  5
106
100
AcDbEntity
  8
0
 62
1
100
AcDbLine
 10
13.335216
 20
27.643549
 30
0.0
 11
13.074958
 21
27.981319
 31
0.0
  0
LINE
  5
107
100
AcDbEntity
  8
0
 62
1
100
AcDbLine
 10
13.074958
 20
27.981319
 30
0.0
 11
12.717639
 21
28.222223
 31
0.0
  0
LINE
  5
108
100
AcDbEntity
  8
0
 62
1
100
AcDbLine
 10
12.717639
 20
28.222223
 30
0.0
 11
12.162400
 21
28.041427
 31
0.0
  0
LINE
  5
109
100
AcDbEntity
  8
0
 62
1
100
AcDbLine
 10
12.162400
 20
28.041427
 30
0.0
 11
11.643751
 21
27.762229
 31
0.0
  0
LINE
  5
10a
100
AcDbEntity
  8
0
 62
1
100
AcDbLine
 10
11.643751
 20
27.762229
 30
0.0
 11
11.118486
 21
27.499606
 31
0.0
  0
LINE
  5
10b
100
AcDbEntity
  8
0
 62
1
100
AcDbLine
 10
11.118486
 20
27.499606
 30
0.0
 11
10.543399
 21
27.368537
 31
0.0
  0
LINE
  5
10c
100
AcDbEntity
  8
0
 62
1
100
AcDbLine
 10
10.543399
 20
27.368537
 30
0.0
 11
9.972672
 21
27.402310
 31
0.0
  0
LINE
  5
10d
100
AcDbEntity
  8
0
 62
1
100
AcDbLine
 10
9.972672
 20
27.402310
 30
0.0
 11
9.432687
 21
27.591567
 31
0.0
  0
LINE
  5
10e
100
AcDbEntity
  8
0
 62
1
100
AcDbLine
 10
9.432687
 20
27.591567
 30
0.0
 11
8.914361
 21
27.860206
 31
0.0
  0
LINE
  5
10f
100
AcDbEntity
  8
0
 62
1
100
AcDbLine
 10
8.914361
 20
27.860206
 30
0.0
 11
8.408612
 21
28.132125
 31
0.0
  0
LINE
  5
110
100
AcDbEntity
  8
0
 62
1
100
AcDbLine
 10
8.408612
 20
28.132125
 30
0.0
 11
8.055860
 21
28.194796
 31
0.0
  0
LINE
  5
111
100
AcDbEntity
  8
0
 62
1
100
AcDbLine
 10
8.055860
 20
28.194796
 30
0.0
 11
7.748855
 21
28.054450
 31
0.0
  0
LINE
  5
112
100
AcDbEntity
  8
0
 62
1
100
AcDbLine
 10
7.748855
 20
28.054450
 30
0.0
 11
7.502557
 21
27.787498
 31
0.0
  0
LINE
  5
113
100
AcDbEntity
  8
0
 62
1
100
AcDbLine
 10
7.502557
 20
27.787498
 30
0.0
 11
7.331924
 21
27.470354
 31
0.0
  0
LINE
  5
114
100
AcDbEntity
  8
0
 62
1
100
AcDbLine
 10
7.331924
 20
27.470354
 30
0.0
 11
6.883313
 21
26.415389
 31
0.0
  0
LINE
  5
115
100
AcDbEntity
  8
0
 62
1
100
AcDbLine
 10
6.883313
 20
26.415389
 30
0.0
 11
6.534555
 21
25.321187
 31
0.0
  0
LINE
  5
116
100
AcDbEntity
  8
0
 62
1
100
AcDbLine
 10
6.534555
 20
25.321187
 30
0.0
 11
6.238911
 21
24.208016
 31
0.0
  0
LINE
  5
117
100
AcDbEntity
  8
0
 62
1
100
AcDbLine
 10
6.238911
 20
24.208016
 30
0.0
 11
5.949646
 21
23.096141
 31
0.0
  0
LINE
  5
118
100
AcDbEntity
  8
0
 62
1
100
AcDbLine
 10
5.949646
 20
23.096141
 30
0.0
 11
5.810876
 21
22.979422
 31
0.0
  0
LINE
  5
119
100
AcDbEntity
  8
0
 62
1
100
AcDbLine
 10
5.810876
 20
22.979422
 30
0.0
 11
5.576137
 21
23.012313
 31
0.0
  0
LINE
  5
11a
100
AcDbEntity
  8
0
 62
1
100
AcDbLine
 10
5.576137
 20
23.012313
 30
0.0
 11
5.308536
 21
23.096433
 31
0.0
  0
LINE
  5
11b
100
AcDbEntity
  8
0
 62
1
100
AcDbLine
 10
5.308536
 20
23.096433
 30
0.0
 11
5.071181
 21
23.133403
 31
0.0
  0
LINE
  5
11c
100
AcDbEntity
  8
0
 62
1
100
AcDbLine
 10
5.071181
 20
23.133403
 30
0.0
 11
4.216355
 21
23.330451
 31
0.0
  0
LINE
  5
11d
100
AcDbEntity
  8
0
 62
1
100
AcDbLine
 10
4.216355
 20
23.330451
 30
0.0
 11
3.360246
 21
23.545107
 31
0.0
  0
LINE
  5
11e
100
AcDbEntity
  8
0
 62
1
100
AcDbLine
 10
3.360246
 20
23.545107
 30
0.0
 11
2.497504
 21
23.697228
 31
0.0
  0
LINE
  5
11f
100
AcDbEntity
  8
0
 62
1
100
AcDbLine
 10
2.497504
 20
23.697228
 30
0.0
 11
1.622778
 21
23.706667
 31
0.0
  0
LINE
  5
120
100
AcDbEntity
  8
0
 62
1
100
AcDbLine
 10
1.622778
 20
23.706667
 30
0.0
 11
1.054364
 21
23.374229
 31
0.0
  0
LINE
  5
121
100
AcDbEntity
  8
0
 62
1
100
AcDbLine
 10
1.054364
 20
23.374229
 30
0.0
 11
0.781593
 21
22.792481
 31
0.0
  0
LINE
  5
122
100
AcDbEntity
  8
0
 62
1
100
AcDbLine
 10
0.781593
 20
22.792481
 30
0.0
 11
0.779267
 21
22.117044
 31
0.0
  0
LINE
  5
123
100
AcDbEntity
  8
0
 62
1
100
AcDbLine
 10
0.779267
 20
22.117044
 30
0.0
 11
1.022190
 21
21.503536
 31
0.0
  0
LINE
  5
124
100
AcDbEntity
  8
0
 62
1
100
AcDbLine
 10
1.022190
 20
21.503536
 30
0.0
 11
1.677919
 21
20.700088
 31
0.0
  0
LINE
  5
125
100
AcDbEntity
  8
0
 62
1
100
AcDbLine
 10
1.677919
 20
20.700088
 30
0.0
 11
2.510451
 21
20.083146
 31
0.0
  0
LINE
  5
126
100
AcDbEntity
  8
0
 62
1
100
AcDbLine
 10
2.510451
 20
20.083146
 30
0.0
 11
3.449194
 21
19.613582
 31
0.0
  0
LINE
  5
127
100
AcDbEntity
  8
0
 62
1
100
AcDbLine
 10
3.449194
 20
19.613582
 30
0.0
 11
4.423553
 21
19.252273
 31
0.0
  0
LINE
  5
128
100
AcDbEntity
  8
0
 62
1
100
AcDbLine
 10
4.423553
 20
19.252273
 30
0.0
 11
4.729892
 21
19.165134
 31
0.0
  0
LINE
  5
129
100
AcDbEntity
  8
0
 62
1
100
AcDbLine
 10
4.729892
 20
19.165134
 30
0.0
 11
5.053698
 21
19.088028
 31
0.0
  0
LINE
  5
12a
100
AcDbEntity
  8
0
 62
1
100
AcDbLine
 10
5.053698
 20
19.088028
 30
0.0
 11
5.363243
 21
19.002789
 31
0.0
  0
LINE
  5
12b
100
AcDbEntity
  8
0
 62
1
100
AcDbLine
 10
5.363243
 20
19.002789
 30
0.0
 11
5.626805
 21
18.891251
 31
0.0
  0
LINE
  5
12c
100
AcDbEntity
  8
0
 62
1
100
AcDbLine
 10
5.626805
 20
18.891251
 30
0.0
 11
5.573393
 21
18.776782
 31
0.0
  0
LINE
  5
12d
100
AcDbEntity
  8
0
 62
1
100
AcDbLine
 10
5.573393
 20
18.776782
 30
0.0
 11
5.430094
 21
18.746473
 31
0.0
  0
LINE
  5
12e
100
AcDbEntity
  8
0
 62
1
100
AcDbLine
 10
5.430094
 20
18.746473
 30
0.0
 11
5.259475
 21
18.729021
 31
0.0
  0
LINE
  5
12f
100
AcDbEntity
  8
0
 62
1
100
AcDbLine
 10
5.259475
 20
18.729021
 30
0.0
 11
5.124097
 21
18.653125
 31
0.0
  0
LINE
  5
130
100
AcDbEntity
  8
0
 62
1
100
AcDbLine
 10
5.124097
 20
18.653125
 30
0.0
 11
4.880798
 21
18.191623
 31
0.0
  0
LINE
  5
131
100
AcDbEntity
  8
0
 62
1
100
AcDbLine
 10
4.880798
 20
18.191623
 30
0.0
 11
4.884091
 21
17.667867
 31
0.0
  0
LINE
  5
132
100
AcDbEntity
  8
0
 62
1
100
AcDbLine
 10
4.884091
 20
17.667867
 30
0.0
 11
5.044871
 21
17.142851
 31
0.0
  0
LINE
  5
133
100
AcDbEntity
  8
0
 62
1
100
AcDbLine
 10
5.044871
 20
17.142851
 30
0.0
 11
5.274027
 21
16.677569
 31
0.0
  0
LINE
  5
134
100
AcDbEntity
  8
0
 62
1
100
AcDbLine
 10
5.274027
 20
16.677569
 30
0.0
 11
5.005122
 21
15.541633
 31
0.0
  0
LINE
  5
135
100
AcDbEntity
  8
0
 62
1
100
AcDbLine
 10
5.005122
 20
15.541633
 30
0.0
 11
4.661396
 21
14.420204
 31
0.0
  0
LINE
  5
136
100
AcDbEntity
  8
0
 62
1
100
AcDbLine
 10
4.661396
 20
14.420204
 30
0.0
 11
4.251364
 21
13.327231
 31
0.0
  0
LINE
  5
137
100
AcDbEntity
  8
0
 62
1
100
AcDbLine
 10
4.251364
 20
13.327231
 30
0.0
 11
3.783541
 21
12.276666
 31
0.0
  0
LINE
  5
138
100
AcDbEntity
  8
0
 62
1
100
AcDbLine
 10
3.783541
 20
12.276666
 30
0.0
 11
3.960837
 21
12.121839
 31
0.0
  0
LINE
  5
139
100
AcDbEntity
  8
0
 62
1
100
AcDbLine
 10
3.960837
 20
12.121839
 30
0.0
 11
4.204958
 21
12.046983
 31
0.0
  0
LINE
  5
13a
100
AcDbEntity
  8
0
 62
1
100
AcDbLine
 10
4.204958
 20
12.046983
 30
0.0
 11
4.472086
 21
12.007594
 31
0.0
  0
LINE
  5
13b
100
AcDbEntity
  8
0
 62
1
100
AcDbLine
 10
4.472086
 20
12.007594
 30
0.0
 11
4.718402
 21
11.959166
 31
0.0
  0
LINE
  5
13c
100
AcDbEntity
  8
0
 62
1
100
AcDbLine
 10
4.718402
 20
11.959166
 30
0.0
 11
4.857979
 21
12.082051
 31
0.0
  0
LINE
  5
13d
100
AcDbEntity
  8
0
 62
1
100
AcDbLine
 10
4.857979
 20
12.082051
 30
0.0
 11
4.978498
 21
12.243509
 31
0.0
  0
LINE
  5
13e
100
AcDbEntity
  8
0
 62
1
100
AcDbLine
 10
4.978498
 20
12.243509
 30
0.0
 11
5.092443
 21
12.417136
 31
0.0
  0
LINE
  5
13f
100
AcDbEntity
  8
0
 62
1
100
AcDbLine
 10
5.092443
 20
12.417136
 30
0.0
 11
5.212291
 21
12.576527
 31
0.0
  0
LINE
  5
140
100
AcDbEntity
  8
0
 62
1
100
AcDbLine
 10
5.212291
 20
12.576527
 30
0.0
 11
5.187758
 21
12.361199
 31
0.0
  0
LINE
  5
141
100
AcDbEntity
  8
0
 62
1
100
AcDbLine
 10
5.187758
 20
12.361199
 30
0.0
 11
5.151536
 21
12.118244
 31
0.0
  0
LINE
  5
142
100
AcDbEntity
  8
0
 62
1
100
AcDbLine
 10
5.151536
 20
12.118244
 30
0.0
 11
5.193130
 21
11.927137
 31
0.0
  0
LINE
  5
143
100
AcDbEntity
  8
0
 62
1
100
AcDbLine
 10
5.193130
 20
11.927137
 30
0.0
 11
5.402045
 21
11.867352
 31
0.0
  0
LINE
  5
144
100
AcDbEntity
  8
0
 62
1
100
AcDbLine
 10
5.402045
 20
11.867352
 30
0.0
 11
6.089713
 21
11.799240
 31
0.0
  0
LINE
  5
145
100
AcDbEntity
  8
0
 62
1
100
AcDbLine
 10
6.089713
 20
11.799240
 30
0.0
 11
6.778736
 21
11.751079
 31
0.0
  0
LINE
  5
146
100
AcDbEntity
  8
0
 62
1
100
AcDbLine
 10
6.778736
 20
11.751079
 30
0.0
 11
7.468399
 21
11.717862
 31
0.0
  0
LINE
  5
147
100
AcDbEntity
  8
0
 62
1
100
AcDbLine
 10
7.468399
 20
11.717862
 30
0.0
 11
8.157985
 21
11.694584
 31
0.0
  0
LINE
  5
148
100
AcDbEntity
  8
0
 62
1
100
AcDbLine
 10
8.157985
 20
11.694584
 30
0.0
 11
7.139529
 21
11.214190
 31
0.0
  0
LINE
  5
149
100
AcDbEntity
  8
0
 62
1
100
AcDbLine
 10
7.139529
 20
11.214190
 30
0.0
 11
6.071003
 21
10.871305
 31
0.0
  0
LINE
  5
14a
100
AcDbEntity
  8
0
 62
1
100
AcDbLine
 10
6.071003
 20
10.871305
 30
0.0
 11
4.974406
 21
10.615946
 31
0.0
  0
LINE
  5
14b
100
AcDbEntity
  8
0
 62
1
100
AcDbLine
 10
4.974406
 20
10.615946
 30
0.0
 11
3.871735
 21
10.398126
 31
0.0
  0
LINE
  5
14c
100
AcDbEntity
  8
0
 62
1
100
AcDbLine
 10
3.871735
 20
10.398126
 30
0.0
 11
2.738765
 21
9.950323
 31
0.0
  0
LINE
  5
14d
100
AcDbEntity
  8
0
 62
1
100
AcDbLine
 10
2.738765
 20
9.950323
 30
0.0
 11
1.747684
 21
9.235487
 31
0.0
  0
LINE
  5
14e
100
AcDbEntity
  8
0
 62
1
100
AcDbLine
 10
1.747684
 20
9.235487
 30
0.0
 11
1.007240
 21
8.283966
 31
0.0
  0
LINE
  5
14f
100
AcDbEntity
  8
0
 62
1
100
AcDbLine
 10
1.007240
 20
8.283966
 30
0.0
 11
0.626181
 21
7.126112
 31
0.0
  0
LINE
  5
150
100
AcDbEntity
  8
0
 62
1
100
AcDbLine
 10
0.626181
 20
7.126112
 30
0.0
 11
0.486595
 21
6.681609
 31
0.0
  0
LINE
  5
151
100
AcDbEntity
  8
0
 62
1
100
AcDbLine
 10
0.486595
 20
6.681609
 30
0.0
 11
0.318445
 21
6.240533
 31
0.0
  0
LINE
  5
152
100
AcDbEntity
  8
0
 62
1
100
AcDbLine
 10
0.318445
 20
6.240533
 30
0.0
 11
0.147618
 21
5.805684
 31
0.0
  0
LINE
  5
153
100
AcDbEntity
  8
0
 62
1
100
AcDbLine
 10
0.147618
 20
5.805684
 30
0.0
 11
0.000000
 21
5.379862
 31
0.0
  0
LINE
  5
154
100
AcDbEntity
  8
0
 62
1
100
AcDbLine
 10
0.000000
 20
5.379862
 30
0.0
 11
0.200195
 21
5.212584
 31
0.0
  0
LINE
  5
155
100
AcDbEntity
  8
0
 62
1
100
AcDbLine
 10
0.200195
 20
5.212584
 30
0.0
 11
0.452495
 21
5.072599
 31
0.0
  0
LINE
  5
156
100
AcDbEntity
  8
0
 62
1
100
AcDbLine
 10
0.452495
 20
5.072599
 30
0.0
 11
0.723287
 21
4.947339
 31
0.0
  0
LINE
  5
157
100
AcDbEntity
  8
0
 62
1
100
AcDbLine
 10
0.723287
 20
4.947339
 30
0.0
 11
0.978958
 21
4.824237
 31
0.0
  0
LINE
  5
158
100
AcDbEntity
  8
0
 62
1
100
AcDbLine
 10
0.978958
 20
4.824237
 30
0.0
 11
0.923942
 21
4.168505
 31
0.0
  0
LINE
  5
159
100
AcDbEntity
  8
0
 62
1
100
AcDbLine
 10
0.923942
 20
4.168505
 30
0.0
 11
0.885767
 21
3.511652
 31
0.0
  0
LINE
  5
15a
100
AcDbEntity
  8
0
 62
1
100
AcDbLine
 10
0.885767
 20
3.511652
 30
0.0
 11
0.863319
 21
2.854043
 31
0.0
  0
LINE
  5
15b
100
AcDbEntity
  8
0
 62
1
100
AcDbLine
 10
0.863319
 20
2.854043
 30
0.0
 11
0.855486
 21
2.196042
 31
0.0
  0
LINE
  5
15c
100
AcDbEntity
  8
0
 62
1
100
AcDbLine
 10
0.855486
 20
2.196042
 30
0.0
 11
1.070018
 21
2.218010
 31
0.0
  0
LINE
  5
15d
100
AcDbEntity
  8
0
 62
1
100
AcDbLine
 10
1.070018
 20
2.218010
 30
0.0
 11
1.128512
 21
2.399066
 31
0.0
  0
LINE
  5
15e
100
AcDbEntity
  8
0
 62
1
100
AcDbLine
 10
1.128512
 20
2.399066
 30
0.0
 11
1.117143
 21
2.650118
 31
0.0
  0
LINE
  5
15f
100
AcDbEntity
  8
0
 62
1
100
AcDbLine
 10
1.117143
 20
2.650118
 30
0.0
 11
1.122089
 21
2.882075
 31
0.0
  0
LINE
  5
160
100
AcDbEntity
  8
0
 62
1
100
AcDbLine
 10
1.122089
 20
2.882075
 30
0.0
 11
1.134947
 21
3.306373
 31
0.0
  0
LINE
  5
161
100
AcDbEntity
  8
0
 62
1
100
AcDbLine
 10
1.134947
 20
3.306373
 30
0.0
 11
1.153935
 21
3.730314
 31
0.0
  0
LINE
  5
162
100
AcDbEntity
  8
0
 62
1
100
AcDbLine
 10
1.153935
 20
3.730314
 30
0.0
 11
1.178544
 21
4.153940
 31
0.0
  0
LINE
  5
163
100
AcDbEntity
  8
0
 62
1
100
AcDbLine
 10
1.178544
 20
4.153940
 30
0.0
 11
1.208264
 21
4.577293
 31
0.0
  0
LINE
  5
164
100
AcDbEntity
  8
0
 62
1
100
AcDbLine
 10
1.208264
 20
4.577293
 30
0.0
 11
1.703451
 21
4.399327
 31
0.0
  0
LINE
  5
165
100
AcDbEntity
  8
0
 62
1
100
AcDbLine
 10
1.703451
 20
4.399327
 30
0.0
 11
2.207299
 21
4.247271
 31
0.0
  0
LINE
  5
166
100
AcDbEntity
  8
0
 62
1
100
AcDbLine
 10
2.207299
 20
4.247271
 30
0.0
 11
2.718747
 21
4.123525
 31
0.0
  0
LINE
  5
167
100
AcDbEntity
  8
0
 62
1
100
AcDbLine
 10
2.718747
 20
4.123525
 30
0.0
 11
3.236736
 21
4.030487
 31
0.0
  0
LINE
  5
168
100
AcDbEntity
  8
0
 62
1
100
AcDbLine
 10
3.236736
 20
4.030487
 30
0.0
 11
3.351198
 21
3.514513
 31
0.0
  0
LINE
  5
169
100
AcDbEntity
  8
0
 62
1
100
AcDbLine
 10
3.351198
 20
3.514513
 30
0.0
 11
3.563682
 21
3.035586
 31
0.0
  0
LINE
  5
16a
100
AcDbEntity
  8
0
 62
1
100
AcDbLine
 10
3.563682
 20
3.035586
 30
0.0
 11
3.856295
 21
2.599980
 31
0.0
  0
LINE
  5
16b
100
AcDbEntity
  8
0
 62
1
100
AcDbLine
 10
3.856295
 20
2.599980
 30
0.0
 11
4.211140
 21
2.213970
 31
0.0
  0
LINE
  5
16c
100
AcDbEntity
  8
0
 62
1
100
AcDbLine
 10
4.211140
 20
2.213970
 30
0.0
 11
4.448623
 21
1.947902
 31
0.0
  0
LINE
  5
16d
100
AcDbEntity
  8
0
 62
1
100
AcDbLine
 10
4.448623
 20
1.947902
 30
0.0
 11
4.771990
 21
1.818645
 31
0.0
  0
LINE
  5
16e
100
AcDbEntity
  8
0
 62
1
100
AcDbLine
 10
4.771990
 20
1.818645
 30
0.0
 11
5.128078
 21
1.736890
 31
0.0
  0
LINE
  5
16f
100
AcDbEntity
  8
0
 62
1
100
AcDbLine
 10
5.128078
 20
1.736890
 30
0.0
 11
5.463727
 21
1.613329
 31
0.0
  0
LINE
  5
170
100
AcDbEntity
  8
0
 62
1
100
AcDbLine
 10
5.463727
 20
1.613329
 30
0.0
 11
6.560547
 21
1.415002
 31
0.0
  0
LINE
  5
171
100
AcDbEntity
  8
0
 62
1
100
AcDbLine
 10
6.560547
 20
1.415002
 30
0.0
 11
7.677686
 21
1.471031
 31
0.0
  0
LINE
  5
172
100
AcDbEntity
  8
0
 62
1
100
AcDbLine
 10
7.677686
 20
1.471031
 30
0.0
 11
8.731827
 21
1.803419
 31
0.0
  0
LINE
  5
173
100
AcDbEntity
  8
0
 62
1
100
AcDbLine
 10
8.731827
 20
1.803419
 30
0.0
 11
9.639653
 21
2.434168
 31
0.0
  0
LINE
  5
174
100
AcDbEntity
  8
0
 62
1
100
AcDbLine
 10
9.639653
 20
2.434168
 30
0.0
 11
10.023209
 21
2.482720
 31
0.0
  0
LINE
  5
175
100
AcDbEntity
  8
0
 62
1
100
AcDbLine
 10
10.023209
 20
2.482720
 30
0.0
 11
10.421514
 21
2.502160
 31
0.0
  0
LINE
  5
176
100
AcDbEntity
  8
0
 62
1
100
AcDbLine
 10
10.421514
 20
2.502160
 30
0.0
 11
10.819149
 21
2.483195
 31
0.0
  0
LINE
  5
177
100
AcDbEntity
  8
0
 62
1
100
AcDbLine
 10
10.819149
 20
2.483195
 30
0.0
 11
11.200694
 21
2.416530
 31
0.0
  0
LINE
  5
178
100
AcDbEntity
  8
0
 62
1
100
AcDbLine
 10
11.200694
 20
2.416530
 30
0.0
 11
12.248128
 21
1.730758
 31
0.0
  0
LINE
  5
179
100
AcDbEntity
  8
0
 62
1
100
AcDbLine
 10
12.248128
 20
1.730758
 30
0.0
 11
13.452779
 21
1.427816
 31
0.0
  0
LINE
  5
17a
100
AcDbEntity
  8
0
 62
1
100
AcDbLine
 10
13.452779
 20
1.427816
 30
0.0
 11
14.708784
 21
1.469300
 31
0.0
  0
LINE
  5
17b
100
AcDbEntity
  8
0
 62
1
100
AcDbLine
 10
14.708784
 20
1.469300
 30
0.0
 11
15.910278
 21
1.816808
 31
0.0
  0
LINE
  5
17c
100
AcDbEntity
  8
0
 62
1
100
AcDbLine
 10
15.910278
 20
1.816808
 30
0.0
 11
16.270648
 21
1.887241
 31
0.0
  0
LINE
  5
17d
100
AcDbEntity
  8
0
 62
1
100
AcDbLine
 10
16.270648
 20
1.887241
 30
0.0
 11
16.543832
 21
2.113740
 31
0.0
  0
LINE
  5
17e
100
AcDbEntity
  8
0
 62
1
100
AcDbLine
 10
16.543832
 20
2.113740
 30
0.0
 11
16.779333
 21
2.406305
 31
0.0
  0
LINE
  5
17f
100
AcDbEntity
  8
0
 62
1
100
AcDbLine
 10
16.779333
 20
2.406305
 30
0.0
 11
17.026658
 21
2.674938
 31
0.0
  0
LINE
  5
180
100
AcDbEntity
  8
0
 62
1
100
AcDbLine
 10
17.026658
 20
2.674938
 30
0.0
 11
17.232469
 21
2.980304
 31
0.0
  0
LINE
  5
181
100
AcDbEntity
  8
0
 62
1
100
AcDbLine
 10
17.232469
 20
2.980304
 30
0.0
 11
17.394221
 21
3.310549
 31
0.0
  0
LINE
  5
182
100
AcDbEntity
  8
0
 62
1
100
AcDbLine
 10
17.394221
 20
3.310549
 30
0.0
 11
17.509815
 21
3.659671
 31
0.0
  0
LINE
  5
183
100
AcDbEntity
  8
0
 62
1
100
AcDbLine
 10
17.509815
 20
3.659671
 30
0.0
 11
17.577153
 21
4.021669
 31
0.0
  0
LINE
  5
184
100
AcDbEntity
  8
0
 62
1
100
AcDbLine
 10
17.577153
 20
4.021669
 30
0.0
 11
18.094268
 21
4.118661
 31
0.0
  0
LINE
  5
185
100
AcDbEntity
  8
0
 62
1
100
AcDbLine
 10
18.094268
 20
4.118661
 30
0.0
 11
18.605543
 21
4.242458
 31
0.0
  0
LINE
  5
186
100
AcDbEntity
  8
0
 62
1
100
AcDbLine
 10
18.605543
 20
4.242458
 30
0.0
 11
19.109742
 21
4.392562
 31
0.0
  0
LINE
  5
187
100
AcDbEntity
  8
0
 62
1
100
AcDbLine
 10
19.109742
 20
4.392562
 30
0.0
 11
19.605625
 21
4.568474
 31
0.0
  0
LINE
  5
188
100
AcDbEntity
  8
0
 62
1
100
AcDbLine
 10
19.605625
 20
4.568474
 30
0.0
 11
19.656513
 21
3.971403
 31
0.0
  0
LINE
  5
189
100
AcDbEntity
  8
0
 62
1
100
AcDbLine
 10
19.656513
 20
3.971403
 30
0.0
 11
19.680561
 21
3.361474
 31
0.0
  0
LINE
  5
18a
100
AcDbEntity
  8
0
 62
1
100
AcDbLine
 10
19.680561
 20
3.361474
 30
0.0
 11
19.700215
 21
2.761937
 31
0.0
  0
LINE
  5
18b
100
AcDbEntity
  8
0
 62
1
100
AcDbLine
 10
19.700215
 20
2.761937
 30
0.0
 11
19.737916
 21
2.196044
 31
0.0
  0
LINE
  5
18c
100
AcDbEntity
  8
0
 62
1
100
AcDbLine
 10
19.737916
 20
2.196044
 30
0.0
 11
19.936152
 21
2.239630
 31
0.0
  0
LINE
  5
18d
100
AcDbEntity
  8
0
 62
1
100
AcDbLine
 10
19.936152
 20
2.239630
 30
0.0
 11
19.974332
 21
2.444228
 31
0.0
  0
LINE
  5
18e
100
AcDbEntity
  8
0
 62
1
100
AcDbLine
 10
19.974332
 20
2.444228
 30
0.0
 11
19.948523
 21
2.711660
 31
0.0
  0
LINE
  5
18f
100
AcDbEntity
  8
0
 62
1
100
AcDbLine
 10
19.948523
 20
2.711660
 30
0.0
 11
19.954791
 21
2.943747
 31
0.0
  0
LINE
  5
190
100
AcDbEntity
  8
0
 62
1
100
AcDbLine
 10
19.954791
 20
2.943747
 30
0.0
 11
19.935552
 21
3.414352
 31
0.0
  0
LINE
  5
191
100
AcDbEntity
  8
0
 62
1
100
AcDbLine
 10
19.935552
 20
3.414352
 30
0.0
 11
19.913282
 21
3.884834
 31
0.0
  0
LINE
  5
192
100
AcDbEntity
  8
0
 62
1
100
AcDbLine
 10
19.913282
 20
3.884834
 30
0.0
 11
19.884005
 21
4.354895
 31
0.0
  0
LINE
  5
193
100
AcDbEntity
  8
0
 62
1
100
AcDbLine
 10
19.884005
 20
4.354895
 30
0.0
 11
19.843750
 21
4.824237
 31
0.0
  0
LINE
  5
194
100
AcDbEntity
  8
0
 62
1
100
AcDbLine
 10
19.843750
 20
4.824237
 30
0.0
 11
20.099033
 21
4.950301
 31
0.0
  0
LINE
  5
195
100
AcDbEntity
  8
0
 62
1
100
AcDbLine
 10
20.099033
 20
4.950301
 30
0.0
 11
20.369684
 21
5.070156
 31
0.0
  0
LINE
  5
196
100
AcDbEntity
  8
0
 62
1
100
AcDbLine
 10
20.369684
 20
5.070156
 30
0.0
 11
20.622107
 21
5.208162
 31
0.0
  0
LINE
  5
197
100
AcDbEntity
  8
0
 62
1
100
AcDbLine
 10
20.622107
 20
5.208162
 30
0.0
 11
20.822708
 21
5.388681
 31
0.0
  0
LINE
  5
198
100
AcDbEntity
  8
0
 62
1
100
AcDbLine
 10
20.822708
 20
5.388681
 30
0.0
 11
20.594945
 21
5.977718
 31
0.0
  0
LINE
  5
199
100
AcDbEntity
  8
0
 62
1
100
AcDbLine
 10
20.594945
 20
5.977718
 30
0.0
 11
20.376768
 21
6.577393
 31
0.0
  0
LINE
  5
19a
100
AcDbEntity
  8
0
 62
1
100
AcDbLine
 10
20.376768
 20
6.577393
 30
0.0
 11
20.179803
 21
7.185905
 31
0.0
  0
LINE
  5
19b
100
AcDbEntity
  8
0
 62
1
100
AcDbLine
 10
20.179803
 20
7.185905
 30
0.0
 11
20.015678
 21
7.801452
 31
0.0
  0
LINE
  5
19c
100
AcDbEntity
  8
0
 62
1
100
AcDbLine
 10
20.015678
 20
7.801452
 30
0.0
 11
19.692199
 21
8.486226
 31
0.0
  0
LINE
  5
19d
100
AcDbEntity
  8
0
 62
1
100
AcDbLine
 10
19.692199
 20
8.486226
 30
0.0
 11
19.241437
 21
9.072982
 31
0.0
  0
LINE
  5
19e
100
AcDbEntity
  8
0
 62
1
100
AcDbLine
 10
19.241437
 20
9.072982
 30
0.0
 11
18.687019
 21
9.563703
 31
0.0
  0
LINE
  5
19f
100
AcDbEntity
  8
0
 62
1
100
AcDbLine
 10
18.687019
 20
9.563703
 30
0.0
 11
18.052570
 21
9.960370
 31
0.0
  0
LINE
  5
1a0
100
AcDbEntity
  8
0
 62
1
100
AcDbLine
 10
18.052570
 20
9.960370
 30
0.0
 11
17.529533
 21
10.200901
 31
0.0
  0
LINE
  5
1a1
100
AcDbEntity
  8
0
 62
1
100
AcDbLine
 10
17.529533
 20
10.200901
 30
0.0
 11
16.984167
 21
10.388759
 31
0.0
  0
LINE
  5
1a2
100
AcDbEntity
  8
0
 62
1
100
AcDbLine
 10
16.984167
 20
10.388759
 30
0.0
 11
16.426953
 21
10.524824
 31
0.0
  0
LINE
  5
1a3
100
AcDbEntity
  8
0
 62
1
100
AcDbLine
 10
16.426953
 20
10.524824
 30
0.0
 11
15.868372
 21
10.609975
 31
0.0
  0
LINE
  5
1a4
100
AcDbEntity
  8
0
 62
1
100
AcDbLine
 10
15.868372
 20
10.609975
 30
0.0
 11
15.020919
 21
10.791203
 31
0.0
  0
LINE
  5
1a5
100
AcDbEntity
  8
0
 62
1
100
AcDbLine
 10
15.020919
 20
10.791203
 30
0.0
 11
14.187746
 21
11.032951
 31
0.0
  0
LINE
  5
1a6
100
AcDbEntity
  8
0
 62
1
100
AcDbLine
 10
14.187746
 20
11.032951
 30
0.0
 11
13.378540
 21
11.343183
 31
0.0
  0
LINE
  5
1a7
100
AcDbEntity
  8
0
 62
1
100
AcDbLine
 10
13.378540
 20
11.343183
 30
0.0
 11
12.602986
 21
11.729862
 31
0.0
  0
LINE
  5
1a8
100
AcDbEntity
  8
0
 62
1
100
AcDbLine
 10
12.602986
 20
11.729862
 30
0.0
 11
13.393824
 21
11.794315
 31
0.0
  0
LINE
  5
1a9
100
AcDbEntity
  8
0
 62
1
100
AcDbLine
 10
13.393824
 20
11.794315
 30
0.0
 11
14.186840
 21
11.864126
 31
0.0
  0
LINE
  5
1aa
100
AcDbEntity
  8
0
 62
1
100
AcDbLine
 10
14.186840
 20
11.864126
 30
0.0
 11
14.972859
 21
11.972638
 31
0.0
  0
LINE
  5
1ab
100
AcDbEntity
  8
0
 62
1
100
AcDbLine
 10
14.972859
 20
11.972638
 30
0.0
 11
15.742708
 21
12.153195
 31
0.0
  0
LINE
  5
1ac
100
AcDbEntity
  8
0
 62
1
100
AcDbLine
 10
15.742708
 20
12.153195
 30
0.0
 11
15.745669
 21
12.445766
 31
0.0
  0
LINE
  5
1ad
100
AcDbEntity
  8
0
 62
1
100
AcDbLine
 10
15.745669
 20
12.445766
 30
0.0
 11
15.662443
 21
12.747961
 31
0.0
  0
LINE
  5
1ae
100
AcDbEntity
  8
0
 62
1
100
AcDbLine
 10
15.662443
 20
12.747961
 30
0.0
 11
15.553731
 21
13.053931
 31
0.0
  0
LINE
  5
1af
100
AcDbEntity
  8
0
 62
1
100
AcDbLine
 10
15.553731
 20
13.053931
 30
0.0
 11
15.480229
 21
13.357824
 31
0.0
  0
LINE
  5
1b0
100
AcDbEntity
  8
0
 62
1
100
AcDbLine
 10
15.480229
 20
13.357824
 30
0.0
 11
15.321191
 21
14.054660
 31
0.0
  0
LINE
  5
1b1
100
AcDbEntity
  8
0
 62
1
100
AcDbLine
 10
15.321191
 20
14.054660
 30
0.0
 11
15.189391
 21
14.757037
 31
0.0
  0
LINE
  5
1b2
100
AcDbEntity
  8
0
 62
1
100
AcDbLine
 10
15.189391
 20
14.757037
 30
0.0
 11
15.085626
 21
15.464067
 31
0.0
  0
LINE
  5
1b3
100
AcDbEntity
  8
0
 62
1
100
AcDbLine
 10
15.085626
 20
15.464067
 30
0.0
 11
15.010695
 21
16.174862
 31
0.0
  0
LINE
  5
1b4
100
AcDbEntity
  8
0
 62
1
100
AcDbLine
 10
15.010695
 20
16.174862
 30
0.0
 11
15.406246
 21
16.648502
 31
0.0
  0
LINE
  5
1b5
100
AcDbEntity
  8
0
 62
1
100
AcDbLine
 10
15.406246
 20
16.648502
 30
0.0
 11
15.701650
 21
17.200208
 31
0.0
  0
LINE
  5
1b6
100
AcDbEntity
  8
0
 62
1
100
AcDbLine
 10
15.701650
 20
17.200208
 30
0.0
 11
15.842332
 21
17.799203
 31
0.0
  0
LINE
  5
1b7
100
AcDbEntity
  8
0
 62
1
100
AcDbLine
 10
15.842332
 20
17.799203
 30
0.0
 11
15.773721
 21
18.414712
 31
0.0
  0
LINE
  5
1b8
100
AcDbEntity
  8
0
 62
1
100
AcDbLine
 10
15.773721
 20
18.414712
 30
0.0
 11
15.622472
 21
18.620485
 31
0.0
  0
LINE
  5
1b9
100
AcDbEntity
  8
0
 62
1
100
AcDbLine
 10
15.622472
 20
18.620485
 30
0.0
 11
15.399228
 21
18.733104
 31
0.0
  0
LINE
  5
1ba
100
AcDbEntity
  8
0
 62
1
100
AcDbLine
 10
15.399228
 20
18.733104
 30
0.0
 11
15.152630
 21
18.770384
 31
0.0
  0
LINE
  5
1bb
100
AcDbEntity
  8
0
 62
1
100
AcDbLine
 10
15.152630
 20
18.770384
 30
0.0
 11
14.931320
 21
18.750140
 31
0.0
  0
LINE
  5
1bc
100
AcDbEntity
  8
0
 62
1
100
AcDbLine
 10
14.931320
 20
18.750140
 30
0.0
 11
15.023127
 21
18.920681
 31
0.0
  0
LINE
  5
1bd
100
AcDbEntity
  8
0
 62
1
100
AcDbLine
 10
15.023127
 20
18.920681
 30
0.0
 11
15.244888
 21
18.990949
 31
0.0
  0
LINE
  5
1be
100
AcDbEntity
  8
0
 62
1
100
AcDbLine
 10
15.244888
 20
18.990949
 30
0.0
 11
15.509228
 21
19.028362
 31
0.0
  0
LINE
  5
1bf
100
AcDbEntity
  8
0
 62
1
100
AcDbLine
 10
15.509228
 20
19.028362
 30
0.0
 11
15.728772
 21
19.100339
 31
0.0
  0
LINE
  5
1c0
100
AcDbEntity
  8
0
 62
1
100
AcDbLine
 10
15.728772
 20
19.100339
 30
0.0
 11
16.830106
 21
19.438367
 31
0.0
  0
LINE
  5
1c1
100
AcDbEntity
  8
0
 62
1
100
AcDbLine
 10
16.830106
 20
19.438367
 30
0.0
 11
17.894671
 21
19.903312
 31
0.0
  0
LINE
  5
1c2
100
AcDbEntity
  8
0
 62
1
100
AcDbLine
 10
17.894671
 20
19.903312
 30
0.0
 11
18.851273
 21
20.538250
 31
0.0
  0
LINE
  5
1c3
100
AcDbEntity
  8
0
 62
1
100
AcDbLine
 10
18.851273
 20
20.538250
 30
0.0
 11
19.628721
 21
21.386256
 31
0.0
  0
LINE
  5
1c4
100
AcDbEntity
  8
0
 62
1
100
AcDbLine
 10
19.628721
 20
21.386256
 30
0.0
 11
19.905730
 21
21.976978
 31
0.0
  0
LINE
  5
1c5
100
AcDbEntity
  8
0
 62
1
100
AcDbLine
 10
19.905730
 20
21.976978
 30
0.0
 11
19.968701
 21
22.643984
 31
0.0
  0
LINE
  5
1c6
100
AcDbEntity
  8
0
 62
1
100
AcDbLine
 10
19.968701
 20
22.643984
 30
0.0
 11
19.771099
 21
23.250732
 31
0.0
  0
LINE
  5
1c7
100
AcDbEntity
  8
0
 62
1
100
AcDbLine
 10
19.771099
 20
23.250732
 30
0.0
 11
19.266385
 21
23.660684
 31
0.0
  0
LINE
  5
1c8
100
AcDbEntity
  8
0
 62
1
100
AcDbLine
 10
19.266385
 20
23.660684
 30
0.0
 11
18.393419
 21
23.718057
 31
0.0
  0
LINE
  5
1c9
100
AcDbEntity
  8
0
 62
1
100
AcDbLine
 10
18.393419
 20
23.718057
 30
0.0
 11
17.526425
 21
23.584747
 31
0.0
  0
LINE
  5
1ca
100
AcDbEntity
  8
0
 62
1
100
AcDbLine
 10
17.526425
 20
23.584747
 30
0.0
 11
16.664751
 21
23.367311
 31
0.0
  0
LINE
  5
1cb
100
AcDbEntity
  8
0
 62
1
100
AcDbLine
 10
16.664751
 20
23.367311
 30
0.0
 11
15.807744
 21
23.172309
 31
0.0
  0
LINE
  5
1cc
100
AcDbEntity
  8
0
 62
1
100
AcDbLine
 10
15.807744
 20
23.172309
 30
0.0
 11
15.523912
 21
23.107847
 31
0.0
  0
LINE
  5
1cd
100
AcDbEntity
  8
0
 62
1
100
AcDbLine
 10
15.523912
 20
23.107847
 30
0.0
 11
15.239624
 21
23.045292
 31
0.0
  0
LINE
  5
1ce
100
AcDbEntity
  8
0
 62
1
100
AcDbLine
 10
15.239624
 20
23.045292
 30
0.0
 11
14.956101
 21
22.979535
 31
0.0
  0
LINE
  5
1cf
100
AcDbEntity
  8
0
 62
1
100
AcDbLine
 10
14.956101
 20
22.979535
 30
0.0
 11
14.674566
 21
22.905466
 31
0.0
  0
LINE
  5
1d0
100
AcDbEntity
  8
0
 62
1
100
AcDbLine
 10
14.674566
 20
22.905466
 30
0.0
 11
14.646244
 21
22.982295
 31
0.0
  0
LINE
  5
1d1
100
AcDbEntity
  8
0
 62
1
100
AcDbLine
 10
14.646244
 20
22.982295
 30
0.0
 11
14.617923
 21
23.059123
 31
0.0
  0
LINE
  5
1d2
100
AcDbEntity
  8
0
 62
1
100
AcDbLine
 10
14.617923
 20
23.059123
 30
0.0
 11
14.589602
 21
23.135951
 31
0.0
  0
LINE
  5
1d3
100
AcDbEntity
  8
0
 62
1
100
AcDbLine
 10
14.589602
 20
23.135951
 30
0.0
 11
14.561280
 21
23.212778
 31
0.0
  0
SPLINE
  5
1d4
100
AcDbEntity
  8
0
 62
1
100
AcDbSpline
 70
8
 71
3
 72
8
 73
4
 74
0
 40
0
 40
0
 40
0
 40
0
 40
1
 40
1
 40
1
 40
1
 10
10.257014
 20
21.642917
 30
0.0
 10
9.824040
 20
20.991542
 30
0.0
 10
8.132595
 20
20.950965
 30
0.0
 10
8.374475
 20
21.439362
 30
0.0
  0
SPLINE
  5
1d5
100
AcDbEntity
  8
0
 62
1
100
AcDbSpline
 70
8
 71
3
 72
8
 73
4
 74
0
 40
0
 40
0
 40
0
 40
0
 40
1
 40
1
 40
1
 40
1
 10
8.374475
 20
21.439362
 30
0.0
 10
8.990675
 20
21.584520
 30
0.0
 10
9.625252
 20
21.635547
 30
0.0
 10
10.257014
 20
21.642917
 30
0.0
  0
LINE
  5
1d6
100
AcDbEntity
  8
0
 62
1
100
AcDbLine
 10
10.257014
 20
21.642917
 30
0.0
 11
10.257014
 21
21.642917
 31
0.0
  0
LINE
  5
1d7
100
AcDbEntity
  8
0
 62
1
100
AcDbLine
 10
10.645069
 20
21.634098
 30
0.0
 11
11.260767
 21
21.512194
 31
0.0
  0
LINE
  5
1d8
100
AcDbEntity
  8
0
 62
1
100
AcDbLine
 10
11.260767
 20
21.512194
 30
0.0
 11
11.017457
 21
21.133459
 31
0.0
  0
LINE
  5
1d9
100
AcDbEntity
  8
0
 62
1
100
AcDbLine
 10
11.017457
 20
21.133459
 30
0.0
 11
10.342151
 21
20.761836
 31
0.0
  0
LINE
  5
1da
100
AcDbEntity
  8
0
 62
1
100
AcDbLine
 10
10.342151
 20
20.761836
 30
0.0
 11
9.661860
 21
20.661270
 31
0.0
  0
LINE
  5
1db
100
AcDbEntity
  8
0
 62
1
100
AcDbLine
 10
9.661860
 20
20.661270
 30
0.0
 11
9.237813
 21
20.614934
 31
0.0
  0
LINE
  5
1dc
100
AcDbEntity
  8
0
 62
1
100
AcDbLine
 10
9.237813
 20
20.614934
 30
0.0
 11
8.833522
 21
20.597608
 31
0.0
  0
LINE
  5
1dd
100
AcDbEntity
  8
0
 62
1
100
AcDbLine
 10
8.833522
 20
20.597608
 30
0.0
 11
8.704218
 21
20.636647
 31
0.0
  0
LINE
  5
1de
100
AcDbEntity
  8
0
 62
1
100
AcDbLine
 10
8.704218
 20
20.636647
 30
0.0
 11
9.105135
 21
20.759406
 31
0.0
  0
LINE
  5
1df
100
AcDbEntity
  8
0
 62
1
100
AcDbLine
 10
9.105135
 20
20.759406
 30
0.0
 11
9.519619
 21
20.922612
 31
0.0
  0
LINE
  5
1e0
100
AcDbEntity
  8
0
 62
1
100
AcDbLine
 10
9.519619
 20
20.922612
 30
0.0
 11
9.920462
 21
21.118809
 31
0.0
  0
LINE
  5
1e1
100
AcDbEntity
  8
0
 62
1
100
AcDbLine
 10
9.920462
 20
21.118809
 30
0.0
 11
10.298625
 21
21.353977
 31
0.0
  0
LINE
  5
1e2
100
AcDbEntity
  8
0
 62
1
100
AcDbLine
 10
10.298625
 20
21.353977
 30
0.0
 11
10.645069
 21
21.634098
 31
0.0
  0
SPLINE
  5
1e3
100
AcDbEntity
  8
0
 62
1
100
AcDbSpline
 70
8
 71
3
 72
8
 73
4
 74
0
 40
0
 40
0
 40
0
 40
0
 40
1
 40
1
 40
1
 40
1
 10
11.624028
 20
21.572362
 30
0.0
 10
12.798071
 20
21.626964
 30
0.0
 10
10.755609
 20
20.540567
 30
0.0
 10
11.590033
 20
21.426151
 30
0.0
  0
LINE
  5
1e4
100
AcDbEntity
  8
0
 62
1
100
AcDbLine
 10
11.590033
 20
21.426151
 30
0.0
 11
11.624028
 21
21.572362
 31
0.0
  0
SPLINE
  5
1e5
100
AcDbEntity
  8
0
 62
1
100
AcDbSpline
 70
8
 71
3
 72
8
 73
4
 74
0
 40
0
 40
0
 40
0
 40
0
 40
1
 40
1
 40
1
 40
1
 10
12.320764
 20
21.448889
 30
0.0
 10
13.187606
 20
21.396190
 30
0.0
 10
12.747062
 20
20.944732
 30
0.0
 10
12.173859
 20
20.562173
 30
0.0
  0
SPLINE
  5
1e6
100
AcDbEntity
  8
0
 62
1
100
AcDbSpline
 70
8
 71
3
 72
8
 73
4
 74
0
 40
0
 40
0
 40
0
 40
0
 40
1
 40
1
 40
1
 40
1
 10
12.173859
 20
20.562173
 30
0.0
 10
11.652975
 20
20.214532
 30
0.0
 10
11.022544
 20
19.923787
 30
0.0
 10
11.164090
 20
20.040872
 30
0.0
  0
SPLINE
  5
1e7
100
AcDbEntity
  8
0
 62
1
100
AcDbSpline
 70
8
 71
3
 72
8
 73
4
 74
0
 40
0
 40
0
 40
0
 40
0
 40
1
 40
1
 40
1
 40
1
 10
11.164090
 20
20.040872
 30
0.0
 10
11.612695
 20
20.452507
 30
0.0
 10
12.015589
 20
20.920400
 30
0.0
 10
12.320764
 20
21.448889
 30
0.0
  0
LINE
  5
1e8
100
AcDbEntity
  8
0
 62
1
100
AcDbLine
 10
12.320764
 20
21.448889
 30
0.0
 11
12.320764
 21
21.448889
 31
0.0
  0
SPLINE
  5
1e9
100
AcDbEntity
  8
0
 62
1
100
AcDbSpline
 70
8
 71
3
 72
8
 73
4
 74
0
 40
0
 40
0
 40
0
 40
0
 40
1
 40
1
 40
1
 40
1
 10
7.752292
 20
21.246042
 30
0.0
 10
8.254477
 20
21.025198
 30
0.0
 10
8.965875
 20
20.819306
 30
0.0
 10
8.016672
 20
20.758616
 30
0.0
  0
SPLINE
  5
1ea
100
AcDbEntity
  8
0
 62
1
100
AcDbSpline
 70
8
 71
3
 72
8
 73
4
 74
0
 40
0
 40
0
 40
0
 40
0
 40
1
 40
1
 40
1
 40
1
 10
8.016672
 20
20.758616
 30
0.0
 10
7.358067
 20
20.733625
 30
0.0
 10
6.695220
 20
20.953610
 30
0.0
 10
7.752292
 20
21.246042
 30
0.0
  0
LINE
  5
1eb
100
AcDbEntity
  8
0
 62
1
100
AcDbLine
 10
7.752292
 20
21.246042
 30
0.0
 11
7.752292
 21
21.246042
 31
0.0
  0
LINE
  5
1ec
100
AcDbEntity
  8
0
 62
1
100
AcDbLine
 10
13.211528
 20
21.157848
 30
0.0
 11
13.632507
 21
20.474830
 31
0.0
  0
LINE
  5
1ed
100
AcDbEntity
  8
0
 62
1
100
AcDbLine
 10
13.632507
 20
20.474830
 30
0.0
 11
13.957957
 21
19.650368
 31
0.0
  0
LINE
  5
1ee
100
AcDbEntity
  8
0
 62
1
100
AcDbLine
 10
13.957957
 20
19.650368
 30
0.0
 11
14.157138
 21
18.766052
 31
0.0
  0
LINE
  5
1ef
100
AcDbEntity
  8
0
 62
1
100
AcDbLine
 10
14.157138
 20
18.766052
 30
0.0
 11
14.199306
 21
17.903473
 31
0.0
  0
LINE
  5
1f0
100
AcDbEntity
  8
0
 62
1
100
AcDbLine
 10
14.199306
 20
17.903473
 30
0.0
 11
14.332586
 21
17.688515
 31
0.0
  0
LINE
  5
1f1
100
AcDbEntity
  8
0
 62
1
100
AcDbLine
 10
14.332586
 20
17.688515
 30
0.0
 11
14.694874
 21
18.144230
 31
0.0
  0
LINE
  5
1f2
100
AcDbEntity
  8
0
 62
1
100
AcDbLine
 10
14.694874
 20
18.144230
 30
0.0
 11
15.156332
 21
18.544656
 31
0.0
  0
LINE
  5
1f3
100
AcDbEntity
  8
0
 62
1
100
AcDbLine
 10
15.156332
 20
18.544656
 30
0.0
 11
15.587122
 21
18.163827
 31
0.0
  0
LINE
  5
1f4
100
AcDbEntity
  8
0
 62
1
100
AcDbLine
 10
15.587122
 20
18.163827
 30
0.0
 11
15.519714
 21
17.345882
 31
0.0
  0
LINE
  5
1f5
100
AcDbEntity
  8
0
 62
1
100
AcDbLine
 10
15.519714
 20
17.345882
 30
0.0
 11
15.096534
 21
16.706421
 31
0.0
  0
LINE
  5
1f6
100
AcDbEntity
  8
0
 62
1
100
AcDbLine
 10
15.096534
 20
16.706421
 30
0.0
 11
14.517142
 21
16.170689
 31
0.0
  0
LINE
  5
1f7
100
AcDbEntity
  8
0
 62
1
100
AcDbLine
 10
14.517142
 20
16.170689
 30
0.0
 11
13.981096
 21
15.663927
 31
0.0
  0
LINE
  5
1f8
100
AcDbEntity
  8
0
 62
1
100
AcDbLine
 10
13.981096
 20
15.663927
 30
0.0
 11
13.614142
 21
14.729839
 31
0.0
  0
LINE
  5
1f9
100
AcDbEntity
  8
0
 62
1
100
AcDbLine
 10
13.614142
 20
14.729839
 30
0.0
 11
13.071223
 21
13.899265
 31
0.0
  0
LINE
  5
1fa
100
AcDbEntity
  8
0
 62
1
100
AcDbLine
 10
13.071223
 20
13.899265
 30
0.0
 11
12.348352
 21
13.233635
 31
0.0
  0
LINE
  5
1fb
100
AcDbEntity
  8
0
 62
1
100
AcDbLine
 10
12.348352
 20
13.233635
 30
0.0
 11
11.441543
 21
12.794383
 31
0.0
  0
LINE
  5
1fc
100
AcDbEntity
  8
0
 62
1
100
AcDbLine
 10
11.441543
 20
12.794383
 30
0.0
 11
10.481234
 21
12.464949
 31
0.0
  0
LINE
  5
1fd
100
AcDbEntity
  8
0
 62
1
100
AcDbLine
 10
10.481234
 20
12.464949
 30
0.0
 11
9.502003
 21
12.648135
 31
0.0
  0
LINE
  5
1fe
100
AcDbEntity
  8
0
 62
1
100
AcDbLine
 10
9.502003
 20
12.648135
 30
0.0
 11
8.570133
 21
13.139266
 31
0.0
  0
LINE
  5
1ff
100
AcDbEntity
  8
0
 62
1
100
AcDbLine
 10
8.570133
 20
13.139266
 30
0.0
 11
7.751910
 21
13.733663
 31
0.0
  0
LINE
  5
200
100
AcDbEntity
  8
0
 62
1
100
AcDbLine
 10
7.751910
 20
13.733663
 30
0.0
 11
7.298284
 21
14.321344
 31
0.0
  0
LINE
  5
201
100
AcDbEntity
  8
0
 62
1
100
AcDbLine
 10
7.298284
 20
14.321344
 30
0.0
 11
7.016305
 21
15.037723
 31
0.0
  0
LINE
  5
202
100
AcDbEntity
  8
0
 62
1
100
AcDbLine
 10
7.016305
 20
15.037723
 30
0.0
 11
6.708759
 21
15.702597
 31
0.0
  0
LINE
  5
203
100
AcDbEntity
  8
0
 62
1
100
AcDbLine
 10
6.708759
 20
15.702597
 30
0.0
 11
6.178431
 21
16.135758
 31
0.0
  0
LINE
  5
204
100
AcDbEntity
  8
0
 62
1
100
AcDbLine
 10
6.178431
 20
16.135758
 30
0.0
 11
5.517746
 21
16.716232
 31
0.0
  0
LINE
  5
205
100
AcDbEntity
  8
0
 62
1
100
AcDbLine
 10
5.517746
 20
16.716232
 30
0.0
 11
5.178155
 21
17.661064
 31
0.0
  0
LINE
  5
206
100
AcDbEntity
  8
0
 62
1
100
AcDbLine
 10
5.178155
 20
17.661064
 30
0.0
 11
5.307431
 21
18.358932
 31
0.0
  0
LINE
  5
207
100
AcDbEntity
  8
0
 62
1
100
AcDbLine
 10
5.307431
 20
18.358932
 30
0.0
 11
6.053347
 21
18.198512
 31
0.0
  0
LINE
  5
208
100
AcDbEntity
  8
0
 62
1
100
AcDbLine
 10
6.053347
 20
18.198512
 30
0.0
 11
6.247356
 21
17.793836
 31
0.0
  0
LINE
  5
209
100
AcDbEntity
  8
0
 62
1
100
AcDbLine
 10
6.247356
 20
17.793836
 30
0.0
 11
6.453069
 21
17.651644
 31
0.0
  0
LINE
  5
20a
100
AcDbEntity
  8
0
 62
1
100
AcDbLine
 10
6.453069
 20
17.651644
 30
0.0
 11
6.565027
 21
17.784771
 31
0.0
  0
LINE
  5
20b
100
AcDbEntity
  8
0
 62
1
100
AcDbLine
 10
6.565027
 20
17.784771
 30
0.0
 11
6.477776
 21
18.206050
 31
0.0
  0
LINE
  5
20c
100
AcDbEntity
  8
0
 62
1
100
AcDbLine
 10
6.477776
 20
18.206050
 30
0.0
 11
6.640254
 21
19.251646
 31
0.0
  0
LINE
  5
20d
100
AcDbEntity
  8
0
 62
1
100
AcDbLine
 10
6.640254
 20
19.251646
 30
0.0
 11
7.287490
 21
19.996800
 31
0.0
  0
LINE
  5
20e
100
AcDbEntity
  8
0
 62
1
100
AcDbLine
 10
7.287490
 20
19.996800
 30
0.0
 11
8.229704
 21
20.381610
 31
0.0
  0
LINE
  5
20f
100
AcDbEntity
  8
0
 62
1
100
AcDbLine
 10
8.229704
 20
20.381610
 30
0.0
 11
9.277114
 21
20.346174
 31
0.0
  0
LINE
  5
210
100
AcDbEntity
  8
0
 62
1
100
AcDbLine
 10
9.277114
 20
20.346174
 30
0.0
 11
9.886262
 21
20.405919
 31
0.0
  0
LINE
  5
211
100
AcDbEntity
  8
0
 62
1
100
AcDbLine
 10
9.886262
 20
20.405919
 30
0.0
 11
10.615157
 21
20.595521
 31
0.0
  0
LINE
  5
212
100
AcDbEntity
  8
0
 62
1
100
AcDbLine
 10
10.615157
 20
20.595521
 30
0.0
 11
11.209726
 21
20.739881
 31
0.0
  0
LINE
  5
213
100
AcDbEntity
  8
0
 62
1
100
AcDbLine
 10
11.209726
 20
20.739881
 30
0.0
 11
11.415898
 21
20.663899
 31
0.0
  0
LINE
  5
214
100
AcDbEntity
  8
0
 62
1
100
AcDbLine
 10
11.415898
 20
20.663899
 30
0.0
 11
10.983092
 21
20.253273
 31
0.0
  0
LINE
  5
215
100
AcDbEntity
  8
0
 62
1
100
AcDbLine
 10
10.983092
 20
20.253273
 30
0.0
 11
10.401673
 21
19.770445
 31
0.0
  0
LINE
  5
216
100
AcDbEntity
  8
0
 62
1
100
AcDbLine
 10
10.401673
 20
19.770445
 30
0.0
 11
10.141144
 21
19.441367
 31
0.0
  0
LINE
  5
217
100
AcDbEntity
  8
0
 62
1
100
AcDbLine
 10
10.141144
 20
19.441367
 30
0.0
 11
10.671011
 21
19.491992
 31
0.0
  0
LINE
  5
218
100
AcDbEntity
  8
0
 62
1
100
AcDbLine
 10
10.671011
 20
19.491992
 30
0.0
 11
11.376373
 21
19.791924
 31
0.0
  0
LINE
  5
219
100
AcDbEntity
  8
0
 62
1
100
AcDbLine
 10
11.376373
 20
19.791924
 30
0.0
 11
12.048220
 21
20.165562
 31
0.0
  0
LINE
  5
21a
100
AcDbEntity
  8
0
 62
1
100
AcDbLine
 10
12.048220
 20
20.165562
 30
0.0
 11
12.666592
 21
20.618878
 31
0.0
  0
LINE
  5
21b
100
AcDbEntity
  8
0
 62
1
100
AcDbLine
 10
12.666592
 20
20.618878
 30
0.0
 11
13.211528
 21
21.157848
 31
0.0
  0
SPLINE
  5
21c
100
AcDbEntity
  8
0
 62
1
100
AcDbSpline
 70
8
 71
3
 72
8
 73
4
 74
0
 40
0
 40
0
 40
0
 40
0
 40
1
 40
1
 40
1
 40
1
 10
13.864167
 20
20.769792
 30
0.0
 10
14.539986
 20
20.273155
 30
0.0
 10
14.997859
 20
19.116197
 30
0.0
 10
14.499167
 20
18.406181
 30
0.0
  0
SPLINE
  5
21d
100
AcDbEntity
  8
0
 62
1
100
AcDbSpline
 70
8
 71
3
 72
8
 73
4
 74
0
 40
0
 40
0
 40
0
 40
0
 40
1
 40
1
 40
1
 40
1
 10
14.499167
 20
18.406181
 30
0.0
 10
14.483072
 20
19.233803
 30
0.0
 10
13.953945
 20
19.947270
 30
0.0
 10
13.864167
 20
20.769792
 30
0.0
  0
LINE
  5
21e
100
AcDbEntity
  8
0
 62
1
100
AcDbLine
 10
13.864167
 20
20.769792
 30
0.0
 11
13.864167
 21
20.769792
 31
0.0
  0
SPLINE
  5
21f
100
AcDbEntity
  8
0
 62
1
100
AcDbSpline
 70
8
 71
3
 72
8
 73
4
 74
0
 40
0
 40
0
 40
0
 40
0
 40
1
 40
1
 40
1
 40
1
 10
6.861528
 20
20.752153
 30
0.0
 10
7.520538
 20
20.537389
 30
0.0
 10
7.737119
 20
20.488548
 30
0.0
 10
6.985704
 20
20.468907
 30
0.0
  0
SPLINE
  5
220
100
AcDbEntity
  8
0
 62
1
100
AcDbSpline
 70
8
 71
3
 72
8
 73
4
 74
0
 40
0
 40
0
 40
0
 40
0
 40
1
 40
1
 40
1
 40
1
 10
6.985704
 20
20.468907
 30
0.0
 10
6.585621
 20
20.398007
 30
0.0
 10
6.362540
 20
20.443016
 30
0.0
 10
6.861528
 20
20.752153
 30
0.0
  0
LINE
  5
221
100
AcDbEntity
  8
0
 62
1
100
AcDbLine
 10
6.861528
 20
20.752153
 30
0.0
 11
6.861528
 21
20.752153
 31
0.0
  0
SPLINE
  5
222
100
AcDbEntity
  8
0
 62
1
100
AcDbSpline
 70
8
 71
3
 72
8
 73
4
 74
0
 40
0
 40
0
 40
0
 40
0
 40
1
 40
1
 40
1
 40
1
 10
7.090833
 20
20.222987
 30
0.0
 10
6.415591
 20
19.957489
 30
0.0
 10
6.339558
 20
18.592215
 30
0.0
 10
6.103832
 20
18.521857
 30
0.0
  0
SPLINE
  5
223
100
AcDbEntity
  8
0
 62
1
100
AcDbSpline
 70
8
 71
3
 72
8
 73
4
 74
0
 40
0
 40
0
 40
0
 40
0
 40
1
 40
1
 40
1
 40
1
 10
6.103832
 20
18.521857
 30
0.0
 10
5.641939
 20
18.894216
 30
0.0
 10
5.992153
 20
20.355610
 30
0.0
 10
6.785327
 20
20.198958
 30
0.0
  0
SPLINE
  5
224
100
AcDbEntity
  8
0
 62
1
100
AcDbSpline
 70
8
 71
3
 72
8
 73
4
 74
0
 40
0
 40
0
 40
0
 40
0
 40
1
 40
1
 40
1
 40
1
 10
6.785327
 20
20.198958
 30
0.0
 10
6.887162
 20
20.206967
 30
0.0
 10
6.988998
 20
20.214977
 30
0.0
 10
7.090833
 20
20.222986
 30
0.0
  0
LINE
  5
225
100
AcDbEntity
  8
0
 62
1
100
AcDbLine
 10
7.090833
 20
20.222986
 30
0.0
 11
7.090833
 21
20.222987
 31
0.0
  0
LINE
  5
226
100
AcDbEntity
  8
0
 62
1
100
AcDbLine
 10
8.316736
 20
18.379723
 30
0.0
 11
7.408440
 21
18.088221
 31
0.0
  0
LINE
  5
227
100
AcDbEntity
  8
0
 62
1
100
AcDbLine
 10
7.408440
 20
18.088221
 30
0.0
 11
7.425947
 21
17.712844
 31
0.0
  0
LINE
  5
228
100
AcDbEntity
  8
0
 62
1
100
AcDbLine
 10
7.425947
 20
17.712844
 30
0.0
 11
8.352013
 21
18.115141
 31
0.0
  0
LINE
  5
229
100
AcDbEntity
  8
0
 62
1
100
AcDbLine
 10
8.352013
 20
18.115141
 30
0.0
 11
8.688444
 21
17.466556
 31
0.0
  0
LINE
  5
22a
100
AcDbEntity
  8
0
 62
1
100
AcDbLine
 10
8.688444
 20
17.466556
 30
0.0
 11
9.119128
 21
17.900333
 31
0.0
  0
LINE
  5
22b
100
AcDbEntity
  8
0
 62
1
100
AcDbLine
 10
9.119128
 20
17.900333
 30
0.0
 11
9.210486
 21
18.152394
 31
0.0
  0
LINE
  5
22c
100
AcDbEntity
  8
0
 62
1
100
AcDbLine
 10
9.210486
 20
18.152394
 30
0.0
 11
8.316736
 21
18.379723
 31
0.0
  0
LINE
  5
22d
100
AcDbEntity
  8
0
 62
1
100
AcDbLine
 10
12.179653
 20
18.379723
 30
0.0
 11
11.160100
 21
17.626011
 31
0.0
  0
LINE
  5
22e
100
AcDbEntity
  8
0
 62
1
100
AcDbLine
 10
11.160100
 20
17.626011
 30
0.0
 11
11.976806
 21
18.079862
 31
0.0
  0
LINE
  5
22f
100
AcDbEntity
  8
0
 62
1
100
AcDbLine
 10
11.976806
 20
18.079862
 30
0.0
 11
12.492249
 21
17.531117
 31
0.0
  0
LINE
  5
230
100
AcDbEntity
  8
0
 62
1
100
AcDbLine
 10
12.492249
 20
17.531117
 30
0.0
 11
12.662881
 21
18.048216
 31
0.0
  0
LINE
  5
231
100
AcDbEntity
  8
0
 62
1
100
AcDbLine
 10
12.662881
 20
18.048216
 30
0.0
 11
13.445243
 21
17.755751
 31
0.0
  0
LINE
  5
232
100
AcDbEntity
  8
0
 62
1
100
AcDbLine
 10
13.445243
 20
17.755751
 30
0.0
 11
13.226963
 21
18.011510
 31
0.0
  0
LINE
  5
233
100
AcDbEntity
  8
0
 62
1
100
AcDbLine
 10
13.226963
 20
18.011510
 30
0.0
 11
12.751041
 21
18.301147
 31
0.0
  0
LINE
  5
234
100
AcDbEntity
  8
0
 62
1
100
AcDbLine
 10
12.751041
 20
18.301147
 30
0.0
 11
12.179653
 21
18.379723
 31
0.0
  0
SPLINE
  5
235
100
AcDbEntity
  8
0
 62
1
100
AcDbSpline
 70
8
 71
3
 72
8
 73
4
 74
0
 40
0
 40
0
 40
0
 40
0
 40
1
 40
1
 40
1
 40
1
 10
5.617986
 20
18.203334
 30
0.0
 10
5.585112
 20
17.917313
 30
0.0
 10
5.927694
 20
16.961816
 30
0.0
 10
6.215554
 20
16.885365
 30
0.0
  0
SPLINE
  5
236
100
AcDbEntity
  8
0
 62
1
100
AcDbSpline
 70
8
 71
3
 72
8
 73
4
 74
0
 40
0
 40
0
 40
0
 40
0
 40
1
 40
1
 40
1
 40
1
 10
6.215554
 20
16.885365
 30
0.0
 10
6.214115
 20
17.335009
 30
0.0
 10
6.079168
 20
18.020113
 30
0.0
 10
5.617986
 20
18.203334
 30
0.0
  0
LINE
  5
237
100
AcDbEntity
  8
0
 62
1
100
AcDbLine
 10
5.617986
 20
18.203334
 30
0.0
 11
5.617986
 21
18.203334
 31
0.0
  0
SPLINE
  5
238
100
AcDbEntity
  8
0
 62
1
100
AcDbSpline
 70
8
 71
3
 72
8
 73
4
 74
0
 40
0
 40
0
 40
0
 40
0
 40
1
 40
1
 40
1
 40
1
 10
15.054792
 20
18.203334
 30
0.0
 10
14.365577
 20
18.032631
 30
0.0
 10
14.470325
 20
16.009469
 30
0.0
 10
14.816667
 20
17.365487
 30
0.0
  0
SPLINE
  5
239
100
AcDbEntity
  8
0
 62
1
100
AcDbSpline
 70
8
 71
3
 72
8
 73
4
 74
0
 40
0
 40
0
 40
0
 40
0
 40
1
 40
1
 40
1
 40
1
 10
14.816667
 20
17.365487
 30
0.0
 10
14.702617
 20
17.646049
 30
0.0
 10
15.494567
 20
18.098190
 30
0.0
 10
15.054792
 20
18.203334
 30
0.0
  0
LINE
  5
23a
100
AcDbEntity
  8
0
 62
1
100
AcDbLine
 10
15.054792
 20
18.203334
 30
0.0
 11
15.054792
 21
18.203334
 31
0.0
  0
LINE
  5
23b
100
AcDbEntity
  8
0
 62
1
100
AcDbLine
 10
9.842500
 20
15.875001
 30
0.0
 11
9.893007
 21
15.603225
 31
0.0
  0
LINE
  5
23c
100
AcDbEntity
  8
0
 62
1
100
AcDbLine
 10
9.893007
 20
15.603225
 30
0.0
 11
10.863351
 21
15.609361
 31
0.0
  0
LINE
  5
23d
100
AcDbEntity
  8
0
 62
1
100
AcDbLine
 10
10.863351
 20
15.609361
 30
0.0
 11
10.719506
 21
15.822260
 31
0.0
  0
LINE
  5
23e
100
AcDbEntity
  8
0
 62
1
100
AcDbLine
 10
10.719506
 20
15.822260
 30
0.0
 11
9.842500
 21
15.875001
 31
0.0
  0
LINE
  5
23f
100
AcDbEntity
  8
0
 62
1
100
AcDbLine
 10
8.748889
 20
14.878403
 30
0.0
 11
8.728961
 21
14.631833
 31
0.0
  0
LINE
  5
240
100
AcDbEntity
  8
0
 62
1
100
AcDbLine
 10
8.728961
 20
14.631833
 30
0.0
 11
9.053737
 21
14.439558
 31
0.0
  0
LINE
  5
241
100
AcDbEntity
  8
0
 62
1
100
AcDbLine
 10
9.053737
 20
14.439558
 30
0.0
 11
9.925181
 21
13.772054
 31
0.0
  0
LINE
  5
242
100
AcDbEntity
  8
0
 62
1
100
AcDbLine
 10
9.925181
 20
13.772054
 30
0.0
 11
10.962598
 21
13.838159
 31
0.0
  0
LINE
  5
243
100
AcDbEntity
  8
0
 62
1
100
AcDbLine
 10
10.962598
 20
13.838159
 30
0.0
 11
11.526478
 21
14.283432
 31
0.0
  0
LINE
  5
244
100
AcDbEntity
  8
0
 62
1
100
AcDbLine
 10
11.526478
 20
14.283432
 30
0.0
 11
12.101280
 21
14.703512
 31
0.0
  0
LINE
  5
245
100
AcDbEntity
  8
0
 62
1
100
AcDbLine
 10
12.101280
 20
14.703512
 30
0.0
 11
11.794047
 21
14.861715
 31
0.0
  0
LINE
  5
246
100
AcDbEntity
  8
0
 62
1
100
AcDbLine
 10
11.794047
 20
14.861715
 30
0.0
 11
11.350814
 21
14.843362
 31
0.0
  0
LINE
  5
247
100
AcDbEntity
  8
0
 62
1
100
AcDbLine
 10
11.350814
 20
14.843362
 30
0.0
 11
10.655573
 21
14.827990
 31
0.0
  0
LINE
  5
248
100
AcDbEntity
  8
0
 62
1
100
AcDbLine
 10
10.655573
 20
14.827990
 30
0.0
 11
9.974559
 21
14.866612
 31
0.0
  0
LINE
  5
249
100
AcDbEntity
  8
0
 62
1
100
AcDbLine
 10
9.974559
 20
14.866612
 30
0.0
 11
9.359489
 21
14.841336
 31
0.0
  0
LINE
  5
24a
100
AcDbEntity
  8
0
 62
1
100
AcDbLine
 10
9.359489
 20
14.841336
 30
0.0
 11
8.748889
 21
14.878403
 31
0.0
  0
LINE
  5
24b
100
AcDbEntity
  8
0
 62
1
100
AcDbLine
 10
12.250208
 20
12.902848
 30
0.0
 11
12.171596
 21
12.285586
 31
0.0
  0
LINE
  5
24c
100
AcDbEntity
  8
0
 62
1
100
AcDbLine
 10
12.171596
 20
12.285586
 30
0.0
 11
12.149769
 21
11.652070
 31
0.0
  0
LINE
  5
24d
100
AcDbEntity
  8
0
 62
1
100
AcDbLine
 10
12.149769
 20
11.652070
 30
0.0
 11
12.231860
 21
11.033855
 31
0.0
  0
LINE
  5
24e
100
AcDbEntity
  8
0
 62
1
100
AcDbLine
 10
12.231860
 20
11.033855
 30
0.0
 11
12.465003
 21
10.462500
 31
0.0
  0
LINE
  5
24f
100
AcDbEntity
  8
0
 62
1
100
AcDbLine
 10
12.465003
 20
10.462500
 30
0.0
 11
12.619779
 21
10.500954
 31
0.0
  0
LINE
  5
250
100
AcDbEntity
  8
0
 62
1
100
AcDbLine
 10
12.619779
 20
10.500954
 30
0.0
 11
12.628974
 21
10.637294
 31
0.0
  0
LINE
  5
251
100
AcDbEntity
  8
0
 62
1
100
AcDbLine
 10
12.628974
 20
10.637294
 30
0.0
 11
12.567534
 21
10.811835
 31
0.0
  0
LINE
  5
252
100
AcDbEntity
  8
0
 62
1
100
AcDbLine
 10
12.567534
 20
10.811835
 30
0.0
 11
12.510407
 21
10.964893
 31
0.0
  0
LINE
  5
253
100
AcDbEntity
  8
0
 62
1
100
AcDbLine
 10
12.510407
 20
10.964893
 30
0.0
 11
12.587689
 21
10.911750
 31
0.0
  0
LINE
  5
254
100
AcDbEntity
  8
0
 62
1
100
AcDbLine
 10
12.587689
 20
10.911750
 30
0.0
 11
12.701725
 21
10.768306
 31
0.0
  0
LINE
  5
255
100
AcDbEntity
  8
0
 62
1
100
AcDbLine
 10
12.701725
 20
10.768306
 30
0.0
 11
12.822149
 21
10.590915
 31
0.0
  0
LINE
  5
256
100
AcDbEntity
  8
0
 62
1
100
AcDbLine
 10
12.822149
 20
10.590915
 30
0.0
 11
12.918595
 21
10.435926
 31
0.0
  0
LINE
  5
257
100
AcDbEntity
  8
0
 62
1
100
AcDbLine
 10
12.918595
 20
10.435926
 30
0.0
 11
13.259978
 21
9.682789
 31
0.0
  0
LINE
  5
258
100
AcDbEntity
  8
0
 62
1
100
AcDbLine
 10
13.259978
 20
9.682789
 30
0.0
 11
13.484822
 21
8.879987
 31
0.0
  0
LINE
  5
259
100
AcDbEntity
  8
0
 62
1
100
AcDbLine
 10
13.484822
 20
8.879987
 30
0.0
 11
13.566029
 21
8.055093
 31
0.0
  0
LINE
  5
25a
100
AcDbEntity
  8
0
 62
1
100
AcDbLine
 10
13.566029
 20
8.055093
 30
0.0
 11
13.476501
 21
7.235685
 31
0.0
  0
LINE
  5
25b
100
AcDbEntity
  8
0
 62
1
100
AcDbLine
 10
13.476501
 20
7.235685
 30
0.0
 11
12.918453
 21
6.545025
 31
0.0
  0
LINE
  5
25c
100
AcDbEntity
  8
0
 62
1
100
AcDbLine
 10
12.918453
 20
6.545025
 30
0.0
 11
12.126638
 21
6.122994
 31
0.0
  0
LINE
  5
25d
100
AcDbEntity
  8
0
 62
1
100
AcDbLine
 10
12.126638
 20
6.122994
 30
0.0
 11
11.281602
 21
5.771268
 31
0.0
  0
LINE
  5
25e
100
AcDbEntity
  8
0
 62
1
100
AcDbLine
 10
11.281602
 20
5.771268
 30
0.0
 11
10.563888
 21
5.291523
 31
0.0
  0
LINE
  5
25f
100
AcDbEntity
  8
0
 62
1
100
AcDbLine
 10
10.563888
 20
5.291523
 30
0.0
 11
10.568440
 21
5.896144
 31
0.0
  0
LINE
  5
260
100
AcDbEntity
  8
0
 62
1
100
AcDbLine
 10
10.568440
 20
5.896144
 30
0.0
 11
10.723877
 21
6.476748
 31
0.0
  0
LINE
  5
261
100
AcDbEntity
  8
0
 62
1
100
AcDbLine
 10
10.723877
 20
6.476748
 30
0.0
 11
11.003835
 21
7.011661
 31
0.0
  0
LINE
  5
262
100
AcDbEntity
  8
0
 62
1
100
AcDbLine
 10
11.003835
 20
7.011661
 30
0.0
 11
11.381945
 21
7.479214
 31
0.0
  0
LINE
  5
263
100
AcDbEntity
  8
0
 62
1
100
AcDbLine
 10
11.381945
 20
7.479214
 30
0.0
 11
11.282985
 21
7.618668
 31
0.0
  0
LINE
  5
264
100
AcDbEntity
  8
0
 62
1
100
AcDbLine
 10
11.282985
 20
7.618668
 30
0.0
 11
11.133721
 21
7.561737
 31
0.0
  0
LINE
  5
265
100
AcDbEntity
  8
0
 62
1
100
AcDbLine
 10
11.133721
 20
7.561737
 30
0.0
 11
10.980481
 21
7.409801
 31
0.0
  0
LINE
  5
266
100
AcDbEntity
  8
0
 62
1
100
AcDbLine
 10
10.980481
 20
7.409801
 30
0.0
 11
10.869592
 21
7.264239
 31
0.0
  0
LINE
  5
267
100
AcDbEntity
  8
0
 62
1
100
AcDbLine
 10
10.869592
 20
7.264239
 30
0.0
 11
10.728076
 21
7.062370
 31
0.0
  0
LINE
  5
268
100
AcDbEntity
  8
0
 62
1
100
AcDbLine
 10
10.728076
 20
7.062370
 30
0.0
 11
10.604478
 21
6.849058
 31
0.0
  0
LINE
  5
269
100
AcDbEntity
  8
0
 62
1
100
AcDbLine
 10
10.604478
 20
6.849058
 30
0.0
 11
10.499980
 21
6.625801
 31
0.0
  0
LINE
  5
26a
100
AcDbEntity
  8
0
 62
1
100
AcDbLine
 10
10.499980
 20
6.625801
 30
0.0
 11
10.415765
 21
6.394098
 31
0.0
  0
LINE
  5
26b
100
AcDbEntity
  8
0
 62
1
100
AcDbLine
 10
10.415765
 20
6.394098
 30
0.0
 11
10.334767
 21
6.599128
 31
0.0
  0
LINE
  5
26c
100
AcDbEntity
  8
0
 62
1
100
AcDbLine
 10
10.334767
 20
6.599128
 30
0.0
 11
10.251310
 21
6.822328
 31
0.0
  0
LINE
  5
26d
100
AcDbEntity
  8
0
 62
1
100
AcDbLine
 10
10.251310
 20
6.822328
 30
0.0
 11
10.137759
 21
7.015356
 31
0.0
  0
LINE
  5
26e
100
AcDbEntity
  8
0
 62
1
100
AcDbLine
 10
10.137759
 20
7.015356
 30
0.0
 11
9.966479
 21
7.129871
 31
0.0
  0
LINE
  5
26f
100
AcDbEntity
  8
0
 62
1
100
AcDbLine
 10
9.966479
 20
7.129871
 30
0.0
 11
9.876163
 21
6.986888
 31
0.0
  0
LINE
  5
270
100
AcDbEntity
  8
0
 62
1
100
AcDbLine
 10
9.876163
 20
6.986888
 30
0.0
 11
9.942194
 21
6.814809
 31
0.0
  0
LINE
  5
271
100
AcDbEntity
  8
0
 62
1
100
AcDbLine
 10
9.942194
 20
6.814809
 30
0.0
 11
10.060426
 21
6.631751
 31
0.0
  0
LINE
  5
272
100
AcDbEntity
  8
0
 62
1
100
AcDbLine
 10
10.060426
 20
6.631751
 30
0.0
 11
10.126711
 21
6.455831
 31
0.0
  0
LINE
  5
273
100
AcDbEntity
  8
0
 62
1
100
AcDbLine
 10
10.126711
 20
6.455831
 30
0.0
 11
10.216647
 21
6.169150
 31
0.0
  0
LINE
  5
274
100
AcDbEntity
  8
0
 62
1
100
AcDbLine
 10
10.216647
 20
6.169150
 30
0.0
 11
10.272291
 21
5.873775
 31
0.0
  0
LINE
  5
275
100
AcDbEntity
  8
0
 62
1
100
AcDbLine
 10
10.272291
 20
5.873775
 30
0.0
 11
10.292114
 21
5.573978
 31
0.0
  0
LINE
  5
276
100
AcDbEntity
  8
0
 62
1
100
AcDbLine
 10
10.292114
 20
5.573978
 30
0.0
 11
10.274594
 21
5.274028
 31
0.0
  0
LINE
  5
277
100
AcDbEntity
  8
0
 62
1
100
AcDbLine
 10
10.274594
 20
5.274028
 30
0.0
 11
9.544351
 21
5.779117
 31
0.0
  0
LINE
  5
278
100
AcDbEntity
  8
0
 62
1
100
AcDbLine
 10
9.544351
 20
5.779117
 30
0.0
 11
8.700129
 21
6.130357
 31
0.0
  0
LINE
  5
279
100
AcDbEntity
  8
0
 62
1
100
AcDbLine
 10
8.700129
 20
6.130357
 30
0.0
 11
7.913327
 21
6.543804
 31
0.0
  0
LINE
  5
27a
100
AcDbEntity
  8
0
 62
1
100
AcDbLine
 10
7.913327
 20
6.543804
 30
0.0
 11
7.355340
 21
7.235512
 31
0.0
  0
LINE
  5
27b
100
AcDbEntity
  8
0
 62
1
100
AcDbLine
 10
7.355340
 20
7.235512
 30
0.0
 11
7.264998
 21
8.070295
 31
0.0
  0
LINE
  5
27c
100
AcDbEntity
  8
0
 62
1
100
AcDbLine
 10
7.264998
 20
8.070295
 30
0.0
 11
7.347388
 21
8.911600
 31
0.0
  0
LINE
  5
27d
100
AcDbEntity
  8
0
 62
1
100
AcDbLine
 10
7.347388
 20
8.911600
 30
0.0
 11
7.579871
 21
9.728436
 31
0.0
  0
LINE
  5
27e
100
AcDbEntity
  8
0
 62
1
100
AcDbLine
 10
7.579871
 20
9.728436
 30
0.0
 11
7.939811
 21
10.489813
 31
0.0
  0
LINE
  5
27f
100
AcDbEntity
  8
0
 62
1
100
AcDbLine
 10
7.939811
 20
10.489813
 30
0.0
 11
8.030721
 21
10.627279
 31
0.0
  0
LINE
  5
280
100
AcDbEntity
  8
0
 62
1
100
AcDbLine
 10
8.030721
 20
10.627279
 30
0.0
 11
8.153265
 21
10.803583
 31
0.0
  0
LINE
  5
281
100
AcDbEntity
  8
0
 62
1
100
AcDbLine
 10
8.153265
 20
10.803583
 30
0.0
 11
8.260421
 21
10.933765
 31
0.0
  0
LINE
  5
282
100
AcDbEntity
  8
0
 62
1
100
AcDbLine
 10
8.260421
 20
10.933765
 30
0.0
 11
8.305165
 21
10.932862
 31
0.0
  0
LINE
  5
283
100
AcDbEntity
  8
0
 62
1
100
AcDbLine
 10
8.305165
 20
10.932862
 30
0.0
 11
8.240096
 21
10.782819
 31
0.0
  0
LINE
  5
284
100
AcDbEntity
  8
0
 62
1
100
AcDbLine
 10
8.240096
 20
10.782819
 30
0.0
 11
8.191364
 21
10.609369
 31
0.0
  0
LINE
  5
285
100
AcDbEntity
  8
0
 62
1
100
AcDbLine
 10
8.191364
 20
10.609369
 30
0.0
 11
8.217901
 21
10.483571
 31
0.0
  0
LINE
  5
286
100
AcDbEntity
  8
0
 62
1
100
AcDbLine
 10
8.217901
 20
10.483571
 30
0.0
 11
8.378640
 21
10.476479
 31
0.0
  0
LINE
  5
287
100
AcDbEntity
  8
0
 62
1
100
AcDbLine
 10
8.378640
 20
10.476479
 30
0.0
 11
8.587410
 21
11.037845
 31
0.0
  0
LINE
  5
288
100
AcDbEntity
  8
0
 62
1
100
AcDbLine
 10
8.587410
 20
11.037845
 30
0.0
 11
8.663405
 21
11.635104
 31
0.0
  0
LINE
  5
289
100
AcDbEntity
  8
0
 62
1
100
AcDbLine
 10
8.663405
 20
11.635104
 30
0.0
 11
8.647689
 21
12.244209
 31
0.0
  0
LINE
  5
28a
100
AcDbEntity
  8
0
 62
1
100
AcDbLine
 10
8.647689
 20
12.244209
 30
0.0
 11
8.581321
 21
12.841109
 31
0.0
  0
LINE
  5
28b
100
AcDbEntity
  8
0
 62
1
100
AcDbLine
 10
8.581321
 20
12.841109
 30
0.0
 11
9.052585
 21
12.612307
 31
0.0
  0
LINE
  5
28c
100
AcDbEntity
  8
0
 62
1
100
AcDbLine
 10
9.052585
 20
12.612307
 30
0.0
 11
9.525089
 21
12.379481
 31
0.0
  0
LINE
  5
28d
100
AcDbEntity
  8
0
 62
1
100
AcDbLine
 10
9.525089
 20
12.379481
 30
0.0
 11
10.015656
 21
12.219576
 31
0.0
  0
LINE
  5
28e
100
AcDbEntity
  8
0
 62
1
100
AcDbLine
 10
10.015656
 20
12.219576
 30
0.0
 11
10.541109
 21
12.209534
 31
0.0
  0
LINE
  5
28f
100
AcDbEntity
  8
0
 62
1
100
AcDbLine
 10
10.541109
 20
12.209534
 30
0.0
 11
10.989904
 21
12.301428
 31
0.0
  0
LINE
  5
290
100
AcDbEntity
  8
0
 62
1
100
AcDbLine
 10
10.989904
 20
12.301428
 30
0.0
 11
11.414456
 21
12.489645
 31
0.0
  0
LINE
  5
291
100
AcDbEntity
  8
0
 62
1
100
AcDbLine
 10
11.414456
 20
12.489645
 30
0.0
 11
11.829609
 21
12.711135
 31
0.0
  0
LINE
  5
292
100
AcDbEntity
  8
0
 62
1
100
AcDbLine
 10
11.829609
 20
12.711135
 30
0.0
 11
12.250208
 21
12.902848
 31
0.0
  0
ENDSEC
  0
SECTION
  2
OBJECTS
  0
DICTIONARY
  5
C
330
0
100
AcDbDictionary
  3
ACAD_GROUP
350
D
  3
ACAD_MLINESTYLE
350
17
  0
DICTIONARY
  5
D
330
C
100
AcDbDictionary
  0
DICTIONARY
  5
1A
330
C
100
AcDbDictionary
  0
DICTIONARY
  5
17
330
C
100
AcDbDictionary
  3
STANDARD
350
18
  0
DICTIONARY
  5
19
330
C
100
AcDbDictionary
  0
ENDSEC
  0
EOF
