solid OpenSCAD_Model
  facet normal 1 0 0
    outer loop
      vertex 20 40 0.599999
      vertex 20 26 0.0999994
      vertex 20 40 0
    endloop
  endfacet
  facet normal 1 0 -0
    outer loop
      vertex 20 26 0.0999994
      vertex 20 40 0.599999
      vertex 20 25.75 0.599999
    endloop
  endfacet
  facet normal 1 0 0
    outer loop
      vertex 20 40 0
      vertex 20 26 0.0999994
      vertex 20 26 0
    endloop
  endfacet
  facet normal 1 -0 0
    outer loop
      vertex 20 0 0.599999
      vertex 20 14 0.0999994
      vertex 20 14.25 0.599999
    endloop
  endfacet
  facet normal 1 0 0
    outer loop
      vertex 20 0 0
      vertex 20 14 0.0999994
      vertex 20 0 0.599999
    endloop
  endfacet
  facet normal 1 0 0
    outer loop
      vertex 20 14 0.0999994
      vertex 20 0 0
      vertex 20 14 0
    endloop
  endfacet
  facet normal -0 0 1
    outer loop
      vertex 11.2 18.4 2.1
      vertex 19 15 2.1
      vertex 11.2 21.6 2.1
    endloop
  endfacet
  facet normal -0 0 1
    outer loop
      vertex 11.1413 18.0292 2.1
      vertex 19 15 2.1
      vertex 11.2 18.4 2.1
    endloop
  endfacet
  facet normal -0 0 1
    outer loop
      vertex 10.9708 17.6947 2.1
      vertex 19 15 2.1
      vertex 11.1413 18.0292 2.1
    endloop
  endfacet
  facet normal -0 0 1
    outer loop
      vertex 10.7053 17.4292 2.1
      vertex 19 15 2.1
      vertex 10.9708 17.6947 2.1
    endloop
  endfacet
  facet normal -0 0 1
    outer loop
      vertex 10.3708 17.2587 2.1
      vertex 19 15 2.1
      vertex 10.7053 17.4292 2.1
    endloop
  endfacet
  facet normal -0 0 1
    outer loop
      vertex 10 17.2 2.1
      vertex 19 15 2.1
      vertex 10.3708 17.2587 2.1
    endloop
  endfacet
  facet normal 0 0 1
    outer loop
      vertex 1 15 2.1
      vertex 10 17.2 2.1
      vertex 9.62918 17.2587 2.1
    endloop
  endfacet
  facet normal 0 0 1
    outer loop
      vertex 1 15 2.1
      vertex 8.8 18.4 2.1
      vertex 1 25 2.1
    endloop
  endfacet
  facet normal 0 0 1
    outer loop
      vertex 8.8 18.4 2.1
      vertex 1 15 2.1
      vertex 8.85873 18.0292 2.1
    endloop
  endfacet
  facet normal 0 0 1
    outer loop
      vertex 8.85873 18.0292 2.1
      vertex 1 15 2.1
      vertex 9.02918 17.6947 2.1
    endloop
  endfacet
  facet normal 0 0 1
    outer loop
      vertex 10 17.2 2.1
      vertex 1 15 2.1
      vertex 19 15 2.1
    endloop
  endfacet
  facet normal 0 0 1
    outer loop
      vertex 9.29466 17.4292 2.1
      vertex 1 15 2.1
      vertex 9.62918 17.2587 2.1
    endloop
  endfacet
  facet normal 0 0 1
    outer loop
      vertex 9.02918 17.6947 2.1
      vertex 1 15 2.1
      vertex 9.29466 17.4292 2.1
    endloop
  endfacet
  facet normal 0 0 1
    outer loop
      vertex 94 25 2.1
      vertex 86.2 21.6 2.1
      vertex 94 15 2.1
    endloop
  endfacet
  facet normal 0 0 1
    outer loop
      vertex 94 25 2.1
      vertex 86.1413 21.9708 2.1
      vertex 86.2 21.6 2.1
    endloop
  endfacet
  facet normal 0 0 1
    outer loop
      vertex 94 25 2.1
      vertex 85.9708 22.3053 2.1
      vertex 86.1413 21.9708 2.1
    endloop
  endfacet
  facet normal 0 0 1
    outer loop
      vertex 94 25 2.1
      vertex 85.7053 22.5708 2.1
      vertex 85.9708 22.3053 2.1
    endloop
  endfacet
  facet normal 0 0 1
    outer loop
      vertex 94 25 2.1
      vertex 85.3708 22.7413 2.1
      vertex 85.7053 22.5708 2.1
    endloop
  endfacet
  facet normal 0 0 1
    outer loop
      vertex 94 25 2.1
      vertex 85 22.8 2.1
      vertex 85.3708 22.7413 2.1
    endloop
  endfacet
  facet normal -0 0 1
    outer loop
      vertex 77 25 2.1
      vertex 85 22.8 2.1
      vertex 94 25 2.1
    endloop
  endfacet
  facet normal 0 0 1
    outer loop
      vertex 83.8 21.6 2.1
      vertex 77 25 2.1
      vertex 83.8 18.4 2.1
    endloop
  endfacet
  facet normal 0 0 1
    outer loop
      vertex 83.8587 21.9708 2.1
      vertex 77 25 2.1
      vertex 83.8 21.6 2.1
    endloop
  endfacet
  facet normal 0 0 1
    outer loop
      vertex 84.0292 22.3053 2.1
      vertex 77 25 2.1
      vertex 83.8587 21.9708 2.1
    endloop
  endfacet
  facet normal 0 0 1
    outer loop
      vertex 84.2947 22.5708 2.1
      vertex 77 25 2.1
      vertex 84.0292 22.3053 2.1
    endloop
  endfacet
  facet normal 0 0 1
    outer loop
      vertex 84.6292 22.7413 2.1
      vertex 77 25 2.1
      vertex 84.2947 22.5708 2.1
    endloop
  endfacet
  facet normal 0 0 1
    outer loop
      vertex 85 22.8 2.1
      vertex 77 25 2.1
      vertex 84.6292 22.7413 2.1
    endloop
  endfacet
  facet normal -0 0 1
    outer loop
      vertex 86.2 18.4 2.1
      vertex 94 15 2.1
      vertex 86.2 21.6 2.1
    endloop
  endfacet
  facet normal -0 0 1
    outer loop
      vertex 86.1413 18.0292 2.1
      vertex 94 15 2.1
      vertex 86.2 18.4 2.1
    endloop
  endfacet
  facet normal -0 0 1
    outer loop
      vertex 85.9708 17.6947 2.1
      vertex 94 15 2.1
      vertex 86.1413 18.0292 2.1
    endloop
  endfacet
  facet normal -0 0 1
    outer loop
      vertex 85.7053 17.4292 2.1
      vertex 94 15 2.1
      vertex 85.9708 17.6947 2.1
    endloop
  endfacet
  facet normal -0 0 1
    outer loop
      vertex 85.3708 17.2587 2.1
      vertex 94 15 2.1
      vertex 85.7053 17.4292 2.1
    endloop
  endfacet
  facet normal -0 0 1
    outer loop
      vertex 85 17.2 2.1
      vertex 94 15 2.1
      vertex 85.3708 17.2587 2.1
    endloop
  endfacet
  facet normal 0 0 1
    outer loop
      vertex 77 15 2.1
      vertex 85 17.2 2.1
      vertex 84.6292 17.2587 2.1
    endloop
  endfacet
  facet normal 0 0 1
    outer loop
      vertex 77 15 2.1
      vertex 83.8 18.4 2.1
      vertex 77 25 2.1
    endloop
  endfacet
  facet normal 0 0 1
    outer loop
      vertex 83.8 18.4 2.1
      vertex 77 15 2.1
      vertex 83.8587 18.0292 2.1
    endloop
  endfacet
  facet normal 0 0 1
    outer loop
      vertex 85 17.2 2.1
      vertex 77 15 2.1
      vertex 94 15 2.1
    endloop
  endfacet
  facet normal 0 0 1
    outer loop
      vertex 84.2947 17.4292 2.1
      vertex 77 15 2.1
      vertex 84.6292 17.2587 2.1
    endloop
  endfacet
  facet normal 0 0 1
    outer loop
      vertex 84.0292 17.6947 2.1
      vertex 77 15 2.1
      vertex 84.2947 17.4292 2.1
    endloop
  endfacet
  facet normal 0 0 1
    outer loop
      vertex 83.8587 18.0292 2.1
      vertex 77 15 2.1
      vertex 84.0292 17.6947 2.1
    endloop
  endfacet
  facet normal -0 0 1
    outer loop
      vertex 76 25 2.1
      vertex 77 15 2.1
      vertex 77 25 2.1
    endloop
  endfacet
  facet normal 0 0 1
    outer loop
      vertex 76 25 2.1
      vertex 76 15 2.1
      vertex 77 15 2.1
    endloop
  endfacet
  facet normal -0 0 1
    outer loop
      vertex 19 25 2.1
      vertex 76 15 2.1
      vertex 76 25 2.1
    endloop
  endfacet
  facet normal 0 0 1
    outer loop
      vertex 19 25 2.1
      vertex 19 15 2.1
      vertex 76 15 2.1
    endloop
  endfacet
  facet normal 0 0 1
    outer loop
      vertex 19 25 2.1
      vertex 11.2 21.6 2.1
      vertex 19 15 2.1
    endloop
  endfacet
  facet normal 0 0 1
    outer loop
      vertex 19 25 2.1
      vertex 11.1413 21.9708 2.1
      vertex 11.2 21.6 2.1
    endloop
  endfacet
  facet normal 0 0 1
    outer loop
      vertex 19 25 2.1
      vertex 10.9708 22.3053 2.1
      vertex 11.1413 21.9708 2.1
    endloop
  endfacet
  facet normal 0 0 1
    outer loop
      vertex 19 25 2.1
      vertex 10.7053 22.5708 2.1
      vertex 10.9708 22.3053 2.1
    endloop
  endfacet
  facet normal 0 0 1
    outer loop
      vertex 19 25 2.1
      vertex 10.3708 22.7413 2.1
      vertex 10.7053 22.5708 2.1
    endloop
  endfacet
  facet normal 0 0 1
    outer loop
      vertex 19 25 2.1
      vertex 10 22.8 2.1
      vertex 10.3708 22.7413 2.1
    endloop
  endfacet
  facet normal -0 0 1
    outer loop
      vertex 1 25 2.1
      vertex 10 22.8 2.1
      vertex 19 25 2.1
    endloop
  endfacet
  facet normal 0 0 1
    outer loop
      vertex 8.8 21.6 2.1
      vertex 1 25 2.1
      vertex 8.8 18.4 2.1
    endloop
  endfacet
  facet normal 0 0 1
    outer loop
      vertex 8.85873 21.9708 2.1
      vertex 1 25 2.1
      vertex 8.8 21.6 2.1
    endloop
  endfacet
  facet normal 0 0 1
    outer loop
      vertex 9.02918 22.3053 2.1
      vertex 1 25 2.1
      vertex 8.85873 21.9708 2.1
    endloop
  endfacet
  facet normal 0 0 1
    outer loop
      vertex 9.29466 22.5708 2.1
      vertex 1 25 2.1
      vertex 9.02918 22.3053 2.1
    endloop
  endfacet
  facet normal 0 0 1
    outer loop
      vertex 9.62918 22.7413 2.1
      vertex 1 25 2.1
      vertex 9.29466 22.5708 2.1
    endloop
  endfacet
  facet normal 0 0 1
    outer loop
      vertex 10 22.8 2.1
      vertex 1 25 2.1
      vertex 9.62918 22.7413 2.1
    endloop
  endfacet
  facet normal 0.83205 0 0.5547
    outer loop
      vertex 19 39 2.1
      vertex 20 25.75 0.599999
      vertex 20 40 0.599999
    endloop
  endfacet
  facet normal 0.83205 0 0.5547
    outer loop
      vertex 20 25.75 0.599999
      vertex 19 39 2.1
      vertex 19 25 2.1
    endloop
  endfacet
  facet normal 0.83205 -0 0.5547
    outer loop
      vertex 19 1 2.1
      vertex 20 14.25 0.599999
      vertex 19 15 2.1
    endloop
  endfacet
  facet normal 0.83205 0 0.5547
    outer loop
      vertex 20 14.25 0.599999
      vertex 19 1 2.1
      vertex 20 0 0.599999
    endloop
  endfacet
  facet normal -0.83205 0 0.5547
    outer loop
      vertex 0 40 0.599999
      vertex 1 25 2.1
      vertex 1 39 2.1
    endloop
  endfacet
  facet normal -0.83205 0 0.5547
    outer loop
      vertex 0 40 0.599999
      vertex 1 15 2.1
      vertex 1 25 2.1
    endloop
  endfacet
  facet normal -0.83205 0 0.5547
    outer loop
      vertex 0 0 0.599999
      vertex 1 15 2.1
      vertex 0 40 0.599999
    endloop
  endfacet
  facet normal -0.83205 0 0.5547
    outer loop
      vertex 1 15 2.1
      vertex 0 0 0.599999
      vertex 1 1 2.1
    endloop
  endfacet
  facet normal -0 0 1
    outer loop
      vertex 2 14 0.5
      vertex 18 2 0.5
      vertex 18 14 0.5
    endloop
  endfacet
  facet normal 0 0 1
    outer loop
      vertex 18 2 0.5
      vertex 2 14 0.5
      vertex 2 2 0.5
    endloop
  endfacet
  facet normal -0 0 1
    outer loop
      vertex 2 38 0.5
      vertex 18 26 0.5
      vertex 18 38 0.5
    endloop
  endfacet
  facet normal 0 0 1
    outer loop
      vertex 18 26 0.5
      vertex 2 38 0.5
      vertex 2 26 0.5
    endloop
  endfacet
  facet normal 0 -1 0
    outer loop
      vertex 0 0 0
      vertex 20 0 0.599999
      vertex 0 0 0.599999
    endloop
  endfacet
  facet normal 0 -1 -0
    outer loop
      vertex 20 0 0.599999
      vertex 0 0 0
      vertex 20 0 0
    endloop
  endfacet
  facet normal 0 1 -0
    outer loop
      vertex 20 40 0
      vertex 0 40 0.599999
      vertex 20 40 0.599999
    endloop
  endfacet
  facet normal 0 1 0
    outer loop
      vertex 0 40 0.599999
      vertex 20 40 0
      vertex 0 40 0
    endloop
  endfacet
  facet normal -1 0 0
    outer loop
      vertex 0 0 0
      vertex 0 40 0.599999
      vertex 0 40 0
    endloop
  endfacet
  facet normal -1 -0 0
    outer loop
      vertex 0 40 0.599999
      vertex 0 0 0
      vertex 0 0 0.599999
    endloop
  endfacet
  facet normal 0 -0.83205 0.5547
    outer loop
      vertex 0 0 0.599999
      vertex 19 1 2.1
      vertex 1 1 2.1
    endloop
  endfacet
  facet normal 0 -0.83205 0.5547
    outer loop
      vertex 19 1 2.1
      vertex 0 0 0.599999
      vertex 20 0 0.599999
    endloop
  endfacet
  facet normal 0 0.83205 0.5547
    outer loop
      vertex 20 40 0.599999
      vertex 1 39 2.1
      vertex 19 39 2.1
    endloop
  endfacet
  facet normal 0 0.83205 0.5547
    outer loop
      vertex 1 39 2.1
      vertex 20 40 0.599999
      vertex 0 40 0.599999
    endloop
  endfacet
  facet normal -0.83205 1.5396e-14 0.5547
    outer loop
      vertex 18 14 0.5
      vertex 19 14.95 2
      vertex 18.8 14.8 1.7
    endloop
  endfacet
  facet normal -0.83205 0 0.5547
    outer loop
      vertex 18 2 0.5
      vertex 19 14.95 2
      vertex 18 14 0.5
    endloop
  endfacet
  facet normal -0.83205 0 0.5547
    outer loop
      vertex 19 14.95 2
      vertex 18 2 0.5
      vertex 19 1 2
    endloop
  endfacet
  facet normal 1 -0 0
    outer loop
      vertex 1 1 2.1
      vertex 1 15 2
      vertex 1 15 2.1
    endloop
  endfacet
  facet normal 1 0 0
    outer loop
      vertex 1 15 2
      vertex 1 1 2.1
      vertex 1 1 2
    endloop
  endfacet
  facet normal 0 0.83205 0.5547
    outer loop
      vertex 18 2 0.5
      vertex 1 1 2
      vertex 19 1 2
    endloop
  endfacet
  facet normal 0 0.83205 0.5547
    outer loop
      vertex 1 1 2
      vertex 18 2 0.5
      vertex 2 2 0.5
    endloop
  endfacet
  facet normal 0 -0.83205 0.5547
    outer loop
      vertex 2 14 0.5
      vertex 18.95 15 2
      vertex 1 15 2
    endloop
  endfacet
  facet normal 0 -0.83205 0.5547
    outer loop
      vertex 18 14 0.5
      vertex 18.95 15 2
      vertex 2 14 0.5
    endloop
  endfacet
  facet normal 1.5396e-14 -0.83205 0.5547
    outer loop
      vertex 18.95 15 2
      vertex 18 14 0.5
      vertex 18.8 14.8 1.7
    endloop
  endfacet
  facet normal 0.83205 0 0.5547
    outer loop
      vertex 1 15 2
      vertex 2 2 0.5
      vertex 2 14 0.5
    endloop
  endfacet
  facet normal 0.83205 0 0.5547
    outer loop
      vertex 2 2 0.5
      vertex 1 15 2
      vertex 1 1 2
    endloop
  endfacet
  facet normal 0 1 -0
    outer loop
      vertex 19 1 2
      vertex 1 1 2.1
      vertex 19 1 2.1
    endloop
  endfacet
  facet normal 0 1 0
    outer loop
      vertex 1 1 2.1
      vertex 19 1 2
      vertex 1 1 2
    endloop
  endfacet
  facet normal 0 -1 0
    outer loop
      vertex 18.95 15 2
      vertex 1 15 2.1
      vertex 1 15 2
    endloop
  endfacet
  facet normal 0 -1 0
    outer loop
      vertex 1 15 2.1
      vertex 18.95 15 2
      vertex 19 15 2.1
    endloop
  endfacet
  facet normal -1 0 0
    outer loop
      vertex 19 1 2.1
      vertex 19 14.95 2
      vertex 19 1 2
    endloop
  endfacet
  facet normal -1 0 0
    outer loop
      vertex 19 14.95 2
      vertex 19 1 2.1
      vertex 19 15 2.1
    endloop
  endfacet
  facet normal 0 -1 0
    outer loop
      vertex 1 39 2
      vertex 19 39 2.1
      vertex 1 39 2.1
    endloop
  endfacet
  facet normal 0 -1 -0
    outer loop
      vertex 19 39 2.1
      vertex 1 39 2
      vertex 19 39 2
    endloop
  endfacet
  facet normal -0.83205 0 0.5547
    outer loop
      vertex 18.8 25.2 1.7
      vertex 18 38 0.5
      vertex 18 26 0.5
    endloop
  endfacet
  facet normal -0.83205 -2.52394e-16 0.5547
    outer loop
      vertex 19 25.05 2
      vertex 18 38 0.5
      vertex 18.8 25.2 1.7
    endloop
  endfacet
  facet normal -0.83205 0 0.5547
    outer loop
      vertex 18 38 0.5
      vertex 19 25.05 2
      vertex 19 39 2
    endloop
  endfacet
  facet normal -1 0 0
    outer loop
      vertex 19 25.05 2
      vertex 19 39 2.1
      vertex 19 39 2
    endloop
  endfacet
  facet normal -1 -0 0
    outer loop
      vertex 19 39 2.1
      vertex 19 25.05 2
      vertex 19 25 2.1
    endloop
  endfacet
  facet normal 1 -0 0
    outer loop
      vertex 1 25 2.1
      vertex 1 39 2
      vertex 1 39 2.1
    endloop
  endfacet
  facet normal 1 0 0
    outer loop
      vertex 1 39 2
      vertex 1 25 2.1
      vertex 1 25 2
    endloop
  endfacet
  facet normal 1.5396e-14 0.83205 0.5547
    outer loop
      vertex 18 26 0.5
      vertex 18.95 25 2
      vertex 18.8 25.2 1.7
    endloop
  endfacet
  facet normal 0 0.83205 0.5547
    outer loop
      vertex 18.95 25 2
      vertex 18 26 0.5
      vertex 2 26 0.5
    endloop
  endfacet
  facet normal 0 0.83205 0.5547
    outer loop
      vertex 18.95 25 2
      vertex 2 26 0.5
      vertex 1 25 2
    endloop
  endfacet
  facet normal 0 -0.83205 0.5547
    outer loop
      vertex 2 38 0.5
      vertex 19 39 2
      vertex 1 39 2
    endloop
  endfacet
  facet normal 0 -0.83205 0.5547
    outer loop
      vertex 19 39 2
      vertex 2 38 0.5
      vertex 18 38 0.5
    endloop
  endfacet
  facet normal 0.83205 0 0.5547
    outer loop
      vertex 1 39 2
      vertex 2 26 0.5
      vertex 2 38 0.5
    endloop
  endfacet
  facet normal 0.83205 0 0.5547
    outer loop
      vertex 2 26 0.5
      vertex 1 39 2
      vertex 1 25 2
    endloop
  endfacet
  facet normal 0 1 -0
    outer loop
      vertex 18.95 25 2
      vertex 1 25 2.1
      vertex 19 25 2.1
    endloop
  endfacet
  facet normal 0 1 0
    outer loop
      vertex 1 25 2.1
      vertex 18.95 25 2
      vertex 1 25 2
    endloop
  endfacet
  facet normal 0 0 -1
    outer loop
      vertex 0 0 0
      vertex 20 14 0
      vertex 20 0 0
    endloop
  endfacet
  facet normal -0 0 -1
    outer loop
      vertex 20 14 0
      vertex 0 0 0
      vertex 20 26 0
    endloop
  endfacet
  facet normal 0 0 -1
    outer loop
      vertex 0 40 0
      vertex 20 26 0
      vertex 0 0 0
    endloop
  endfacet
  facet normal 0 0 -1
    outer loop
      vertex 20 26 0
      vertex 0 40 0
      vertex 20 40 0
    endloop
  endfacet
  facet normal 0 0 -1
    outer loop
      vertex 20 14 0
      vertex 75 26 0
      vertex 75 14 0
    endloop
  endfacet
  facet normal -0 0 -1
    outer loop
      vertex 75 26 0
      vertex 20 14 0
      vertex 20 26 0
    endloop
  endfacet
  facet normal 0 0 -1
    outer loop
      vertex 75 14 0
      vertex 95 0 0
      vertex 75 0 0
    endloop
  endfacet
  facet normal 0 0 -1
    outer loop
      vertex 95 0 0
      vertex 75 14 0
      vertex 95 40 0
    endloop
  endfacet
  facet normal 0 0 -1
    outer loop
      vertex 75 26 0
      vertex 95 40 0
      vertex 75 14 0
    endloop
  endfacet
  facet normal -0 0 -1
    outer loop
      vertex 95 40 0
      vertex 75 26 0
      vertex 75 40 0
    endloop
  endfacet
  facet normal 1 -0 0
    outer loop
      vertex 95 0 0.599999
      vertex 95 40 0
      vertex 95 40 0.599999
    endloop
  endfacet
  facet normal 1 0 0
    outer loop
      vertex 95 40 0
      vertex 95 0 0.599999
      vertex 95 0 0
    endloop
  endfacet
  facet normal 0.83205 -0 0.5547
    outer loop
      vertex 94 25 2.1
      vertex 95 40 0.599999
      vertex 94 39 2.1
    endloop
  endfacet
  facet normal 0.83205 -0 0.5547
    outer loop
      vertex 94 15 2.1
      vertex 95 40 0.599999
      vertex 94 25 2.1
    endloop
  endfacet
  facet normal 0.83205 0 0.5547
    outer loop
      vertex 95 0 0.599999
      vertex 94 15 2.1
      vertex 94 1 2.1
    endloop
  endfacet
  facet normal 0.83205 0 0.5547
    outer loop
      vertex 94 15 2.1
      vertex 95 0 0.599999
      vertex 95 40 0.599999
    endloop
  endfacet
  facet normal -0.83205 0 0.5547
    outer loop
      vertex 75 25.75 0.599999
      vertex 76 39 2.1
      vertex 75 40 0.599999
    endloop
  endfacet
  facet normal -0.83205 0 0.5547
    outer loop
      vertex 76 39 2.1
      vertex 75 25.75 0.599999
      vertex 76 25 2.1
    endloop
  endfacet
  facet normal -0.83205 0 0.5547
    outer loop
      vertex 75 14.25 0.599999
      vertex 76 1 2.1
      vertex 76 15 2.1
    endloop
  endfacet
  facet normal -0.83205 0 0.5547
    outer loop
      vertex 76 1 2.1
      vertex 75 14.25 0.599999
      vertex 75 0 0.599999
    endloop
  endfacet
  facet normal -0 0 1
    outer loop
      vertex 77 14 0.5
      vertex 93 2 0.5
      vertex 93 14 0.5
    endloop
  endfacet
  facet normal 0 0 1
    outer loop
      vertex 93 2 0.5
      vertex 77 14 0.5
      vertex 77 2 0.5
    endloop
  endfacet
  facet normal -0 0 1
    outer loop
      vertex 77 38 0.5
      vertex 93 26 0.5
      vertex 93 38 0.5
    endloop
  endfacet
  facet normal 0 0 1
    outer loop
      vertex 93 26 0.5
      vertex 77 38 0.5
      vertex 77 26 0.5
    endloop
  endfacet
  facet normal 0 -1 0
    outer loop
      vertex 75 0 0
      vertex 95 0 0.599999
      vertex 75 0 0.599999
    endloop
  endfacet
  facet normal 0 -1 -0
    outer loop
      vertex 95 0 0.599999
      vertex 75 0 0
      vertex 95 0 0
    endloop
  endfacet
  facet normal 0 1 -0
    outer loop
      vertex 95 40 0
      vertex 75 40 0.599999
      vertex 95 40 0.599999
    endloop
  endfacet
  facet normal 0 1 0
    outer loop
      vertex 75 40 0.599999
      vertex 95 40 0
      vertex 75 40 0
    endloop
  endfacet
  facet normal -1 0 0
    outer loop
      vertex 75 26 0.0999994
      vertex 75 40 0
      vertex 75 26 0
    endloop
  endfacet
  facet normal -1 0 0
    outer loop
      vertex 75 40 0
      vertex 75 26 0.0999994
      vertex 75 40 0.599999
    endloop
  endfacet
  facet normal -1 -0 0
    outer loop
      vertex 75 40 0.599999
      vertex 75 26 0.0999994
      vertex 75 25.75 0.599999
    endloop
  endfacet
  facet normal -1 0 0
    outer loop
      vertex 75 14 0
      vertex 75 0 0
      vertex 75 14 0.0999994
    endloop
  endfacet
  facet normal -1 0 0
    outer loop
      vertex 75 0 0.599999
      vertex 75 14 0.0999994
      vertex 75 0 0
    endloop
  endfacet
  facet normal -1 0 0
    outer loop
      vertex 75 14 0.0999994
      vertex 75 0 0.599999
      vertex 75 14.25 0.599999
    endloop
  endfacet
  facet normal 0 -0.83205 0.5547
    outer loop
      vertex 75 0 0.599999
      vertex 94 1 2.1
      vertex 76 1 2.1
    endloop
  endfacet
  facet normal 0 -0.83205 0.5547
    outer loop
      vertex 94 1 2.1
      vertex 75 0 0.599999
      vertex 95 0 0.599999
    endloop
  endfacet
  facet normal 0 0.83205 0.5547
    outer loop
      vertex 95 40 0.599999
      vertex 76 39 2.1
      vertex 94 39 2.1
    endloop
  endfacet
  facet normal 0 0.83205 0.5547
    outer loop
      vertex 76 39 2.1
      vertex 95 40 0.599999
      vertex 75 40 0.599999
    endloop
  endfacet
  facet normal -0.83205 0 0.5547
    outer loop
      vertex 93 2 0.5
      vertex 94 15 2
      vertex 93 14 0.5
    endloop
  endfacet
  facet normal -0.83205 0 0.5547
    outer loop
      vertex 94 15 2
      vertex 93 2 0.5
      vertex 94 1 2
    endloop
  endfacet
  facet normal 1 -0 0
    outer loop
      vertex 76 1 2.1
      vertex 76 14.95 2
      vertex 76 15 2.1
    endloop
  endfacet
  facet normal 1 0 0
    outer loop
      vertex 76 14.95 2
      vertex 76 1 2.1
      vertex 76 1 2
    endloop
  endfacet
  facet normal 0 0.83205 0.5547
    outer loop
      vertex 93 2 0.5
      vertex 76 1 2
      vertex 94 1 2
    endloop
  endfacet
  facet normal 0 0.83205 0.5547
    outer loop
      vertex 76 1 2
      vertex 93 2 0.5
      vertex 77 2 0.5
    endloop
  endfacet
  facet normal 0 -0.83205 0.5547
    outer loop
      vertex 76.2 14.8 1.7
      vertex 77 14 0.5
      vertex 77.2 14.8 1.7
    endloop
  endfacet
  facet normal -2.02579e-16 -0.83205 0.5547
    outer loop
      vertex 93 14 0.5
      vertex 77.05 15 2
      vertex 77.2 14.8 1.7
    endloop
  endfacet
  facet normal 0 -0.83205 0.5547
    outer loop
      vertex 93 14 0.5
      vertex 77.2 14.8 1.7
      vertex 77 14 0.5
    endloop
  endfacet
  facet normal 0 -0.83205 0.5547
    outer loop
      vertex 77.05 15 2
      vertex 93 14 0.5
      vertex 94 15 2
    endloop
  endfacet
  facet normal 0.83205 -5.85049e-14 0.5547
    outer loop
      vertex 76 14.95 2
      vertex 77 14 0.5
      vertex 76.2 14.8 1.7
    endloop
  endfacet
  facet normal 0.83205 0 0.5547
    outer loop
      vertex 76 14.95 2
      vertex 77 2 0.5
      vertex 77 14 0.5
    endloop
  endfacet
  facet normal 0.83205 0 0.5547
    outer loop
      vertex 77 2 0.5
      vertex 76 14.95 2
      vertex 76 1 2
    endloop
  endfacet
  facet normal 0 1 -0
    outer loop
      vertex 94 1 2
      vertex 76 1 2.1
      vertex 94 1 2.1
    endloop
  endfacet
  facet normal 0 1 0
    outer loop
      vertex 76 1 2.1
      vertex 94 1 2
      vertex 76 1 2
    endloop
  endfacet
  facet normal 0 -1 0
    outer loop
      vertex 77.05 15 2
      vertex 94 15 2.1
      vertex 77 15 2.1
    endloop
  endfacet
  facet normal 0 -1 -0
    outer loop
      vertex 94 15 2.1
      vertex 77.05 15 2
      vertex 94 15 2
    endloop
  endfacet
  facet normal -1 0 0
    outer loop
      vertex 94 1 2
      vertex 94 15 2.1
      vertex 94 15 2
    endloop
  endfacet
  facet normal -1 -0 0
    outer loop
      vertex 94 15 2.1
      vertex 94 1 2
      vertex 94 1 2.1
    endloop
  endfacet
  facet normal 0 -1 0
    outer loop
      vertex 76 39 2
      vertex 94 39 2.1
      vertex 76 39 2.1
    endloop
  endfacet
  facet normal 0 -1 -0
    outer loop
      vertex 94 39 2.1
      vertex 76 39 2
      vertex 94 39 2
    endloop
  endfacet
  facet normal -0.83205 0 0.5547
    outer loop
      vertex 93 26 0.5
      vertex 94 39 2
      vertex 93 38 0.5
    endloop
  endfacet
  facet normal -0.83205 0 0.5547
    outer loop
      vertex 94 39 2
      vertex 93 26 0.5
      vertex 94 25 2
    endloop
  endfacet
  facet normal -1 0 0
    outer loop
      vertex 94 25 2
      vertex 94 39 2.1
      vertex 94 39 2
    endloop
  endfacet
  facet normal -1 -0 0
    outer loop
      vertex 94 39 2.1
      vertex 94 25 2
      vertex 94 25 2.1
    endloop
  endfacet
  facet normal 1 0 0
    outer loop
      vertex 76 39 2.1
      vertex 76 25.05 2
      vertex 76 39 2
    endloop
  endfacet
  facet normal 1 0 -0
    outer loop
      vertex 76 25.05 2
      vertex 76 39 2.1
      vertex 76 25 2.1
    endloop
  endfacet
  facet normal 0 0.83205 0.5547
    outer loop
      vertex 93 26 0.5
      vertex 77.05 25 2
      vertex 94 25 2
    endloop
  endfacet
  facet normal -2.02579e-16 0.83205 0.5547
    outer loop
      vertex 77.05 25 2
      vertex 93 26 0.5
      vertex 77.2 25.2 1.7
    endloop
  endfacet
  facet normal -0 0.83205 0.5547
    outer loop
      vertex 77 26 0.5
      vertex 77.2 25.2 1.7
      vertex 93 26 0.5
    endloop
  endfacet
  facet normal 0 0.83205 0.5547
    outer loop
      vertex 77.2 25.2 1.7
      vertex 77 26 0.5
      vertex 76.2 25.2 1.7
    endloop
  endfacet
  facet normal 0 -0.83205 0.5547
    outer loop
      vertex 77 38 0.5
      vertex 94 39 2
      vertex 76 39 2
    endloop
  endfacet
  facet normal 0 -0.83205 0.5547
    outer loop
      vertex 94 39 2
      vertex 77 38 0.5
      vertex 93 38 0.5
    endloop
  endfacet
  facet normal 0.83205 -0 0.5547
    outer loop
      vertex 76 25.05 2
      vertex 77 38 0.5
      vertex 76 39 2
    endloop
  endfacet
  facet normal 0.83205 0 0.5547
    outer loop
      vertex 77 38 0.5
      vertex 76.2 25.2 1.7
      vertex 77 26 0.5
    endloop
  endfacet
  facet normal 0.83205 9.59097e-16 0.5547
    outer loop
      vertex 77 38 0.5
      vertex 76 25.05 2
      vertex 76.2 25.2 1.7
    endloop
  endfacet
  facet normal 0 1 0
    outer loop
      vertex 77.05 25 2
      vertex 94 25 2.1
      vertex 94 25 2
    endloop
  endfacet
  facet normal 0 1 0
    outer loop
      vertex 94 25 2.1
      vertex 77.05 25 2
      vertex 77 25 2.1
    endloop
  endfacet
  facet normal 0.554819 0.554831 -0.619951
    outer loop
      vertex 86.2 21.6 6.00572
      vertex 87.2652 21.6458 7
      vertex 86.2 20.8719 5.3541
    endloop
  endfacet
  facet normal 0.55482 0.554829 -0.619951
    outer loop
      vertex 86.1933 21.6424 6.03767
      vertex 87.2652 21.6458 7
      vertex 86.2 21.6 6.00572
    endloop
  endfacet
  facet normal 0.554823 0.554823 -0.619955
    outer loop
      vertex 87.2652 21.6458 7
      vertex 86.1933 21.6424 6.03767
      vertex 86.6458 22.2652 7
    endloop
  endfacet
  facet normal 0.774967 0.122712 -0.619974
    outer loop
      vertex 87.8 20 7
      vertex 86.2 20 5
      vertex 87.663 20.8652 7
    endloop
  endfacet
  facet normal 0.774958 0.12274 -0.619979
    outer loop
      vertex 87.663 20.8652 7
      vertex 86.2 20 5
      vertex 86.2 20.3899 5.07719
    endloop
  endfacet
  facet normal 0.55482 -0.554829 -0.619951
    outer loop
      vertex 87.2652 18.3542 7
      vertex 86.1933 18.3576 6.03767
      vertex 86.2 18.4 6.00572
    endloop
  endfacet
  facet normal 0.554823 -0.554823 -0.619955
    outer loop
      vertex 86.1933 18.3576 6.03767
      vertex 87.2652 18.3542 7
      vertex 86.6458 17.7348 7
    endloop
  endfacet
  facet normal 0.554819 -0.554831 -0.619951
    outer loop
      vertex 87.2652 18.3542 7
      vertex 86.2 18.4 6.00572
      vertex 86.2 19.1281 5.3541
    endloop
  endfacet
  facet normal -0.774967 -0.122712 -0.619974
    outer loop
      vertex 82.337 19.1348 7
      vertex 82.2 20 7
      vertex 83.8 20 5
    endloop
  endfacet
  facet normal 0.699181 -0.356114 -0.619943
    outer loop
      vertex 87.2652 18.3542 7
      vertex 86.2 19.1281 5.3541
      vertex 86.2 19.5626 5.10451
    endloop
  endfacet
  facet normal 0.774958 -0.12274 -0.619979
    outer loop
      vertex 87.663 19.1348 7
      vertex 86.2 19.6101 5.07719
      vertex 86.2 20 5
    endloop
  endfacet
  facet normal -0.698948 -0.356566 -0.619945
    outer loop
      vertex 83.8 19.5626 5.10451
      vertex 82.337 19.1348 7
      vertex 83.8 19.6101 5.07719
    endloop
  endfacet
  facet normal -0.699079 -0.356256 -0.619976
    outer loop
      vertex 82.337 19.1348 7
      vertex 83.8 19.5626 5.10451
      vertex 82.7348 18.3542 7
    endloop
  endfacet
  facet normal 0.123451 0.774708 -0.620151
    outer loop
      vertex 85.8034 22.4727 6.74997
      vertex 85.7716 22.5046 6.78349
      vertex 85.8652 22.663 7
    endloop
  endfacet
  facet normal 0.356122 -0.699055 -0.62008
    outer loop
      vertex 85.9708 17.6947 6.65739
      vertex 85.8652 17.337 7
      vertex 85.8034 17.5273 6.74997
    endloop
  endfacet
  facet normal 0.356237 -0.699041 -0.62003
    outer loop
      vertex 85.8652 17.337 7
      vertex 85.9708 17.6947 6.65739
      vertex 86.6458 17.7348 7
    endloop
  endfacet
  facet normal 0.356194 -0.69915 -0.619932
    outer loop
      vertex 86.1413 18.0292 6.37811
      vertex 86.6458 17.7348 7
      vertex 85.9708 17.6947 6.65739
    endloop
  endfacet
  facet normal 0.356116 -0.699217 -0.619901
    outer loop
      vertex 86.6458 17.7348 7
      vertex 86.1413 18.0292 6.37811
      vertex 86.1622 18.1611 6.24134
    endloop
  endfacet
  facet normal 0.698948 -0.356566 -0.619945
    outer loop
      vertex 87.663 19.1348 7
      vertex 86.2 19.5626 5.10451
      vertex 86.2 19.6101 5.07719
    endloop
  endfacet
  facet normal 0.699079 -0.356256 -0.619976
    outer loop
      vertex 86.2 19.5626 5.10451
      vertex 87.663 19.1348 7
      vertex 87.2652 18.3542 7
    endloop
  endfacet
  facet normal 0.356415 -0.699002 -0.619971
    outer loop
      vertex 86.6458 17.7348 7
      vertex 86.1622 18.1611 6.24134
      vertex 86.1933 18.3576 6.03767
    endloop
  endfacet
  facet normal 0.774967 -0.122712 -0.619974
    outer loop
      vertex 87.663 19.1348 7
      vertex 86.2 20 5
      vertex 87.8 20 7
    endloop
  endfacet
  facet normal -0.774967 0.122712 -0.619974
    outer loop
      vertex 83.8 20 5
      vertex 82.2 20 7
      vertex 82.337 20.8652 7
    endloop
  endfacet
  facet normal -0.699181 -0.356114 -0.619943
    outer loop
      vertex 83.8 19.1281 5.3541
      vertex 82.7348 18.3542 7
      vertex 83.8 19.5626 5.10451
    endloop
  endfacet
  facet normal -0.123451 0.774708 -0.620151
    outer loop
      vertex 84.1966 22.4727 6.74997
      vertex 84.1348 22.663 7
      vertex 84.2284 22.5046 6.78349
    endloop
  endfacet
  facet normal -0.12271 -0.774813 -0.620167
    outer loop
      vertex 84.1348 17.337 7
      vertex 84.2947 17.4292 6.85317
      vertex 84.6292 17.2587 7
    endloop
  endfacet
  facet normal -0.122353 -0.775058 -0.619932
    outer loop
      vertex 84.2947 17.4292 6.85317
      vertex 84.1348 17.337 7
      vertex 84.2284 17.4954 6.78349
    endloop
  endfacet
  facet normal -0 -0 1
    outer loop
      vertex 84.6292 17.2587 7
      vertex 85 17.2 7
      vertex 84.1348 17.337 7
    endloop
  endfacet
  facet normal -0.356415 -0.699002 -0.619971
    outer loop
      vertex 83.8378 18.1611 6.24134
      vertex 83.3542 17.7348 7
      vertex 83.8067 18.3576 6.03767
    endloop
  endfacet
  facet normal 0.123451 -0.774708 -0.620151
    outer loop
      vertex 85.8652 17.337 7
      vertex 85.7716 17.4954 6.78349
      vertex 85.8034 17.5273 6.74997
    endloop
  endfacet
  facet normal -0.554823 -0.554823 -0.619955
    outer loop
      vertex 82.7348 18.3542 7
      vertex 83.8067 18.3576 6.03767
      vertex 83.3542 17.7348 7
    endloop
  endfacet
  facet normal -0.55482 -0.554829 -0.619951
    outer loop
      vertex 83.8067 18.3576 6.03767
      vertex 82.7348 18.3542 7
      vertex 83.8 18.4 6.00572
    endloop
  endfacet
  facet normal -0.554819 -0.554831 -0.619951
    outer loop
      vertex 83.8 18.4 6.00572
      vertex 82.7348 18.3542 7
      vertex 83.8 19.1281 5.3541
    endloop
  endfacet
  facet normal 0.699079 0.356256 -0.619976
    outer loop
      vertex 87.663 20.8652 7
      vertex 86.2 20.4374 5.10451
      vertex 87.2652 21.6458 7
    endloop
  endfacet
  facet normal 0.698948 0.356566 -0.619945
    outer loop
      vertex 86.2 20.4374 5.10451
      vertex 87.663 20.8652 7
      vertex 86.2 20.3899 5.07719
    endloop
  endfacet
  facet normal 0.356237 0.699041 -0.62003
    outer loop
      vertex 85.9708 22.3053 6.65739
      vertex 85.8652 22.663 7
      vertex 86.6458 22.2652 7
    endloop
  endfacet
  facet normal 0.356122 0.699055 -0.62008
    outer loop
      vertex 85.8652 22.663 7
      vertex 85.9708 22.3053 6.65739
      vertex 85.8034 22.4727 6.74997
    endloop
  endfacet
  facet normal 0.356194 0.69915 -0.619932
    outer loop
      vertex 86.6458 22.2652 7
      vertex 86.1413 21.9708 6.37811
      vertex 85.9708 22.3053 6.65739
    endloop
  endfacet
  facet normal 0.356116 0.699217 -0.619901
    outer loop
      vertex 86.1413 21.9708 6.37811
      vertex 86.6458 22.2652 7
      vertex 86.1622 21.8389 6.24134
    endloop
  endfacet
  facet normal -0.12271 0.774813 -0.620167
    outer loop
      vertex 84.2947 22.5708 6.85317
      vertex 84.1348 22.663 7
      vertex 84.6292 22.7413 7
    endloop
  endfacet
  facet normal -0.122353 0.775058 -0.619932
    outer loop
      vertex 84.1348 22.663 7
      vertex 84.2947 22.5708 6.85317
      vertex 84.2284 22.5046 6.78349
    endloop
  endfacet
  facet normal -0 0 1
    outer loop
      vertex 84.6292 22.7413 7
      vertex 84.1348 22.663 7
      vertex 85 22.8 7
    endloop
  endfacet
  facet normal 0.699181 0.356114 -0.619943
    outer loop
      vertex 87.2652 21.6458 7
      vertex 86.2 20.4374 5.10451
      vertex 86.2 20.8719 5.3541
    endloop
  endfacet
  facet normal -0.554819 0.554831 -0.619951
    outer loop
      vertex 82.7348 21.6458 7
      vertex 83.8 21.6 6.00572
      vertex 83.8 20.8719 5.3541
    endloop
  endfacet
  facet normal -0.554823 0.554823 -0.619954
    outer loop
      vertex 83.8 21.6 6.00572
      vertex 82.7348 21.6458 7
      vertex 83.3542 22.2652 7
    endloop
  endfacet
  facet normal -0.554813 0.554831 -0.619955
    outer loop
      vertex 83.8067 21.6424 6.03767
      vertex 83.8 21.6 6.00572
      vertex 83.3542 22.2652 7
    endloop
  endfacet
  facet normal -0.356122 0.699055 -0.62008
    outer loop
      vertex 84.0292 22.3053 6.65739
      vertex 84.1348 22.663 7
      vertex 84.1966 22.4727 6.74997
    endloop
  endfacet
  facet normal -0.356237 0.699041 -0.62003
    outer loop
      vertex 84.1348 22.663 7
      vertex 84.0292 22.3053 6.65739
      vertex 83.3542 22.2652 7
    endloop
  endfacet
  facet normal -0.356194 0.69915 -0.619932
    outer loop
      vertex 83.8587 21.9708 6.37811
      vertex 83.3542 22.2652 7
      vertex 84.0292 22.3053 6.65739
    endloop
  endfacet
  facet normal -0.356116 0.699217 -0.619901
    outer loop
      vertex 83.3542 22.2652 7
      vertex 83.8587 21.9708 6.37811
      vertex 83.8378 21.8389 6.24134
    endloop
  endfacet
  facet normal -0.356237 -0.699041 -0.62003
    outer loop
      vertex 84.0292 17.6947 6.65739
      vertex 84.1348 17.337 7
      vertex 83.3542 17.7348 7
    endloop
  endfacet
  facet normal -0.356122 -0.699055 -0.62008
    outer loop
      vertex 84.1348 17.337 7
      vertex 84.0292 17.6947 6.65739
      vertex 84.1966 17.5273 6.74997
    endloop
  endfacet
  facet normal -0.356194 -0.69915 -0.619932
    outer loop
      vertex 83.3542 17.7348 7
      vertex 83.8587 18.0292 6.37811
      vertex 84.0292 17.6947 6.65739
    endloop
  endfacet
  facet normal -0.356116 -0.699217 -0.619901
    outer loop
      vertex 83.8587 18.0292 6.37811
      vertex 83.3542 17.7348 7
      vertex 83.8378 18.1611 6.24134
    endloop
  endfacet
  facet normal 0.12271 0.774813 -0.620167
    outer loop
      vertex 85.8652 22.663 7
      vertex 85.7053 22.5708 6.85317
      vertex 85.3708 22.7413 7
    endloop
  endfacet
  facet normal 0.122353 0.775058 -0.619932
    outer loop
      vertex 85.7053 22.5708 6.85317
      vertex 85.8652 22.663 7
      vertex 85.7716 22.5046 6.78349
    endloop
  endfacet
  facet normal 0 0 1
    outer loop
      vertex 85.8652 22.663 7
      vertex 85.3708 22.7413 7
      vertex 85 22.8 7
    endloop
  endfacet
  facet normal 0.12271 -0.774813 -0.620167
    outer loop
      vertex 85.7053 17.4292 6.85317
      vertex 85.8652 17.337 7
      vertex 85.3708 17.2587 7
    endloop
  endfacet
  facet normal 0.122353 -0.775058 -0.619932
    outer loop
      vertex 85.8652 17.337 7
      vertex 85.7053 17.4292 6.85317
      vertex 85.7716 17.4954 6.78349
    endloop
  endfacet
  facet normal 0 -0 1
    outer loop
      vertex 85.3708 17.2587 7
      vertex 85.8652 17.337 7
      vertex 85 17.2 7
    endloop
  endfacet
  facet normal -0.123451 -0.774708 -0.620151
    outer loop
      vertex 84.2284 17.4954 6.78349
      vertex 84.1348 17.337 7
      vertex 84.1966 17.5273 6.74997
    endloop
  endfacet
  facet normal -0.774958 -0.12274 -0.619979
    outer loop
      vertex 83.8 19.6101 5.07719
      vertex 82.337 19.1348 7
      vertex 83.8 20 5
    endloop
  endfacet
  facet normal -0.699181 0.356114 -0.619943
    outer loop
      vertex 83.8 20.4374 5.10451
      vertex 82.7348 21.6458 7
      vertex 83.8 20.8719 5.3541
    endloop
  endfacet
  facet normal -0.774958 0.12274 -0.619979
    outer loop
      vertex 83.8 20 5
      vertex 82.337 20.8652 7
      vertex 83.8 20.3899 5.07719
    endloop
  endfacet
  facet normal -0.699079 0.356256 -0.619976
    outer loop
      vertex 83.8 20.4374 5.10451
      vertex 82.337 20.8652 7
      vertex 82.7348 21.6458 7
    endloop
  endfacet
  facet normal -0.698948 0.356566 -0.619945
    outer loop
      vertex 82.337 20.8652 7
      vertex 83.8 20.4374 5.10451
      vertex 83.8 20.3899 5.07719
    endloop
  endfacet
  facet normal -0.356415 0.699002 -0.619971
    outer loop
      vertex 83.8067 21.6424 6.03767
      vertex 83.3542 22.2652 7
      vertex 83.8378 21.8389 6.24134
    endloop
  endfacet
  facet normal 0.356415 0.699002 -0.619971
    outer loop
      vertex 86.1933 21.6424 6.03767
      vertex 86.1622 21.8389 6.24134
      vertex 86.6458 22.2652 7
    endloop
  endfacet
  facet normal 0 0 1
    outer loop
      vertex 87.663 20.8652 7
      vertex 87.663 19.1348 7
      vertex 87.8 20 7
    endloop
  endfacet
  facet normal 0 0 1
    outer loop
      vertex 87.2652 21.6458 7
      vertex 87.663 19.1348 7
      vertex 87.663 20.8652 7
    endloop
  endfacet
  facet normal 0 0 1
    outer loop
      vertex 87.2652 21.6458 7
      vertex 87.2652 18.3542 7
      vertex 87.663 19.1348 7
    endloop
  endfacet
  facet normal 0 0 1
    outer loop
      vertex 86.6458 22.2652 7
      vertex 87.2652 18.3542 7
      vertex 87.2652 21.6458 7
    endloop
  endfacet
  facet normal 0 0 1
    outer loop
      vertex 86.6458 22.2652 7
      vertex 86.6458 17.7348 7
      vertex 87.2652 18.3542 7
    endloop
  endfacet
  facet normal 0 0 1
    outer loop
      vertex 85.8652 22.663 7
      vertex 86.6458 17.7348 7
      vertex 86.6458 22.2652 7
    endloop
  endfacet
  facet normal 0 0 1
    outer loop
      vertex 85.8652 22.663 7
      vertex 85.8652 17.337 7
      vertex 86.6458 17.7348 7
    endloop
  endfacet
  facet normal 0 0 1
    outer loop
      vertex 85 22.8 7
      vertex 85.8652 17.337 7
      vertex 85.8652 22.663 7
    endloop
  endfacet
  facet normal 0 0 1
    outer loop
      vertex 85 22.8 7
      vertex 85 17.2 7
      vertex 85.8652 17.337 7
    endloop
  endfacet
  facet normal -0 0 1
    outer loop
      vertex 84.1348 22.663 7
      vertex 85 17.2 7
      vertex 85 22.8 7
    endloop
  endfacet
  facet normal 0 0 1
    outer loop
      vertex 84.1348 22.663 7
      vertex 84.1348 17.337 7
      vertex 85 17.2 7
    endloop
  endfacet
  facet normal -0 0 1
    outer loop
      vertex 83.3542 22.2652 7
      vertex 84.1348 17.337 7
      vertex 84.1348 22.663 7
    endloop
  endfacet
  facet normal 0 0 1
    outer loop
      vertex 83.3542 22.2652 7
      vertex 83.3542 17.7348 7
      vertex 84.1348 17.337 7
    endloop
  endfacet
  facet normal -0 0 1
    outer loop
      vertex 82.7348 21.6458 7
      vertex 83.3542 17.7348 7
      vertex 83.3542 22.2652 7
    endloop
  endfacet
  facet normal 0 0 1
    outer loop
      vertex 82.7348 21.6458 7
      vertex 82.7348 18.3542 7
      vertex 83.3542 17.7348 7
    endloop
  endfacet
  facet normal -0 0 1
    outer loop
      vertex 82.337 20.8652 7
      vertex 82.7348 18.3542 7
      vertex 82.7348 21.6458 7
    endloop
  endfacet
  facet normal 0 0 1
    outer loop
      vertex 82.337 20.8652 7
      vertex 82.337 19.1348 7
      vertex 82.7348 18.3542 7
    endloop
  endfacet
  facet normal 0 -0 1
    outer loop
      vertex 82.337 19.1348 7
      vertex 82.337 20.8652 7
      vertex 82.2 20 7
    endloop
  endfacet
  facet normal -0.890938 0.454125 0
    outer loop
      vertex 83.8587 21.9708 6.37811
      vertex 84.0292 22.3053 2.1
      vertex 83.8587 21.9708 2.1
    endloop
  endfacet
  facet normal -0.890938 0.454125 0
    outer loop
      vertex 84.0292 22.3053 2.1
      vertex 83.8587 21.9708 6.37811
      vertex 84.0292 22.3053 6.65739
    endloop
  endfacet
  facet normal -0.706573 0.70764 0
    outer loop
      vertex 84.2947 22.5708 2.1
      vertex 84.2284 22.5046 6.78349
      vertex 84.2947 22.5708 6.85317
    endloop
  endfacet
  facet normal -0.708192 0.70602 -4.58202e-05
    outer loop
      vertex 84.2947 22.5708 2.1
      vertex 84.1966 22.4727 6.74997
      vertex 84.2284 22.5046 6.78349
    endloop
  endfacet
  facet normal -0.707107 0.707107 0
    outer loop
      vertex 84.0292 22.3053 6.65739
      vertex 84.2947 22.5708 2.1
      vertex 84.0292 22.3053 2.1
    endloop
  endfacet
  facet normal -0.707107 0.707107 -5.35834e-16
    outer loop
      vertex 84.2947 22.5708 2.1
      vertex 84.0292 22.3053 6.65739
      vertex 84.1966 22.4727 6.74997
    endloop
  endfacet
  facet normal -0.9877 -0.156359 0
    outer loop
      vertex 83.8587 18.0292 2.1
      vertex 83.8 18.4 6.00572
      vertex 83.8 18.4 2.1
    endloop
  endfacet
  facet normal -0.987741 -0.156101 -2.51598e-05
    outer loop
      vertex 83.8 18.4 6.00572
      vertex 83.8587 18.0292 2.1
      vertex 83.8067 18.3576 6.03767
    endloop
  endfacet
  facet normal -0.987705 -0.15633 -5.59275e-06
    outer loop
      vertex 83.8067 18.3576 6.03767
      vertex 83.8587 18.0292 2.1
      vertex 83.8378 18.1611 6.24134
    endloop
  endfacet
  facet normal -0.987678 -0.156501 0
    outer loop
      vertex 83.8378 18.1611 6.24134
      vertex 83.8587 18.0292 2.1
      vertex 83.8587 18.0292 6.37811
    endloop
  endfacet
  facet normal 0.156359 0.9877 -0
    outer loop
      vertex 85.3708 22.7413 2.1
      vertex 85 22.8 7
      vertex 85.3708 22.7413 7
    endloop
  endfacet
  facet normal 0.156359 0.9877 0
    outer loop
      vertex 85 22.8 7
      vertex 85.3708 22.7413 2.1
      vertex 85 22.8 2.1
    endloop
  endfacet
  facet normal 0.890938 -0.454125 0
    outer loop
      vertex 85.9708 17.6947 2.1
      vertex 86.1413 18.0292 6.37811
      vertex 85.9708 17.6947 6.65739
    endloop
  endfacet
  facet normal 0.890938 -0.454125 0
    outer loop
      vertex 86.1413 18.0292 6.37811
      vertex 85.9708 17.6947 2.1
      vertex 86.1413 18.0292 2.1
    endloop
  endfacet
  facet normal -0.707107 -0.707107 0
    outer loop
      vertex 84.2947 17.4292 2.1
      vertex 84.0292 17.6947 6.65739
      vertex 84.0292 17.6947 2.1
    endloop
  endfacet
  facet normal -0.707107 -0.707107 -5.35834e-16
    outer loop
      vertex 84.0292 17.6947 6.65739
      vertex 84.2947 17.4292 2.1
      vertex 84.1966 17.5273 6.74997
    endloop
  endfacet
  facet normal -0.708192 -0.70602 -4.58202e-05
    outer loop
      vertex 84.1966 17.5273 6.74997
      vertex 84.2947 17.4292 2.1
      vertex 84.2284 17.4954 6.78349
    endloop
  endfacet
  facet normal -0.706573 -0.70764 0
    outer loop
      vertex 84.2284 17.4954 6.78349
      vertex 84.2947 17.4292 2.1
      vertex 84.2947 17.4292 6.85317
    endloop
  endfacet
  facet normal -0.156359 0.9877 0
    outer loop
      vertex 85 22.8 2.1
      vertex 84.6292 22.7413 7
      vertex 85 22.8 7
    endloop
  endfacet
  facet normal -0.156359 0.9877 0
    outer loop
      vertex 84.6292 22.7413 7
      vertex 85 22.8 2.1
      vertex 84.6292 22.7413 2.1
    endloop
  endfacet
  facet normal -0.454125 0.890938 0
    outer loop
      vertex 84.6292 22.7413 2.1
      vertex 84.2947 22.5708 6.85317
      vertex 84.6292 22.7413 7
    endloop
  endfacet
  facet normal -0.454125 0.890938 0
    outer loop
      vertex 84.2947 22.5708 6.85317
      vertex 84.6292 22.7413 2.1
      vertex 84.2947 22.5708 2.1
    endloop
  endfacet
  facet normal -0.987678 0.156501 0
    outer loop
      vertex 83.8587 21.9708 2.1
      vertex 83.8378 21.8389 6.24134
      vertex 83.8587 21.9708 6.37811
    endloop
  endfacet
  facet normal -0.987705 0.15633 -5.59275e-06
    outer loop
      vertex 83.8587 21.9708 2.1
      vertex 83.8067 21.6424 6.03767
      vertex 83.8378 21.8389 6.24134
    endloop
  endfacet
  facet normal -0.9877 0.156359 0
    outer loop
      vertex 83.8 21.6 6.00572
      vertex 83.8587 21.9708 2.1
      vertex 83.8 21.6 2.1
    endloop
  endfacet
  facet normal -0.987741 0.156101 -2.51598e-05
    outer loop
      vertex 83.8587 21.9708 2.1
      vertex 83.8 21.6 6.00572
      vertex 83.8067 21.6424 6.03767
    endloop
  endfacet
  facet normal -0.454125 -0.890938 0
    outer loop
      vertex 84.6292 17.2587 2.1
      vertex 84.2947 17.4292 6.85317
      vertex 84.2947 17.4292 2.1
    endloop
  endfacet
  facet normal -0.454125 -0.890938 0
    outer loop
      vertex 84.2947 17.4292 6.85317
      vertex 84.6292 17.2587 2.1
      vertex 84.6292 17.2587 7
    endloop
  endfacet
  facet normal 1 -0 0
    outer loop
      vertex 86.2 20.8719 5.3541
      vertex 86.2 21.6 2.1
      vertex 86.2 21.6 6.00572
    endloop
  endfacet
  facet normal 1 -0 0
    outer loop
      vertex 86.2 20.4374 5.10451
      vertex 86.2 21.6 2.1
      vertex 86.2 20.8719 5.3541
    endloop
  endfacet
  facet normal 1 -0 0
    outer loop
      vertex 86.2 20.3899 5.07719
      vertex 86.2 21.6 2.1
      vertex 86.2 20.4374 5.10451
    endloop
  endfacet
  facet normal 1 -0 0
    outer loop
      vertex 86.2 20 5
      vertex 86.2 21.6 2.1
      vertex 86.2 20.3899 5.07719
    endloop
  endfacet
  facet normal 1 0 0
    outer loop
      vertex 86.2 18.4 2.1
      vertex 86.2 20 5
      vertex 86.2 19.6101 5.07719
    endloop
  endfacet
  facet normal 1 0 0
    outer loop
      vertex 86.2 18.4 2.1
      vertex 86.2 19.6101 5.07719
      vertex 86.2 19.5626 5.10451
    endloop
  endfacet
  facet normal 1 0 0
    outer loop
      vertex 86.2 18.4 2.1
      vertex 86.2 19.5626 5.10451
      vertex 86.2 19.1281 5.3541
    endloop
  endfacet
  facet normal 1 0 0
    outer loop
      vertex 86.2 18.4 2.1
      vertex 86.2 19.1281 5.3541
      vertex 86.2 18.4 6.00572
    endloop
  endfacet
  facet normal 1 0 0
    outer loop
      vertex 86.2 20 5
      vertex 86.2 18.4 2.1
      vertex 86.2 21.6 2.1
    endloop
  endfacet
  facet normal 0.987741 -0.156101 -2.51598e-05
    outer loop
      vertex 86.1413 18.0292 2.1
      vertex 86.2 18.4 6.00572
      vertex 86.1933 18.3576 6.03767
    endloop
  endfacet
  facet normal 0.987705 -0.15633 -5.59275e-06
    outer loop
      vertex 86.1413 18.0292 2.1
      vertex 86.1933 18.3576 6.03767
      vertex 86.1622 18.1611 6.24134
    endloop
  endfacet
  facet normal 0.987678 -0.156501 0
    outer loop
      vertex 86.1413 18.0292 2.1
      vertex 86.1622 18.1611 6.24134
      vertex 86.1413 18.0292 6.37811
    endloop
  endfacet
  facet normal 0.9877 -0.156359 0
    outer loop
      vertex 86.2 18.4 6.00572
      vertex 86.1413 18.0292 2.1
      vertex 86.2 18.4 2.1
    endloop
  endfacet
  facet normal 0.454125 0.890938 0
    outer loop
      vertex 85.3708 22.7413 2.1
      vertex 85.7053 22.5708 6.85317
      vertex 85.7053 22.5708 2.1
    endloop
  endfacet
  facet normal 0.454125 0.890938 0
    outer loop
      vertex 85.7053 22.5708 6.85317
      vertex 85.3708 22.7413 2.1
      vertex 85.3708 22.7413 7
    endloop
  endfacet
  facet normal 0.890938 0.454125 0
    outer loop
      vertex 86.1413 21.9708 6.37811
      vertex 85.9708 22.3053 2.1
      vertex 85.9708 22.3053 6.65739
    endloop
  endfacet
  facet normal 0.890938 0.454125 0
    outer loop
      vertex 85.9708 22.3053 2.1
      vertex 86.1413 21.9708 6.37811
      vertex 86.1413 21.9708 2.1
    endloop
  endfacet
  facet normal -0.890938 -0.454125 0
    outer loop
      vertex 84.0292 17.6947 2.1
      vertex 83.8587 18.0292 6.37811
      vertex 83.8587 18.0292 2.1
    endloop
  endfacet
  facet normal -0.890938 -0.454125 0
    outer loop
      vertex 83.8587 18.0292 6.37811
      vertex 84.0292 17.6947 2.1
      vertex 84.0292 17.6947 6.65739
    endloop
  endfacet
  facet normal -1 0 0
    outer loop
      vertex 83.8 21.6 2.1
      vertex 83.8 20.8719 5.3541
      vertex 83.8 21.6 6.00572
    endloop
  endfacet
  facet normal -1 0 0
    outer loop
      vertex 83.8 21.6 2.1
      vertex 83.8 20.4374 5.10451
      vertex 83.8 20.8719 5.3541
    endloop
  endfacet
  facet normal -1 0 0
    outer loop
      vertex 83.8 21.6 2.1
      vertex 83.8 20.3899 5.07719
      vertex 83.8 20.4374 5.10451
    endloop
  endfacet
  facet normal -1 0 0
    outer loop
      vertex 83.8 21.6 2.1
      vertex 83.8 20 5
      vertex 83.8 20.3899 5.07719
    endloop
  endfacet
  facet normal -1 0 0
    outer loop
      vertex 83.8 18.4 2.1
      vertex 83.8 20 5
      vertex 83.8 21.6 2.1
    endloop
  endfacet
  facet normal -1 -0 0
    outer loop
      vertex 83.8 20 5
      vertex 83.8 18.4 2.1
      vertex 83.8 19.6101 5.07719
    endloop
  endfacet
  facet normal -1 -0 0
    outer loop
      vertex 83.8 19.6101 5.07719
      vertex 83.8 18.4 2.1
      vertex 83.8 19.5626 5.10451
    endloop
  endfacet
  facet normal -1 -0 0
    outer loop
      vertex 83.8 19.5626 5.10451
      vertex 83.8 18.4 2.1
      vertex 83.8 19.1281 5.3541
    endloop
  endfacet
  facet normal -1 -0 0
    outer loop
      vertex 83.8 19.1281 5.3541
      vertex 83.8 18.4 2.1
      vertex 83.8 18.4 6.00572
    endloop
  endfacet
  facet normal 0.706573 0.70764 0
    outer loop
      vertex 85.7716 22.5046 6.78349
      vertex 85.7053 22.5708 2.1
      vertex 85.7053 22.5708 6.85317
    endloop
  endfacet
  facet normal 0.708192 0.70602 -4.58202e-05
    outer loop
      vertex 85.8034 22.4727 6.74997
      vertex 85.7053 22.5708 2.1
      vertex 85.7716 22.5046 6.78349
    endloop
  endfacet
  facet normal 0.707107 0.707107 -5.35834e-16
    outer loop
      vertex 85.9708 22.3053 6.65739
      vertex 85.7053 22.5708 2.1
      vertex 85.8034 22.4727 6.74997
    endloop
  endfacet
  facet normal 0.707107 0.707107 0
    outer loop
      vertex 85.7053 22.5708 2.1
      vertex 85.9708 22.3053 6.65739
      vertex 85.9708 22.3053 2.1
    endloop
  endfacet
  facet normal 0.454125 -0.890938 0
    outer loop
      vertex 85.3708 17.2587 2.1
      vertex 85.7053 17.4292 6.85317
      vertex 85.3708 17.2587 7
    endloop
  endfacet
  facet normal 0.454125 -0.890938 0
    outer loop
      vertex 85.7053 17.4292 6.85317
      vertex 85.3708 17.2587 2.1
      vertex 85.7053 17.4292 2.1
    endloop
  endfacet
  facet normal 0.707107 -0.707107 -5.35834e-16
    outer loop
      vertex 85.7053 17.4292 2.1
      vertex 85.9708 17.6947 6.65739
      vertex 85.8034 17.5273 6.74997
    endloop
  endfacet
  facet normal 0.708192 -0.70602 -4.58202e-05
    outer loop
      vertex 85.7053 17.4292 2.1
      vertex 85.8034 17.5273 6.74997
      vertex 85.7716 17.4954 6.78349
    endloop
  endfacet
  facet normal 0.706573 -0.70764 0
    outer loop
      vertex 85.7053 17.4292 2.1
      vertex 85.7716 17.4954 6.78349
      vertex 85.7053 17.4292 6.85317
    endloop
  endfacet
  facet normal 0.707107 -0.707107 0
    outer loop
      vertex 85.9708 17.6947 6.65739
      vertex 85.7053 17.4292 2.1
      vertex 85.9708 17.6947 2.1
    endloop
  endfacet
  facet normal 0.156359 -0.9877 0
    outer loop
      vertex 85 17.2 2.1
      vertex 85.3708 17.2587 7
      vertex 85 17.2 7
    endloop
  endfacet
  facet normal 0.156359 -0.9877 0
    outer loop
      vertex 85.3708 17.2587 7
      vertex 85 17.2 2.1
      vertex 85.3708 17.2587 2.1
    endloop
  endfacet
  facet normal -0.156359 -0.9877 0
    outer loop
      vertex 84.6292 17.2587 2.1
      vertex 85 17.2 7
      vertex 84.6292 17.2587 7
    endloop
  endfacet
  facet normal -0.156359 -0.9877 -0
    outer loop
      vertex 85 17.2 7
      vertex 84.6292 17.2587 2.1
      vertex 85 17.2 2.1
    endloop
  endfacet
  facet normal 0.987678 0.156501 0
    outer loop
      vertex 86.1622 21.8389 6.24134
      vertex 86.1413 21.9708 2.1
      vertex 86.1413 21.9708 6.37811
    endloop
  endfacet
  facet normal 0.987705 0.15633 -5.59275e-06
    outer loop
      vertex 86.1933 21.6424 6.03767
      vertex 86.1413 21.9708 2.1
      vertex 86.1622 21.8389 6.24134
    endloop
  endfacet
  facet normal 0.987741 0.156101 -2.51598e-05
    outer loop
      vertex 86.2 21.6 6.00572
      vertex 86.1413 21.9708 2.1
      vertex 86.1933 21.6424 6.03767
    endloop
  endfacet
  facet normal 0.9877 0.156359 0
    outer loop
      vertex 86.1413 21.9708 2.1
      vertex 86.2 21.6 6.00572
      vertex 86.2 21.6 2.1
    endloop
  endfacet
  facet normal 0.554819 0.554831 -0.619951
    outer loop
      vertex 11.2 21.6 6.00572
      vertex 12.2652 21.6458 7
      vertex 11.2 20.8719 5.3541
    endloop
  endfacet
  facet normal 0.55482 0.554829 -0.619951
    outer loop
      vertex 11.1933 21.6424 6.03767
      vertex 12.2652 21.6458 7
      vertex 11.2 21.6 6.00572
    endloop
  endfacet
  facet normal 0.554823 0.554823 -0.619955
    outer loop
      vertex 12.2652 21.6458 7
      vertex 11.1933 21.6424 6.03767
      vertex 11.6458 22.2652 7
    endloop
  endfacet
  facet normal 0.774967 0.122712 -0.619974
    outer loop
      vertex 12.8 20 7
      vertex 11.2 20 5
      vertex 12.663 20.8652 7
    endloop
  endfacet
  facet normal 0.774958 0.12274 -0.619979
    outer loop
      vertex 12.663 20.8652 7
      vertex 11.2 20 5
      vertex 11.2 20.3899 5.07719
    endloop
  endfacet
  facet normal 0.55482 -0.554829 -0.619951
    outer loop
      vertex 12.2652 18.3542 7
      vertex 11.1933 18.3576 6.03767
      vertex 11.2 18.4 6.00572
    endloop
  endfacet
  facet normal 0.554823 -0.554823 -0.619955
    outer loop
      vertex 11.1933 18.3576 6.03767
      vertex 12.2652 18.3542 7
      vertex 11.6458 17.7348 7
    endloop
  endfacet
  facet normal 0.554819 -0.554831 -0.619951
    outer loop
      vertex 12.2652 18.3542 7
      vertex 11.2 18.4 6.00572
      vertex 11.2 19.1281 5.3541
    endloop
  endfacet
  facet normal -0.774964 -0.122747 -0.619971
    outer loop
      vertex 7.33704 19.1348 7
      vertex 7.2 20 7
      vertex 8.8 20 5
    endloop
  endfacet
  facet normal 0.699181 -0.356114 -0.619943
    outer loop
      vertex 12.2652 18.3542 7
      vertex 11.2 19.1281 5.3541
      vertex 11.2 19.5626 5.10451
    endloop
  endfacet
  facet normal 0.774958 -0.12274 -0.619979
    outer loop
      vertex 12.663 19.1348 7
      vertex 11.2 19.6101 5.07719
      vertex 11.2 20 5
    endloop
  endfacet
  facet normal -0.698958 -0.356562 -0.619937
    outer loop
      vertex 8.8 19.5626 5.10451
      vertex 7.33704 19.1348 7
      vertex 8.8 19.6101 5.07719
    endloop
  endfacet
  facet normal -0.699113 -0.356193 -0.619974
    outer loop
      vertex 7.33704 19.1348 7
      vertex 8.8 19.5626 5.10451
      vertex 7.73475 18.3542 7
    endloop
  endfacet
  facet normal 0.123451 0.774708 -0.620151
    outer loop
      vertex 10.8034 22.4727 6.74997
      vertex 10.7716 22.5046 6.78349
      vertex 10.8652 22.663 7
    endloop
  endfacet
  facet normal 0.356122 -0.699055 -0.62008
    outer loop
      vertex 10.9708 17.6947 6.65739
      vertex 10.8652 17.337 7
      vertex 10.8034 17.5273 6.74997
    endloop
  endfacet
  facet normal 0.356237 -0.699041 -0.62003
    outer loop
      vertex 10.8652 17.337 7
      vertex 10.9708 17.6947 6.65739
      vertex 11.6458 17.7348 7
    endloop
  endfacet
  facet normal 0.356194 -0.69915 -0.619932
    outer loop
      vertex 11.1413 18.0292 6.37811
      vertex 11.6458 17.7348 7
      vertex 10.9708 17.6947 6.65739
    endloop
  endfacet
  facet normal 0.356116 -0.699217 -0.619901
    outer loop
      vertex 11.6458 17.7348 7
      vertex 11.1413 18.0292 6.37811
      vertex 11.1622 18.1611 6.24134
    endloop
  endfacet
  facet normal 0.698948 -0.356566 -0.619945
    outer loop
      vertex 12.663 19.1348 7
      vertex 11.2 19.5626 5.10451
      vertex 11.2 19.6101 5.07719
    endloop
  endfacet
  facet normal 0.699079 -0.356256 -0.619976
    outer loop
      vertex 11.2 19.5626 5.10451
      vertex 12.663 19.1348 7
      vertex 12.2652 18.3542 7
    endloop
  endfacet
  facet normal 0.356415 -0.699002 -0.619971
    outer loop
      vertex 11.6458 17.7348 7
      vertex 11.1622 18.1611 6.24134
      vertex 11.1933 18.3576 6.03767
    endloop
  endfacet
  facet normal 0.774967 -0.122712 -0.619974
    outer loop
      vertex 12.663 19.1348 7
      vertex 11.2 20 5
      vertex 12.8 20 7
    endloop
  endfacet
  facet normal -0.774964 0.122747 -0.619971
    outer loop
      vertex 8.8 20 5
      vertex 7.2 20 7
      vertex 7.33704 20.8652 7
    endloop
  endfacet
  facet normal -0.699164 -0.356122 -0.619957
    outer loop
      vertex 8.8 19.1281 5.3541
      vertex 7.73475 18.3542 7
      vertex 8.8 19.5626 5.10451
    endloop
  endfacet
  facet normal -0.123269 0.774746 -0.620139
    outer loop
      vertex 9.19656 22.4727 6.74997
      vertex 9.13475 22.663 7
      vertex 9.22842 22.5046 6.78349
    endloop
  endfacet
  facet normal -0.122703 -0.774814 -0.620168
    outer loop
      vertex 9.13475 17.337 7
      vertex 9.29466 17.4292 6.85317
      vertex 9.62918 17.2587 7
    endloop
  endfacet
  facet normal -0.122395 -0.775024 -0.619965
    outer loop
      vertex 9.29466 17.4292 6.85317
      vertex 9.13475 17.337 7
      vertex 9.22842 17.4954 6.78349
    endloop
  endfacet
  facet normal -0 -0 1
    outer loop
      vertex 9.62918 17.2587 7
      vertex 10 17.2 7
      vertex 9.13475 17.337 7
    endloop
  endfacet
  facet normal -0.356361 -0.69903 -0.619971
    outer loop
      vertex 8.83784 18.1611 6.24134
      vertex 8.3542 17.7348 7
      vertex 8.80672 18.3576 6.03767
    endloop
  endfacet
  facet normal 0.123451 -0.774708 -0.620151
    outer loop
      vertex 10.8652 17.337 7
      vertex 10.7716 17.4954 6.78349
      vertex 10.8034 17.5273 6.74997
    endloop
  endfacet
  facet normal -0.554795 -0.55484 -0.619964
    outer loop
      vertex 7.73475 18.3542 7
      vertex 8.80672 18.3576 6.03767
      vertex 8.3542 17.7348 7
    endloop
  endfacet
  facet normal -0.554716 -0.555017 -0.619876
    outer loop
      vertex 8.80672 18.3576 6.03767
      vertex 7.73475 18.3542 7
      vertex 8.8 18.4 6.00572
    endloop
  endfacet
  facet normal -0.554801 -0.554839 -0.61996
    outer loop
      vertex 8.8 18.4 6.00572
      vertex 7.73475 18.3542 7
      vertex 8.8 19.1281 5.3541
    endloop
  endfacet
  facet normal 0.699079 0.356256 -0.619976
    outer loop
      vertex 12.663 20.8652 7
      vertex 11.2 20.4374 5.10451
      vertex 12.2652 21.6458 7
    endloop
  endfacet
  facet normal 0.698948 0.356566 -0.619945
    outer loop
      vertex 11.2 20.4374 5.10451
      vertex 12.663 20.8652 7
      vertex 11.2 20.3899 5.07719
    endloop
  endfacet
  facet normal 0.356237 0.699041 -0.62003
    outer loop
      vertex 10.9708 22.3053 6.65739
      vertex 10.8652 22.663 7
      vertex 11.6458 22.2652 7
    endloop
  endfacet
  facet normal 0.356122 0.699055 -0.62008
    outer loop
      vertex 10.8652 22.663 7
      vertex 10.9708 22.3053 6.65739
      vertex 10.8034 22.4727 6.74997
    endloop
  endfacet
  facet normal 0.356194 0.69915 -0.619932
    outer loop
      vertex 11.6458 22.2652 7
      vertex 11.1413 21.9708 6.37811
      vertex 10.9708 22.3053 6.65739
    endloop
  endfacet
  facet normal 0.356116 0.699217 -0.619901
    outer loop
      vertex 11.1413 21.9708 6.37811
      vertex 11.6458 22.2652 7
      vertex 11.1622 21.8389 6.24134
    endloop
  endfacet
  facet normal -0.122703 0.774814 -0.620168
    outer loop
      vertex 9.29466 22.5708 6.85317
      vertex 9.13475 22.663 7
      vertex 9.62918 22.7413 7
    endloop
  endfacet
  facet normal -0.122395 0.775024 -0.619965
    outer loop
      vertex 9.13475 22.663 7
      vertex 9.29466 22.5708 6.85317
      vertex 9.22842 22.5046 6.78349
    endloop
  endfacet
  facet normal -0 0 1
    outer loop
      vertex 9.62918 22.7413 7
      vertex 9.13475 22.663 7
      vertex 10 22.8 7
    endloop
  endfacet
  facet normal 0.699181 0.356114 -0.619943
    outer loop
      vertex 12.2652 21.6458 7
      vertex 11.2 20.4374 5.10451
      vertex 11.2 20.8719 5.3541
    endloop
  endfacet
  facet normal -0.554801 0.554839 -0.61996
    outer loop
      vertex 7.73475 21.6458 7
      vertex 8.8 21.6 6.00572
      vertex 8.8 20.8719 5.3541
    endloop
  endfacet
  facet normal -0.554799 0.554843 -0.619957
    outer loop
      vertex 8.8 21.6 6.00572
      vertex 7.73475 21.6458 7
      vertex 8.3542 22.2652 7
    endloop
  endfacet
  facet normal -0.55453 0.555075 -0.619991
    outer loop
      vertex 8.80672 21.6424 6.03767
      vertex 8.8 21.6 6.00572
      vertex 8.3542 22.2652 7
    endloop
  endfacet
  facet normal -0.356144 0.699038 -0.620086
    outer loop
      vertex 9.02918 22.3053 6.65739
      vertex 9.13475 22.663 7
      vertex 9.19656 22.4727 6.74997
    endloop
  endfacet
  facet normal -0.356252 0.699025 -0.62004
    outer loop
      vertex 9.13475 22.663 7
      vertex 9.02918 22.3053 6.65739
      vertex 8.3542 22.2652 7
    endloop
  endfacet
  facet normal -0.356213 0.699123 -0.619952
    outer loop
      vertex 8.85873 21.9708 6.37811
      vertex 8.3542 22.2652 7
      vertex 9.02918 22.3053 6.65739
    endloop
  endfacet
  facet normal -0.356119 0.699204 -0.619914
    outer loop
      vertex 8.3542 22.2652 7
      vertex 8.85873 21.9708 6.37811
      vertex 8.83784 21.8389 6.24134
    endloop
  endfacet
  facet normal -0.356252 -0.699025 -0.62004
    outer loop
      vertex 9.02918 17.6947 6.65739
      vertex 9.13475 17.337 7
      vertex 8.3542 17.7348 7
    endloop
  endfacet
  facet normal -0.356144 -0.699038 -0.620086
    outer loop
      vertex 9.13475 17.337 7
      vertex 9.02918 17.6947 6.65739
      vertex 9.19656 17.5273 6.74997
    endloop
  endfacet
  facet normal -0.356213 -0.699123 -0.619952
    outer loop
      vertex 8.3542 17.7348 7
      vertex 8.85873 18.0292 6.37811
      vertex 9.02918 17.6947 6.65739
    endloop
  endfacet
  facet normal -0.356119 -0.699204 -0.619914
    outer loop
      vertex 8.85873 18.0292 6.37811
      vertex 8.3542 17.7348 7
      vertex 8.83784 18.1611 6.24134
    endloop
  endfacet
  facet normal 0.12271 0.774813 -0.620167
    outer loop
      vertex 10.8652 22.663 7
      vertex 10.7053 22.5708 6.85317
      vertex 10.3708 22.7413 7
    endloop
  endfacet
  facet normal 0.122353 0.775058 -0.619932
    outer loop
      vertex 10.7053 22.5708 6.85317
      vertex 10.8652 22.663 7
      vertex 10.7716 22.5046 6.78349
    endloop
  endfacet
  facet normal 0 0 1
    outer loop
      vertex 10.8652 22.663 7
      vertex 10.3708 22.7413 7
      vertex 10 22.8 7
    endloop
  endfacet
  facet normal 0.12271 -0.774813 -0.620167
    outer loop
      vertex 10.7053 17.4292 6.85317
      vertex 10.8652 17.337 7
      vertex 10.3708 17.2587 7
    endloop
  endfacet
  facet normal 0.122353 -0.775058 -0.619932
    outer loop
      vertex 10.8652 17.337 7
      vertex 10.7053 17.4292 6.85317
      vertex 10.7716 17.4954 6.78349
    endloop
  endfacet
  facet normal 0 0 1
    outer loop
      vertex 10.8652 17.337 7
      vertex 10 17.2 7
      vertex 10.3708 17.2587 7
    endloop
  endfacet
  facet normal -0.123269 -0.774746 -0.620139
    outer loop
      vertex 9.22842 17.4954 6.78349
      vertex 9.13475 17.337 7
      vertex 9.19656 17.5273 6.74997
    endloop
  endfacet
  facet normal -0.774967 -0.122738 -0.619969
    outer loop
      vertex 8.8 19.6101 5.07719
      vertex 7.33704 19.1348 7
      vertex 8.8 20 5
    endloop
  endfacet
  facet normal -0.699164 0.356122 -0.619957
    outer loop
      vertex 8.8 20.4374 5.10451
      vertex 7.73475 21.6458 7
      vertex 8.8 20.8719 5.3541
    endloop
  endfacet
  facet normal -0.774967 0.122738 -0.619969
    outer loop
      vertex 8.8 20 5
      vertex 7.33704 20.8652 7
      vertex 8.8 20.3899 5.07719
    endloop
  endfacet
  facet normal -0.699113 0.356193 -0.619974
    outer loop
      vertex 8.8 20.4374 5.10451
      vertex 7.33704 20.8652 7
      vertex 7.73475 21.6458 7
    endloop
  endfacet
  facet normal -0.698958 0.356562 -0.619937
    outer loop
      vertex 7.33704 20.8652 7
      vertex 8.8 20.4374 5.10451
      vertex 8.8 20.3899 5.07719
    endloop
  endfacet
  facet normal -0.356361 0.69903 -0.619971
    outer loop
      vertex 8.80672 21.6424 6.03767
      vertex 8.3542 22.2652 7
      vertex 8.83784 21.8389 6.24134
    endloop
  endfacet
  facet normal 0.356415 0.699002 -0.619971
    outer loop
      vertex 11.1933 21.6424 6.03767
      vertex 11.1622 21.8389 6.24134
      vertex 11.6458 22.2652 7
    endloop
  endfacet
  facet normal 0 0 1
    outer loop
      vertex 12.663 20.8652 7
      vertex 12.663 19.1348 7
      vertex 12.8 20 7
    endloop
  endfacet
  facet normal 0 0 1
    outer loop
      vertex 12.2652 21.6458 7
      vertex 12.663 19.1348 7
      vertex 12.663 20.8652 7
    endloop
  endfacet
  facet normal 0 0 1
    outer loop
      vertex 12.2652 21.6458 7
      vertex 12.2652 18.3542 7
      vertex 12.663 19.1348 7
    endloop
  endfacet
  facet normal 0 0 1
    outer loop
      vertex 11.6458 22.2652 7
      vertex 12.2652 18.3542 7
      vertex 12.2652 21.6458 7
    endloop
  endfacet
  facet normal 0 0 1
    outer loop
      vertex 11.6458 22.2652 7
      vertex 11.6458 17.7348 7
      vertex 12.2652 18.3542 7
    endloop
  endfacet
  facet normal 0 0 1
    outer loop
      vertex 10.8652 22.663 7
      vertex 11.6458 17.7348 7
      vertex 11.6458 22.2652 7
    endloop
  endfacet
  facet normal 0 0 1
    outer loop
      vertex 10.8652 22.663 7
      vertex 10.8652 17.337 7
      vertex 11.6458 17.7348 7
    endloop
  endfacet
  facet normal 0 0 1
    outer loop
      vertex 10 22.8 7
      vertex 10.8652 17.337 7
      vertex 10.8652 22.663 7
    endloop
  endfacet
  facet normal 0 0 1
    outer loop
      vertex 10 22.8 7
      vertex 10 17.2 7
      vertex 10.8652 17.337 7
    endloop
  endfacet
  facet normal -0 0 1
    outer loop
      vertex 9.13475 22.663 7
      vertex 10 17.2 7
      vertex 10 22.8 7
    endloop
  endfacet
  facet normal 0 0 1
    outer loop
      vertex 9.13475 22.663 7
      vertex 9.13475 17.337 7
      vertex 10 17.2 7
    endloop
  endfacet
  facet normal -0 0 1
    outer loop
      vertex 8.3542 22.2652 7
      vertex 9.13475 17.337 7
      vertex 9.13475 22.663 7
    endloop
  endfacet
  facet normal 0 0 1
    outer loop
      vertex 8.3542 22.2652 7
      vertex 8.3542 17.7348 7
      vertex 9.13475 17.337 7
    endloop
  endfacet
  facet normal -0 0 1
    outer loop
      vertex 7.73475 21.6458 7
      vertex 8.3542 17.7348 7
      vertex 8.3542 22.2652 7
    endloop
  endfacet
  facet normal 0 0 1
    outer loop
      vertex 7.73475 21.6458 7
      vertex 7.73475 18.3542 7
      vertex 8.3542 17.7348 7
    endloop
  endfacet
  facet normal -0 0 1
    outer loop
      vertex 7.33704 20.8652 7
      vertex 7.73475 18.3542 7
      vertex 7.73475 21.6458 7
    endloop
  endfacet
  facet normal 0 0 1
    outer loop
      vertex 7.33704 20.8652 7
      vertex 7.33704 19.1348 7
      vertex 7.73475 18.3542 7
    endloop
  endfacet
  facet normal 0 -0 1
    outer loop
      vertex 7.33704 19.1348 7
      vertex 7.33704 20.8652 7
      vertex 7.2 20 7
    endloop
  endfacet
  facet normal -0.890992 0.45402 0
    outer loop
      vertex 8.85873 21.9708 6.37811
      vertex 9.02918 22.3053 2.1
      vertex 8.85873 21.9708 2.1
    endloop
  endfacet
  facet normal -0.890992 0.45402 0
    outer loop
      vertex 9.02918 22.3053 2.1
      vertex 8.85873 21.9708 6.37811
      vertex 9.02918 22.3053 6.65739
    endloop
  endfacet
  facet normal -0.706893 0.70732 0
    outer loop
      vertex 9.29466 22.5708 2.1
      vertex 9.22842 22.5046 6.78349
      vertex 9.29466 22.5708 6.85317
    endloop
  endfacet
  facet normal -0.707541 0.706673 -1.83112e-05
    outer loop
      vertex 9.29466 22.5708 2.1
      vertex 9.19656 22.4727 6.74997
      vertex 9.22842 22.5046 6.78349
    endloop
  endfacet
  facet normal -0.707133 0.70708 0
    outer loop
      vertex 9.02918 22.3053 6.65739
      vertex 9.29466 22.5708 2.1
      vertex 9.02918 22.3053 2.1
    endloop
  endfacet
  facet normal -0.707149 0.707065 -1.76184e-06
    outer loop
      vertex 9.29466 22.5708 2.1
      vertex 9.02918 22.3053 6.65739
      vertex 9.19656 22.4727 6.74997
    endloop
  endfacet
  facet normal -0.987688 -0.156437 0
    outer loop
      vertex 8.85873 18.0292 2.1
      vertex 8.8 18.4 6.00572
      vertex 8.8 18.4 2.1
    endloop
  endfacet
  facet normal -0.987673 -0.15653 9.03908e-06
    outer loop
      vertex 8.8 18.4 6.00572
      vertex 8.85873 18.0292 2.1
      vertex 8.80672 18.3576 6.03767
    endloop
  endfacet
  facet normal -0.98769 -0.156422 -1.84464e-07
    outer loop
      vertex 8.80672 18.3576 6.03767
      vertex 8.85873 18.0292 2.1
      vertex 8.83784 18.1611 6.24134
    endloop
  endfacet
  facet normal -0.987689 -0.156428 0
    outer loop
      vertex 8.83784 18.1611 6.24134
      vertex 8.85873 18.0292 2.1
      vertex 8.85873 18.0292 6.37811
    endloop
  endfacet
  facet normal 0.156359 0.9877 -0
    outer loop
      vertex 10.3708 22.7413 2.1
      vertex 10 22.8 7
      vertex 10.3708 22.7413 7
    endloop
  endfacet
  facet normal 0.156359 0.9877 0
    outer loop
      vertex 10 22.8 7
      vertex 10.3708 22.7413 2.1
      vertex 10 22.8 2.1
    endloop
  endfacet
  facet normal 0.890938 -0.454125 0
    outer loop
      vertex 10.9708 17.6947 2.1
      vertex 11.1413 18.0292 6.37811
      vertex 10.9708 17.6947 6.65739
    endloop
  endfacet
  facet normal 0.890938 -0.454125 0
    outer loop
      vertex 11.1413 18.0292 6.37811
      vertex 10.9708 17.6947 2.1
      vertex 11.1413 18.0292 2.1
    endloop
  endfacet
  facet normal -0.707133 -0.70708 0
    outer loop
      vertex 9.29466 17.4292 2.1
      vertex 9.02918 17.6947 6.65739
      vertex 9.02918 17.6947 2.1
    endloop
  endfacet
  facet normal -0.707149 -0.707065 -1.76184e-06
    outer loop
      vertex 9.02918 17.6947 6.65739
      vertex 9.29466 17.4292 2.1
      vertex 9.19656 17.5273 6.74997
    endloop
  endfacet
  facet normal -0.707541 -0.706673 -1.83112e-05
    outer loop
      vertex 9.19656 17.5273 6.74997
      vertex 9.29466 17.4292 2.1
      vertex 9.22842 17.4954 6.78349
    endloop
  endfacet
  facet normal -0.706893 -0.70732 0
    outer loop
      vertex 9.22842 17.4954 6.78349
      vertex 9.29466 17.4292 2.1
      vertex 9.29466 17.4292 6.85317
    endloop
  endfacet
  facet normal -0.156351 0.987702 0
    outer loop
      vertex 10 22.8 2.1
      vertex 9.62918 22.7413 7
      vertex 10 22.8 7
    endloop
  endfacet
  facet normal -0.156351 0.987702 0
    outer loop
      vertex 9.62918 22.7413 7
      vertex 10 22.8 2.1
      vertex 9.62918 22.7413 2.1
    endloop
  endfacet
  facet normal -0.454104 0.890949 0
    outer loop
      vertex 9.62918 22.7413 2.1
      vertex 9.29466 22.5708 6.85317
      vertex 9.62918 22.7413 7
    endloop
  endfacet
  facet normal -0.454104 0.890949 0
    outer loop
      vertex 9.29466 22.5708 6.85317
      vertex 9.62918 22.7413 2.1
      vertex 9.29466 22.5708 2.1
    endloop
  endfacet
  facet normal -0.987689 0.156428 0
    outer loop
      vertex 8.85873 21.9708 2.1
      vertex 8.83784 21.8389 6.24134
      vertex 8.85873 21.9708 6.37811
    endloop
  endfacet
  facet normal -0.98769 0.156422 -1.84464e-07
    outer loop
      vertex 8.85873 21.9708 2.1
      vertex 8.80672 21.6424 6.03767
      vertex 8.83784 21.8389 6.24134
    endloop
  endfacet
  facet normal -0.987688 0.156437 0
    outer loop
      vertex 8.8 21.6 6.00572
      vertex 8.85873 21.9708 2.1
      vertex 8.8 21.6 2.1
    endloop
  endfacet
  facet normal -0.987673 0.15653 9.03908e-06
    outer loop
      vertex 8.85873 21.9708 2.1
      vertex 8.8 21.6 6.00572
      vertex 8.80672 21.6424 6.03767
    endloop
  endfacet
  facet normal -0.454104 -0.890949 0
    outer loop
      vertex 9.62918 17.2587 2.1
      vertex 9.29466 17.4292 6.85317
      vertex 9.29466 17.4292 2.1
    endloop
  endfacet
  facet normal -0.454104 -0.890949 0
    outer loop
      vertex 9.29466 17.4292 6.85317
      vertex 9.62918 17.2587 2.1
      vertex 9.62918 17.2587 7
    endloop
  endfacet
  facet normal 1 -0 0
    outer loop
      vertex 11.2 20.8719 5.3541
      vertex 11.2 21.6 2.1
      vertex 11.2 21.6 6.00572
    endloop
  endfacet
  facet normal 1 -0 0
    outer loop
      vertex 11.2 20.4374 5.10451
      vertex 11.2 21.6 2.1
      vertex 11.2 20.8719 5.3541
    endloop
  endfacet
  facet normal 1 -0 0
    outer loop
      vertex 11.2 20.3899 5.07719
      vertex 11.2 21.6 2.1
      vertex 11.2 20.4374 5.10451
    endloop
  endfacet
  facet normal 1 -0 0
    outer loop
      vertex 11.2 20 5
      vertex 11.2 21.6 2.1
      vertex 11.2 20.3899 5.07719
    endloop
  endfacet
  facet normal 1 0 0
    outer loop
      vertex 11.2 18.4 2.1
      vertex 11.2 20 5
      vertex 11.2 19.6101 5.07719
    endloop
  endfacet
  facet normal 1 0 0
    outer loop
      vertex 11.2 18.4 2.1
      vertex 11.2 19.6101 5.07719
      vertex 11.2 19.5626 5.10451
    endloop
  endfacet
  facet normal 1 0 0
    outer loop
      vertex 11.2 18.4 2.1
      vertex 11.2 19.5626 5.10451
      vertex 11.2 19.1281 5.3541
    endloop
  endfacet
  facet normal 1 0 0
    outer loop
      vertex 11.2 18.4 2.1
      vertex 11.2 19.1281 5.3541
      vertex 11.2 18.4 6.00572
    endloop
  endfacet
  facet normal 1 0 0
    outer loop
      vertex 11.2 20 5
      vertex 11.2 18.4 2.1
      vertex 11.2 21.6 2.1
    endloop
  endfacet
  facet normal 0.987741 -0.156101 -2.51598e-05
    outer loop
      vertex 11.1413 18.0292 2.1
      vertex 11.2 18.4 6.00572
      vertex 11.1933 18.3576 6.03767
    endloop
  endfacet
  facet normal 0.987705 -0.15633 -5.59275e-06
    outer loop
      vertex 11.1413 18.0292 2.1
      vertex 11.1933 18.3576 6.03767
      vertex 11.1622 18.1611 6.24134
    endloop
  endfacet
  facet normal 0.987678 -0.156501 0
    outer loop
      vertex 11.1413 18.0292 2.1
      vertex 11.1622 18.1611 6.24134
      vertex 11.1413 18.0292 6.37811
    endloop
  endfacet
  facet normal 0.9877 -0.156359 0
    outer loop
      vertex 11.2 18.4 6.00572
      vertex 11.1413 18.0292 2.1
      vertex 11.2 18.4 2.1
    endloop
  endfacet
  facet normal 0.454125 0.890938 0
    outer loop
      vertex 10.3708 22.7413 2.1
      vertex 10.7053 22.5708 6.85317
      vertex 10.7053 22.5708 2.1
    endloop
  endfacet
  facet normal 0.454125 0.890938 0
    outer loop
      vertex 10.7053 22.5708 6.85317
      vertex 10.3708 22.7413 2.1
      vertex 10.3708 22.7413 7
    endloop
  endfacet
  facet normal 0.890938 0.454125 0
    outer loop
      vertex 11.1413 21.9708 6.37811
      vertex 10.9708 22.3053 2.1
      vertex 10.9708 22.3053 6.65739
    endloop
  endfacet
  facet normal 0.890938 0.454125 0
    outer loop
      vertex 10.9708 22.3053 2.1
      vertex 11.1413 21.9708 6.37811
      vertex 11.1413 21.9708 2.1
    endloop
  endfacet
  facet normal -0.890992 -0.45402 0
    outer loop
      vertex 9.02918 17.6947 2.1
      vertex 8.85873 18.0292 6.37811
      vertex 8.85873 18.0292 2.1
    endloop
  endfacet
  facet normal -0.890992 -0.45402 0
    outer loop
      vertex 8.85873 18.0292 6.37811
      vertex 9.02918 17.6947 2.1
      vertex 9.02918 17.6947 6.65739
    endloop
  endfacet
  facet normal -1 0 0
    outer loop
      vertex 8.8 21.6 2.1
      vertex 8.8 20.8719 5.3541
      vertex 8.8 21.6 6.00572
    endloop
  endfacet
  facet normal -1 0 0
    outer loop
      vertex 8.8 21.6 2.1
      vertex 8.8 20.4374 5.10451
      vertex 8.8 20.8719 5.3541
    endloop
  endfacet
  facet normal -1 0 0
    outer loop
      vertex 8.8 21.6 2.1
      vertex 8.8 20.3899 5.07719
      vertex 8.8 20.4374 5.10451
    endloop
  endfacet
  facet normal -1 0 0
    outer loop
      vertex 8.8 21.6 2.1
      vertex 8.8 20 5
      vertex 8.8 20.3899 5.07719
    endloop
  endfacet
  facet normal -1 0 0
    outer loop
      vertex 8.8 18.4 2.1
      vertex 8.8 20 5
      vertex 8.8 21.6 2.1
    endloop
  endfacet
  facet normal -1 -0 0
    outer loop
      vertex 8.8 20 5
      vertex 8.8 18.4 2.1
      vertex 8.8 19.6101 5.07719
    endloop
  endfacet
  facet normal -1 -0 0
    outer loop
      vertex 8.8 19.6101 5.07719
      vertex 8.8 18.4 2.1
      vertex 8.8 19.5626 5.10451
    endloop
  endfacet
  facet normal -1 -0 0
    outer loop
      vertex 8.8 19.5626 5.10451
      vertex 8.8 18.4 2.1
      vertex 8.8 19.1281 5.3541
    endloop
  endfacet
  facet normal -1 -0 0
    outer loop
      vertex 8.8 19.1281 5.3541
      vertex 8.8 18.4 2.1
      vertex 8.8 18.4 6.00572
    endloop
  endfacet
  facet normal 0.706573 0.70764 0
    outer loop
      vertex 10.7716 22.5046 6.78349
      vertex 10.7053 22.5708 2.1
      vertex 10.7053 22.5708 6.85317
    endloop
  endfacet
  facet normal 0.708192 0.70602 -4.58202e-05
    outer loop
      vertex 10.8034 22.4727 6.74997
      vertex 10.7053 22.5708 2.1
      vertex 10.7716 22.5046 6.78349
    endloop
  endfacet
  facet normal 0.707107 0.707107 -2.67917e-16
    outer loop
      vertex 10.9708 22.3053 6.65739
      vertex 10.7053 22.5708 2.1
      vertex 10.8034 22.4727 6.74997
    endloop
  endfacet
  facet normal 0.707107 0.707107 0
    outer loop
      vertex 10.7053 22.5708 2.1
      vertex 10.9708 22.3053 6.65739
      vertex 10.9708 22.3053 2.1
    endloop
  endfacet
  facet normal 0.454125 -0.890938 0
    outer loop
      vertex 10.3708 17.2587 2.1
      vertex 10.7053 17.4292 6.85317
      vertex 10.3708 17.2587 7
    endloop
  endfacet
  facet normal 0.454125 -0.890938 0
    outer loop
      vertex 10.7053 17.4292 6.85317
      vertex 10.3708 17.2587 2.1
      vertex 10.7053 17.4292 2.1
    endloop
  endfacet
  facet normal 0.707107 -0.707107 -2.67917e-16
    outer loop
      vertex 10.7053 17.4292 2.1
      vertex 10.9708 17.6947 6.65739
      vertex 10.8034 17.5273 6.74997
    endloop
  endfacet
  facet normal 0.708192 -0.70602 -4.58202e-05
    outer loop
      vertex 10.7053 17.4292 2.1
      vertex 10.8034 17.5273 6.74997
      vertex 10.7716 17.4954 6.78349
    endloop
  endfacet
  facet normal 0.706573 -0.70764 0
    outer loop
      vertex 10.7053 17.4292 2.1
      vertex 10.7716 17.4954 6.78349
      vertex 10.7053 17.4292 6.85317
    endloop
  endfacet
  facet normal 0.707107 -0.707107 0
    outer loop
      vertex 10.9708 17.6947 6.65739
      vertex 10.7053 17.4292 2.1
      vertex 10.9708 17.6947 2.1
    endloop
  endfacet
  facet normal 0.156359 -0.9877 0
    outer loop
      vertex 10 17.2 2.1
      vertex 10.3708 17.2587 7
      vertex 10 17.2 7
    endloop
  endfacet
  facet normal 0.156359 -0.9877 0
    outer loop
      vertex 10.3708 17.2587 7
      vertex 10 17.2 2.1
      vertex 10.3708 17.2587 2.1
    endloop
  endfacet
  facet normal -0.156351 -0.987702 0
    outer loop
      vertex 9.62918 17.2587 2.1
      vertex 10 17.2 7
      vertex 9.62918 17.2587 7
    endloop
  endfacet
  facet normal -0.156351 -0.987702 -0
    outer loop
      vertex 10 17.2 7
      vertex 9.62918 17.2587 2.1
      vertex 10 17.2 2.1
    endloop
  endfacet
  facet normal 0.987678 0.156501 0
    outer loop
      vertex 11.1622 21.8389 6.24134
      vertex 11.1413 21.9708 2.1
      vertex 11.1413 21.9708 6.37811
    endloop
  endfacet
  facet normal 0.987705 0.15633 -5.59275e-06
    outer loop
      vertex 11.1933 21.6424 6.03767
      vertex 11.1413 21.9708 2.1
      vertex 11.1622 21.8389 6.24134
    endloop
  endfacet
  facet normal 0.987741 0.156101 -2.51598e-05
    outer loop
      vertex 11.2 21.6 6.00572
      vertex 11.1413 21.9708 2.1
      vertex 11.1933 21.6424 6.03767
    endloop
  endfacet
  facet normal 0.9877 0.156359 0
    outer loop
      vertex 11.1413 21.9708 2.1
      vertex 11.2 21.6 6.00572
      vertex 11.2 21.6 2.1
    endloop
  endfacet
  facet normal 0 0.894427 0.447213
    outer loop
      vertex 75 25.75 0.599999
      vertex 19 25 2.1
      vertex 76 25 2.1
    endloop
  endfacet
  facet normal 0 0.894427 0.447213
    outer loop
      vertex 75 25.75 0.599999
      vertex 20 25.75 0.599999
      vertex 19 25 2.1
    endloop
  endfacet
  facet normal 0 0.894427 0.447214
    outer loop
      vertex 75 26 0.0999994
      vertex 20 25.75 0.599999
      vertex 75 25.75 0.599999
    endloop
  endfacet
  facet normal 0 0.894427 0.447214
    outer loop
      vertex 20 25.75 0.599999
      vertex 75 26 0.0999994
      vertex 20 26 0.0999994
    endloop
  endfacet
  facet normal -1.53607e-14 0.894427 0.447214
    outer loop
      vertex 19 25.05 2
      vertex 18.8 25.2 1.7
      vertex 19 25 2.1
    endloop
  endfacet
  facet normal 0 0.894427 0.447214
    outer loop
      vertex 76.2 25.2 1.7
      vertex 76 25 2.1
      vertex 77 25 2.1
    endloop
  endfacet
  facet normal -0 0.894427 0.447214
    outer loop
      vertex 76.2 25.2 1.7
      vertex 77 25 2.1
      vertex 77.2 25.2 1.7
    endloop
  endfacet
  facet normal 1.53607e-14 0.894427 0.447214
    outer loop
      vertex 76 25 2.1
      vertex 76.2 25.2 1.7
      vertex 76 25.05 2
    endloop
  endfacet
  facet normal 0.894427 -6.42356e-14 0.447214
    outer loop
      vertex 77.2 25.2 1.7
      vertex 77 25 2.1
      vertex 77.05 25 2
    endloop
  endfacet
  facet normal 0.894427 6.40804e-14 0.447214
    outer loop
      vertex 77.05 15 2
      vertex 77 15 2.1
      vertex 77.2 14.8 1.7
    endloop
  endfacet
  facet normal -0.894427 1.53607e-14 0.447214
    outer loop
      vertex 19 25 2.1
      vertex 18.8 25.2 1.7
      vertex 18.95 25 2
    endloop
  endfacet
  facet normal -0.894427 -1.53607e-14 0.447214
    outer loop
      vertex 18.95 15 2
      vertex 18.8 14.8 1.7
      vertex 19 15 2.1
    endloop
  endfacet
  facet normal 0 -1 0
    outer loop
      vertex 20 14 0
      vertex 75 14 0.0999994
      vertex 20 14 0.0999994
    endloop
  endfacet
  facet normal 0 -1 -0
    outer loop
      vertex 75 14 0.0999994
      vertex 20 14 0
      vertex 75 14 0
    endloop
  endfacet
  facet normal 0 1 -0
    outer loop
      vertex 75 26 0
      vertex 20 26 0.0999994
      vertex 75 26 0.0999994
    endloop
  endfacet
  facet normal 0 1 0
    outer loop
      vertex 20 26 0.0999994
      vertex 75 26 0
      vertex 20 26 0
    endloop
  endfacet
  facet normal 1.55158e-14 -0.894427 0.447214
    outer loop
      vertex 76.2 14.8 1.7
      vertex 76 15 2.1
      vertex 76 14.95 2
    endloop
  endfacet
  facet normal 0 -0.894427 0.447214
    outer loop
      vertex 76 15 2.1
      vertex 76.2 14.8 1.7
      vertex 77 15 2.1
    endloop
  endfacet
  facet normal 0 -0.894427 0.447214
    outer loop
      vertex 77 15 2.1
      vertex 76.2 14.8 1.7
      vertex 77.2 14.8 1.7
    endloop
  endfacet
  facet normal 0 -0.894427 0.447213
    outer loop
      vertex 20 14.25 0.599999
      vertex 76 15 2.1
      vertex 19 15 2.1
    endloop
  endfacet
  facet normal 0 -0.894427 0.447213
    outer loop
      vertex 20 14.25 0.599999
      vertex 75 14.25 0.599999
      vertex 76 15 2.1
    endloop
  endfacet
  facet normal 0 -0.894427 0.447214
    outer loop
      vertex 20 14 0.0999994
      vertex 75 14.25 0.599999
      vertex 20 14.25 0.599999
    endloop
  endfacet
  facet normal 0 -0.894427 0.447214
    outer loop
      vertex 75 14.25 0.599999
      vertex 20 14 0.0999994
      vertex 75 14 0.0999994
    endloop
  endfacet
  facet normal -1.53607e-14 -0.894427 0.447214
    outer loop
      vertex 19 15 2.1
      vertex 18.8 14.8 1.7
      vertex 19 14.95 2
    endloop
  endfacet
endsolid OpenSCAD_Model
