solid OpenSCAD_Model
  facet normal 1 0 0
    outer loop
      vertex 13 0 8.15611
      vertex 13 2 12
      vertex 13 0 12
    endloop
  endfacet
  facet normal 1 0 0
    outer loop
      vertex 13 2 12
      vertex 13 0 8.15611
      vertex 13 2 0
    endloop
  endfacet
  facet normal 1 -0 0
    outer loop
      vertex 13 0 3.84389
      vertex 13 2 0
      vertex 13 0 8.15611
    endloop
  endfacet
  facet normal 1 0 0
    outer loop
      vertex 13 2 0
      vertex 13 0 3.84389
      vertex 13 0 0
    endloop
  endfacet
  facet normal -0 0 1
    outer loop
      vertex 5 3.5 12
      vertex 7.2 2 12
      vertex 7.4 5.6 12
    endloop
  endfacet
  facet normal 0 0 1
    outer loop
      vertex 7.2 2 12
      vertex 5 3.5 12
      vertex 5 2 12
    endloop
  endfacet
  facet normal 0 0 1
    outer loop
      vertex 15 3.5 12
      vertex 13 2 12
      vertex 15 2 12
    endloop
  endfacet
  facet normal 0 0 1
    outer loop
      vertex 12.7 5.6 12
      vertex 13 2 12
      vertex 15 3.5 12
    endloop
  endfacet
  facet normal 0 0 1
    outer loop
      vertex 7.2 2 12
      vertex 13 2 12
      vertex 12.7 5.6 12
    endloop
  endfacet
  facet normal 0 0 1
    outer loop
      vertex 7.2 2 12
      vertex 12.7 5.6 12
      vertex 7.4 5.6 12
    endloop
  endfacet
  facet normal 0 0 1
    outer loop
      vertex 13 2 12
      vertex 7.2 2 12
      vertex 13 0 12
    endloop
  endfacet
  facet normal 0 0 1
    outer loop
      vertex 13 0 12
      vertex 7.2 2 12
      vertex 7.2 0 12
    endloop
  endfacet
  facet normal 0 0 -1
    outer loop
      vertex 7.2 2 0
      vertex 13 2 0
      vertex 13 0 0
    endloop
  endfacet
  facet normal 0 0 -1
    outer loop
      vertex 13 2 0
      vertex 7.2 2 0
      vertex 12.7 5.6 0
    endloop
  endfacet
  facet normal 0 0 -1
    outer loop
      vertex 7.2 2 0
      vertex 13 0 0
      vertex 7.2 0 0
    endloop
  endfacet
  facet normal -0 0 -1
    outer loop
      vertex 12.7 5.6 0
      vertex 7.2 2 0
      vertex 7.4 5.6 0
    endloop
  endfacet
  facet normal 0 0 -1
    outer loop
      vertex 5 3.5 0
      vertex 7.2 2 0
      vertex 5 2 0
    endloop
  endfacet
  facet normal 0 0 -1
    outer loop
      vertex 7.2 2 0
      vertex 5 3.5 0
      vertex 7.4 5.6 0
    endloop
  endfacet
  facet normal 0 0 -1
    outer loop
      vertex 13 2 0
      vertex 15 3.5 0
      vertex 15 2 0
    endloop
  endfacet
  facet normal -0 0 -1
    outer loop
      vertex 15 3.5 0
      vertex 13 2 0
      vertex 12.7 5.6 0
    endloop
  endfacet
  facet normal -1 0 0
    outer loop
      vertex 7.2 0 3.89558
      vertex 7.2 2 0
      vertex 7.2 0 0
    endloop
  endfacet
  facet normal -1 0 0
    outer loop
      vertex 7.2 2 0
      vertex 7.2 0 3.89558
      vertex 7.2 2 12
    endloop
  endfacet
  facet normal -1 0 0
    outer loop
      vertex 7.2 0 8.10442
      vertex 7.2 2 12
      vertex 7.2 0 3.89558
    endloop
  endfacet
  facet normal -1 -0 0
    outer loop
      vertex 7.2 2 12
      vertex 7.2 0 8.10442
      vertex 7.2 0 12
    endloop
  endfacet
  facet normal 0 -1 -0
    outer loop
      vertex 9.7437 0 2.41972
      vertex 7.2 0 0
      vertex 10.12 0 2.4
    endloop
  endfacet
  facet normal 0 -1 -0
    outer loop
      vertex 9.37152 0 2.47867
      vertex 7.2 0 0
      vertex 9.7437 0 2.41972
    endloop
  endfacet
  facet normal 0 -1 -0
    outer loop
      vertex 9.00754 0 2.5762
      vertex 7.2 0 0
      vertex 9.37152 0 2.47867
    endloop
  endfacet
  facet normal 0 -1 -0
    outer loop
      vertex 8.65575 0 2.71124
      vertex 7.2 0 0
      vertex 9.00754 0 2.5762
    endloop
  endfacet
  facet normal 0 -1 -0
    outer loop
      vertex 8.32 0 2.88231
      vertex 7.2 0 0
      vertex 8.65575 0 2.71124
    endloop
  endfacet
  facet normal 0 -1 -0
    outer loop
      vertex 8.00397 0 3.08754
      vertex 7.2 0 0
      vertex 8.32 0 2.88231
    endloop
  endfacet
  facet normal 0 -1 -0
    outer loop
      vertex 7.71113 0 3.32468
      vertex 7.2 0 0
      vertex 8.00397 0 3.08754
    endloop
  endfacet
  facet normal 0 -1 -0
    outer loop
      vertex 7.44468 0 3.59113
      vertex 7.2 0 0
      vertex 7.71113 0 3.32468
    endloop
  endfacet
  facet normal 0 -1 -0
    outer loop
      vertex 7.20754 0 3.88397
      vertex 7.2 0 0
      vertex 7.44468 0 3.59113
    endloop
  endfacet
  facet normal 0 -1 0
    outer loop
      vertex 7.2 0 0
      vertex 7.20754 0 3.88397
      vertex 7.2 0 3.89558
    endloop
  endfacet
  facet normal 0 -1 0
    outer loop
      vertex 13 0 0
      vertex 10.12 0 2.4
      vertex 7.2 0 0
    endloop
  endfacet
  facet normal 0 -1 0
    outer loop
      vertex 10.12 0 2.4
      vertex 13 0 0
      vertex 10.4963 0 2.41972
    endloop
  endfacet
  facet normal 0 -1 0
    outer loop
      vertex 10.4963 0 2.41972
      vertex 13 0 0
      vertex 10.8685 0 2.47867
    endloop
  endfacet
  facet normal 0 -1 0
    outer loop
      vertex 10.8685 0 2.47867
      vertex 13 0 0
      vertex 11.2325 0 2.5762
    endloop
  endfacet
  facet normal 0 -1 0
    outer loop
      vertex 11.2325 0 2.5762
      vertex 13 0 0
      vertex 11.5843 0 2.71124
    endloop
  endfacet
  facet normal 0 -1 0
    outer loop
      vertex 12.7953 0 3.59113
      vertex 13 0 0
      vertex 13 0 3.84389
    endloop
  endfacet
  facet normal 0 -1 0
    outer loop
      vertex 12.5289 0 3.32468
      vertex 13 0 0
      vertex 12.7953 0 3.59113
    endloop
  endfacet
  facet normal 0 -1 0
    outer loop
      vertex 12.236 0 3.08754
      vertex 13 0 0
      vertex 12.5289 0 3.32468
    endloop
  endfacet
  facet normal 0 -1 0
    outer loop
      vertex 11.92 0 2.88231
      vertex 13 0 0
      vertex 12.236 0 3.08754
    endloop
  endfacet
  facet normal 0 -1 0
    outer loop
      vertex 11.5843 0 2.71124
      vertex 13 0 0
      vertex 11.92 0 2.88231
    endloop
  endfacet
  facet normal 0 1 0
    outer loop
      vertex 13.2377 0 7.8
      vertex 13 0 8.15611
      vertex 13.0325 0 8.11603
    endloop
  endfacet
  facet normal 0 1 0
    outer loop
      vertex 13.4088 0 7.46425
      vertex 13 0 8.15611
      vertex 13.2377 0 7.8
    endloop
  endfacet
  facet normal 0 1 0
    outer loop
      vertex 13.5438 0 7.11246
      vertex 13 0 8.15611
      vertex 13.4088 0 7.46425
    endloop
  endfacet
  facet normal 0 1 0
    outer loop
      vertex 13.6413 0 6.74848
      vertex 13 0 8.15611
      vertex 13.5438 0 7.11246
    endloop
  endfacet
  facet normal 0 1 0
    outer loop
      vertex 13.7003 0 6.3763
      vertex 13 0 8.15611
      vertex 13.6413 0 6.74848
    endloop
  endfacet
  facet normal 0 1 0
    outer loop
      vertex 13.72 0 6
      vertex 13 0 8.15611
      vertex 13.7003 0 6.3763
    endloop
  endfacet
  facet normal 0 1 -0
    outer loop
      vertex 13.7003 0 5.6237
      vertex 13 0 8.15611
      vertex 13.72 0 6
    endloop
  endfacet
  facet normal 0 1 -0
    outer loop
      vertex 13.6413 0 5.25152
      vertex 13 0 8.15611
      vertex 13.7003 0 5.6237
    endloop
  endfacet
  facet normal 0 1 -0
    outer loop
      vertex 13.5438 0 4.88754
      vertex 13 0 8.15611
      vertex 13.6413 0 5.25152
    endloop
  endfacet
  facet normal 0 1 -0
    outer loop
      vertex 13.4088 0 4.53575
      vertex 13 0 8.15611
      vertex 13.5438 0 4.88754
    endloop
  endfacet
  facet normal 0 1 -0
    outer loop
      vertex 13.2377 0 4.2
      vertex 13 0 8.15611
      vertex 13.4088 0 4.53575
    endloop
  endfacet
  facet normal 0 1 0
    outer loop
      vertex 13 0 3.84389
      vertex 13.2377 0 4.2
      vertex 13.0325 0 3.88397
    endloop
  endfacet
  facet normal 0 1 0
    outer loop
      vertex 13.2377 0 4.2
      vertex 13 0 3.84389
      vertex 13 0 8.15611
    endloop
  endfacet
  facet normal 0 1 0
    outer loop
      vertex 7.2 0 8.10442
      vertex 6.83124 0 7.46425
      vertex 7.00231 0 7.8
    endloop
  endfacet
  facet normal 0 1 0
    outer loop
      vertex 7.2 0 8.10442
      vertex 6.6962 0 7.11246
      vertex 6.83124 0 7.46425
    endloop
  endfacet
  facet normal 0 1 0
    outer loop
      vertex 7.2 0 8.10442
      vertex 6.59867 0 6.74848
      vertex 6.6962 0 7.11246
    endloop
  endfacet
  facet normal 0 1 0
    outer loop
      vertex 7.2 0 8.10442
      vertex 6.53972 0 6.3763
      vertex 6.59867 0 6.74848
    endloop
  endfacet
  facet normal 0 1 0
    outer loop
      vertex 7.2 0 8.10442
      vertex 6.52 0 6
      vertex 6.53972 0 6.3763
    endloop
  endfacet
  facet normal 0 1 0
    outer loop
      vertex 7.2 0 8.10442
      vertex 6.53972 0 5.6237
      vertex 6.52 0 6
    endloop
  endfacet
  facet normal 0 1 0
    outer loop
      vertex 7.2 0 8.10442
      vertex 6.59867 0 5.25152
      vertex 6.53972 0 5.6237
    endloop
  endfacet
  facet normal 0 1 0
    outer loop
      vertex 7.2 0 8.10442
      vertex 6.6962 0 4.88754
      vertex 6.59867 0 5.25152
    endloop
  endfacet
  facet normal 0 1 0
    outer loop
      vertex 7.2 0 8.10442
      vertex 6.83124 0 4.53575
      vertex 6.6962 0 4.88754
    endloop
  endfacet
  facet normal 0 1 0
    outer loop
      vertex 7.2 0 8.10442
      vertex 7.00231 0 4.2
      vertex 6.83124 0 4.53575
    endloop
  endfacet
  facet normal -0 1 0
    outer loop
      vertex 7.00231 0 4.2
      vertex 7.2 0 8.10442
      vertex 7.2 0 3.89558
    endloop
  endfacet
  facet normal 0 -1 0
    outer loop
      vertex 7.2 0 12
      vertex 10.12 0 9.6
      vertex 13 0 12
    endloop
  endfacet
  facet normal 0 -1 0
    outer loop
      vertex 7.2 0 12
      vertex 9.7437 0 9.58028
      vertex 10.12 0 9.6
    endloop
  endfacet
  facet normal 0 -1 0
    outer loop
      vertex 7.2 0 12
      vertex 9.37152 0 9.52133
      vertex 9.7437 0 9.58028
    endloop
  endfacet
  facet normal 0 -1 0
    outer loop
      vertex 7.2 0 12
      vertex 9.00754 0 9.4238
      vertex 9.37152 0 9.52133
    endloop
  endfacet
  facet normal 0 -1 0
    outer loop
      vertex 7.2 0 12
      vertex 8.65575 0 9.28876
      vertex 9.00754 0 9.4238
    endloop
  endfacet
  facet normal 0 -1 0
    outer loop
      vertex 7.2 0 12
      vertex 8.32 0 9.11769
      vertex 8.65575 0 9.28876
    endloop
  endfacet
  facet normal 0 -1 0
    outer loop
      vertex 7.2 0 12
      vertex 8.00397 0 8.91246
      vertex 8.32 0 9.11769
    endloop
  endfacet
  facet normal 0 -1 0
    outer loop
      vertex 7.2 0 12
      vertex 7.71113 0 8.67532
      vertex 8.00397 0 8.91246
    endloop
  endfacet
  facet normal 0 -1 0
    outer loop
      vertex 7.2 0 12
      vertex 7.44468 0 8.40887
      vertex 7.71113 0 8.67532
    endloop
  endfacet
  facet normal 0 -1 0
    outer loop
      vertex 7.2 0 12
      vertex 7.20754 0 8.11603
      vertex 7.44468 0 8.40887
    endloop
  endfacet
  facet normal -0 -1 0
    outer loop
      vertex 7.20754 0 8.11603
      vertex 7.2 0 12
      vertex 7.2 0 8.10442
    endloop
  endfacet
  facet normal 0 -1 0
    outer loop
      vertex 10.4963 0 9.58028
      vertex 13 0 12
      vertex 10.12 0 9.6
    endloop
  endfacet
  facet normal 0 -1 0
    outer loop
      vertex 10.8685 0 9.52133
      vertex 13 0 12
      vertex 10.4963 0 9.58028
    endloop
  endfacet
  facet normal 0 -1 0
    outer loop
      vertex 11.2325 0 9.4238
      vertex 13 0 12
      vertex 10.8685 0 9.52133
    endloop
  endfacet
  facet normal 0 -1 0
    outer loop
      vertex 11.5843 0 9.28876
      vertex 13 0 12
      vertex 11.2325 0 9.4238
    endloop
  endfacet
  facet normal 0 -1 0
    outer loop
      vertex 11.92 0 9.11769
      vertex 13 0 12
      vertex 11.5843 0 9.28876
    endloop
  endfacet
  facet normal 0 -1 0
    outer loop
      vertex 12.236 0 8.91246
      vertex 13 0 12
      vertex 11.92 0 9.11769
    endloop
  endfacet
  facet normal 0 -1 0
    outer loop
      vertex 12.5289 0 8.67532
      vertex 13 0 12
      vertex 12.236 0 8.91246
    endloop
  endfacet
  facet normal 0 -1 0
    outer loop
      vertex 12.7953 0 8.40887
      vertex 13 0 12
      vertex 12.5289 0 8.67532
    endloop
  endfacet
  facet normal 0 -1 -0
    outer loop
      vertex 13 0 12
      vertex 12.7953 0 8.40887
      vertex 13 0 8.15611
    endloop
  endfacet
  facet normal -1 0 0
    outer loop
      vertex 5 2 0
      vertex 5 3.5 12
      vertex 5 3.5 0
    endloop
  endfacet
  facet normal -1 -0 0
    outer loop
      vertex 5 3.5 12
      vertex 5 2 0
      vertex 5 2 12
    endloop
  endfacet
  facet normal 1 -0 0
    outer loop
      vertex 15 2 12
      vertex 15 3.5 0
      vertex 15 3.5 12
    endloop
  endfacet
  facet normal 1 0 0
    outer loop
      vertex 15 3.5 0
      vertex 15 2 12
      vertex 15 2 0
    endloop
  endfacet
  facet normal 0 -1 0
    outer loop
      vertex 5 2 0
      vertex 7.2 2 12
      vertex 5 2 12
    endloop
  endfacet
  facet normal 0 -1 -0
    outer loop
      vertex 7.2 2 12
      vertex 5 2 0
      vertex 7.2 2 0
    endloop
  endfacet
  facet normal 0 -1 0
    outer loop
      vertex 13 2 0
      vertex 15 2 12
      vertex 13 2 12
    endloop
  endfacet
  facet normal 0 -1 -0
    outer loop
      vertex 15 2 12
      vertex 13 2 0
      vertex 15 2 0
    endloop
  endfacet
  facet normal 0 1 -0
    outer loop
      vertex 12.7 5.6 0
      vertex 7.4 5.6 12
      vertex 12.7 5.6 12
    endloop
  endfacet
  facet normal 0 1 0
    outer loop
      vertex 7.4 5.6 12
      vertex 12.7 5.6 0
      vertex 7.4 5.6 0
    endloop
  endfacet
  facet normal 0.674269 0.738485 -0
    outer loop
      vertex 15 3.5 0
      vertex 12.7 5.6 12
      vertex 15 3.5 12
    endloop
  endfacet
  facet normal 0.674269 0.738485 0
    outer loop
      vertex 12.7 5.6 12
      vertex 15 3.5 0
      vertex 12.7 5.6 0
    endloop
  endfacet
  facet normal -0.658505 0.752577 0
    outer loop
      vertex 7.4 5.6 0
      vertex 5 3.5 12
      vertex 7.4 5.6 12
    endloop
  endfacet
  facet normal -0.658505 0.752577 0
    outer loop
      vertex 5 3.5 12
      vertex 7.4 5.6 0
      vertex 5 3.5 0
    endloop
  endfacet
  facet normal 0.987667 0 -0.15657
    outer loop
      vertex 13.7003 -2 5.6237
      vertex 13.6413 0 5.25152
      vertex 13.7003 0 5.6237
    endloop
  endfacet
  facet normal 0.987667 0 -0.15657
    outer loop
      vertex 13.6413 0 5.25152
      vertex 13.7003 -2 5.6237
      vertex 13.6413 -2 5.25152
    endloop
  endfacet
  facet normal 0.987667 0 -0.15657
    outer loop
      vertex 13.7003 -10 5.6237
      vertex 13.6413 -4 5.25152
      vertex 13.7003 -4 5.6237
    endloop
  endfacet
  facet normal 0.987667 0 -0.15657
    outer loop
      vertex 13.6413 -4 5.25152
      vertex 13.7003 -10 5.6237
      vertex 13.6413 -10 5.25152
    endloop
  endfacet
  facet normal -0.89101 0 0.453984
    outer loop
      vertex 6.83124 -10 7.46425
      vertex 7.00231 -4 7.8
      vertex 6.83124 -4 7.46425
    endloop
  endfacet
  facet normal -0.89101 0 0.453984
    outer loop
      vertex 7.00231 -4 7.8
      vertex 6.83124 -10 7.46425
      vertex 7.00231 -10 7.8
    endloop
  endfacet
  facet normal -0.89101 0 0.453984
    outer loop
      vertex 6.83124 -2 7.46425
      vertex 7.00231 0 7.8
      vertex 6.83124 0 7.46425
    endloop
  endfacet
  facet normal -0.89101 0 0.453984
    outer loop
      vertex 7.00231 0 7.8
      vertex 6.83124 -2 7.46425
      vertex 7.00231 -2 7.8
    endloop
  endfacet
  facet normal 0.965944 -0 0.258749
    outer loop
      vertex 13.5438 -10 7.11246
      vertex 13.6413 -4 6.74848
      vertex 13.5438 -4 7.11246
    endloop
  endfacet
  facet normal 0.965944 0 0.258749
    outer loop
      vertex 13.6413 -4 6.74848
      vertex 13.5438 -10 7.11246
      vertex 13.6413 -10 6.74848
    endloop
  endfacet
  facet normal 0.965944 -0 0.258749
    outer loop
      vertex 13.5438 -2 7.11246
      vertex 13.6413 0 6.74848
      vertex 13.5438 0 7.11246
    endloop
  endfacet
  facet normal 0.965944 0 0.258749
    outer loop
      vertex 13.6413 0 6.74848
      vertex 13.5438 -2 7.11246
      vertex 13.6413 -2 6.74848
    endloop
  endfacet
  facet normal 0.25881 0 0.965928
    outer loop
      vertex 10.8685 0 9.52133
      vertex 11.2325 -10 9.4238
      vertex 11.2325 0 9.4238
    endloop
  endfacet
  facet normal 0.25881 0 0.965928
    outer loop
      vertex 11.2325 -10 9.4238
      vertex 10.8685 0 9.52133
      vertex 10.8685 -10 9.52133
    endloop
  endfacet
  facet normal 0.965944 0 -0.258749
    outer loop
      vertex 13.6413 -2 5.25152
      vertex 13.5438 0 4.88754
      vertex 13.6413 0 5.25152
    endloop
  endfacet
  facet normal 0.965944 0 -0.258749
    outer loop
      vertex 13.5438 0 4.88754
      vertex 13.6413 -2 5.25152
      vertex 13.5438 -2 4.88754
    endloop
  endfacet
  facet normal 0.965944 0 -0.258749
    outer loop
      vertex 13.6413 -10 5.25152
      vertex 13.5438 -4 4.88754
      vertex 13.6413 -4 5.25152
    endloop
  endfacet
  facet normal 0.965944 0 -0.258749
    outer loop
      vertex 13.5438 -4 4.88754
      vertex 13.6413 -10 5.25152
      vertex 13.5438 -10 4.88754
    endloop
  endfacet
  facet normal 0.544689 0 0.838638
    outer loop
      vertex 12.236 0 8.91246
      vertex 12 -2 9.06574
      vertex 12.236 -2 8.91246
    endloop
  endfacet
  facet normal 0.54462 0 0.838683
    outer loop
      vertex 12 -2 9.06574
      vertex 11.92 0 9.11769
      vertex 12 -4 9.06574
    endloop
  endfacet
  facet normal 0.544671 2.91935e-06 0.83865
    outer loop
      vertex 11.92 0 9.11769
      vertex 12 -2 9.06574
      vertex 12.236 0 8.91246
    endloop
  endfacet
  facet normal 0.544689 0 0.838638
    outer loop
      vertex 12 -4 9.06574
      vertex 12.236 -10 8.91246
      vertex 12.236 -4 8.91246
    endloop
  endfacet
  facet normal 0.544671 -9.73117e-07 0.83865
    outer loop
      vertex 12 -4 9.06574
      vertex 11.92 -10 9.11769
      vertex 12.236 -10 8.91246
    endloop
  endfacet
  facet normal 0.54462 -0 0.838683
    outer loop
      vertex 11.92 -10 9.11769
      vertex 12 -4 9.06574
      vertex 11.92 0 9.11769
    endloop
  endfacet
  facet normal -0.99863 0 -0.0523332
    outer loop
      vertex 6.53972 -2 5.6237
      vertex 6.52 0 6
      vertex 6.53972 0 5.6237
    endloop
  endfacet
  facet normal -0.99863 -0 -0.0523332
    outer loop
      vertex 6.52 0 6
      vertex 6.53972 -2 5.6237
      vertex 6.52 -2 6
    endloop
  endfacet
  facet normal -0.99863 0 -0.0523332
    outer loop
      vertex 6.53972 -10 5.6237
      vertex 6.52 -4 6
      vertex 6.53972 -4 5.6237
    endloop
  endfacet
  facet normal -0.99863 -0 -0.0523332
    outer loop
      vertex 6.52 -4 6
      vertex 6.53972 -10 5.6237
      vertex 6.52 -10 6
    endloop
  endfacet
  facet normal 0.0523332 0 0.99863
    outer loop
      vertex 10.12 0 9.6
      vertex 10.4963 -10 9.58028
      vertex 10.4963 0 9.58028
    endloop
  endfacet
  facet normal 0.0523332 0 0.99863
    outer loop
      vertex 10.4963 -10 9.58028
      vertex 10.12 0 9.6
      vertex 10.12 -10 9.6
    endloop
  endfacet
  facet normal -0.453984 0 0.89101
    outer loop
      vertex 8.32 0 9.11769
      vertex 8.65575 -10 9.28876
      vertex 8.65575 0 9.28876
    endloop
  endfacet
  facet normal -0.453984 0 0.89101
    outer loop
      vertex 8.65575 -10 9.28876
      vertex 8.32 0 9.11769
      vertex 8.32 -10 9.11769
    endloop
  endfacet
  facet normal -0.62993 0 -0.776652
    outer loop
      vertex 8.00397 -10 3.08754
      vertex 8 -4 3.09076
      vertex 8.00397 0 3.08754
    endloop
  endfacet
  facet normal -0.629325 6.63011e-07 -0.777142
    outer loop
      vertex 7.71113 -10 3.32468
      vertex 8 -4 3.09076
      vertex 8.00397 -10 3.08754
    endloop
  endfacet
  facet normal -0.629317 0 -0.777149
    outer loop
      vertex 8 -4 3.09076
      vertex 7.71113 -10 3.32468
      vertex 7.71113 -4 3.32468
    endloop
  endfacet
  facet normal -0.62993 -0 -0.776652
    outer loop
      vertex 8 -2 3.09076
      vertex 8.00397 0 3.08754
      vertex 8 -4 3.09076
    endloop
  endfacet
  facet normal -0.629317 -2.01639e-06 -0.777149
    outer loop
      vertex 7.71113 -2 3.32468
      vertex 8.00397 0 3.08754
      vertex 8 -2 3.09076
    endloop
  endfacet
  facet normal -0.629325 0 -0.777142
    outer loop
      vertex 8.00397 0 3.08754
      vertex 7.71113 -2 3.32468
      vertex 7.71113 0 3.32468
    endloop
  endfacet
  facet normal 0.35836 0 0.933583
    outer loop
      vertex 11.2325 0 9.4238
      vertex 11.5843 -10 9.28876
      vertex 11.5843 0 9.28876
    endloop
  endfacet
  facet normal 0.35836 0 0.933583
    outer loop
      vertex 11.5843 -10 9.28876
      vertex 11.2325 0 9.4238
      vertex 11.2325 -10 9.4238
    endloop
  endfacet
  facet normal 0.454038 0 0.890983
    outer loop
      vertex 11.5843 0 9.28876
      vertex 11.92 -10 9.11769
      vertex 11.92 0 9.11769
    endloop
  endfacet
  facet normal 0.454038 0 0.890983
    outer loop
      vertex 11.92 -10 9.11769
      vertex 11.5843 0 9.28876
      vertex 11.5843 -10 9.28876
    endloop
  endfacet
  facet normal -0.93358 0 0.358369
    outer loop
      vertex 6.6962 -10 7.11246
      vertex 6.83124 -4 7.46425
      vertex 6.6962 -4 7.11246
    endloop
  endfacet
  facet normal -0.93358 0 0.358369
    outer loop
      vertex 6.83124 -4 7.46425
      vertex 6.6962 -10 7.11246
      vertex 6.83124 -10 7.46425
    endloop
  endfacet
  facet normal -0.93358 0 0.358369
    outer loop
      vertex 6.6962 -2 7.11246
      vertex 6.83124 0 7.46425
      vertex 6.6962 0 7.11246
    endloop
  endfacet
  facet normal -0.93358 0 0.358369
    outer loop
      vertex 6.83124 0 7.46425
      vertex 6.6962 -2 7.11246
      vertex 6.83124 -2 7.46425
    endloop
  endfacet
  facet normal 0.987667 -0 0.15657
    outer loop
      vertex 13.6413 -10 6.74848
      vertex 13.7003 -4 6.3763
      vertex 13.6413 -4 6.74848
    endloop
  endfacet
  facet normal 0.987667 0 0.15657
    outer loop
      vertex 13.7003 -4 6.3763
      vertex 13.6413 -10 6.74848
      vertex 13.7003 -10 6.3763
    endloop
  endfacet
  facet normal 0.987667 -0 0.15657
    outer loop
      vertex 13.6413 -2 6.74848
      vertex 13.7003 0 6.3763
      vertex 13.6413 0 6.74848
    endloop
  endfacet
  facet normal 0.987667 0 0.15657
    outer loop
      vertex 13.7003 0 6.3763
      vertex 13.6413 -2 6.74848
      vertex 13.7003 -2 6.3763
    endloop
  endfacet
  facet normal -0.707107 0 0.707107
    outer loop
      vertex 7.44468 -2 8.40887
      vertex 7.71113 0 8.67532
      vertex 7.44468 0 8.40887
    endloop
  endfacet
  facet normal -0.707107 0 0.707107
    outer loop
      vertex 7.71113 0 8.67532
      vertex 7.44468 -2 8.40887
      vertex 7.71113 -2 8.67532
    endloop
  endfacet
  facet normal -0.707107 0 0.707107
    outer loop
      vertex 7.44468 -10 8.40887
      vertex 7.71113 -4 8.67532
      vertex 7.44468 -4 8.40887
    endloop
  endfacet
  facet normal -0.707107 0 0.707107
    outer loop
      vertex 7.71113 -4 8.67532
      vertex 7.44468 -10 8.40887
      vertex 7.71113 -10 8.67532
    endloop
  endfacet
  facet normal 0.998632 -0 0.0522803
    outer loop
      vertex 13.7003 -10 6.3763
      vertex 13.72 -4 6
      vertex 13.7003 -4 6.3763
    endloop
  endfacet
  facet normal 0.998632 0 0.0522803
    outer loop
      vertex 13.72 -4 6
      vertex 13.7003 -10 6.3763
      vertex 13.72 -10 6
    endloop
  endfacet
  facet normal 0.998632 -0 0.0522803
    outer loop
      vertex 13.7003 -2 6.3763
      vertex 13.72 0 6
      vertex 13.7003 0 6.3763
    endloop
  endfacet
  facet normal 0.998632 0 0.0522803
    outer loop
      vertex 13.72 0 6
      vertex 13.7003 -2 6.3763
      vertex 13.72 -2 6
    endloop
  endfacet
  facet normal -0.965925 0 -0.258824
    outer loop
      vertex 6.6962 -2 4.88754
      vertex 6.59867 0 5.25152
      vertex 6.6962 0 4.88754
    endloop
  endfacet
  facet normal -0.965925 -0 -0.258824
    outer loop
      vertex 6.59867 0 5.25152
      vertex 6.6962 -2 4.88754
      vertex 6.59867 -2 5.25152
    endloop
  endfacet
  facet normal -0.965925 0 -0.258824
    outer loop
      vertex 6.6962 -10 4.88754
      vertex 6.59867 -4 5.25152
      vertex 6.6962 -4 4.88754
    endloop
  endfacet
  facet normal -0.965925 -0 -0.258824
    outer loop
      vertex 6.59867 -4 5.25152
      vertex 6.6962 -10 4.88754
      vertex 6.59867 -10 5.25152
    endloop
  endfacet
  facet normal 0.83871 -0 0.544579
    outer loop
      vertex 13.0325 -10 8.11603
      vertex 13.2377 -4 7.8
      vertex 13.0325 -4 8.11603
    endloop
  endfacet
  facet normal 0.83871 0 0.544579
    outer loop
      vertex 13.2377 -4 7.8
      vertex 13.0325 -10 8.11603
      vertex 13.2377 -10 7.8
    endloop
  endfacet
  facet normal 0.83871 -0 0.544579
    outer loop
      vertex 13.0325 -2 8.11603
      vertex 13.2377 0 7.8
      vertex 13.0325 0 8.11603
    endloop
  endfacet
  facet normal 0.83871 0 0.544579
    outer loop
      vertex 13.2377 0 7.8
      vertex 13.0325 -2 8.11603
      vertex 13.2377 -2 7.8
    endloop
  endfacet
  facet normal 0.629247 0 -0.777205
    outer loop
      vertex 12.236 -10 3.08754
      vertex 12.5289 -4 3.32468
      vertex 12.5289 -10 3.32468
    endloop
  endfacet
  facet normal 0.629247 0 -0.777205
    outer loop
      vertex 12.5289 -4 3.32468
      vertex 12.236 -10 3.08754
      vertex 12.236 -4 3.08754
    endloop
  endfacet
  facet normal 0.629247 0 -0.777205
    outer loop
      vertex 12.236 -2 3.08754
      vertex 12.5289 0 3.32468
      vertex 12.5289 -2 3.32468
    endloop
  endfacet
  facet normal 0.629247 0 -0.777205
    outer loop
      vertex 12.5289 0 3.32468
      vertex 12.236 -2 3.08754
      vertex 12.236 0 3.08754
    endloop
  endfacet
  facet normal -0.544635 0 0.838673
    outer loop
      vertex 8.00397 0 8.91246
      vertex 8.32 -10 9.11769
      vertex 8.32 0 9.11769
    endloop
  endfacet
  facet normal -0.544635 0 0.838673
    outer loop
      vertex 8.32 -10 9.11769
      vertex 8.00397 0 8.91246
      vertex 8.00397 -10 8.91246
    endloop
  endfacet
  facet normal -0.258824 0 -0.965925
    outer loop
      vertex 9.00754 -10 2.5762
      vertex 9.37152 0 2.47867
      vertex 9.37152 -10 2.47867
    endloop
  endfacet
  facet normal -0.258824 0 -0.965925
    outer loop
      vertex 9.37152 0 2.47867
      vertex 9.00754 -10 2.5762
      vertex 9.00754 0 2.5762
    endloop
  endfacet
  facet normal 0.998632 0 -0.0522803
    outer loop
      vertex 13.72 -2 6
      vertex 13.7003 0 5.6237
      vertex 13.72 0 6
    endloop
  endfacet
  facet normal 0.998632 0 -0.0522803
    outer loop
      vertex 13.7003 0 5.6237
      vertex 13.72 -2 6
      vertex 13.7003 -2 5.6237
    endloop
  endfacet
  facet normal 0.998632 0 -0.0522803
    outer loop
      vertex 13.72 -10 6
      vertex 13.7003 -4 5.6237
      vertex 13.72 -4 6
    endloop
  endfacet
  facet normal 0.998632 0 -0.0522803
    outer loop
      vertex 13.7003 -4 5.6237
      vertex 13.72 -10 6
      vertex 13.7003 -10 5.6237
    endloop
  endfacet
  facet normal -0.544635 0 -0.838673
    outer loop
      vertex 8.00397 -10 3.08754
      vertex 8.32 0 2.88231
      vertex 8.32 -10 2.88231
    endloop
  endfacet
  facet normal -0.544635 0 -0.838673
    outer loop
      vertex 8.32 0 2.88231
      vertex 8.00397 -10 3.08754
      vertex 8.00397 0 3.08754
    endloop
  endfacet
  facet normal -0.987687 0 -0.156441
    outer loop
      vertex 6.59867 -2 5.25152
      vertex 6.53972 0 5.6237
      vertex 6.59867 0 5.25152
    endloop
  endfacet
  facet normal -0.987687 -0 -0.156441
    outer loop
      vertex 6.53972 0 5.6237
      vertex 6.59867 -2 5.25152
      vertex 6.53972 -2 5.6237
    endloop
  endfacet
  facet normal -0.987687 0 -0.156441
    outer loop
      vertex 6.59867 -10 5.25152
      vertex 6.53972 -4 5.6237
      vertex 6.59867 -4 5.25152
    endloop
  endfacet
  facet normal -0.987687 -0 -0.156441
    outer loop
      vertex 6.53972 -4 5.6237
      vertex 6.59867 -10 5.25152
      vertex 6.53972 -10 5.6237
    endloop
  endfacet
  facet normal -0.258824 0 0.965925
    outer loop
      vertex 9.00754 0 9.4238
      vertex 9.37152 -10 9.52133
      vertex 9.37152 0 9.52133
    endloop
  endfacet
  facet normal -0.258824 0 0.965925
    outer loop
      vertex 9.37152 -10 9.52133
      vertex 9.00754 0 9.4238
      vertex 9.00754 -10 9.4238
    endloop
  endfacet
  facet normal -0.93358 0 -0.358369
    outer loop
      vertex 6.83124 -2 4.53575
      vertex 6.6962 0 4.88754
      vertex 6.83124 0 4.53575
    endloop
  endfacet
  facet normal -0.93358 -0 -0.358369
    outer loop
      vertex 6.6962 0 4.88754
      vertex 6.83124 -2 4.53575
      vertex 6.6962 -2 4.88754
    endloop
  endfacet
  facet normal -0.93358 0 -0.358369
    outer loop
      vertex 6.83124 -10 4.53575
      vertex 6.6962 -4 4.88754
      vertex 6.83124 -4 4.53575
    endloop
  endfacet
  facet normal -0.93358 -0 -0.358369
    outer loop
      vertex 6.6962 -4 4.88754
      vertex 6.83124 -10 4.53575
      vertex 6.6962 -10 4.88754
    endloop
  endfacet
  facet normal 0.890978 0 -0.454047
    outer loop
      vertex 13.4088 -2 4.53575
      vertex 13.2377 0 4.2
      vertex 13.4088 0 4.53575
    endloop
  endfacet
  facet normal 0.890978 0 -0.454047
    outer loop
      vertex 13.2377 0 4.2
      vertex 13.4088 -2 4.53575
      vertex 13.2377 -2 4.2
    endloop
  endfacet
  facet normal 0.890978 0 -0.454047
    outer loop
      vertex 13.4088 -10 4.53575
      vertex 13.2377 -4 4.2
      vertex 13.4088 -4 4.53575
    endloop
  endfacet
  facet normal 0.890978 0 -0.454047
    outer loop
      vertex 13.2377 -4 4.2
      vertex 13.4088 -10 4.53575
      vertex 13.2377 -10 4.2
    endloop
  endfacet
  facet normal 0.0523332 0 -0.99863
    outer loop
      vertex 10.12 -10 2.4
      vertex 10.4963 0 2.41972
      vertex 10.4963 -10 2.41972
    endloop
  endfacet
  facet normal 0.0523332 0 -0.99863
    outer loop
      vertex 10.4963 0 2.41972
      vertex 10.12 -10 2.4
      vertex 10.12 0 2.4
    endloop
  endfacet
  facet normal 0.933616 -0 0.358277
    outer loop
      vertex 13.4088 -10 7.46425
      vertex 13.5438 -4 7.11246
      vertex 13.4088 -4 7.46425
    endloop
  endfacet
  facet normal 0.933616 0 0.358277
    outer loop
      vertex 13.5438 -4 7.11246
      vertex 13.4088 -10 7.46425
      vertex 13.5438 -10 7.11246
    endloop
  endfacet
  facet normal 0.933616 -0 0.358277
    outer loop
      vertex 13.4088 -2 7.46425
      vertex 13.5438 0 7.11246
      vertex 13.4088 0 7.46425
    endloop
  endfacet
  facet normal 0.933616 0 0.358277
    outer loop
      vertex 13.5438 0 7.11246
      vertex 13.4088 -2 7.46425
      vertex 13.5438 -2 7.11246
    endloop
  endfacet
  facet normal -0.358369 0 0.93358
    outer loop
      vertex 8.65575 0 9.28876
      vertex 9.00754 -10 9.4238
      vertex 9.00754 0 9.4238
    endloop
  endfacet
  facet normal -0.358369 0 0.93358
    outer loop
      vertex 9.00754 -10 9.4238
      vertex 8.65575 0 9.28876
      vertex 8.65575 -10 9.28876
    endloop
  endfacet
  facet normal 0.83871 0 -0.544579
    outer loop
      vertex 13.2377 -10 4.2
      vertex 13.0325 -4 3.88397
      vertex 13.2377 -4 4.2
    endloop
  endfacet
  facet normal 0.83871 0 -0.544579
    outer loop
      vertex 13.0325 -4 3.88397
      vertex 13.2377 -10 4.2
      vertex 13.0325 -10 3.88397
    endloop
  endfacet
  facet normal 0.83871 0 -0.544579
    outer loop
      vertex 13.2377 -2 4.2
      vertex 13.0325 0 3.88397
      vertex 13.2377 0 4.2
    endloop
  endfacet
  facet normal 0.83871 0 -0.544579
    outer loop
      vertex 13.0325 0 3.88397
      vertex 13.2377 -2 4.2
      vertex 13.0325 -2 3.88397
    endloop
  endfacet
  facet normal 0.544689 0 -0.838638
    outer loop
      vertex 12.236 -10 3.08754
      vertex 12 -4 2.93426
      vertex 12.236 -4 3.08754
    endloop
  endfacet
  facet normal 0.54462 0 -0.838683
    outer loop
      vertex 11.92 0 2.88231
      vertex 12 -4 2.93426
      vertex 11.92 -10 2.88231
    endloop
  endfacet
  facet normal 0.544671 -9.73117e-07 -0.83865
    outer loop
      vertex 11.92 -10 2.88231
      vertex 12 -4 2.93426
      vertex 12.236 -10 3.08754
    endloop
  endfacet
  facet normal 0.544689 0 -0.838638
    outer loop
      vertex 12 -2 2.93426
      vertex 12.236 0 3.08754
      vertex 12.236 -2 3.08754
    endloop
  endfacet
  facet normal 0.544671 2.91935e-06 -0.83865
    outer loop
      vertex 12 -2 2.93426
      vertex 11.92 0 2.88231
      vertex 12.236 0 3.08754
    endloop
  endfacet
  facet normal 0.54462 0 -0.838683
    outer loop
      vertex 12 -4 2.93426
      vertex 11.92 0 2.88231
      vertex 12 -2 2.93426
    endloop
  endfacet
  facet normal 0.156433 0 -0.987689
    outer loop
      vertex 10.4963 -10 2.41972
      vertex 10.8685 0 2.47867
      vertex 10.8685 -10 2.47867
    endloop
  endfacet
  facet normal 0.156433 0 -0.987689
    outer loop
      vertex 10.8685 0 2.47867
      vertex 10.4963 -10 2.41972
      vertex 10.4963 0 2.41972
    endloop
  endfacet
  facet normal 0.25881 0 -0.965928
    outer loop
      vertex 10.8685 -10 2.47867
      vertex 11.2325 0 2.5762
      vertex 11.2325 -10 2.5762
    endloop
  endfacet
  facet normal 0.25881 0 -0.965928
    outer loop
      vertex 11.2325 0 2.5762
      vertex 10.8685 -10 2.47867
      vertex 10.8685 0 2.47867
    endloop
  endfacet
  facet normal -0.987687 0 0.156441
    outer loop
      vertex 6.53972 -10 6.3763
      vertex 6.59867 -4 6.74848
      vertex 6.53972 -4 6.3763
    endloop
  endfacet
  facet normal -0.987687 0 0.156441
    outer loop
      vertex 6.59867 -4 6.74848
      vertex 6.53972 -10 6.3763
      vertex 6.59867 -10 6.74848
    endloop
  endfacet
  facet normal -0.987687 0 0.156441
    outer loop
      vertex 6.53972 -2 6.3763
      vertex 6.59867 0 6.74848
      vertex 6.53972 0 6.3763
    endloop
  endfacet
  facet normal -0.987687 0 0.156441
    outer loop
      vertex 6.59867 0 6.74848
      vertex 6.53972 -2 6.3763
      vertex 6.59867 -2 6.74848
    endloop
  endfacet
  facet normal -0.838673 0 -0.544635
    outer loop
      vertex 7.20754 -10 3.88397
      vertex 7.00231 -4 4.2
      vertex 7.20754 -4 3.88397
    endloop
  endfacet
  facet normal -0.838673 -0 -0.544635
    outer loop
      vertex 7.00231 -4 4.2
      vertex 7.20754 -10 3.88397
      vertex 7.00231 -10 4.2
    endloop
  endfacet
  facet normal -0.838658 0 -0.544658
    outer loop
      vertex 7.20754 -2 3.88397
      vertex 7.2 0 3.89558
      vertex 7.20754 0 3.88397
    endloop
  endfacet
  facet normal -0.838674 -2.00976e-07 -0.544634
    outer loop
      vertex 7.2 0 3.89558
      vertex 7.20754 -2 3.88397
      vertex 7.00231 0 4.2
    endloop
  endfacet
  facet normal -0.838673 -0 -0.544635
    outer loop
      vertex 7.00231 0 4.2
      vertex 7.20754 -2 3.88397
      vertex 7.00231 -2 4.2
    endloop
  endfacet
  facet normal -0.453984 0 -0.89101
    outer loop
      vertex 8.32 -10 2.88231
      vertex 8.65575 0 2.71124
      vertex 8.65575 -10 2.71124
    endloop
  endfacet
  facet normal -0.453984 0 -0.89101
    outer loop
      vertex 8.65575 0 2.71124
      vertex 8.32 -10 2.88231
      vertex 8.32 0 2.88231
    endloop
  endfacet
  facet normal -0.99863 0 0.0523332
    outer loop
      vertex 6.52 -2 6
      vertex 6.53972 0 6.3763
      vertex 6.52 0 6
    endloop
  endfacet
  facet normal -0.99863 0 0.0523332
    outer loop
      vertex 6.53972 0 6.3763
      vertex 6.52 -2 6
      vertex 6.53972 -2 6.3763
    endloop
  endfacet
  facet normal -0.99863 0 0.0523332
    outer loop
      vertex 6.52 -10 6
      vertex 6.53972 -4 6.3763
      vertex 6.52 -4 6
    endloop
  endfacet
  facet normal -0.99863 0 0.0523332
    outer loop
      vertex 6.53972 -4 6.3763
      vertex 6.52 -10 6
      vertex 6.53972 -10 6.3763
    endloop
  endfacet
  facet normal -0.358369 0 -0.93358
    outer loop
      vertex 8.65575 -10 2.71124
      vertex 9.00754 0 2.5762
      vertex 9.00754 -10 2.5762
    endloop
  endfacet
  facet normal -0.358369 0 -0.93358
    outer loop
      vertex 9.00754 0 2.5762
      vertex 8.65575 -10 2.71124
      vertex 8.65575 0 2.71124
    endloop
  endfacet
  facet normal 0.933616 0 -0.358277
    outer loop
      vertex 13.5438 -2 4.88754
      vertex 13.4088 0 4.53575
      vertex 13.5438 0 4.88754
    endloop
  endfacet
  facet normal 0.933616 0 -0.358277
    outer loop
      vertex 13.4088 0 4.53575
      vertex 13.5438 -2 4.88754
      vertex 13.4088 -2 4.53575
    endloop
  endfacet
  facet normal 0.933616 0 -0.358277
    outer loop
      vertex 13.5438 -10 4.88754
      vertex 13.4088 -4 4.53575
      vertex 13.5438 -4 4.88754
    endloop
  endfacet
  facet normal 0.933616 0 -0.358277
    outer loop
      vertex 13.4088 -4 4.53575
      vertex 13.5438 -10 4.88754
      vertex 13.4088 -10 4.53575
    endloop
  endfacet
  facet normal -0.965925 0 0.258824
    outer loop
      vertex 6.59867 -10 6.74848
      vertex 6.6962 -4 7.11246
      vertex 6.59867 -4 6.74848
    endloop
  endfacet
  facet normal -0.965925 0 0.258824
    outer loop
      vertex 6.6962 -4 7.11246
      vertex 6.59867 -10 6.74848
      vertex 6.6962 -10 7.11246
    endloop
  endfacet
  facet normal -0.965925 0 0.258824
    outer loop
      vertex 6.59867 -2 6.74848
      vertex 6.6962 0 7.11246
      vertex 6.59867 0 6.74848
    endloop
  endfacet
  facet normal -0.965925 0 0.258824
    outer loop
      vertex 6.6962 0 7.11246
      vertex 6.59867 -2 6.74848
      vertex 6.6962 -2 7.11246
    endloop
  endfacet
  facet normal -0.0523332 0 0.99863
    outer loop
      vertex 9.7437 0 9.58028
      vertex 10.12 -10 9.6
      vertex 10.12 0 9.6
    endloop
  endfacet
  facet normal -0.0523332 0 0.99863
    outer loop
      vertex 10.12 -10 9.6
      vertex 9.7437 0 9.58028
      vertex 9.7437 -10 9.58028
    endloop
  endfacet
  facet normal 0.890978 -0 0.454047
    outer loop
      vertex 13.2377 -10 7.8
      vertex 13.4088 -4 7.46425
      vertex 13.2377 -4 7.8
    endloop
  endfacet
  facet normal 0.890978 0 0.454047
    outer loop
      vertex 13.4088 -4 7.46425
      vertex 13.2377 -10 7.8
      vertex 13.4088 -10 7.46425
    endloop
  endfacet
  facet normal 0.890978 -0 0.454047
    outer loop
      vertex 13.2377 -2 7.8
      vertex 13.4088 0 7.46425
      vertex 13.2377 0 7.8
    endloop
  endfacet
  facet normal 0.890978 0 0.454047
    outer loop
      vertex 13.4088 0 7.46425
      vertex 13.2377 -2 7.8
      vertex 13.4088 -2 7.46425
    endloop
  endfacet
  facet normal 0.777117 -0 0.629356
    outer loop
      vertex 12.7953 -2 8.40887
      vertex 13 0 8.15611
      vertex 12.7953 0 8.40887
    endloop
  endfacet
  facet normal 0.777064 1.36976e-05 0.629421
    outer loop
      vertex 13.0325 -2 8.11603
      vertex 13 0 8.15611
      vertex 12.7953 -2 8.40887
    endloop
  endfacet
  facet normal 0.77673 0 0.629834
    outer loop
      vertex 13 0 8.15611
      vertex 13.0325 -2 8.11603
      vertex 13.0325 0 8.11603
    endloop
  endfacet
  facet normal 0.777064 -0 0.629421
    outer loop
      vertex 12.7953 -10 8.40887
      vertex 13.0325 -4 8.11603
      vertex 12.7953 -4 8.40887
    endloop
  endfacet
  facet normal 0.777064 0 0.629421
    outer loop
      vertex 13.0325 -4 8.11603
      vertex 12.7953 -10 8.40887
      vertex 13.0325 -10 8.11603
    endloop
  endfacet
  facet normal -0.777142 0 0.629325
    outer loop
      vertex 7.20754 -2 8.11603
      vertex 7.44468 0 8.40887
      vertex 7.20754 0 8.11603
    endloop
  endfacet
  facet normal -0.777142 0 0.629325
    outer loop
      vertex 7.44468 0 8.40887
      vertex 7.20754 -2 8.11603
      vertex 7.44468 -2 8.40887
    endloop
  endfacet
  facet normal -0.777142 0 0.629325
    outer loop
      vertex 7.20754 -10 8.11603
      vertex 7.44468 -4 8.40887
      vertex 7.20754 -4 8.11603
    endloop
  endfacet
  facet normal -0.777142 0 0.629325
    outer loop
      vertex 7.44468 -4 8.40887
      vertex 7.20754 -10 8.11603
      vertex 7.44468 -10 8.40887
    endloop
  endfacet
  facet normal -0.156441 0 0.987687
    outer loop
      vertex 9.37152 0 9.52133
      vertex 9.7437 -10 9.58028
      vertex 9.7437 0 9.58028
    endloop
  endfacet
  facet normal -0.156441 0 0.987687
    outer loop
      vertex 9.7437 -10 9.58028
      vertex 9.37152 0 9.52133
      vertex 9.37152 -10 9.52133
    endloop
  endfacet
  facet normal -0.777142 0 -0.629325
    outer loop
      vertex 7.44468 -10 3.59113
      vertex 7.20754 -4 3.88397
      vertex 7.44468 -4 3.59113
    endloop
  endfacet
  facet normal -0.777142 -0 -0.629325
    outer loop
      vertex 7.20754 -4 3.88397
      vertex 7.44468 -10 3.59113
      vertex 7.20754 -10 3.88397
    endloop
  endfacet
  facet normal -0.777142 0 -0.629325
    outer loop
      vertex 7.44468 -2 3.59113
      vertex 7.20754 0 3.88397
      vertex 7.44468 0 3.59113
    endloop
  endfacet
  facet normal -0.777142 -0 -0.629325
    outer loop
      vertex 7.20754 0 3.88397
      vertex 7.44468 -2 3.59113
      vertex 7.20754 -2 3.88397
    endloop
  endfacet
  facet normal -0.707107 0 -0.707107
    outer loop
      vertex 7.71113 -2 3.32468
      vertex 7.44468 0 3.59113
      vertex 7.71113 0 3.32468
    endloop
  endfacet
  facet normal -0.707107 -0 -0.707107
    outer loop
      vertex 7.44468 0 3.59113
      vertex 7.71113 -2 3.32468
      vertex 7.44468 -2 3.59113
    endloop
  endfacet
  facet normal -0.707107 0 -0.707107
    outer loop
      vertex 7.71113 -10 3.32468
      vertex 7.44468 -4 3.59113
      vertex 7.71113 -4 3.32468
    endloop
  endfacet
  facet normal -0.707107 -0 -0.707107
    outer loop
      vertex 7.44468 -4 3.59113
      vertex 7.71113 -10 3.32468
      vertex 7.44468 -10 3.59113
    endloop
  endfacet
  facet normal 0.777064 0 -0.629421
    outer loop
      vertex 13.0325 -10 3.88397
      vertex 12.7953 -4 3.59113
      vertex 13.0325 -4 3.88397
    endloop
  endfacet
  facet normal 0.777064 0 -0.629421
    outer loop
      vertex 12.7953 -4 3.59113
      vertex 13.0325 -10 3.88397
      vertex 12.7953 -10 3.59113
    endloop
  endfacet
  facet normal 0.77673 0 -0.629834
    outer loop
      vertex 13.0325 -2 3.88397
      vertex 13 0 3.84389
      vertex 13.0325 0 3.88397
    endloop
  endfacet
  facet normal 0.777064 1.36976e-05 -0.629421
    outer loop
      vertex 12.7953 -2 3.59113
      vertex 13 0 3.84389
      vertex 13.0325 -2 3.88397
    endloop
  endfacet
  facet normal 0.777117 0 -0.629356
    outer loop
      vertex 13 0 3.84389
      vertex 12.7953 -2 3.59113
      vertex 12.7953 0 3.59113
    endloop
  endfacet
  facet normal 0.156433 0 0.987689
    outer loop
      vertex 10.4963 0 9.58028
      vertex 10.8685 -10 9.52133
      vertex 10.8685 0 9.52133
    endloop
  endfacet
  facet normal 0.156433 0 0.987689
    outer loop
      vertex 10.8685 -10 9.52133
      vertex 10.4963 0 9.58028
      vertex 10.4963 -10 9.58028
    endloop
  endfacet
  facet normal -0.838674 0 0.544634
    outer loop
      vertex 7.00231 -2 7.8
      vertex 7.2 0 8.10442
      vertex 7.00231 0 7.8
    endloop
  endfacet
  facet normal -0.838673 -1.93593e-07 0.544635
    outer loop
      vertex 7.20754 -2 8.11603
      vertex 7.2 0 8.10442
      vertex 7.00231 -2 7.8
    endloop
  endfacet
  facet normal -0.838658 0 0.544658
    outer loop
      vertex 7.2 0 8.10442
      vertex 7.20754 -2 8.11603
      vertex 7.20754 0 8.11603
    endloop
  endfacet
  facet normal -0.838673 0 0.544635
    outer loop
      vertex 7.00231 -10 7.8
      vertex 7.20754 -4 8.11603
      vertex 7.00231 -4 7.8
    endloop
  endfacet
  facet normal -0.838673 0 0.544635
    outer loop
      vertex 7.20754 -4 8.11603
      vertex 7.00231 -10 7.8
      vertex 7.20754 -10 8.11603
    endloop
  endfacet
  facet normal 0.707173 -0 0.70704
    outer loop
      vertex 12.5289 -2 8.67532
      vertex 12.7953 0 8.40887
      vertex 12.5289 0 8.67532
    endloop
  endfacet
  facet normal 0.707173 0 0.70704
    outer loop
      vertex 12.7953 0 8.40887
      vertex 12.5289 -2 8.67532
      vertex 12.7953 -2 8.40887
    endloop
  endfacet
  facet normal 0.707173 -0 0.70704
    outer loop
      vertex 12.5289 -10 8.67532
      vertex 12.7953 -4 8.40887
      vertex 12.5289 -4 8.67532
    endloop
  endfacet
  facet normal 0.707173 0 0.70704
    outer loop
      vertex 12.7953 -4 8.40887
      vertex 12.5289 -10 8.67532
      vertex 12.7953 -10 8.40887
    endloop
  endfacet
  facet normal 0.629247 0 0.777205
    outer loop
      vertex 12.236 -4 8.91246
      vertex 12.5289 -10 8.67532
      vertex 12.5289 -4 8.67532
    endloop
  endfacet
  facet normal 0.629247 0 0.777205
    outer loop
      vertex 12.5289 -10 8.67532
      vertex 12.236 -4 8.91246
      vertex 12.236 -10 8.91246
    endloop
  endfacet
  facet normal 0.629247 0 0.777205
    outer loop
      vertex 12.236 0 8.91246
      vertex 12.5289 -2 8.67532
      vertex 12.5289 0 8.67532
    endloop
  endfacet
  facet normal 0.629247 0 0.777205
    outer loop
      vertex 12.5289 -2 8.67532
      vertex 12.236 0 8.91246
      vertex 12.236 -2 8.91246
    endloop
  endfacet
  facet normal -0.89101 0 -0.453984
    outer loop
      vertex 7.00231 -2 4.2
      vertex 6.83124 0 4.53575
      vertex 7.00231 0 4.2
    endloop
  endfacet
  facet normal -0.89101 -0 -0.453984
    outer loop
      vertex 6.83124 0 4.53575
      vertex 7.00231 -2 4.2
      vertex 6.83124 -2 4.53575
    endloop
  endfacet
  facet normal -0.89101 0 -0.453984
    outer loop
      vertex 7.00231 -10 4.2
      vertex 6.83124 -4 4.53575
      vertex 7.00231 -4 4.2
    endloop
  endfacet
  facet normal -0.89101 -0 -0.453984
    outer loop
      vertex 6.83124 -4 4.53575
      vertex 7.00231 -10 4.2
      vertex 6.83124 -10 4.53575
    endloop
  endfacet
  facet normal 0.454038 0 -0.890983
    outer loop
      vertex 11.5843 -10 2.71124
      vertex 11.92 0 2.88231
      vertex 11.92 -10 2.88231
    endloop
  endfacet
  facet normal 0.454038 0 -0.890983
    outer loop
      vertex 11.92 0 2.88231
      vertex 11.5843 -10 2.71124
      vertex 11.5843 0 2.71124
    endloop
  endfacet
  facet normal 0.35836 0 -0.933583
    outer loop
      vertex 11.2325 -10 2.5762
      vertex 11.5843 0 2.71124
      vertex 11.5843 -10 2.71124
    endloop
  endfacet
  facet normal 0.35836 0 -0.933583
    outer loop
      vertex 11.5843 0 2.71124
      vertex 11.2325 -10 2.5762
      vertex 11.2325 0 2.5762
    endloop
  endfacet
  facet normal -0.0523332 0 -0.99863
    outer loop
      vertex 9.7437 -10 2.41972
      vertex 10.12 0 2.4
      vertex 10.12 -10 2.4
    endloop
  endfacet
  facet normal -0.0523332 0 -0.99863
    outer loop
      vertex 10.12 0 2.4
      vertex 9.7437 -10 2.41972
      vertex 9.7437 0 2.41972
    endloop
  endfacet
  facet normal 0.707173 0 -0.70704
    outer loop
      vertex 12.7953 -2 3.59113
      vertex 12.5289 0 3.32468
      vertex 12.7953 0 3.59113
    endloop
  endfacet
  facet normal 0.707173 0 -0.70704
    outer loop
      vertex 12.5289 0 3.32468
      vertex 12.7953 -2 3.59113
      vertex 12.5289 -2 3.32468
    endloop
  endfacet
  facet normal 0.707173 0 -0.70704
    outer loop
      vertex 12.7953 -10 3.59113
      vertex 12.5289 -4 3.32468
      vertex 12.7953 -4 3.59113
    endloop
  endfacet
  facet normal 0.707173 0 -0.70704
    outer loop
      vertex 12.5289 -4 3.32468
      vertex 12.7953 -10 3.59113
      vertex 12.5289 -10 3.32468
    endloop
  endfacet
  facet normal -0.62993 0 0.776652
    outer loop
      vertex 8.00397 0 8.91246
      vertex 8 -2 8.90924
      vertex 8.00397 -10 8.91246
    endloop
  endfacet
  facet normal -0.629325 -1.98903e-06 0.777142
    outer loop
      vertex 7.71113 0 8.67532
      vertex 8 -2 8.90924
      vertex 8.00397 0 8.91246
    endloop
  endfacet
  facet normal -0.629317 0 0.777149
    outer loop
      vertex 8 -2 8.90924
      vertex 7.71113 0 8.67532
      vertex 7.71113 -2 8.67532
    endloop
  endfacet
  facet normal -0.62993 0 0.776652
    outer loop
      vertex 8 -4 8.90924
      vertex 8.00397 -10 8.91246
      vertex 8 -2 8.90924
    endloop
  endfacet
  facet normal -0.629317 6.72128e-07 0.777149
    outer loop
      vertex 7.71113 -4 8.67532
      vertex 8.00397 -10 8.91246
      vertex 8 -4 8.90924
    endloop
  endfacet
  facet normal -0.629325 0 0.777142
    outer loop
      vertex 8.00397 -10 8.91246
      vertex 7.71113 -4 8.67532
      vertex 7.71113 -10 8.67532
    endloop
  endfacet
  facet normal -0.156441 0 -0.987687
    outer loop
      vertex 9.37152 -10 2.47867
      vertex 9.7437 0 2.41972
      vertex 9.7437 -10 2.41972
    endloop
  endfacet
  facet normal -0.156441 0 -0.987687
    outer loop
      vertex 9.7437 0 2.41972
      vertex 9.37152 -10 2.47867
      vertex 9.37152 0 2.47867
    endloop
  endfacet
  facet normal 0 -1 0
    outer loop
      vertex 9.7437 -10 9.58028
      vertex 10.4963 -10 9.58028
      vertex 10.12 -10 9.6
    endloop
  endfacet
  facet normal 0 -1 0
    outer loop
      vertex 9.37152 -10 9.52133
      vertex 10.4963 -10 9.58028
      vertex 9.7437 -10 9.58028
    endloop
  endfacet
  facet normal 0 -1 0
    outer loop
      vertex 9.37152 -10 9.52133
      vertex 10.8685 -10 9.52133
      vertex 10.4963 -10 9.58028
    endloop
  endfacet
  facet normal 0 -1 0
    outer loop
      vertex 9.00754 -10 9.4238
      vertex 10.8685 -10 9.52133
      vertex 9.37152 -10 9.52133
    endloop
  endfacet
  facet normal 0 -1 0
    outer loop
      vertex 9.00754 -10 9.4238
      vertex 11.2325 -10 9.4238
      vertex 10.8685 -10 9.52133
    endloop
  endfacet
  facet normal 0 -1 0
    outer loop
      vertex 8.65575 -10 9.28876
      vertex 11.2325 -10 9.4238
      vertex 9.00754 -10 9.4238
    endloop
  endfacet
  facet normal 0 -1 0
    outer loop
      vertex 8.65575 -10 9.28876
      vertex 11.5843 -10 9.28876
      vertex 11.2325 -10 9.4238
    endloop
  endfacet
  facet normal 0 -1 0
    outer loop
      vertex 8.32 -10 9.11769
      vertex 11.5843 -10 9.28876
      vertex 8.65575 -10 9.28876
    endloop
  endfacet
  facet normal 0 -1 0
    outer loop
      vertex 8.32 -10 9.11769
      vertex 11.92 -10 9.11769
      vertex 11.5843 -10 9.28876
    endloop
  endfacet
  facet normal 0 -1 0
    outer loop
      vertex 8.00397 -10 8.91246
      vertex 11.92 -10 9.11769
      vertex 8.32 -10 9.11769
    endloop
  endfacet
  facet normal 0 -1 0
    outer loop
      vertex 8.00397 -10 8.91246
      vertex 12.236 -10 8.91246
      vertex 11.92 -10 9.11769
    endloop
  endfacet
  facet normal 0 -1 0
    outer loop
      vertex 7.71113 -10 8.67532
      vertex 12.236 -10 8.91246
      vertex 8.00397 -10 8.91246
    endloop
  endfacet
  facet normal 0 -1 0
    outer loop
      vertex 7.71113 -10 8.67532
      vertex 12.5289 -10 8.67532
      vertex 12.236 -10 8.91246
    endloop
  endfacet
  facet normal 0 -1 0
    outer loop
      vertex 7.44468 -10 8.40887
      vertex 12.5289 -10 8.67532
      vertex 7.71113 -10 8.67532
    endloop
  endfacet
  facet normal 0 -1 0
    outer loop
      vertex 7.44468 -10 8.40887
      vertex 12.7953 -10 8.40887
      vertex 12.5289 -10 8.67532
    endloop
  endfacet
  facet normal 0 -1 0
    outer loop
      vertex 7.20754 -10 8.11603
      vertex 12.7953 -10 8.40887
      vertex 7.44468 -10 8.40887
    endloop
  endfacet
  facet normal 0 -1 0
    outer loop
      vertex 7.20754 -10 8.11603
      vertex 13.0325 -10 8.11603
      vertex 12.7953 -10 8.40887
    endloop
  endfacet
  facet normal 0 -1 0
    outer loop
      vertex 7.00231 -10 7.8
      vertex 13.0325 -10 8.11603
      vertex 7.20754 -10 8.11603
    endloop
  endfacet
  facet normal 0 -1 0
    outer loop
      vertex 7.00231 -10 7.8
      vertex 13.2377 -10 7.8
      vertex 13.0325 -10 8.11603
    endloop
  endfacet
  facet normal 0 -1 0
    outer loop
      vertex 6.83124 -10 7.46425
      vertex 13.2377 -10 7.8
      vertex 7.00231 -10 7.8
    endloop
  endfacet
  facet normal 0 -1 0
    outer loop
      vertex 6.83124 -10 7.46425
      vertex 13.4088 -10 7.46425
      vertex 13.2377 -10 7.8
    endloop
  endfacet
  facet normal 0 -1 0
    outer loop
      vertex 6.6962 -10 7.11246
      vertex 13.4088 -10 7.46425
      vertex 6.83124 -10 7.46425
    endloop
  endfacet
  facet normal 0 -1 0
    outer loop
      vertex 6.6962 -10 7.11246
      vertex 13.5438 -10 7.11246
      vertex 13.4088 -10 7.46425
    endloop
  endfacet
  facet normal 0 -1 0
    outer loop
      vertex 6.59867 -10 6.74848
      vertex 13.5438 -10 7.11246
      vertex 6.6962 -10 7.11246
    endloop
  endfacet
  facet normal 0 -1 0
    outer loop
      vertex 6.59867 -10 6.74848
      vertex 13.6413 -10 6.74848
      vertex 13.5438 -10 7.11246
    endloop
  endfacet
  facet normal 0 -1 0
    outer loop
      vertex 6.53972 -10 6.3763
      vertex 13.6413 -10 6.74848
      vertex 6.59867 -10 6.74848
    endloop
  endfacet
  facet normal 0 -1 0
    outer loop
      vertex 6.53972 -10 6.3763
      vertex 13.7003 -10 6.3763
      vertex 13.6413 -10 6.74848
    endloop
  endfacet
  facet normal 0 -1 0
    outer loop
      vertex 6.52 -10 6
      vertex 13.7003 -10 6.3763
      vertex 6.53972 -10 6.3763
    endloop
  endfacet
  facet normal 0 -1 0
    outer loop
      vertex 6.52 -10 6
      vertex 13.72 -10 6
      vertex 13.7003 -10 6.3763
    endloop
  endfacet
  facet normal 0 -1 0
    outer loop
      vertex 6.53972 -10 5.6237
      vertex 13.72 -10 6
      vertex 6.52 -10 6
    endloop
  endfacet
  facet normal 0 -1 0
    outer loop
      vertex 6.53972 -10 5.6237
      vertex 13.7003 -10 5.6237
      vertex 13.72 -10 6
    endloop
  endfacet
  facet normal 0 -1 0
    outer loop
      vertex 6.59867 -10 5.25152
      vertex 13.7003 -10 5.6237
      vertex 6.53972 -10 5.6237
    endloop
  endfacet
  facet normal 0 -1 0
    outer loop
      vertex 6.59867 -10 5.25152
      vertex 13.6413 -10 5.25152
      vertex 13.7003 -10 5.6237
    endloop
  endfacet
  facet normal 0 -1 0
    outer loop
      vertex 6.6962 -10 4.88754
      vertex 13.6413 -10 5.25152
      vertex 6.59867 -10 5.25152
    endloop
  endfacet
  facet normal 0 -1 0
    outer loop
      vertex 6.6962 -10 4.88754
      vertex 13.5438 -10 4.88754
      vertex 13.6413 -10 5.25152
    endloop
  endfacet
  facet normal 0 -1 0
    outer loop
      vertex 6.83124 -10 4.53575
      vertex 13.5438 -10 4.88754
      vertex 6.6962 -10 4.88754
    endloop
  endfacet
  facet normal 0 -1 0
    outer loop
      vertex 6.83124 -10 4.53575
      vertex 13.4088 -10 4.53575
      vertex 13.5438 -10 4.88754
    endloop
  endfacet
  facet normal 0 -1 0
    outer loop
      vertex 7.00231 -10 4.2
      vertex 13.4088 -10 4.53575
      vertex 6.83124 -10 4.53575
    endloop
  endfacet
  facet normal 0 -1 0
    outer loop
      vertex 7.00231 -10 4.2
      vertex 13.2377 -10 4.2
      vertex 13.4088 -10 4.53575
    endloop
  endfacet
  facet normal 0 -1 0
    outer loop
      vertex 7.20754 -10 3.88397
      vertex 13.2377 -10 4.2
      vertex 7.00231 -10 4.2
    endloop
  endfacet
  facet normal 0 -1 0
    outer loop
      vertex 7.20754 -10 3.88397
      vertex 13.0325 -10 3.88397
      vertex 13.2377 -10 4.2
    endloop
  endfacet
  facet normal 0 -1 0
    outer loop
      vertex 7.44468 -10 3.59113
      vertex 13.0325 -10 3.88397
      vertex 7.20754 -10 3.88397
    endloop
  endfacet
  facet normal 0 -1 0
    outer loop
      vertex 7.44468 -10 3.59113
      vertex 12.7953 -10 3.59113
      vertex 13.0325 -10 3.88397
    endloop
  endfacet
  facet normal 0 -1 0
    outer loop
      vertex 7.71113 -10 3.32468
      vertex 12.7953 -10 3.59113
      vertex 7.44468 -10 3.59113
    endloop
  endfacet
  facet normal 0 -1 0
    outer loop
      vertex 7.71113 -10 3.32468
      vertex 12.5289 -10 3.32468
      vertex 12.7953 -10 3.59113
    endloop
  endfacet
  facet normal 0 -1 0
    outer loop
      vertex 8.00397 -10 3.08754
      vertex 12.5289 -10 3.32468
      vertex 7.71113 -10 3.32468
    endloop
  endfacet
  facet normal 0 -1 0
    outer loop
      vertex 8.00397 -10 3.08754
      vertex 12.236 -10 3.08754
      vertex 12.5289 -10 3.32468
    endloop
  endfacet
  facet normal 0 -1 0
    outer loop
      vertex 8.32 -10 2.88231
      vertex 12.236 -10 3.08754
      vertex 8.00397 -10 3.08754
    endloop
  endfacet
  facet normal 0 -1 0
    outer loop
      vertex 8.32 -10 2.88231
      vertex 11.92 -10 2.88231
      vertex 12.236 -10 3.08754
    endloop
  endfacet
  facet normal 0 -1 0
    outer loop
      vertex 8.65575 -10 2.71124
      vertex 11.92 -10 2.88231
      vertex 8.32 -10 2.88231
    endloop
  endfacet
  facet normal 0 -1 0
    outer loop
      vertex 8.65575 -10 2.71124
      vertex 11.5843 -10 2.71124
      vertex 11.92 -10 2.88231
    endloop
  endfacet
  facet normal 0 -1 0
    outer loop
      vertex 9.00754 -10 2.5762
      vertex 11.5843 -10 2.71124
      vertex 8.65575 -10 2.71124
    endloop
  endfacet
  facet normal 0 -1 0
    outer loop
      vertex 9.00754 -10 2.5762
      vertex 11.2325 -10 2.5762
      vertex 11.5843 -10 2.71124
    endloop
  endfacet
  facet normal 0 -1 0
    outer loop
      vertex 9.37152 -10 2.47867
      vertex 11.2325 -10 2.5762
      vertex 9.00754 -10 2.5762
    endloop
  endfacet
  facet normal 0 -1 0
    outer loop
      vertex 9.37152 -10 2.47867
      vertex 10.8685 -10 2.47867
      vertex 11.2325 -10 2.5762
    endloop
  endfacet
  facet normal 0 -1 0
    outer loop
      vertex 9.7437 -10 2.41972
      vertex 10.8685 -10 2.47867
      vertex 9.37152 -10 2.47867
    endloop
  endfacet
  facet normal 0 -1 0
    outer loop
      vertex 9.7437 -10 2.41972
      vertex 10.4963 -10 2.41972
      vertex 10.8685 -10 2.47867
    endloop
  endfacet
  facet normal -0 -1 0
    outer loop
      vertex 10.4963 -10 2.41972
      vertex 9.7437 -10 2.41972
      vertex 10.12 -10 2.4
    endloop
  endfacet
  facet normal -1 0 0
    outer loop
      vertex 8 -4 3.09076
      vertex 8 -2 8.90924
      vertex 8 -2 3.09076
    endloop
  endfacet
  facet normal -1 -0 0
    outer loop
      vertex 8 -2 8.90924
      vertex 8 -4 3.09076
      vertex 8 -4 8.90924
    endloop
  endfacet
  facet normal 0 -1 0
    outer loop
      vertex 7.44468 -2 8.40887
      vertex 8 -2 8.90924
      vertex 7.71113 -2 8.67532
    endloop
  endfacet
  facet normal 0 -1 0
    outer loop
      vertex 7.20754 -2 8.11603
      vertex 8 -2 8.90924
      vertex 7.44468 -2 8.40887
    endloop
  endfacet
  facet normal 0 -1 0
    outer loop
      vertex 7.00231 -2 7.8
      vertex 8 -2 8.90924
      vertex 7.20754 -2 8.11603
    endloop
  endfacet
  facet normal 0 -1 0
    outer loop
      vertex 6.83124 -2 7.46425
      vertex 8 -2 8.90924
      vertex 7.00231 -2 7.8
    endloop
  endfacet
  facet normal 0 -1 0
    outer loop
      vertex 6.6962 -2 7.11246
      vertex 8 -2 8.90924
      vertex 6.83124 -2 7.46425
    endloop
  endfacet
  facet normal 0 -1 0
    outer loop
      vertex 6.59867 -2 6.74848
      vertex 8 -2 8.90924
      vertex 6.6962 -2 7.11246
    endloop
  endfacet
  facet normal 0 -1 0
    outer loop
      vertex 6.53972 -2 6.3763
      vertex 8 -2 8.90924
      vertex 6.59867 -2 6.74848
    endloop
  endfacet
  facet normal 0 -1 0
    outer loop
      vertex 6.52 -2 6
      vertex 8 -2 8.90924
      vertex 6.53972 -2 6.3763
    endloop
  endfacet
  facet normal 0 -1 0
    outer loop
      vertex 6.53972 -2 5.6237
      vertex 8 -2 8.90924
      vertex 6.52 -2 6
    endloop
  endfacet
  facet normal 0 -1 0
    outer loop
      vertex 6.59867 -2 5.25152
      vertex 8 -2 8.90924
      vertex 6.53972 -2 5.6237
    endloop
  endfacet
  facet normal 0 -1 0
    outer loop
      vertex 6.6962 -2 4.88754
      vertex 8 -2 8.90924
      vertex 6.59867 -2 5.25152
    endloop
  endfacet
  facet normal 0 -1 0
    outer loop
      vertex 6.83124 -2 4.53575
      vertex 8 -2 8.90924
      vertex 6.6962 -2 4.88754
    endloop
  endfacet
  facet normal 0 -1 0
    outer loop
      vertex 7.00231 -2 4.2
      vertex 8 -2 8.90924
      vertex 6.83124 -2 4.53575
    endloop
  endfacet
  facet normal 0 -1 0
    outer loop
      vertex 7.20754 -2 3.88397
      vertex 8 -2 8.90924
      vertex 7.00231 -2 4.2
    endloop
  endfacet
  facet normal 0 -1 0
    outer loop
      vertex 7.44468 -2 3.59113
      vertex 8 -2 8.90924
      vertex 7.20754 -2 3.88397
    endloop
  endfacet
  facet normal 0 -1 0
    outer loop
      vertex 7.71113 -2 3.32468
      vertex 8 -2 8.90924
      vertex 7.44468 -2 3.59113
    endloop
  endfacet
  facet normal 0 -1 -0
    outer loop
      vertex 8 -2 8.90924
      vertex 7.71113 -2 3.32468
      vertex 8 -2 3.09076
    endloop
  endfacet
  facet normal 0 1 0
    outer loop
      vertex 8 -4 8.90924
      vertex 7.44468 -4 8.40887
      vertex 7.71113 -4 8.67532
    endloop
  endfacet
  facet normal 0 1 0
    outer loop
      vertex 8 -4 8.90924
      vertex 7.20754 -4 8.11603
      vertex 7.44468 -4 8.40887
    endloop
  endfacet
  facet normal 0 1 0
    outer loop
      vertex 8 -4 8.90924
      vertex 7.00231 -4 7.8
      vertex 7.20754 -4 8.11603
    endloop
  endfacet
  facet normal 0 1 0
    outer loop
      vertex 8 -4 8.90924
      vertex 6.83124 -4 7.46425
      vertex 7.00231 -4 7.8
    endloop
  endfacet
  facet normal 0 1 0
    outer loop
      vertex 8 -4 8.90924
      vertex 6.6962 -4 7.11246
      vertex 6.83124 -4 7.46425
    endloop
  endfacet
  facet normal 0 1 0
    outer loop
      vertex 8 -4 8.90924
      vertex 6.59867 -4 6.74848
      vertex 6.6962 -4 7.11246
    endloop
  endfacet
  facet normal 0 1 0
    outer loop
      vertex 8 -4 8.90924
      vertex 6.53972 -4 6.3763
      vertex 6.59867 -4 6.74848
    endloop
  endfacet
  facet normal 0 1 0
    outer loop
      vertex 8 -4 8.90924
      vertex 6.52 -4 6
      vertex 6.53972 -4 6.3763
    endloop
  endfacet
  facet normal 0 1 0
    outer loop
      vertex 8 -4 8.90924
      vertex 6.53972 -4 5.6237
      vertex 6.52 -4 6
    endloop
  endfacet
  facet normal 0 1 0
    outer loop
      vertex 8 -4 8.90924
      vertex 6.59867 -4 5.25152
      vertex 6.53972 -4 5.6237
    endloop
  endfacet
  facet normal 0 1 0
    outer loop
      vertex 8 -4 8.90924
      vertex 6.6962 -4 4.88754
      vertex 6.59867 -4 5.25152
    endloop
  endfacet
  facet normal 0 1 0
    outer loop
      vertex 8 -4 8.90924
      vertex 6.83124 -4 4.53575
      vertex 6.6962 -4 4.88754
    endloop
  endfacet
  facet normal 0 1 0
    outer loop
      vertex 8 -4 8.90924
      vertex 7.00231 -4 4.2
      vertex 6.83124 -4 4.53575
    endloop
  endfacet
  facet normal 0 1 0
    outer loop
      vertex 8 -4 8.90924
      vertex 7.20754 -4 3.88397
      vertex 7.00231 -4 4.2
    endloop
  endfacet
  facet normal 0 1 0
    outer loop
      vertex 8 -4 8.90924
      vertex 7.44468 -4 3.59113
      vertex 7.20754 -4 3.88397
    endloop
  endfacet
  facet normal 0 1 0
    outer loop
      vertex 8 -4 8.90924
      vertex 7.71113 -4 3.32468
      vertex 7.44468 -4 3.59113
    endloop
  endfacet
  facet normal -0 1 0
    outer loop
      vertex 7.71113 -4 3.32468
      vertex 8 -4 8.90924
      vertex 8 -4 3.09076
    endloop
  endfacet
  facet normal 1 -0 0
    outer loop
      vertex 12 -4 9.06574
      vertex 12 -2 2.93426
      vertex 12 -2 9.06574
    endloop
  endfacet
  facet normal 1 0 0
    outer loop
      vertex 12 -2 2.93426
      vertex 12 -4 9.06574
      vertex 12 -4 2.93426
    endloop
  endfacet
  facet normal 0 -1 0
    outer loop
      vertex 12 -2 9.06574
      vertex 12.5289 -2 8.67532
      vertex 12.236 -2 8.91246
    endloop
  endfacet
  facet normal 0 -1 0
    outer loop
      vertex 12 -2 9.06574
      vertex 12.7953 -2 8.40887
      vertex 12.5289 -2 8.67532
    endloop
  endfacet
  facet normal 0 -1 0
    outer loop
      vertex 12 -2 9.06574
      vertex 13.0325 -2 8.11603
      vertex 12.7953 -2 8.40887
    endloop
  endfacet
  facet normal 0 -1 0
    outer loop
      vertex 12 -2 9.06574
      vertex 13.2377 -2 7.8
      vertex 13.0325 -2 8.11603
    endloop
  endfacet
  facet normal 0 -1 0
    outer loop
      vertex 12 -2 9.06574
      vertex 13.4088 -2 7.46425
      vertex 13.2377 -2 7.8
    endloop
  endfacet
  facet normal 0 -1 0
    outer loop
      vertex 12 -2 9.06574
      vertex 13.5438 -2 7.11246
      vertex 13.4088 -2 7.46425
    endloop
  endfacet
  facet normal 0 -1 0
    outer loop
      vertex 12 -2 9.06574
      vertex 13.6413 -2 6.74848
      vertex 13.5438 -2 7.11246
    endloop
  endfacet
  facet normal 0 -1 0
    outer loop
      vertex 12 -2 9.06574
      vertex 13.7003 -2 6.3763
      vertex 13.6413 -2 6.74848
    endloop
  endfacet
  facet normal 0 -1 0
    outer loop
      vertex 12 -2 9.06574
      vertex 13.72 -2 6
      vertex 13.7003 -2 6.3763
    endloop
  endfacet
  facet normal 0 -1 0
    outer loop
      vertex 12 -2 9.06574
      vertex 13.7003 -2 5.6237
      vertex 13.72 -2 6
    endloop
  endfacet
  facet normal 0 -1 0
    outer loop
      vertex 12 -2 9.06574
      vertex 13.6413 -2 5.25152
      vertex 13.7003 -2 5.6237
    endloop
  endfacet
  facet normal 0 -1 0
    outer loop
      vertex 12 -2 9.06574
      vertex 13.5438 -2 4.88754
      vertex 13.6413 -2 5.25152
    endloop
  endfacet
  facet normal 0 -1 0
    outer loop
      vertex 12 -2 9.06574
      vertex 13.4088 -2 4.53575
      vertex 13.5438 -2 4.88754
    endloop
  endfacet
  facet normal 0 -1 0
    outer loop
      vertex 12 -2 9.06574
      vertex 13.2377 -2 4.2
      vertex 13.4088 -2 4.53575
    endloop
  endfacet
  facet normal 0 -1 0
    outer loop
      vertex 12 -2 9.06574
      vertex 13.0325 -2 3.88397
      vertex 13.2377 -2 4.2
    endloop
  endfacet
  facet normal 0 -1 0
    outer loop
      vertex 12 -2 9.06574
      vertex 12.7953 -2 3.59113
      vertex 13.0325 -2 3.88397
    endloop
  endfacet
  facet normal 0 -1 0
    outer loop
      vertex 12 -2 9.06574
      vertex 12.5289 -2 3.32468
      vertex 12.7953 -2 3.59113
    endloop
  endfacet
  facet normal 0 -1 0
    outer loop
      vertex 12 -2 2.93426
      vertex 12.5289 -2 3.32468
      vertex 12 -2 9.06574
    endloop
  endfacet
  facet normal 0 -1 0
    outer loop
      vertex 12.5289 -2 3.32468
      vertex 12 -2 2.93426
      vertex 12.236 -2 3.08754
    endloop
  endfacet
  facet normal 0 1 0
    outer loop
      vertex 12.5289 -4 8.67532
      vertex 12 -4 9.06574
      vertex 12.236 -4 8.91246
    endloop
  endfacet
  facet normal 0 1 0
    outer loop
      vertex 12.7953 -4 8.40887
      vertex 12 -4 9.06574
      vertex 12.5289 -4 8.67532
    endloop
  endfacet
  facet normal 0 1 0
    outer loop
      vertex 13.0325 -4 8.11603
      vertex 12 -4 9.06574
      vertex 12.7953 -4 8.40887
    endloop
  endfacet
  facet normal 0 1 0
    outer loop
      vertex 13.2377 -4 7.8
      vertex 12 -4 9.06574
      vertex 13.0325 -4 8.11603
    endloop
  endfacet
  facet normal 0 1 0
    outer loop
      vertex 13.4088 -4 7.46425
      vertex 12 -4 9.06574
      vertex 13.2377 -4 7.8
    endloop
  endfacet
  facet normal 0 1 0
    outer loop
      vertex 13.5438 -4 7.11246
      vertex 12 -4 9.06574
      vertex 13.4088 -4 7.46425
    endloop
  endfacet
  facet normal 0 1 0
    outer loop
      vertex 13.6413 -4 6.74848
      vertex 12 -4 9.06574
      vertex 13.5438 -4 7.11246
    endloop
  endfacet
  facet normal 0 1 0
    outer loop
      vertex 13.7003 -4 6.3763
      vertex 12 -4 9.06574
      vertex 13.6413 -4 6.74848
    endloop
  endfacet
  facet normal 0 1 0
    outer loop
      vertex 13.72 -4 6
      vertex 12 -4 9.06574
      vertex 13.7003 -4 6.3763
    endloop
  endfacet
  facet normal 0 1 -0
    outer loop
      vertex 13.7003 -4 5.6237
      vertex 12 -4 9.06574
      vertex 13.72 -4 6
    endloop
  endfacet
  facet normal 0 1 -0
    outer loop
      vertex 13.6413 -4 5.25152
      vertex 12 -4 9.06574
      vertex 13.7003 -4 5.6237
    endloop
  endfacet
  facet normal 0 1 -0
    outer loop
      vertex 13.5438 -4 4.88754
      vertex 12 -4 9.06574
      vertex 13.6413 -4 5.25152
    endloop
  endfacet
  facet normal 0 1 -0
    outer loop
      vertex 13.4088 -4 4.53575
      vertex 12 -4 9.06574
      vertex 13.5438 -4 4.88754
    endloop
  endfacet
  facet normal 0 1 -0
    outer loop
      vertex 13.2377 -4 4.2
      vertex 12 -4 9.06574
      vertex 13.4088 -4 4.53575
    endloop
  endfacet
  facet normal 0 1 -0
    outer loop
      vertex 13.0325 -4 3.88397
      vertex 12 -4 9.06574
      vertex 13.2377 -4 4.2
    endloop
  endfacet
  facet normal 0 1 -0
    outer loop
      vertex 12.7953 -4 3.59113
      vertex 12 -4 9.06574
      vertex 13.0325 -4 3.88397
    endloop
  endfacet
  facet normal 0 1 -0
    outer loop
      vertex 12.5289 -4 3.32468
      vertex 12 -4 9.06574
      vertex 12.7953 -4 3.59113
    endloop
  endfacet
  facet normal 0 1 0
    outer loop
      vertex 12 -4 2.93426
      vertex 12.5289 -4 3.32468
      vertex 12.236 -4 3.08754
    endloop
  endfacet
  facet normal 0 1 0
    outer loop
      vertex 12.5289 -4 3.32468
      vertex 12 -4 2.93426
      vertex 12 -4 9.06574
    endloop
  endfacet
endsolid OpenSCAD_Model
