solid OpenSCAD_Model
  facet normal 0.0523081 -0.998631 0
    outer loop
      vertex 12 -12 0
      vertex 13.2543 -11.9343 6
      vertex 12 -12 6
    endloop
  endfacet
  facet normal 0.0523081 -0.998631 0
    outer loop
      vertex 13.2543 -11.9343 6
      vertex 12 -12 0
      vertex 13.2543 -11.9343 0
    endloop
  endfacet
  facet normal 0.707135 -0.707079 0
    outer loop
      vertex 20.0296 -8.91774 6
      vertex 20.9177 -8.02957 0
      vertex 20.9177 -8.02957 6
    endloop
  endfacet
  facet normal 0.707135 -0.707079 0
    outer loop
      vertex 20.9177 -8.02957 0
      vertex 20.0296 -8.91774 6
      vertex 20.0296 -8.91774 0
    endloop
  endfacet
  facet normal -0.453965 -0.89102 0
    outer loop
      vertex 6 -10.3923 0
      vertex 7.11916 -10.9625 6
      vertex 6 -10.3923 6
    endloop
  endfacet
  facet normal -0.453965 -0.89102 -0
    outer loop
      vertex 7.11916 -10.9625 6
      vertex 6 -10.3923 0
      vertex 7.11916 -10.9625 0
    endloop
  endfacet
  facet normal 0.777135 -0.629334 0
    outer loop
      vertex 20.9177 -8.02957 6
      vertex 21.7082 -7.05342 0
      vertex 21.7082 -7.05342 6
    endloop
  endfacet
  facet normal 0.777135 -0.629334 0
    outer loop
      vertex 21.7082 -7.05342 0
      vertex 20.9177 -8.02957 6
      vertex 20.9177 -8.02957 0
    endloop
  endfacet
  facet normal -0.707107 -0.707107 0
    outer loop
      vertex 3.97043 -8.91774 0
      vertex 3.08226 -8.02957 6
      vertex 3.08226 -8.02957 0
    endloop
  endfacet
  facet normal -0.707107 -0.707107 0
    outer loop
      vertex 3.08226 -8.02957 6
      vertex 3.97043 -8.91774 0
      vertex 3.97043 -8.91774 6
    endloop
  endfacet
  facet normal -0.965926 -0.25882 0
    outer loop
      vertex 0.587322 -3.7082 0
      vertex 0.263585 -2.5 6
      vertex 0.263585 -2.5 0
    endloop
  endfacet
  facet normal -0.965926 -0.25882 0
    outer loop
      vertex 0.263585 -2.5 6
      vertex 0.587322 -3.7082 0
      vertex 0.587322 -3.7082 6
    endloop
  endfacet
  facet normal -0.0523081 -0.998631 0
    outer loop
      vertex 10.7457 -11.9343 0
      vertex 12 -12 6
      vertex 10.7457 -11.9343 6
    endloop
  endfacet
  facet normal -0.0523081 -0.998631 -0
    outer loop
      vertex 12 -12 6
      vertex 10.7457 -11.9343 0
      vertex 12 -12 0
    endloop
  endfacet
  facet normal 0.156441 -0.987687 0
    outer loop
      vertex 13.2543 -11.9343 0
      vertex 14.4949 -11.7378 6
      vertex 13.2543 -11.9343 6
    endloop
  endfacet
  facet normal 0.156441 -0.987687 0
    outer loop
      vertex 14.4949 -11.7378 6
      vertex 13.2543 -11.9343 0
      vertex 14.4949 -11.7378 0
    endloop
  endfacet
  facet normal -0.77715 -0.629315 0
    outer loop
      vertex 3.08226 -8.02957 0
      vertex 2.2918 -7.05342 6
      vertex 2.2918 -7.05342 0
    endloop
  endfacet
  facet normal -0.77715 -0.629315 0
    outer loop
      vertex 2.2918 -7.05342 6
      vertex 3.08226 -8.02957 0
      vertex 3.08226 -8.02957 6
    endloop
  endfacet
  facet normal -0.629315 -0.77715 0
    outer loop
      vertex 3.97043 -8.91774 0
      vertex 4.94658 -9.7082 6
      vertex 3.97043 -8.91774 6
    endloop
  endfacet
  facet normal -0.629315 -0.77715 -0
    outer loop
      vertex 4.94658 -9.7082 6
      vertex 3.97043 -8.91774 0
      vertex 4.94658 -9.7082 0
    endloop
  endfacet
  facet normal 0 0 1
    outer loop
      vertex -5.15 1.5 6
      vertex -6.01602 0 6
      vertex -6 0 6
    endloop
  endfacet
  facet normal -0 0 1
    outer loop
      vertex -6 6.5 6
      vertex 0 4 6
      vertex 0 6.5 6
    endloop
  endfacet
  facet normal 0 0 1
    outer loop
      vertex 0 4 6
      vertex -6 6.5 6
      vertex -6 4 6
    endloop
  endfacet
  facet normal -0 0 1
    outer loop
      vertex 0 6.5 6
      vertex 2.5 0 6
      vertex 2.5 55.5 6
    endloop
  endfacet
  facet normal -0 0 1
    outer loop
      vertex 0 4 6
      vertex 2.5 0 6
      vertex 0 6.5 6
    endloop
  endfacet
  facet normal 0 0 1
    outer loop
      vertex 0 0 6
      vertex 2.5 0 6
      vertex 0 4 6
    endloop
  endfacet
  facet normal 0 -0 1
    outer loop
      vertex 0.263585 -2.5 6
      vertex 2.5 0 6
      vertex 0 0 6
    endloop
  endfacet
  facet normal 0 0 1
    outer loop
      vertex 2.5 0 6
      vertex 1.6077 -6 6
      vertex 2.2918 -7.05342 6
    endloop
  endfacet
  facet normal 0 0 1
    outer loop
      vertex 0 6.5 6
      vertex 2.5 55.5 6
      vertex 0 53 6
    endloop
  endfacet
  facet normal 0 0 1
    outer loop
      vertex 2.5 55.5 6
      vertex -3.5 53 6
      vertex 0 53 6
    endloop
  endfacet
  facet normal 0 0 1
    outer loop
      vertex -6 47 6
      vertex -3.5 48.666 6
      vertex -3.5 53 6
    endloop
  endfacet
  facet normal -0 0 1
    outer loop
      vertex -6 55.5 6
      vertex -3.5 53 6
      vertex 2.5 55.5 6
    endloop
  endfacet
  facet normal 0 0 1
    outer loop
      vertex -6 47 6
      vertex -3.5 53 6
      vertex -6 55.5 6
    endloop
  endfacet
  facet normal 0 0 1
    outer loop
      vertex -3.5 48.666 6
      vertex -6 47 6
      vertex -3.5 47 6
    endloop
  endfacet
  facet normal 0 0 1
    outer loop
      vertex 22.2551 -5.9208 6
      vertex 25.7694 3.44188 6
      vertex 23.4202 4.29693 6
    endloop
  endfacet
  facet normal 0 0 1
    outer loop
      vertex 25.7694 3.44188 6
      vertex 22.2551 -5.9208 6
      vertex 22.3492 -5.95505 6
    endloop
  endfacet
  facet normal -0 0 1
    outer loop
      vertex 20.0001 -5.09982 6
      vertex 22.2551 -5.9208 6
      vertex 23.4202 4.29693 6
    endloop
  endfacet
  facet normal 0 0 1
    outer loop
      vertex 22.2551 -5.9208 6
      vertex 20.0001 -5.09982 6
      vertex 21.7082 -7.05342 6
    endloop
  endfacet
  facet normal -0 0 1
    outer loop
      vertex 19.6857 -5.58396 6
      vertex 21.7082 -7.05342 6
      vertex 20.0001 -5.09982 6
    endloop
  endfacet
  facet normal 0 0 1
    outer loop
      vertex 21.7082 -7.05342 6
      vertex 19.6857 -5.58396 6
      vertex 20.9177 -8.02957 6
    endloop
  endfacet
  facet normal -0 0 1
    outer loop
      vertex 19.0599 -6.35674 6
      vertex 20.9177 -8.02957 6
      vertex 19.6857 -5.58396 6
    endloop
  endfacet
  facet normal 0 0 1
    outer loop
      vertex 20.9177 -8.02957 6
      vertex 19.0599 -6.35674 6
      vertex 20.0296 -8.91774 6
    endloop
  endfacet
  facet normal -0 0 1
    outer loop
      vertex 18.3567 -7.05988 6
      vertex 20.0296 -8.91774 6
      vertex 19.0599 -6.35674 6
    endloop
  endfacet
  facet normal 0 0 1
    outer loop
      vertex 20.0296 -8.91774 6
      vertex 18.3567 -7.05988 6
      vertex 19.0534 -9.7082 6
    endloop
  endfacet
  facet normal -0 0 1
    outer loop
      vertex 17.584 -7.68566 6
      vertex 19.0534 -9.7082 6
      vertex 18.3567 -7.05988 6
    endloop
  endfacet
  facet normal 0 0 1
    outer loop
      vertex 19.0534 -9.7082 6
      vertex 17.584 -7.68566 6
      vertex 18 -10.3923 6
    endloop
  endfacet
  facet normal -0 0 1
    outer loop
      vertex 16.75 -8.22724 6
      vertex 18 -10.3923 6
      vertex 17.584 -7.68566 6
    endloop
  endfacet
  facet normal 0 0 1
    outer loop
      vertex 18 -10.3923 6
      vertex 16.75 -8.22724 6
      vertex 16.8808 -10.9625 6
    endloop
  endfacet
  facet normal -0 0 1
    outer loop
      vertex 15.864 -8.67868 6
      vertex 16.8808 -10.9625 6
      vertex 16.75 -8.22724 6
    endloop
  endfacet
  facet normal 0 0 1
    outer loop
      vertex 15.864 -8.67868 6
      vertex 15.7082 -11.4127 6
      vertex 16.8808 -10.9625 6
    endloop
  endfacet
  facet normal -0 0 1
    outer loop
      vertex 14.9357 -9.03504 6
      vertex 15.7082 -11.4127 6
      vertex 15.864 -8.67868 6
    endloop
  endfacet
  facet normal 0 0 1
    outer loop
      vertex 14.9357 -9.03504 6
      vertex 14.4949 -11.7378 6
      vertex 15.7082 -11.4127 6
    endloop
  endfacet
  facet normal -0 0 1
    outer loop
      vertex 13.9752 -9.2924 6
      vertex 14.4949 -11.7378 6
      vertex 14.9357 -9.03504 6
    endloop
  endfacet
  facet normal 0 0 1
    outer loop
      vertex 13.9752 -9.2924 6
      vertex 13.2543 -11.9343 6
      vertex 14.4949 -11.7378 6
    endloop
  endfacet
  facet normal -0 0 1
    outer loop
      vertex 12.993 -9.44796 6
      vertex 13.2543 -11.9343 6
      vertex 13.9752 -9.2924 6
    endloop
  endfacet
  facet normal -0 0 1
    outer loop
      vertex 12 -9.5 6
      vertex 13.2543 -11.9343 6
      vertex 12.993 -9.44796 6
    endloop
  endfacet
  facet normal 0 0 1
    outer loop
      vertex 12 -9.5 6
      vertex 12 -12 6
      vertex 13.2543 -11.9343 6
    endloop
  endfacet
  facet normal 0 0 1
    outer loop
      vertex 11.007 -9.44796 6
      vertex 12 -12 6
      vertex 12 -9.5 6
    endloop
  endfacet
  facet normal 0 0 1
    outer loop
      vertex 11.007 -9.44796 6
      vertex 10.7457 -11.9343 6
      vertex 12 -12 6
    endloop
  endfacet
  facet normal 0 0 1
    outer loop
      vertex 10.0248 -9.2924 6
      vertex 10.7457 -11.9343 6
      vertex 11.007 -9.44796 6
    endloop
  endfacet
  facet normal 0 0 1
    outer loop
      vertex 10.0248 -9.2924 6
      vertex 9.50506 -11.7378 6
      vertex 10.7457 -11.9343 6
    endloop
  endfacet
  facet normal 0 0 1
    outer loop
      vertex 9.06434 -9.03504 6
      vertex 9.50506 -11.7378 6
      vertex 10.0248 -9.2924 6
    endloop
  endfacet
  facet normal 0 0 1
    outer loop
      vertex 9.06434 -9.03504 6
      vertex 8.2918 -11.4127 6
      vertex 9.50506 -11.7378 6
    endloop
  endfacet
  facet normal 0 0 1
    outer loop
      vertex 8.136 -8.67868 6
      vertex 8.2918 -11.4127 6
      vertex 9.06434 -9.03504 6
    endloop
  endfacet
  facet normal 0 0 1
    outer loop
      vertex 7.11916 -10.9625 6
      vertex 8.136 -8.67868 6
      vertex 7.25 -8.22724 6
    endloop
  endfacet
  facet normal 0 0 1
    outer loop
      vertex 8.136 -8.67868 6
      vertex 7.11916 -10.9625 6
      vertex 8.2918 -11.4127 6
    endloop
  endfacet
  facet normal 0 0 1
    outer loop
      vertex 6 -10.3923 6
      vertex 7.25 -8.22724 6
      vertex 6.41604 -7.68566 6
    endloop
  endfacet
  facet normal 0 0 1
    outer loop
      vertex 7.25 -8.22724 6
      vertex 6 -10.3923 6
      vertex 7.11916 -10.9625 6
    endloop
  endfacet
  facet normal 0 0 1
    outer loop
      vertex 4.94658 -9.7082 6
      vertex 6.41604 -7.68566 6
      vertex 5.64326 -7.05988 6
    endloop
  endfacet
  facet normal 0 0 1
    outer loop
      vertex 6.41604 -7.68566 6
      vertex 4.94658 -9.7082 6
      vertex 6 -10.3923 6
    endloop
  endfacet
  facet normal 0 0 1
    outer loop
      vertex 3.97043 -8.91774 6
      vertex 5.64326 -7.05988 6
      vertex 4.94012 -6.35674 6
    endloop
  endfacet
  facet normal 0 0 1
    outer loop
      vertex 3.08226 -8.02957 6
      vertex 4.94012 -6.35674 6
      vertex 4.31434 -5.58396 6
    endloop
  endfacet
  facet normal 0 0 1
    outer loop
      vertex 5.64326 -7.05988 6
      vertex 3.97043 -8.91774 6
      vertex 4.94658 -9.7082 6
    endloop
  endfacet
  facet normal 0 0 1
    outer loop
      vertex 2.2918 -7.05342 6
      vertex 4.31434 -5.58396 6
      vertex 3.77276 -4.75 6
    endloop
  endfacet
  facet normal 0 0 1
    outer loop
      vertex 2.2918 -7.05342 6
      vertex 3.77276 -4.75 6
      vertex 3.32132 -3.864 6
    endloop
  endfacet
  facet normal 0 0 1
    outer loop
      vertex 4.94012 -6.35674 6
      vertex 3.08226 -8.02957 6
      vertex 3.97043 -8.91774 6
    endloop
  endfacet
  facet normal 0 0 1
    outer loop
      vertex 2.2918 -7.05342 6
      vertex 3.32132 -3.864 6
      vertex 2.96496 -2.93566 6
    endloop
  endfacet
  facet normal 0 0 1
    outer loop
      vertex 2.2918 -7.05342 6
      vertex 2.96496 -2.93566 6
      vertex 2.7076 -1.97516 6
    endloop
  endfacet
  facet normal 0 0 1
    outer loop
      vertex 2.2918 -7.05342 6
      vertex 2.7076 -1.97516 6
      vertex 2.55204 -0.99302 6
    endloop
  endfacet
  facet normal 0 0 1
    outer loop
      vertex 4.31434 -5.58396 6
      vertex 2.2918 -7.05342 6
      vertex 3.08226 -8.02957 6
    endloop
  endfacet
  facet normal 0 0 1
    outer loop
      vertex 2.2918 -7.05342 6
      vertex 2.55204 -0.99302 6
      vertex 2.5 0 6
    endloop
  endfacet
  facet normal 0 0 1
    outer loop
      vertex 22.3923 -6 6
      vertex 22.2551 -5.9208 6
      vertex 21.7082 -7.05342 6
    endloop
  endfacet
  facet normal 0 0 1
    outer loop
      vertex 2.5 0 6
      vertex 1.03745 -4.88084 6
      vertex 1.6077 -6 6
    endloop
  endfacet
  facet normal 0 0 1
    outer loop
      vertex 2.5 0 6
      vertex 0.587322 -3.7082 6
      vertex 1.03745 -4.88084 6
    endloop
  endfacet
  facet normal 0 0 1
    outer loop
      vertex 2.5 0 6
      vertex 0.263585 -2.5 6
      vertex 0.587322 -3.7082 6
    endloop
  endfacet
  facet normal -0 0 1
    outer loop
      vertex -4.28397 0 6
      vertex 0.263585 -2.5 6
      vertex 0 0 6
    endloop
  endfacet
  facet normal 0 0 1
    outer loop
      vertex -6 0 6
      vertex -4.28397 0 6
      vertex -5.15 1.5 6
    endloop
  endfacet
  facet normal 0 0 1
    outer loop
      vertex -6 -2.5 6
      vertex -4.28397 0 6
      vertex -6 0 6
    endloop
  endfacet
  facet normal 0 0 1
    outer loop
      vertex -4.28397 0 6
      vertex -6 -2.5 6
      vertex 0.263585 -2.5 6
    endloop
  endfacet
  facet normal 0 0 1
    outer loop
      vertex -3.5 47 6
      vertex -2 47.8 6
      vertex -3.5 48.666 6
    endloop
  endfacet
  facet normal 0 0 1
    outer loop
      vertex -2 47.8 6
      vertex -3.5 47 6
      vertex -3.5 46.934 6
    endloop
  endfacet
  facet normal 0.453952 -0.891026 0
    outer loop
      vertex 16.8808 -10.9625 0
      vertex 18 -10.3923 6
      vertex 16.8808 -10.9625 6
    endloop
  endfacet
  facet normal 0.453952 -0.891026 0
    outer loop
      vertex 18 -10.3923 6
      vertex 16.8808 -10.9625 0
      vertex 18 -10.3923 0
    endloop
  endfacet
  facet normal -0.358414 -0.933563 0
    outer loop
      vertex 7.11916 -10.9625 0
      vertex 8.2918 -11.4127 6
      vertex 7.11916 -10.9625 6
    endloop
  endfacet
  facet normal -0.358414 -0.933563 -0
    outer loop
      vertex 8.2918 -11.4127 6
      vertex 7.11916 -10.9625 0
      vertex 8.2918 -11.4127 0
    endloop
  endfacet
  facet normal -0.83867 -0.54464 0
    outer loop
      vertex 2.2918 -7.05342 0
      vertex 1.6077 -6 6
      vertex 1.6077 -6 0
    endloop
  endfacet
  facet normal -0.83867 -0.54464 0
    outer loop
      vertex 1.6077 -6 6
      vertex 2.2918 -7.05342 0
      vertex 2.2918 -7.05342 6
    endloop
  endfacet
  facet normal -0.933582 -0.358364 0
    outer loop
      vertex 1.03745 -4.88084 0
      vertex 0.587322 -3.7082 6
      vertex 0.587322 -3.7082 0
    endloop
  endfacet
  facet normal -0.933582 -0.358364 0
    outer loop
      vertex 0.587322 -3.7082 6
      vertex 1.03745 -4.88084 0
      vertex 1.03745 -4.88084 6
    endloop
  endfacet
  facet normal -0.54464 -0.83867 0
    outer loop
      vertex 4.94658 -9.7082 0
      vertex 6 -10.3923 6
      vertex 4.94658 -9.7082 6
    endloop
  endfacet
  facet normal -0.54464 -0.83867 -0
    outer loop
      vertex 6 -10.3923 6
      vertex 4.94658 -9.7082 0
      vertex 6 -10.3923 0
    endloop
  endfacet
  facet normal 0.358424 -0.933559 0
    outer loop
      vertex 15.7082 -11.4127 0
      vertex 16.8808 -10.9625 6
      vertex 15.7082 -11.4127 6
    endloop
  endfacet
  facet normal 0.358424 -0.933559 0
    outer loop
      vertex 16.8808 -10.9625 6
      vertex 15.7082 -11.4127 0
      vertex 16.8808 -10.9625 0
    endloop
  endfacet
  facet normal 0.258817 -0.965926 0
    outer loop
      vertex 14.4949 -11.7378 0
      vertex 15.7082 -11.4127 6
      vertex 14.4949 -11.7378 6
    endloop
  endfacet
  facet normal 0.258817 -0.965926 0
    outer loop
      vertex 15.7082 -11.4127 6
      vertex 14.4949 -11.7378 0
      vertex 15.7082 -11.4127 0
    endloop
  endfacet
  facet normal 0.544647 -0.838665 0
    outer loop
      vertex 18 -10.3923 0
      vertex 19.0534 -9.7082 6
      vertex 18 -10.3923 6
    endloop
  endfacet
  facet normal 0.544647 -0.838665 0
    outer loop
      vertex 19.0534 -9.7082 6
      vertex 18 -10.3923 0
      vertex 19.0534 -9.7082 0
    endloop
  endfacet
  facet normal -0.258825 -0.965924 0
    outer loop
      vertex 8.2918 -11.4127 0
      vertex 9.50506 -11.7378 6
      vertex 8.2918 -11.4127 6
    endloop
  endfacet
  facet normal -0.258825 -0.965924 -0
    outer loop
      vertex 9.50506 -11.7378 6
      vertex 8.2918 -11.4127 0
      vertex 9.50506 -11.7378 0
    endloop
  endfacet
  facet normal -0.156436 -0.987688 0
    outer loop
      vertex 9.50506 -11.7378 0
      vertex 10.7457 -11.9343 6
      vertex 9.50506 -11.7378 6
    endloop
  endfacet
  facet normal -0.156436 -0.987688 -0
    outer loop
      vertex 10.7457 -11.9343 6
      vertex 9.50506 -11.7378 0
      vertex 10.7457 -11.9343 0
    endloop
  endfacet
  facet normal -0.891003 -0.453997 0
    outer loop
      vertex 1.6077 -6 0
      vertex 1.03745 -4.88084 6
      vertex 1.03745 -4.88084 0
    endloop
  endfacet
  facet normal -0.891003 -0.453997 0
    outer loop
      vertex 1.03745 -4.88084 6
      vertex 1.6077 -6 0
      vertex 1.6077 -6 6
    endloop
  endfacet
  facet normal 0.83867 -0.54464 0
    outer loop
      vertex 21.7082 -7.05342 6
      vertex 22.3923 -6 0
      vertex 22.3923 -6 6
    endloop
  endfacet
  facet normal 0.83867 -0.54464 0
    outer loop
      vertex 22.3923 -6 0
      vertex 21.7082 -7.05342 6
      vertex 21.7082 -7.05342 0
    endloop
  endfacet
  facet normal 0.629296 -0.777166 0
    outer loop
      vertex 19.0534 -9.7082 0
      vertex 20.0296 -8.91774 6
      vertex 19.0534 -9.7082 6
    endloop
  endfacet
  facet normal 0.629296 -0.777166 0
    outer loop
      vertex 20.0296 -8.91774 6
      vertex 19.0534 -9.7082 0
      vertex 20.0296 -8.91774 0
    endloop
  endfacet
  facet normal 0 0 -1
    outer loop
      vertex -3.5 47 0
      vertex -2 47.8 0
      vertex -3.5 46.934 0
    endloop
  endfacet
  facet normal 0 0 -1
    outer loop
      vertex -3.5 47 0
      vertex -3.5 48.666 0
      vertex -2 47.8 0
    endloop
  endfacet
  facet normal 0 0 -1
    outer loop
      vertex -6 47 0
      vertex -3.5 48.666 0
      vertex -3.5 47 0
    endloop
  endfacet
  facet normal -0 0 -1
    outer loop
      vertex -3.5 48.666 0
      vertex -6 47 0
      vertex -3.5 53 0
    endloop
  endfacet
  facet normal 0 -0 -1
    outer loop
      vertex 22.2551 -5.9208 0
      vertex 22.3923 -6 0
      vertex 21.7082 -7.05342 0
    endloop
  endfacet
  facet normal 0 0 -1
    outer loop
      vertex 22.2551 -5.9208 0
      vertex 25.7694 3.44188 0
      vertex 22.3492 -5.95505 0
    endloop
  endfacet
  facet normal -0 0 -1
    outer loop
      vertex 25.7694 3.44188 0
      vertex 22.2551 -5.9208 0
      vertex 23.4202 4.29693 0
    endloop
  endfacet
  facet normal 0 0 -1
    outer loop
      vertex 20.0001 -5.09982 0
      vertex 22.2551 -5.9208 0
      vertex 21.7082 -7.05342 0
    endloop
  endfacet
  facet normal 0 0 -1
    outer loop
      vertex 19.6857 -5.58396 0
      vertex 21.7082 -7.05342 0
      vertex 20.9177 -8.02957 0
    endloop
  endfacet
  facet normal 0 0 -1
    outer loop
      vertex 19.0599 -6.35674 0
      vertex 20.9177 -8.02957 0
      vertex 20.0296 -8.91774 0
    endloop
  endfacet
  facet normal 0 0 -1
    outer loop
      vertex 22.2551 -5.9208 0
      vertex 20.0001 -5.09982 0
      vertex 23.4202 4.29693 0
    endloop
  endfacet
  facet normal 0 0 -1
    outer loop
      vertex 21.7082 -7.05342 0
      vertex 19.6857 -5.58396 0
      vertex 20.0001 -5.09982 0
    endloop
  endfacet
  facet normal 0 0 -1
    outer loop
      vertex 20.9177 -8.02957 0
      vertex 19.0599 -6.35674 0
      vertex 19.6857 -5.58396 0
    endloop
  endfacet
  facet normal 0 0 -1
    outer loop
      vertex 18.3567 -7.05988 0
      vertex 20.0296 -8.91774 0
      vertex 19.0534 -9.7082 0
    endloop
  endfacet
  facet normal 0 0 -1
    outer loop
      vertex 20.0296 -8.91774 0
      vertex 18.3567 -7.05988 0
      vertex 19.0599 -6.35674 0
    endloop
  endfacet
  facet normal 0 0 -1
    outer loop
      vertex 17.584 -7.68566 0
      vertex 19.0534 -9.7082 0
      vertex 18 -10.3923 0
    endloop
  endfacet
  facet normal 0 0 -1
    outer loop
      vertex 19.0534 -9.7082 0
      vertex 17.584 -7.68566 0
      vertex 18.3567 -7.05988 0
    endloop
  endfacet
  facet normal 0 0 -1
    outer loop
      vertex 16.75 -8.22724 0
      vertex 18 -10.3923 0
      vertex 16.8808 -10.9625 0
    endloop
  endfacet
  facet normal 0 0 -1
    outer loop
      vertex 18 -10.3923 0
      vertex 16.75 -8.22724 0
      vertex 17.584 -7.68566 0
    endloop
  endfacet
  facet normal 0 0 -1
    outer loop
      vertex 16.8808 -10.9625 0
      vertex 15.864 -8.67868 0
      vertex 16.75 -8.22724 0
    endloop
  endfacet
  facet normal 0 0 -1
    outer loop
      vertex 15.7082 -11.4127 0
      vertex 15.864 -8.67868 0
      vertex 16.8808 -10.9625 0
    endloop
  endfacet
  facet normal 0 0 -1
    outer loop
      vertex 15.7082 -11.4127 0
      vertex 14.9357 -9.03504 0
      vertex 15.864 -8.67868 0
    endloop
  endfacet
  facet normal 0 0 -1
    outer loop
      vertex 14.4949 -11.7378 0
      vertex 14.9357 -9.03504 0
      vertex 15.7082 -11.4127 0
    endloop
  endfacet
  facet normal 0 0 -1
    outer loop
      vertex 14.4949 -11.7378 0
      vertex 13.9752 -9.2924 0
      vertex 14.9357 -9.03504 0
    endloop
  endfacet
  facet normal 0 0 -1
    outer loop
      vertex 13.2543 -11.9343 0
      vertex 13.9752 -9.2924 0
      vertex 14.4949 -11.7378 0
    endloop
  endfacet
  facet normal 0 0 -1
    outer loop
      vertex 13.2543 -11.9343 0
      vertex 12.993 -9.44796 0
      vertex 13.9752 -9.2924 0
    endloop
  endfacet
  facet normal 0 0 -1
    outer loop
      vertex 12 -12 0
      vertex 12.993 -9.44796 0
      vertex 13.2543 -11.9343 0
    endloop
  endfacet
  facet normal 0 0 -1
    outer loop
      vertex 12 -12 0
      vertex 12 -9.5 0
      vertex 12.993 -9.44796 0
    endloop
  endfacet
  facet normal 0 0 -1
    outer loop
      vertex 12 -12 0
      vertex 11.007 -9.44796 0
      vertex 12 -9.5 0
    endloop
  endfacet
  facet normal 0 0 -1
    outer loop
      vertex 10.7457 -11.9343 0
      vertex 11.007 -9.44796 0
      vertex 12 -12 0
    endloop
  endfacet
  facet normal 0 0 -1
    outer loop
      vertex 10.7457 -11.9343 0
      vertex 10.0248 -9.2924 0
      vertex 11.007 -9.44796 0
    endloop
  endfacet
  facet normal 0 0 -1
    outer loop
      vertex 9.50506 -11.7378 0
      vertex 10.0248 -9.2924 0
      vertex 10.7457 -11.9343 0
    endloop
  endfacet
  facet normal 0 0 -1
    outer loop
      vertex 9.50506 -11.7378 0
      vertex 9.06434 -9.03504 0
      vertex 10.0248 -9.2924 0
    endloop
  endfacet
  facet normal 0 0 -1
    outer loop
      vertex 8.2918 -11.4127 0
      vertex 9.06434 -9.03504 0
      vertex 9.50506 -11.7378 0
    endloop
  endfacet
  facet normal 0 0 -1
    outer loop
      vertex 8.2918 -11.4127 0
      vertex 8.136 -8.67868 0
      vertex 9.06434 -9.03504 0
    endloop
  endfacet
  facet normal 0 0 -1
    outer loop
      vertex 7.11916 -10.9625 0
      vertex 8.136 -8.67868 0
      vertex 8.2918 -11.4127 0
    endloop
  endfacet
  facet normal -0 0 -1
    outer loop
      vertex 8.136 -8.67868 0
      vertex 7.11916 -10.9625 0
      vertex 7.25 -8.22724 0
    endloop
  endfacet
  facet normal 0 0 -1
    outer loop
      vertex 6 -10.3923 0
      vertex 7.25 -8.22724 0
      vertex 7.11916 -10.9625 0
    endloop
  endfacet
  facet normal -0 0 -1
    outer loop
      vertex 7.25 -8.22724 0
      vertex 6 -10.3923 0
      vertex 6.41604 -7.68566 0
    endloop
  endfacet
  facet normal 0 0 -1
    outer loop
      vertex 4.94658 -9.7082 0
      vertex 6.41604 -7.68566 0
      vertex 6 -10.3923 0
    endloop
  endfacet
  facet normal -0 0 -1
    outer loop
      vertex 6.41604 -7.68566 0
      vertex 4.94658 -9.7082 0
      vertex 5.64326 -7.05988 0
    endloop
  endfacet
  facet normal 0 0 -1
    outer loop
      vertex 3.97043 -8.91774 0
      vertex 5.64326 -7.05988 0
      vertex 4.94658 -9.7082 0
    endloop
  endfacet
  facet normal -0 0 -1
    outer loop
      vertex 5.64326 -7.05988 0
      vertex 3.97043 -8.91774 0
      vertex 4.94012 -6.35674 0
    endloop
  endfacet
  facet normal 0 0 -1
    outer loop
      vertex 3.08226 -8.02957 0
      vertex 4.94012 -6.35674 0
      vertex 3.97043 -8.91774 0
    endloop
  endfacet
  facet normal -0 0 -1
    outer loop
      vertex 4.94012 -6.35674 0
      vertex 3.08226 -8.02957 0
      vertex 4.31434 -5.58396 0
    endloop
  endfacet
  facet normal 0 0 -1
    outer loop
      vertex 2.2918 -7.05342 0
      vertex 4.31434 -5.58396 0
      vertex 3.08226 -8.02957 0
    endloop
  endfacet
  facet normal -0 0 -1
    outer loop
      vertex 4.31434 -5.58396 0
      vertex 2.2918 -7.05342 0
      vertex 3.77276 -4.75 0
    endloop
  endfacet
  facet normal 0 0 -1
    outer loop
      vertex 1.6077 -6 0
      vertex 3.77276 -4.75 0
      vertex 2.2918 -7.05342 0
    endloop
  endfacet
  facet normal -0 0 -1
    outer loop
      vertex 3.77276 -4.75 0
      vertex 1.6077 -6 0
      vertex 3.32132 -3.864 0
    endloop
  endfacet
  facet normal 0 0 -1
    outer loop
      vertex 1.03745 -4.88084 0
      vertex 3.32132 -3.864 0
      vertex 1.6077 -6 0
    endloop
  endfacet
  facet normal -0 0 -1
    outer loop
      vertex 3.32132 -3.864 0
      vertex 1.03745 -4.88084 0
      vertex 2.96496 -2.93566 0
    endloop
  endfacet
  facet normal 0 0 -1
    outer loop
      vertex 0.587322 -3.7082 0
      vertex 2.96496 -2.93566 0
      vertex 1.03745 -4.88084 0
    endloop
  endfacet
  facet normal -0 0 -1
    outer loop
      vertex 2.96496 -2.93566 0
      vertex 0.587322 -3.7082 0
      vertex 2.7076 -1.97516 0
    endloop
  endfacet
  facet normal 0 0 -1
    outer loop
      vertex 0.263585 -2.5 0
      vertex 2.7076 -1.97516 0
      vertex 0.587322 -3.7082 0
    endloop
  endfacet
  facet normal -0 0 -1
    outer loop
      vertex 2.7076 -1.97516 0
      vertex 0.263585 -2.5 0
      vertex 2.55204 -0.99302 0
    endloop
  endfacet
  facet normal 0 0 -1
    outer loop
      vertex 0 0 0
      vertex 2.55204 -0.99302 0
      vertex 0.263585 -2.5 0
    endloop
  endfacet
  facet normal 0 0 -1
    outer loop
      vertex 2.55204 -0.99302 0
      vertex 0 0 0
      vertex 2.5 0 0
    endloop
  endfacet
  facet normal 0 0 -1
    outer loop
      vertex 2.5 0 0
      vertex 0 0 0
      vertex 0 4 0
    endloop
  endfacet
  facet normal 0 0 -1
    outer loop
      vertex 2.5 0 0
      vertex 0 4 0
      vertex 0 6.5 0
    endloop
  endfacet
  facet normal 0 0 -1
    outer loop
      vertex 2.5 0 0
      vertex 0 6.5 0
      vertex 2.5 55.5 0
    endloop
  endfacet
  facet normal 0 0 -1
    outer loop
      vertex 0 53 0
      vertex 2.5 55.5 0
      vertex 0 6.5 0
    endloop
  endfacet
  facet normal 0 0 -1
    outer loop
      vertex -3.5 53 0
      vertex 2.5 55.5 0
      vertex 0 53 0
    endloop
  endfacet
  facet normal 0 0 -1
    outer loop
      vertex -3.5 53 0
      vertex -6 55.5 0
      vertex 2.5 55.5 0
    endloop
  endfacet
  facet normal 0 0 -1
    outer loop
      vertex -6 55.5 0
      vertex -3.5 53 0
      vertex -6 47 0
    endloop
  endfacet
  facet normal 0 0 -1
    outer loop
      vertex -6 4 0
      vertex 0 6.5 0
      vertex 0 4 0
    endloop
  endfacet
  facet normal -0 0 -1
    outer loop
      vertex 0 6.5 0
      vertex -6 4 0
      vertex -6 6.5 0
    endloop
  endfacet
  facet normal 0 0 -1
    outer loop
      vertex 0.263585 -2.5 0
      vertex -4.28397 0 0
      vertex 0 0 0
    endloop
  endfacet
  facet normal 0 0 -1
    outer loop
      vertex -6 -2.5 0
      vertex -4.28397 0 0
      vertex 0.263585 -2.5 0
    endloop
  endfacet
  facet normal 0 0 -1
    outer loop
      vertex -6 0 0
      vertex -4.28397 0 0
      vertex -6 -2.5 0
    endloop
  endfacet
  facet normal 0 0 -1
    outer loop
      vertex -4.28397 0 0
      vertex -6 0 0
      vertex -5.15 1.5 0
    endloop
  endfacet
  facet normal 0 0 -1
    outer loop
      vertex -5.15 1.5 0
      vertex -6 0 0
      vertex -6.01602 0 0
    endloop
  endfacet
  facet normal 0.987688 0.156439 0
    outer loop
      vertex 2.7076 -1.97516 6
      vertex 2.55204 -0.99302 0
      vertex 2.55204 -0.99302 6
    endloop
  endfacet
  facet normal 0.987688 0.156439 0
    outer loop
      vertex 2.55204 -0.99302 0
      vertex 2.7076 -1.97516 6
      vertex 2.7076 -1.97516 0
    endloop
  endfacet
  facet normal 0.933579 0.358371 0
    outer loop
      vertex 3.32132 -3.864 6
      vertex 2.96496 -2.93566 0
      vertex 2.96496 -2.93566 6
    endloop
  endfacet
  facet normal 0.933579 0.358371 0
    outer loop
      vertex 2.96496 -2.93566 0
      vertex 3.32132 -3.864 6
      vertex 3.32132 -3.864 0
    endloop
  endfacet
  facet normal -0.544621 0.838682 0
    outer loop
      vertex 17.584 -7.68566 0
      vertex 16.75 -8.22724 6
      vertex 17.584 -7.68566 6
    endloop
  endfacet
  facet normal -0.544621 0.838682 0
    outer loop
      vertex 16.75 -8.22724 6
      vertex 17.584 -7.68566 0
      vertex 16.75 -8.22724 0
    endloop
  endfacet
  facet normal -0.777139 0.62933 0
    outer loop
      vertex 19.0599 -6.35674 0
      vertex 19.6857 -5.58396 6
      vertex 19.6857 -5.58396 0
    endloop
  endfacet
  facet normal -0.777139 0.62933 0
    outer loop
      vertex 19.6857 -5.58396 6
      vertex 19.0599 -6.35674 0
      vertex 19.0599 -6.35674 6
    endloop
  endfacet
  facet normal 0.707107 0.707107 0
    outer loop
      vertex 5.64326 -7.05988 6
      vertex 4.94012 -6.35674 0
      vertex 4.94012 -6.35674 6
    endloop
  endfacet
  facet normal 0.707107 0.707107 0
    outer loop
      vertex 4.94012 -6.35674 0
      vertex 5.64326 -7.05988 6
      vertex 5.64326 -7.05988 0
    endloop
  endfacet
  facet normal 0.891006 0.453991 0
    outer loop
      vertex 3.77276 -4.75 6
      vertex 3.32132 -3.864 0
      vertex 3.32132 -3.864 6
    endloop
  endfacet
  facet normal 0.891006 0.453991 0
    outer loop
      vertex 3.32132 -3.864 0
      vertex 3.77276 -4.75 6
      vertex 3.77276 -4.75 0
    endloop
  endfacet
  facet normal 0.358371 0.933579 -0
    outer loop
      vertex 9.06434 -9.03504 0
      vertex 8.136 -8.67868 6
      vertex 9.06434 -9.03504 6
    endloop
  endfacet
  facet normal 0.358371 0.933579 0
    outer loop
      vertex 8.136 -8.67868 6
      vertex 9.06434 -9.03504 0
      vertex 8.136 -8.67868 0
    endloop
  endfacet
  facet normal -0.838674 0.544634 0
    outer loop
      vertex 19.6857 -5.58396 0
      vertex 20.0001 -5.09982 6
      vertex 20.0001 -5.09982 0
    endloop
  endfacet
  facet normal -0.838674 0.544634 0
    outer loop
      vertex 20.0001 -5.09982 6
      vertex 19.6857 -5.58396 0
      vertex 19.6857 -5.58396 6
    endloop
  endfacet
  facet normal -0.156429 0.987689 0
    outer loop
      vertex 13.9752 -9.2924 0
      vertex 12.993 -9.44796 6
      vertex 13.9752 -9.2924 6
    endloop
  endfacet
  facet normal -0.156429 0.987689 0
    outer loop
      vertex 12.993 -9.44796 6
      vertex 13.9752 -9.2924 0
      vertex 12.993 -9.44796 0
    endloop
  endfacet
  facet normal 0.629317 0.777148 -0
    outer loop
      vertex 6.41604 -7.68566 0
      vertex 5.64326 -7.05988 6
      vertex 6.41604 -7.68566 6
    endloop
  endfacet
  facet normal 0.629317 0.777148 0
    outer loop
      vertex 5.64326 -7.05988 6
      vertex 6.41604 -7.68566 0
      vertex 5.64326 -7.05988 0
    endloop
  endfacet
  facet normal 0.453991 0.891006 -0
    outer loop
      vertex 8.136 -8.67868 0
      vertex 7.25 -8.22724 6
      vertex 8.136 -8.67868 6
    endloop
  endfacet
  facet normal 0.453991 0.891006 0
    outer loop
      vertex 7.25 -8.22724 6
      vertex 8.136 -8.67868 0
      vertex 7.25 -8.22724 0
    endloop
  endfacet
  facet normal 0.052335 0.99863 -0
    outer loop
      vertex 12 -9.5 0
      vertex 11.007 -9.44796 6
      vertex 12 -9.5 6
    endloop
  endfacet
  facet normal 0.052335 0.99863 0
    outer loop
      vertex 11.007 -9.44796 6
      vertex 12 -9.5 0
      vertex 11.007 -9.44796 0
    endloop
  endfacet
  facet normal 0.777148 0.629317 0
    outer loop
      vertex 4.94012 -6.35674 6
      vertex 4.31434 -5.58396 0
      vertex 4.31434 -5.58396 6
    endloop
  endfacet
  facet normal 0.777148 0.629317 0
    outer loop
      vertex 4.31434 -5.58396 0
      vertex 4.94012 -6.35674 6
      vertex 4.94012 -6.35674 0
    endloop
  endfacet
  facet normal -0.052335 0.99863 0
    outer loop
      vertex 12.993 -9.44796 0
      vertex 12 -9.5 6
      vertex 12.993 -9.44796 6
    endloop
  endfacet
  facet normal -0.052335 0.99863 0
    outer loop
      vertex 12 -9.5 6
      vertex 12.993 -9.44796 0
      vertex 12 -9.5 0
    endloop
  endfacet
  facet normal 0.838671 0.544639 0
    outer loop
      vertex 4.31434 -5.58396 6
      vertex 3.77276 -4.75 0
      vertex 3.77276 -4.75 6
    endloop
  endfacet
  facet normal 0.838671 0.544639 0
    outer loop
      vertex 3.77276 -4.75 0
      vertex 4.31434 -5.58396 6
      vertex 4.31434 -5.58396 0
    endloop
  endfacet
  facet normal 0.544639 0.838671 -0
    outer loop
      vertex 7.25 -8.22724 0
      vertex 6.41604 -7.68566 6
      vertex 7.25 -8.22724 6
    endloop
  endfacet
  facet normal 0.544639 0.838671 0
    outer loop
      vertex 6.41604 -7.68566 6
      vertex 7.25 -8.22724 0
      vertex 6.41604 -7.68566 0
    endloop
  endfacet
  facet normal 0.965927 0.258814 0
    outer loop
      vertex 2.96496 -2.93566 6
      vertex 2.7076 -1.97516 0
      vertex 2.7076 -1.97516 6
    endloop
  endfacet
  facet normal 0.965927 0.258814 0
    outer loop
      vertex 2.7076 -1.97516 0
      vertex 2.96496 -2.93566 6
      vertex 2.96496 -2.93566 0
    endloop
  endfacet
  facet normal -0.707077 0.707137 0
    outer loop
      vertex 19.0599 -6.35674 0
      vertex 18.3567 -7.05988 6
      vertex 19.0599 -6.35674 6
    endloop
  endfacet
  facet normal -0.707077 0.707137 0
    outer loop
      vertex 18.3567 -7.05988 6
      vertex 19.0599 -6.35674 0
      vertex 18.3567 -7.05988 0
    endloop
  endfacet
  facet normal 0.258824 0.965924 -0
    outer loop
      vertex 10.0248 -9.2924 0
      vertex 9.06434 -9.03504 6
      vertex 10.0248 -9.2924 6
    endloop
  endfacet
  facet normal 0.258824 0.965924 0
    outer loop
      vertex 9.06434 -9.03504 6
      vertex 10.0248 -9.2924 0
      vertex 9.06434 -9.03504 0
    endloop
  endfacet
  facet normal 0.99863 0.052334 0
    outer loop
      vertex 2.55204 -0.99302 6
      vertex 2.5 0 0
      vertex 2.5 0 6
    endloop
  endfacet
  facet normal 0.99863 0.052334 0
    outer loop
      vertex 2.5 0 0
      vertex 2.55204 -0.99302 6
      vertex 2.55204 -0.99302 0
    endloop
  endfacet
  facet normal -0.258814 0.965927 0
    outer loop
      vertex 14.9357 -9.03504 0
      vertex 13.9752 -9.2924 6
      vertex 14.9357 -9.03504 6
    endloop
  endfacet
  facet normal -0.258814 0.965927 0
    outer loop
      vertex 13.9752 -9.2924 6
      vertex 14.9357 -9.03504 0
      vertex 13.9752 -9.2924 0
    endloop
  endfacet
  facet normal -0.358385 0.933574 0
    outer loop
      vertex 15.864 -8.67868 0
      vertex 14.9357 -9.03504 6
      vertex 15.864 -8.67868 6
    endloop
  endfacet
  facet normal -0.358385 0.933574 0
    outer loop
      vertex 14.9357 -9.03504 6
      vertex 15.864 -8.67868 0
      vertex 14.9357 -9.03504 0
    endloop
  endfacet
  facet normal -0.453991 0.891006 0
    outer loop
      vertex 16.75 -8.22724 0
      vertex 15.864 -8.67868 6
      vertex 16.75 -8.22724 6
    endloop
  endfacet
  facet normal -0.453991 0.891006 0
    outer loop
      vertex 15.864 -8.67868 6
      vertex 16.75 -8.22724 0
      vertex 15.864 -8.67868 0
    endloop
  endfacet
  facet normal -0.629357 0.777117 0
    outer loop
      vertex 18.3567 -7.05988 0
      vertex 17.584 -7.68566 6
      vertex 18.3567 -7.05988 6
    endloop
  endfacet
  facet normal -0.629357 0.777117 0
    outer loop
      vertex 17.584 -7.68566 6
      vertex 18.3567 -7.05988 0
      vertex 17.584 -7.68566 0
    endloop
  endfacet
  facet normal 0.156429 0.987689 -0
    outer loop
      vertex 11.007 -9.44796 0
      vertex 10.0248 -9.2924 6
      vertex 11.007 -9.44796 6
    endloop
  endfacet
  facet normal 0.156429 0.987689 0
    outer loop
      vertex 10.0248 -9.2924 6
      vertex 11.007 -9.44796 0
      vertex 10.0248 -9.2924 0
    endloop
  endfacet
  facet normal 1 -0 0
    outer loop
      vertex 2.5 0 6
      vertex 2.5 55.5 0
      vertex 2.5 55.5 6
    endloop
  endfacet
  facet normal 1 0 0
    outer loop
      vertex 2.5 55.5 0
      vertex 2.5 0 6
      vertex 2.5 0 0
    endloop
  endfacet
  facet normal 0.499941 0.866059 -0
    outer loop
      vertex 22.3923 -6 0
      vertex 22.2551 -5.9208 6
      vertex 22.3923 -6 6
    endloop
  endfacet
  facet normal 0.499941 0.866059 0
    outer loop
      vertex 22.2551 -5.9208 6
      vertex 22.3923 -6 0
      vertex 22.2551 -5.9208 0
    endloop
  endfacet
  facet normal -1 0 0
    outer loop
      vertex 0 0 0
      vertex 0 4 6
      vertex 0 4 0
    endloop
  endfacet
  facet normal -1 -0 0
    outer loop
      vertex 0 4 6
      vertex 0 0 0
      vertex 0 0 6
    endloop
  endfacet
  facet normal -1 0 0
    outer loop
      vertex 0 6.5 0
      vertex 0 53 6
      vertex 0 53 0
    endloop
  endfacet
  facet normal -1 -0 0
    outer loop
      vertex 0 53 6
      vertex 0 6.5 0
      vertex 0 6.5 6
    endloop
  endfacet
  facet normal 0 -1 0
    outer loop
      vertex -3.5 53 0
      vertex 0 53 6
      vertex -3.5 53 6
    endloop
  endfacet
  facet normal 0 -1 -0
    outer loop
      vertex 0 53 6
      vertex -3.5 53 0
      vertex 0 53 0
    endloop
  endfacet
  facet normal -1 0 0
    outer loop
      vertex -6 47 0
      vertex -6 55.5 6
      vertex -6 55.5 0
    endloop
  endfacet
  facet normal -1 -0 0
    outer loop
      vertex -6 55.5 6
      vertex -6 47 0
      vertex -6 47 6
    endloop
  endfacet
  facet normal 0 1 -0
    outer loop
      vertex 2.5 55.5 0
      vertex -6 55.5 6
      vertex 2.5 55.5 6
    endloop
  endfacet
  facet normal 0 1 0
    outer loop
      vertex -6 55.5 6
      vertex 2.5 55.5 0
      vertex -6 55.5 0
    endloop
  endfacet
  facet normal 1 -0 0
    outer loop
      vertex -3.5 48.666 6
      vertex -3.5 53 0
      vertex -3.5 53 6
    endloop
  endfacet
  facet normal 1 0 0
    outer loop
      vertex -3.5 53 0
      vertex -3.5 48.666 6
      vertex -3.5 48.666 0
    endloop
  endfacet
  facet normal -1 0 0
    outer loop
      vertex -3.5 46.934 0
      vertex -3.5 47 6
      vertex -3.5 47 0
    endloop
  endfacet
  facet normal -1 -0 0
    outer loop
      vertex -3.5 47 6
      vertex -3.5 46.934 0
      vertex -3.5 46.934 6
    endloop
  endfacet
  facet normal 0 -1 0
    outer loop
      vertex -6 47 0
      vertex -3.5 47 6
      vertex -6 47 6
    endloop
  endfacet
  facet normal 0 -1 -0
    outer loop
      vertex -3.5 47 6
      vertex -6 47 0
      vertex -3.5 47 0
    endloop
  endfacet
  facet normal 0.499989 0.866032 -0
    outer loop
      vertex -2 47.8 0
      vertex -3.5 48.666 6
      vertex -2 47.8 6
    endloop
  endfacet
  facet normal 0.499989 0.866032 0
    outer loop
      vertex -3.5 48.666 6
      vertex -2 47.8 0
      vertex -3.5 48.666 0
    endloop
  endfacet
  facet normal 0.499989 -0.866032 0
    outer loop
      vertex -3.5 46.934 0
      vertex -2 47.8 6
      vertex -3.5 46.934 6
    endloop
  endfacet
  facet normal 0.499989 -0.866032 0
    outer loop
      vertex -2 47.8 6
      vertex -3.5 46.934 0
      vertex -2 47.8 0
    endloop
  endfacet
  facet normal 0.939693 -0.34202 0
    outer loop
      vertex 22.3492 -5.95505 6
      vertex 25.7694 3.44188 0
      vertex 25.7694 3.44188 6
    endloop
  endfacet
  facet normal 0.939693 -0.34202 0
    outer loop
      vertex 25.7694 3.44188 0
      vertex 22.3492 -5.95505 6
      vertex 22.3492 -5.95505 0
    endloop
  endfacet
  facet normal -0.939694 0.342017 0
    outer loop
      vertex 20.0001 -5.09982 0
      vertex 23.4202 4.29693 6
      vertex 23.4202 4.29693 0
    endloop
  endfacet
  facet normal -0.939694 0.342017 0
    outer loop
      vertex 23.4202 4.29693 6
      vertex 20.0001 -5.09982 0
      vertex 20.0001 -5.09982 6
    endloop
  endfacet
  facet normal 0.342024 0.939691 -0
    outer loop
      vertex 25.7694 3.44188 0
      vertex 23.4202 4.29693 6
      vertex 25.7694 3.44188 6
    endloop
  endfacet
  facet normal 0.342024 0.939691 0
    outer loop
      vertex 23.4202 4.29693 6
      vertex 25.7694 3.44188 0
      vertex 23.4202 4.29693 0
    endloop
  endfacet
  facet normal -0.342024 -0.939691 0
    outer loop
      vertex 22.2551 -5.9208 0
      vertex 22.3492 -5.95505 6
      vertex 22.2551 -5.9208 6
    endloop
  endfacet
  facet normal -0.342024 -0.939691 -0
    outer loop
      vertex 22.3492 -5.95505 6
      vertex 22.2551 -5.9208 0
      vertex 22.3492 -5.95505 0
    endloop
  endfacet
  facet normal -1 0 0
    outer loop
      vertex -6 -2.5 0
      vertex -6 0 6
      vertex -6 0 0
    endloop
  endfacet
  facet normal -1 -0 0
    outer loop
      vertex -6 0 6
      vertex -6 -2.5 0
      vertex -6 -2.5 6
    endloop
  endfacet
  facet normal 0 -1 0
    outer loop
      vertex -6.01602 0 0
      vertex -6 0 6
      vertex -6.01602 0 6
    endloop
  endfacet
  facet normal 0 -1 -0
    outer loop
      vertex -6 0 6
      vertex -6.01602 0 0
      vertex -6 0 0
    endloop
  endfacet
  facet normal 0 1 -0
    outer loop
      vertex 0 0 0
      vertex -4.28397 0 6
      vertex 0 0 6
    endloop
  endfacet
  facet normal 0 1 0
    outer loop
      vertex -4.28397 0 6
      vertex 0 0 0
      vertex -4.28397 0 0
    endloop
  endfacet
  facet normal 0 -1 0
    outer loop
      vertex -6 -2.5 0
      vertex 0.263585 -2.5 6
      vertex -6 -2.5 6
    endloop
  endfacet
  facet normal 0 -1 -0
    outer loop
      vertex 0.263585 -2.5 6
      vertex -6 -2.5 0
      vertex 0.263585 -2.5 0
    endloop
  endfacet
  facet normal -0.866027 0.499998 0
    outer loop
      vertex -6.01602 0 0
      vertex -5.15 1.5 6
      vertex -5.15 1.5 0
    endloop
  endfacet
  facet normal -0.866027 0.499998 0
    outer loop
      vertex -5.15 1.5 6
      vertex -6.01602 0 0
      vertex -6.01602 0 6
    endloop
  endfacet
  facet normal 0.866024 0.500002 0
    outer loop
      vertex -4.28397 0 6
      vertex -5.15 1.5 0
      vertex -5.15 1.5 6
    endloop
  endfacet
  facet normal 0.866024 0.500002 0
    outer loop
      vertex -5.15 1.5 0
      vertex -4.28397 0 6
      vertex -4.28397 0 0
    endloop
  endfacet
  facet normal -1 0 0
    outer loop
      vertex -6 4 0
      vertex -6 6.5 6
      vertex -6 6.5 0
    endloop
  endfacet
  facet normal -1 -0 0
    outer loop
      vertex -6 6.5 6
      vertex -6 4 0
      vertex -6 4 6
    endloop
  endfacet
  facet normal 0 1 -0
    outer loop
      vertex 0 6.5 0
      vertex -6 6.5 6
      vertex 0 6.5 6
    endloop
  endfacet
  facet normal 0 1 0
    outer loop
      vertex -6 6.5 6
      vertex 0 6.5 0
      vertex -6 6.5 0
    endloop
  endfacet
  facet normal 0 -1 0
    outer loop
      vertex -6 4 0
      vertex 0 4 6
      vertex -6 4 6
    endloop
  endfacet
  facet normal 0 -1 -0
    outer loop
      vertex 0 4 6
      vertex -6 4 0
      vertex 0 4 0
    endloop
  endfacet
endsolid OpenSCAD_Model
