solid OpenSCAD_Model
  facet normal 1 -0 0
    outer loop
      vertex 125 0 0.0999994
      vertex 125 18 -0.5
      vertex 125 18 0.0999994
    endloop
  endfacet
  facet normal 1 0 0
    outer loop
      vertex 125 18 -0.5
      vertex 125 0 0.0999994
      vertex 125 0 -0.5
    endloop
  endfacet
  facet normal -1 0 0
    outer loop
      vertex 0 0 -0.5
      vertex 0 18 0.0999994
      vertex 0 18 -0.5
    endloop
  endfacet
  facet normal -1 -0 0
    outer loop
      vertex 0 18 0.0999994
      vertex 0 0 -0.5
      vertex 0 0 0.0999994
    endloop
  endfacet
  facet normal -0.894427 0 0.447213
    outer loop
      vertex 0 18 0.0999994
      vertex 1 1 2.1
      vertex 1 17 2.1
    endloop
  endfacet
  facet normal -0.894427 0 0.447213
    outer loop
      vertex 1 1 2.1
      vertex 0 18 0.0999994
      vertex 0 0 0.0999994
    endloop
  endfacet
  facet normal -0 0 1
    outer loop
      vertex 93 15 0
      vertex 109 3 0
      vertex 109 15 0
    endloop
  endfacet
  facet normal 0 0 1
    outer loop
      vertex 109 3 0
      vertex 93 15 0
      vertex 93 3 0
    endloop
  endfacet
  facet normal -0 0 1
    outer loop
      vertex 15 15 0
      vertex 33 3 0
      vertex 33 15 0
    endloop
  endfacet
  facet normal 0 0 1
    outer loop
      vertex 33 3 0
      vertex 15 15 0
      vertex 15 3 0
    endloop
  endfacet
  facet normal 0 1 -0
    outer loop
      vertex 125 18 -0.5
      vertex 0 18 0.0999994
      vertex 125 18 0.0999994
    endloop
  endfacet
  facet normal 0 1 0
    outer loop
      vertex 0 18 0.0999994
      vertex 125 18 -0.5
      vertex 0 18 -0.5
    endloop
  endfacet
  facet normal 0 0 1
    outer loop
      vertex 6 7.4787 2.1
      vertex 5 7.4787 2.1
      vertex 6 1.08685 2.1
    endloop
  endfacet
  facet normal 0 0 1
    outer loop
      vertex 116 7.4787 2.1
      vertex 115 7.4787 2.1
      vertex 116 1.08685 2.1
    endloop
  endfacet
  facet normal 0 0 1
    outer loop
      vertex 124 17 2.1
      vertex 119 10.525 2.1
      vertex 124 1 2.1
    endloop
  endfacet
  facet normal -0 0 1
    outer loop
      vertex 110.68 15.84 2.1
      vertex 119 10.525 2.1
      vertex 124 17 2.1
    endloop
  endfacet
  facet normal 0 0 1
    outer loop
      vertex 115 10.525 2.1
      vertex 110.68 15.84 2.1
      vertex 115 7.4787 2.1
    endloop
  endfacet
  facet normal 0 0 1
    outer loop
      vertex 119 10.525 2.1
      vertex 110.68 15.84 2.1
      vertex 115 10.525 2.1
    endloop
  endfacet
  facet normal 0 0 1
    outer loop
      vertex 124 17 2.1
      vertex 78 15.84 2.1
      vertex 110.68 15.84 2.1
    endloop
  endfacet
  facet normal 0 0 1
    outer loop
      vertex 78 15.84 2.1
      vertex 48 15.84 2.1
      vertex 78 2.16 2.1
    endloop
  endfacet
  facet normal 0 0 1
    outer loop
      vertex 124 17 2.1
      vertex 48 15.84 2.1
      vertex 78 15.84 2.1
    endloop
  endfacet
  facet normal -0 0 1
    outer loop
      vertex 1 17 2.1
      vertex 48 15.84 2.1
      vertex 124 17 2.1
    endloop
  endfacet
  facet normal 0 0 1
    outer loop
      vertex 14.16 15.84 2.1
      vertex 9 10.525 2.1
      vertex 14.16 2.16 2.1
    endloop
  endfacet
  facet normal 0 0 1
    outer loop
      vertex 1 17 2.1
      vertex 9 10.525 2.1
      vertex 14.16 15.84 2.1
    endloop
  endfacet
  facet normal 0 0 1
    outer loop
      vertex 5 10.525 2.1
      vertex 1 17 2.1
      vertex 5 7.4787 2.1
    endloop
  endfacet
  facet normal 0 0 1
    outer loop
      vertex 9 10.525 2.1
      vertex 1 17 2.1
      vertex 5 10.525 2.1
    endloop
  endfacet
  facet normal 0 0 1
    outer loop
      vertex 48 15.84 2.1
      vertex 1 17 2.1
      vertex 14.16 15.84 2.1
    endloop
  endfacet
  facet normal -0 0 1
    outer loop
      vertex 119 7.4787 2.1
      vertex 124 1 2.1
      vertex 119 10.525 2.1
    endloop
  endfacet
  facet normal 0 0 1
    outer loop
      vertex 118 1.08685 2.1
      vertex 119 7.4787 2.1
      vertex 118 7.4787 2.1
    endloop
  endfacet
  facet normal 0 0 1
    outer loop
      vertex 119 7.4787 2.1
      vertex 118 1.08685 2.1
      vertex 124 1 2.1
    endloop
  endfacet
  facet normal -0 0 1
    outer loop
      vertex 116 1.08685 2.1
      vertex 124 1 2.1
      vertex 118 1.08685 2.1
    endloop
  endfacet
  facet normal 0 0 1
    outer loop
      vertex 110.68 2.16 2.1
      vertex 115 7.4787 2.1
      vertex 110.68 15.84 2.1
    endloop
  endfacet
  facet normal 0 0 1
    outer loop
      vertex 115 7.4787 2.1
      vertex 110.68 2.16 2.1
      vertex 116 1.08685 2.1
    endloop
  endfacet
  facet normal -0 0 1
    outer loop
      vertex 78 2.16 2.1
      vertex 116 1.08685 2.1
      vertex 110.68 2.16 2.1
    endloop
  endfacet
  facet normal 0 0 1
    outer loop
      vertex 48 2.16 2.1
      vertex 78 2.16 2.1
      vertex 48 15.84 2.1
    endloop
  endfacet
  facet normal -0 0 1
    outer loop
      vertex 48 2.16 2.1
      vertex 116 1.08685 2.1
      vertex 78 2.16 2.1
    endloop
  endfacet
  facet normal 0 0 1
    outer loop
      vertex 8 1.08685 2.1
      vertex 48 2.16 2.1
      vertex 14.16 2.16 2.1
    endloop
  endfacet
  facet normal 0 0 1
    outer loop
      vertex 48 2.16 2.1
      vertex 8 1.08685 2.1
      vertex 116 1.08685 2.1
    endloop
  endfacet
  facet normal -0 0 1
    outer loop
      vertex 9 7.4787 2.1
      vertex 14.16 2.16 2.1
      vertex 9 10.525 2.1
    endloop
  endfacet
  facet normal 0 0 1
    outer loop
      vertex 8 1.08685 2.1
      vertex 9 7.4787 2.1
      vertex 8 7.4787 2.1
    endloop
  endfacet
  facet normal 0 0 1
    outer loop
      vertex 9 7.4787 2.1
      vertex 8 1.08685 2.1
      vertex 14.16 2.16 2.1
    endloop
  endfacet
  facet normal 0 0 1
    outer loop
      vertex 116 1.08685 2.1
      vertex 8 1.08685 2.1
      vertex 124 1 2.1
    endloop
  endfacet
  facet normal 0 0 1
    outer loop
      vertex 1 1 2.1
      vertex 8 1.08685 2.1
      vertex 6 1.08685 2.1
    endloop
  endfacet
  facet normal 0 0 1
    outer loop
      vertex 1 1 2.1
      vertex 5 7.4787 2.1
      vertex 1 17 2.1
    endloop
  endfacet
  facet normal 0 0 1
    outer loop
      vertex 8 1.08685 2.1
      vertex 1 1 2.1
      vertex 124 1 2.1
    endloop
  endfacet
  facet normal 0 0 1
    outer loop
      vertex 5 7.4787 2.1
      vertex 1 1 2.1
      vertex 6 1.08685 2.1
    endloop
  endfacet
  facet normal 0 -0.894427 0.447213
    outer loop
      vertex 0 0 0.0999994
      vertex 124 1 2.1
      vertex 1 1 2.1
    endloop
  endfacet
  facet normal 0 -0.894427 0.447213
    outer loop
      vertex 124 1 2.1
      vertex 0 0 0.0999994
      vertex 125 0 0.0999994
    endloop
  endfacet
  facet normal 0 -1 0
    outer loop
      vertex 0 0 -0.5
      vertex 125 0 0.0999994
      vertex 0 0 0.0999994
    endloop
  endfacet
  facet normal 0 -1 -0
    outer loop
      vertex 125 0 0.0999994
      vertex 0 0 -0.5
      vertex 125 0 -0.5
    endloop
  endfacet
  facet normal 0 0.894427 0.447213
    outer loop
      vertex 125 18 0.0999994
      vertex 1 17 2.1
      vertex 124 17 2.1
    endloop
  endfacet
  facet normal 0 0.894427 0.447213
    outer loop
      vertex 1 17 2.1
      vertex 125 18 0.0999994
      vertex 0 18 0.0999994
    endloop
  endfacet
  facet normal 0.894427 -0 0.447213
    outer loop
      vertex 124 1 2.1
      vertex 125 18 0.0999994
      vertex 124 17 2.1
    endloop
  endfacet
  facet normal 0.894427 0 0.447213
    outer loop
      vertex 125 18 0.0999994
      vertex 124 1 2.1
      vertex 125 0 0.0999994
    endloop
  endfacet
  facet normal -0.780869 0 0.624695
    outer loop
      vertex 109 3 0
      vertex 110.68 15.84 2.1
      vertex 109 15 0
    endloop
  endfacet
  facet normal -0.780869 0 0.624695
    outer loop
      vertex 110.68 15.84 2.1
      vertex 109 3 0
      vertex 110.68 2.16 2.1
    endloop
  endfacet
  facet normal 0 0.928477 0.371391
    outer loop
      vertex 110.68 2.16 2.1
      vertex 93 2.96 0.0999994
      vertex 78 2.16 2.1
    endloop
  endfacet
  facet normal -1.38579e-08 0.928477 0.371391
    outer loop
      vertex 109 3 0
      vertex 93 2.96 0.0999994
      vertex 110.68 2.16 2.1
    endloop
  endfacet
  facet normal 0 0.928476 0.371393
    outer loop
      vertex 93 2.96 0.0999994
      vertex 109 3 0
      vertex 93 3 0
    endloop
  endfacet
  facet normal 0 0.928477 0.371391
    outer loop
      vertex 33 2.96 0.0999994
      vertex 14.16 2.16 2.1
      vertex 48 2.16 2.1
    endloop
  endfacet
  facet normal -0 0.928476 0.371393
    outer loop
      vertex 15 3 0
      vertex 33 2.96 0.0999994
      vertex 33 3 0
    endloop
  endfacet
  facet normal 1.23522e-08 0.928477 0.371391
    outer loop
      vertex 33 2.96 0.0999994
      vertex 15 3 0
      vertex 14.16 2.16 2.1
    endloop
  endfacet
  facet normal 0 -0.928477 0.371391
    outer loop
      vertex 93 15.04 0.0999994
      vertex 110.68 15.84 2.1
      vertex 78 15.84 2.1
    endloop
  endfacet
  facet normal 0 -0.928476 0.371393
    outer loop
      vertex 109 15 0
      vertex 93 15.04 0.0999994
      vertex 93 15 0
    endloop
  endfacet
  facet normal -1.38579e-08 -0.928477 0.371391
    outer loop
      vertex 93 15.04 0.0999994
      vertex 109 15 0
      vertex 110.68 15.84 2.1
    endloop
  endfacet
  facet normal 0 -0.928477 0.371391
    outer loop
      vertex 14.16 15.84 2.1
      vertex 33 15.04 0.0999994
      vertex 48 15.84 2.1
    endloop
  endfacet
  facet normal 1.23522e-08 -0.928477 0.371391
    outer loop
      vertex 15 15 0
      vertex 33 15.04 0.0999994
      vertex 14.16 15.84 2.1
    endloop
  endfacet
  facet normal 0 -0.928476 0.371393
    outer loop
      vertex 33 15.04 0.0999994
      vertex 15 15 0
      vertex 33 15 0
    endloop
  endfacet
  facet normal 0.928477 0 0.371391
    outer loop
      vertex 14.16 15.84 2.1
      vertex 15 3 0
      vertex 15 15 0
    endloop
  endfacet
  facet normal 0.928477 0 0.371391
    outer loop
      vertex 15 3 0
      vertex 14.16 15.84 2.1
      vertex 14.16 2.16 2.1
    endloop
  endfacet
  facet normal 1 -0 0
    outer loop
      vertex 9 8 27.5
      vertex 9 25 24.5
      vertex 9 25 27.5
    endloop
  endfacet
  facet normal 1 0 0
    outer loop
      vertex 9 8 27.5
      vertex 9 6.57526 24.5
      vertex 9 25 24.5
    endloop
  endfacet
  facet normal 1 0 -0
    outer loop
      vertex 9 6.57526 24.5
      vertex 9 8 27.5
      vertex 9 6 27.5
    endloop
  endfacet
  facet normal 1 0 0
    outer loop
      vertex 9 6.57526 24.5
      vertex 9 7.4787 2.1
      vertex 9 10.525 2.1
    endloop
  endfacet
  facet normal 1 -0 0
    outer loop
      vertex 9 3.27719 25.928
      vertex 9 6.57526 24.5
      vertex 9 6 27.5
    endloop
  endfacet
  facet normal 1 0 0
    outer loop
      vertex 9 6.57526 24.5
      vertex 9 3.27719 25.928
      vertex 9 7.4787 2.1
    endloop
  endfacet
  facet normal 0 1 -0
    outer loop
      vertex 9 25 24.5
      vertex 5 25 27.5
      vertex 9 25 27.5
    endloop
  endfacet
  facet normal 0 1 0
    outer loop
      vertex 5 25 27.5
      vertex 9 25 24.5
      vertex 5 25 24.5
    endloop
  endfacet
  facet normal -1 0 0
    outer loop
      vertex 5 7.4787 2.1
      vertex 5 6.57526 24.5
      vertex 5 10.525 2.1
    endloop
  endfacet
  facet normal -1 0 0
    outer loop
      vertex 5 3.27719 25.928
      vertex 5 6.57526 24.5
      vertex 5 7.4787 2.1
    endloop
  endfacet
  facet normal -1 0 0
    outer loop
      vertex 5 6.57526 24.5
      vertex 5 3.27719 25.928
      vertex 5 6 27.5
    endloop
  endfacet
  facet normal -1 0 0
    outer loop
      vertex 5 25 24.5
      vertex 5 8 27.5
      vertex 5 25 27.5
    endloop
  endfacet
  facet normal -1 0 0
    outer loop
      vertex 5 6.57526 24.5
      vertex 5 8 27.5
      vertex 5 25 24.5
    endloop
  endfacet
  facet normal -1 -0 0
    outer loop
      vertex 5 8 27.5
      vertex 5 6.57526 24.5
      vertex 5 6 27.5
    endloop
  endfacet
  facet normal 0 0 -1
    outer loop
      vertex 5 6.57526 24.5
      vertex 9 25 24.5
      vertex 9 6.57526 24.5
    endloop
  endfacet
  facet normal -0 0 -1
    outer loop
      vertex 9 25 24.5
      vertex 5 6.57526 24.5
      vertex 5 25 24.5
    endloop
  endfacet
  facet normal -0 0 1
    outer loop
      vertex 5 25 27.5
      vertex 9 8 27.5
      vertex 9 25 27.5
    endloop
  endfacet
  facet normal 0 0 1
    outer loop
      vertex 9 8 27.5
      vertex 5 25 27.5
      vertex 5 8 27.5
    endloop
  endfacet
  facet normal -0 0 1
    outer loop
      vertex 5 8 27.5
      vertex 9 6 27.5
      vertex 9 8 27.5
    endloop
  endfacet
  facet normal 0 0 1
    outer loop
      vertex 9 6 27.5
      vertex 5 8 27.5
      vertex 5 6 27.5
    endloop
  endfacet
  facet normal 0 0.984808 0.173649
    outer loop
      vertex 9 10.525 2.1
      vertex 5 6.57526 24.5
      vertex 9 6.57526 24.5
    endloop
  endfacet
  facet normal 0 0.984808 0.173649
    outer loop
      vertex 5 6.57526 24.5
      vertex 9 10.525 2.1
      vertex 5 10.525 2.1
    endloop
  endfacet
  facet normal 0 -0.984808 -0.173646
    outer loop
      vertex 5 3.27719 25.928
      vertex 6 4.13136 21.0837
      vertex 9 3.27719 25.928
    endloop
  endfacet
  facet normal -8.76743e-06 -0.984808 -0.173648
    outer loop
      vertex 5 7.4787 2.1
      vertex 6 4.13136 21.0837
      vertex 5 3.27719 25.928
    endloop
  endfacet
  facet normal 0 -0.984808 -0.173648
    outer loop
      vertex 6 4.13136 21.0837
      vertex 5 7.4787 2.1
      vertex 6 7.4787 2.1
    endloop
  endfacet
  facet normal -0 -0.984808 -0.173646
    outer loop
      vertex 8 4.13136 21.0837
      vertex 9 3.27719 25.928
      vertex 6 4.13136 21.0837
    endloop
  endfacet
  facet normal -0 -0.984808 -0.173648
    outer loop
      vertex 9 7.4787 2.1
      vertex 8 4.13136 21.0837
      vertex 8 7.4787 2.1
    endloop
  endfacet
  facet normal 8.76743e-06 -0.984808 -0.173648
    outer loop
      vertex 8 4.13136 21.0837
      vertex 9 7.4787 2.1
      vertex 9 3.27719 25.928
    endloop
  endfacet
  facet normal 0 -0.499996 0.866027
    outer loop
      vertex 5 6 27.5
      vertex 9 3.27719 25.928
      vertex 9 6 27.5
    endloop
  endfacet
  facet normal 0 -0.499996 0.866027
    outer loop
      vertex 9 3.27719 25.928
      vertex 5 6 27.5
      vertex 5 3.27719 25.928
    endloop
  endfacet
  facet normal 0 -0.987383 0.158351
    outer loop
      vertex 6 1.08685 2.1
      vertex 8 4.13136 21.0837
      vertex 6 4.13136 21.0837
    endloop
  endfacet
  facet normal 0 -0.987383 0.158351
    outer loop
      vertex 8 4.13136 21.0837
      vertex 6 1.08685 2.1
      vertex 8 1.08685 2.1
    endloop
  endfacet
  facet normal 0 0 -1
    outer loop
      vertex 0 0 -0.5
      vertex 125 18 -0.5
      vertex 125 0 -0.5
    endloop
  endfacet
  facet normal -0 0 -1
    outer loop
      vertex 125 18 -0.5
      vertex 0 0 -0.5
      vertex 0 18 -0.5
    endloop
  endfacet
  facet normal -1 0 0
    outer loop
      vertex 6 7.4787 2.1
      vertex 6 1.08685 2.1
      vertex 6 4.13136 21.0837
    endloop
  endfacet
  facet normal 1 0 0
    outer loop
      vertex 8 4.13136 21.0837
      vertex 8 1.08685 2.1
      vertex 8 7.4787 2.1
    endloop
  endfacet
  facet normal 1 -0 0
    outer loop
      vertex 119 8 27.5
      vertex 119 25 24.5
      vertex 119 25 27.5
    endloop
  endfacet
  facet normal 1 0 0
    outer loop
      vertex 119 8 27.5
      vertex 119 6.57526 24.5
      vertex 119 25 24.5
    endloop
  endfacet
  facet normal 1 0 -0
    outer loop
      vertex 119 6.57526 24.5
      vertex 119 8 27.5
      vertex 119 6 27.5
    endloop
  endfacet
  facet normal 1 0 0
    outer loop
      vertex 119 6.57526 24.5
      vertex 119 7.4787 2.1
      vertex 119 10.525 2.1
    endloop
  endfacet
  facet normal 1 -0 0
    outer loop
      vertex 119 3.27719 25.928
      vertex 119 6.57526 24.5
      vertex 119 6 27.5
    endloop
  endfacet
  facet normal 1 0 0
    outer loop
      vertex 119 6.57526 24.5
      vertex 119 3.27719 25.928
      vertex 119 7.4787 2.1
    endloop
  endfacet
  facet normal 0 1 -0
    outer loop
      vertex 119 25 24.5
      vertex 115 25 27.5
      vertex 119 25 27.5
    endloop
  endfacet
  facet normal 0 1 0
    outer loop
      vertex 115 25 27.5
      vertex 119 25 24.5
      vertex 115 25 24.5
    endloop
  endfacet
  facet normal -1 0 0
    outer loop
      vertex 115 7.4787 2.1
      vertex 115 6.57526 24.5
      vertex 115 10.525 2.1
    endloop
  endfacet
  facet normal -1 0 0
    outer loop
      vertex 115 3.27719 25.928
      vertex 115 6.57526 24.5
      vertex 115 7.4787 2.1
    endloop
  endfacet
  facet normal -1 0 0
    outer loop
      vertex 115 6.57526 24.5
      vertex 115 3.27719 25.928
      vertex 115 6 27.5
    endloop
  endfacet
  facet normal -1 0 0
    outer loop
      vertex 115 25 24.5
      vertex 115 8 27.5
      vertex 115 25 27.5
    endloop
  endfacet
  facet normal -1 0 0
    outer loop
      vertex 115 6.57526 24.5
      vertex 115 8 27.5
      vertex 115 25 24.5
    endloop
  endfacet
  facet normal -1 -0 0
    outer loop
      vertex 115 8 27.5
      vertex 115 6.57526 24.5
      vertex 115 6 27.5
    endloop
  endfacet
  facet normal 0 0 -1
    outer loop
      vertex 115 6.57526 24.5
      vertex 119 25 24.5
      vertex 119 6.57526 24.5
    endloop
  endfacet
  facet normal -0 0 -1
    outer loop
      vertex 119 25 24.5
      vertex 115 6.57526 24.5
      vertex 115 25 24.5
    endloop
  endfacet
  facet normal -0 0 1
    outer loop
      vertex 115 25 27.5
      vertex 119 8 27.5
      vertex 119 25 27.5
    endloop
  endfacet
  facet normal 0 0 1
    outer loop
      vertex 119 8 27.5
      vertex 115 25 27.5
      vertex 115 8 27.5
    endloop
  endfacet
  facet normal -0 0 1
    outer loop
      vertex 115 8 27.5
      vertex 119 6 27.5
      vertex 119 8 27.5
    endloop
  endfacet
  facet normal 0 0 1
    outer loop
      vertex 119 6 27.5
      vertex 115 8 27.5
      vertex 115 6 27.5
    endloop
  endfacet
  facet normal 0 0.984808 0.173649
    outer loop
      vertex 119 10.525 2.1
      vertex 115 6.57526 24.5
      vertex 119 6.57526 24.5
    endloop
  endfacet
  facet normal 0 0.984808 0.173649
    outer loop
      vertex 115 6.57526 24.5
      vertex 119 10.525 2.1
      vertex 115 10.525 2.1
    endloop
  endfacet
  facet normal 0 -0.984808 -0.173646
    outer loop
      vertex 115 3.27719 25.928
      vertex 116 4.13136 21.0837
      vertex 119 3.27719 25.928
    endloop
  endfacet
  facet normal -8.76743e-06 -0.984808 -0.173648
    outer loop
      vertex 115 7.4787 2.1
      vertex 116 4.13136 21.0837
      vertex 115 3.27719 25.928
    endloop
  endfacet
  facet normal 0 -0.984808 -0.173648
    outer loop
      vertex 116 4.13136 21.0837
      vertex 115 7.4787 2.1
      vertex 116 7.4787 2.1
    endloop
  endfacet
  facet normal -0 -0.984808 -0.173646
    outer loop
      vertex 118 4.13136 21.0837
      vertex 119 3.27719 25.928
      vertex 116 4.13136 21.0837
    endloop
  endfacet
  facet normal -0 -0.984808 -0.173648
    outer loop
      vertex 119 7.4787 2.1
      vertex 118 4.13136 21.0837
      vertex 118 7.4787 2.1
    endloop
  endfacet
  facet normal 8.76743e-06 -0.984808 -0.173648
    outer loop
      vertex 118 4.13136 21.0837
      vertex 119 7.4787 2.1
      vertex 119 3.27719 25.928
    endloop
  endfacet
  facet normal 0 -0.499996 0.866027
    outer loop
      vertex 115 6 27.5
      vertex 119 3.27719 25.928
      vertex 119 6 27.5
    endloop
  endfacet
  facet normal 0 -0.499996 0.866027
    outer loop
      vertex 119 3.27719 25.928
      vertex 115 6 27.5
      vertex 115 3.27719 25.928
    endloop
  endfacet
  facet normal 0 -0.987383 0.158351
    outer loop
      vertex 116 1.08685 2.1
      vertex 118 4.13136 21.0837
      vertex 116 4.13136 21.0837
    endloop
  endfacet
  facet normal 0 -0.987383 0.158351
    outer loop
      vertex 118 4.13136 21.0837
      vertex 116 1.08685 2.1
      vertex 118 1.08685 2.1
    endloop
  endfacet
  facet normal -1 0 0
    outer loop
      vertex 116 7.4787 2.1
      vertex 116 1.08685 2.1
      vertex 116 4.13136 21.0837
    endloop
  endfacet
  facet normal 1 0 0
    outer loop
      vertex 118 4.13136 21.0837
      vertex 118 1.08685 2.1
      vertex 118 7.4787 2.1
    endloop
  endfacet
  facet normal 0.132164 0 0.991228
    outer loop
      vertex 78 15.84 2.1
      vertex 93 2.96 0.0999994
      vertex 93 15.04 0.0999994
    endloop
  endfacet
  facet normal 0.132164 0 0.991228
    outer loop
      vertex 93 2.96 0.0999994
      vertex 78 15.84 2.1
      vertex 78 2.16 2.1
    endloop
  endfacet
  facet normal 1 0 0
    outer loop
      vertex 93 15.04 0.0999994
      vertex 93 3 0
      vertex 93 15 0
    endloop
  endfacet
  facet normal 1 0 -0
    outer loop
      vertex 93 3 0
      vertex 93 15.04 0.0999994
      vertex 93 2.96 0.0999994
    endloop
  endfacet
  facet normal -0.132164 0 0.991228
    outer loop
      vertex 33 15.04 0.0999994
      vertex 48 2.16 2.1
      vertex 48 15.84 2.1
    endloop
  endfacet
  facet normal -0.132164 0 0.991228
    outer loop
      vertex 48 2.16 2.1
      vertex 33 15.04 0.0999994
      vertex 33 2.96 0.0999994
    endloop
  endfacet
  facet normal -1 0 0
    outer loop
      vertex 33 3 0
      vertex 33 15.04 0.0999994
      vertex 33 15 0
    endloop
  endfacet
  facet normal -1 -0 0
    outer loop
      vertex 33 15.04 0.0999994
      vertex 33 3 0
      vertex 33 2.96 0.0999994
    endloop
  endfacet
endsolid OpenSCAD_Model
