solid OpenSCAD_Model
  facet normal 0 0.83205 0.5547
    outer loop
      vertex 60 80 0.599999
      vertex 1 79 2.1
      vertex 59 79 2.1
    endloop
  endfacet
  facet normal 0 0.83205 0.5547
    outer loop
      vertex 1 79 2.1
      vertex 60 80 0.599999
      vertex 0 80 0.599999
    endloop
  endfacet
  facet normal 1 -0 0
    outer loop
      vertex 60 0 0.599999
      vertex 60 80 0
      vertex 60 80 0.599999
    endloop
  endfacet
  facet normal 1 0 0
    outer loop
      vertex 60 80 0
      vertex 60 0 0.599999
      vertex 60 0 0
    endloop
  endfacet
  facet normal -0 0 1
    outer loop
      vertex 1 65 2.1
      vertex 59 15 2.1
      vertex 59 65 2.1
    endloop
  endfacet
  facet normal 0 0 1
    outer loop
      vertex 59 15 2.1
      vertex 1 65 2.1
      vertex 1 15 2.1
    endloop
  endfacet
  facet normal 0.83205 -0 0.5547
    outer loop
      vertex 59 65 2.1
      vertex 60 80 0.599999
      vertex 59 79 2.1
    endloop
  endfacet
  facet normal 0.83205 -0 0.5547
    outer loop
      vertex 59 15 2.1
      vertex 60 80 0.599999
      vertex 59 65 2.1
    endloop
  endfacet
  facet normal 0.83205 0 0.5547
    outer loop
      vertex 60 0 0.599999
      vertex 59 15 2.1
      vertex 59 1 2.1
    endloop
  endfacet
  facet normal 0.83205 0 0.5547
    outer loop
      vertex 59 15 2.1
      vertex 60 0 0.599999
      vertex 60 80 0.599999
    endloop
  endfacet
  facet normal -0.83205 0 0.5547
    outer loop
      vertex 0 80 0.599999
      vertex 1 65 2.1
      vertex 1 79 2.1
    endloop
  endfacet
  facet normal -0.83205 0 0.5547
    outer loop
      vertex 0 80 0.599999
      vertex 1 15 2.1
      vertex 1 65 2.1
    endloop
  endfacet
  facet normal -0.83205 0 0.5547
    outer loop
      vertex 0 0 0.599999
      vertex 1 15 2.1
      vertex 0 80 0.599999
    endloop
  endfacet
  facet normal -0.83205 0 0.5547
    outer loop
      vertex 1 15 2.1
      vertex 0 0 0.599999
      vertex 1 1 2.1
    endloop
  endfacet
  facet normal -0 0 1
    outer loop
      vertex 2 14 0.5
      vertex 58 2 0.5
      vertex 58 14 0.5
    endloop
  endfacet
  facet normal 0 0 1
    outer loop
      vertex 58 2 0.5
      vertex 2 14 0.5
      vertex 2 2 0.5
    endloop
  endfacet
  facet normal -0 0 1
    outer loop
      vertex 2 78 0.5
      vertex 58 66 0.5
      vertex 58 78 0.5
    endloop
  endfacet
  facet normal 0 0 1
    outer loop
      vertex 58 66 0.5
      vertex 2 78 0.5
      vertex 2 66 0.5
    endloop
  endfacet
  facet normal 0 -1 0
    outer loop
      vertex 0 0 0
      vertex 60 0 0.599999
      vertex 0 0 0.599999
    endloop
  endfacet
  facet normal 0 -1 -0
    outer loop
      vertex 60 0 0.599999
      vertex 0 0 0
      vertex 60 0 0
    endloop
  endfacet
  facet normal 0 1 -0
    outer loop
      vertex 60 80 0
      vertex 0 80 0.599999
      vertex 60 80 0.599999
    endloop
  endfacet
  facet normal 0 1 0
    outer loop
      vertex 0 80 0.599999
      vertex 60 80 0
      vertex 0 80 0
    endloop
  endfacet
  facet normal -1 0 0
    outer loop
      vertex 0 0 0
      vertex 0 80 0.599999
      vertex 0 80 0
    endloop
  endfacet
  facet normal -1 -0 0
    outer loop
      vertex 0 80 0.599999
      vertex 0 0 0
      vertex 0 0 0.599999
    endloop
  endfacet
  facet normal 0 -0.83205 0.5547
    outer loop
      vertex 0 0 0.599999
      vertex 59 1 2.1
      vertex 1 1 2.1
    endloop
  endfacet
  facet normal 0 -0.83205 0.5547
    outer loop
      vertex 59 1 2.1
      vertex 0 0 0.599999
      vertex 60 0 0.599999
    endloop
  endfacet
  facet normal 0 -1 0
    outer loop
      vertex 1 15 2
      vertex 59 15 2.1
      vertex 1 15 2.1
    endloop
  endfacet
  facet normal 0 -1 -0
    outer loop
      vertex 59 15 2.1
      vertex 1 15 2
      vertex 59 15 2
    endloop
  endfacet
  facet normal -0.83205 0 0.5547
    outer loop
      vertex 58 2 0.5
      vertex 59 15 2
      vertex 58 14 0.5
    endloop
  endfacet
  facet normal -0.83205 0 0.5547
    outer loop
      vertex 59 15 2
      vertex 58 2 0.5
      vertex 59 1 2
    endloop
  endfacet
  facet normal 1 -0 0
    outer loop
      vertex 1 1 2.1
      vertex 1 15 2
      vertex 1 15 2.1
    endloop
  endfacet
  facet normal 1 0 0
    outer loop
      vertex 1 15 2
      vertex 1 1 2.1
      vertex 1 1 2
    endloop
  endfacet
  facet normal 0 0.83205 0.5547
    outer loop
      vertex 58 2 0.5
      vertex 1 1 2
      vertex 59 1 2
    endloop
  endfacet
  facet normal 0 0.83205 0.5547
    outer loop
      vertex 1 1 2
      vertex 58 2 0.5
      vertex 2 2 0.5
    endloop
  endfacet
  facet normal 0 -0.83205 0.5547
    outer loop
      vertex 2 14 0.5
      vertex 59 15 2
      vertex 1 15 2
    endloop
  endfacet
  facet normal 0 -0.83205 0.5547
    outer loop
      vertex 59 15 2
      vertex 2 14 0.5
      vertex 58 14 0.5
    endloop
  endfacet
  facet normal 0.83205 0 0.5547
    outer loop
      vertex 1 15 2
      vertex 2 2 0.5
      vertex 2 14 0.5
    endloop
  endfacet
  facet normal 0.83205 0 0.5547
    outer loop
      vertex 2 2 0.5
      vertex 1 15 2
      vertex 1 1 2
    endloop
  endfacet
  facet normal 0 1 -0
    outer loop
      vertex 59 1 2
      vertex 1 1 2.1
      vertex 59 1 2.1
    endloop
  endfacet
  facet normal 0 1 0
    outer loop
      vertex 1 1 2.1
      vertex 59 1 2
      vertex 1 1 2
    endloop
  endfacet
  facet normal -1 0 0
    outer loop
      vertex 59 1 2
      vertex 59 15 2.1
      vertex 59 15 2
    endloop
  endfacet
  facet normal -1 -0 0
    outer loop
      vertex 59 15 2.1
      vertex 59 1 2
      vertex 59 1 2.1
    endloop
  endfacet
  facet normal -0.83205 0 0.5547
    outer loop
      vertex 58 66 0.5
      vertex 59 79 2
      vertex 58 78 0.5
    endloop
  endfacet
  facet normal -0.83205 0 0.5547
    outer loop
      vertex 59 79 2
      vertex 58 66 0.5
      vertex 59 65 2
    endloop
  endfacet
  facet normal 1 -0 0
    outer loop
      vertex 1 65 2.1
      vertex 1 79 2
      vertex 1 79 2.1
    endloop
  endfacet
  facet normal 1 0 0
    outer loop
      vertex 1 79 2
      vertex 1 65 2.1
      vertex 1 65 2
    endloop
  endfacet
  facet normal 0 0.83205 0.5547
    outer loop
      vertex 58 66 0.5
      vertex 1 65 2
      vertex 59 65 2
    endloop
  endfacet
  facet normal 0 0.83205 0.5547
    outer loop
      vertex 1 65 2
      vertex 58 66 0.5
      vertex 2 66 0.5
    endloop
  endfacet
  facet normal 0 -0.83205 0.5547
    outer loop
      vertex 2 78 0.5
      vertex 59 79 2
      vertex 1 79 2
    endloop
  endfacet
  facet normal 0 -0.83205 0.5547
    outer loop
      vertex 59 79 2
      vertex 2 78 0.5
      vertex 58 78 0.5
    endloop
  endfacet
  facet normal 0.83205 0 0.5547
    outer loop
      vertex 1 79 2
      vertex 2 66 0.5
      vertex 2 78 0.5
    endloop
  endfacet
  facet normal 0.83205 0 0.5547
    outer loop
      vertex 2 66 0.5
      vertex 1 79 2
      vertex 1 65 2
    endloop
  endfacet
  facet normal 0 1 -0
    outer loop
      vertex 59 65 2
      vertex 1 65 2.1
      vertex 59 65 2.1
    endloop
  endfacet
  facet normal 0 1 0
    outer loop
      vertex 1 65 2.1
      vertex 59 65 2
      vertex 1 65 2
    endloop
  endfacet
  facet normal 0 -1 0
    outer loop
      vertex 1 79 2
      vertex 59 79 2.1
      vertex 1 79 2.1
    endloop
  endfacet
  facet normal 0 -1 -0
    outer loop
      vertex 59 79 2.1
      vertex 1 79 2
      vertex 59 79 2
    endloop
  endfacet
  facet normal -1 0 0
    outer loop
      vertex 59 65 2
      vertex 59 79 2.1
      vertex 59 79 2
    endloop
  endfacet
  facet normal -1 -0 0
    outer loop
      vertex 59 79 2.1
      vertex 59 65 2
      vertex 59 65 2.1
    endloop
  endfacet
  facet normal 0 0 -1
    outer loop
      vertex 0 0 0
      vertex 60 80 0
      vertex 60 0 0
    endloop
  endfacet
  facet normal -0 0 -1
    outer loop
      vertex 60 80 0
      vertex 0 0 0
      vertex 0 80 0
    endloop
  endfacet
endsolid OpenSCAD_Model
